<svg width="24" height="24" xmlns="http://www.w3.org/2000/svg" fill-rule="evenodd" clip-rule="evenodd"><path d="M5 18h-1c-.552 0-1-.448-1-1v-2h12v-9h4.667c1.117 0 1.6.576 1.936 1.107.594.94 1.536 2.432 2.109 3.378.188.312.288.67.288 1.035v4.48c0 1.121-.728 2-2 2h-1c0 1.656-1.344 3-3 3s-3-1.344-3-3h-4c0 1.656-1.344 3-3 3s-3-1.344-3-3zm3-1.2c.662 0 1.2.538 1.2 1.2 0 .662-.538 1.2-1.2 1.2-.662 0-1.2-.538-1.2-1.2 0-.662.538-1.2 1.2-1.2zm10 0c.662 0 1.2.538 1.2 1.2 0 .662-.538 1.2-1.2 1.2-.662 0-1.2-.538-1.2-1.2 0-.662.538-1.2 1.2-1.2zm-10-8.8h-8v-2h8v-1h-5v-1c0-.552.448-1 1-1h9c.552 0 1 .448 1 1v10h-11v-3h-2v-2h7v-1zm9 0v3h4.715l-1.427-2.496c-.178-.312-.509-.504-.868-.504h-2.42z"/></svg>