<svg xmlns="http://www.w3.org/2000/svg" width="24" height="24" viewBox="0 0 24 24"><path d="M18.604 16.111c.018.276.048.531.092.758-.583.106-.606-.469-.092-.758zm-4.354.16h.996l-.498-1.43-.498 1.43zM17 10.166c3.697 0 7 2.465 7 5.837 0 1.196-.432 2.37-1.193 3.281-.033 1.068.596 2.6 1.162 3.715-1.518-.274-3.676-.88-4.654-1.48C13.928 22.832 10 19.535 10 16.003c0-3.39 3.326-5.837 7-5.837zm-.437 7.584l-1.44-3.792h-.76l-1.447 3.792h.812l.312-.875h1.422l.313.875h.788zm3.988-2.296l.079-.353-.642-.125-.064.292a2.739 2.739 0 0 0-.679-.012l.028-.458h.717v-.608h-.631l.084-.335-.627-.188a4.406 4.406 0 0 0-.123.523h-.715v.608h.638a8.45 8.45 0 0 0-.03.605c-.704.259-1.002.751-1.002 1.198 0 .528.416.992 1.074.932.817-.074 1.362-.691 1.682-1.45.332.19.471.511.346.807-.115.275-.455.536-1.104.523v.654c.721.011 1.429-.262 1.707-.923.27-.647-.041-1.352-.738-1.69zm-1.25 1.073a2.25 2.25 0 0 0 .407-.626 2.115 2.115 0 0 0-.462.012c.011.22.028.425.055.614zM8.809 19.23a8.303 8.303 0 0 1-4.827-2.478c-.182-.189-.315-.636-.019-.819l.302-.078c.235-.199-.221-1.009-.04-1.14.561-.401.295-.893-.051-1.299-.146-.172-.948-1-1.038-.853.067-.226-.146-.772-.274-.987-.217-.362-.502-.585-.617-.982-.046-.158-.046-.64-.139-.751-.038-.045-.327-.167-.317-.233a8.305 8.305 0 0 1 2.149-4.318l.746-.301c.468-.703.495-.158.916-.341.141 0 .301-.578.452-.667.261-.169.062-.169.013-.245-.104-.168 2.191-1.003 2.229-.853.032.127-1.135.734-1.007.716-.296.039-.352.571-.297.568.147-.005 1.074-.704 1.506-.555.423.146 1.183-.336 1.48-.582.149-.125.286-.344.483-.344.909 0 2.268.374 2.579.56.474.283-.204.263-.277.447a2.23 2.23 0 0 1-.249.412c-.102.133-.399.077-.341-.082.059-.167.348-.231-.086-.271-.445-.041-.568-.341-1.014.034-.134.113-.234.286-.321.433-.123.21-.42.201-.544.396-.12.192.07.512.304.371.062-.038.765.645.674.095-.059-.364.196-.612.201-.887.003-.184.28-.066.206.03-.097.121-.203.534.051.554.096.008.339-.158.425-.084-.096-.002-.315.383-.3.376-.108.048-.233-.021-.15.21.074.228-.408.201-.495.247-.037.02-.417-.114-.408-.028-.131-.109.037-.379-.072-.422-.11.168-.058.512-.294.512-.202 0-.482.229-.604.369-.087.097-.609.308-.666.302.299.031.286.25.261.437-.06.433-.995.032-.956.196.038.158-.107.586-.139.724-.029.125.402.205.378.267.002-.007.583-.199.64-.25l.131-.293a1.7 1.7 0 0 1 .35-.179l.149-.258c.05-.02.645-.112.686-.092.149.068.428.353.532.483.036.047.227.117.227.188.069.107-.051.148-.006.223.104.193.132-.401.087-.29 0-.189.142.071.174.049l-.657-.654c-.204-.342.543.183.64.247.096.063.285.629.537.501.158-.08-.004-.139.106-.229l.449-.09c-.357.261.279.602.182.556.16.074.254-.058.354-.021.057.022.663.015.566-.082.151.076.082.748-.044.851-.204.169-1.182.1-1.399-.057-.361-.262-.297.279-.473.352-.344.142-.857-.463-1.218-.482.176.026.015-.445.015-.478-.139-.171-1.02.019-1.252.05-.434.058-.89.052-1.223.324-.234.189-.237.5-.477.651-.156.095-.325.064-.456.189-.234.222-.504.552-.637.845-.054.123.072.416.041.574-.307.967.076 2.308 1.248 2.456.25.032.506.144.759.117 1.332-2.88 4.568-4.92 8.347-4.92.932 0 1.831.124 2.678.354C18.573 4.199 14.666 1 10 1 4.477 1 0 5.477 0 11s4.477 10 10 10l.074-.004a7.771 7.771 0 0 1-1.265-1.766zm4.778-13.035c.068-.008-.089.138-.089.138.027.212.183.327.479.435.36.129.03.375-.176.317-.114-.032-.704-.21-.725.021 0 .138-.56.001-.473-.145.061-.098.041-.319.152-.464.16-.21.313-.096.318.026.002.327.332-.306.514-.328zm-4.532-.292c.08.113.688-.163.591-.146.187-.094.024-.104-.082-.159-.035-.179-.065-.456-.177-.566l.074-.085c-.173-.249-.301.302-.301.302l.09-.026-.042.113c.071.129.019.207.007.277l-.124.077c-.045.055.215.062.217.071.009.028-.313.074-.253.142zm-.396-.286c-.069.071.002.116.073.085.104-.045.244-.044.26-.183l.066-.084c.029-.043-.057-.114-.092-.121l-.124.086-.061.016-.056.072.006.04-.072.089zm2.634 2.107c-.055 0-.369.029-.34.084.178.293.403-.076.34-.084z"/></svg>