<svg xmlns="http://www.w3.org/2000/svg" width="32" height="32"><path d="M15.916873-.03644576C11.891042-.02011852 7.8937646.49100315 5.8138746 1.4499784c0 0-4.4748915 2.0370727-4.4748915 8.9758146 0 8.259582-.006 18.632209 7.4138982 20.638126 2.8416047.763715 5.2852967.928091 7.2498967.8148 3.565336-.201258 5.32874-1.293787 5.32874-1.293787l-.119747-2.634433s-2.31095.814384-5.172548.721084c-2.834942-.09996-5.821555-.312715-6.286715-3.852726-.042651-.329211-.063809-.662545-.062477-.994421 6.007091 1.491443 11.129449.649591 12.539589.478988 3.937196-.478488 7.364604-2.947296 7.801775-5.203786.685077-3.556006.627369-8.673845.627369-8.673845 0-6.9387419-4.467082-8.9758146-4.467082-8.9758146C23.998501.42569421 19.942703-.052773 15.916873-.03644576zM11.608585 5.2558489c1.379319.036986 2.74231.6540891 3.581997 1.9576023l.812196 1.3796927.809594-1.3796927c1.686037-2.6216877 5.464918-2.4581029 7.262913-.429527 1.658048 1.9299466 1.288582 3.1755642 1.288582 11.7976778v.0027h-3.261804v-7.502468c0-3.5120224-4.477494-3.6476594-4.477494.486797v4.347334H14.38359v-4.347334c0-4.1344564-4.4748896-4.0014226-4.4748896-.4894v7.502406H6.6390872c0-8.6287778-.3628019-9.8823923 1.2885814-11.7976778.9056613-1.0209871 2.3015984-1.5650965 3.6809164-1.5281103z"/></svg>