<svg xmlns:xlink="http://www.w3.org/1999/xlink" width="646.65" height="386.986" viewBox="0 0 484.987 290.239" xmlns="http://www.w3.org/2000/svg"><defs><style>*{stroke-linejoin:round;stroke-linecap:butt}</style></defs><g id="figure_1"><path d="M 0 290.239381 L 484.987475 290.239381 L 484.987475 0 L 0 0 L 0 290.239381 z" fill="none" id="patch_1"/><g id="axes_1"><path d="M 150.187475 189.263439 L 484.987475 189.263439 L 484.987475 41.008893 L 150.187475 41.008893 L 150.187475 189.263439 z" fill="none" id="patch_2"/><g id="matplotlib.axis_1"><g id="xtick_1"><path d="M 150.187475 189.263439 L 150.187475 41.008893" clip-path="url(#p67a7a86ce0)" fill="none" stroke="#fff" stroke-width=".8" stroke-linecap="round" id="line2d_1"/></g><g id="xtick_2"><path d="M 188.060778 189.263439 L 188.060778 41.008893" clip-path="url(#p67a7a86ce0)" fill="none" stroke="#fff" stroke-width=".8" stroke-linecap="round" id="line2d_2"/></g><g id="xtick_3"><path d="M 225.934081 189.263439 L 225.934081 41.008893" clip-path="url(#p67a7a86ce0)" fill="none" stroke="#fff" stroke-width=".8" stroke-linecap="round" id="line2d_3"/></g><g id="xtick_4"><path d="M 263.807385 189.263439 L 263.807385 41.008893" clip-path="url(#p67a7a86ce0)" fill="none" stroke="#fff" stroke-width=".8" stroke-linecap="round" id="line2d_4"/></g><g id="xtick_5"><path d="M 301.680688 189.263439 L 301.680688 41.008893" clip-path="url(#p67a7a86ce0)" fill="none" stroke="#fff" stroke-width=".8" stroke-linecap="round" id="line2d_5"/></g><g id="xtick_6"><path d="M 339.553991 189.263439 L 339.553991 41.008893" clip-path="url(#p67a7a86ce0)" fill="none" stroke="#fff" stroke-width=".8" stroke-linecap="round" id="line2d_6"/></g><g id="xtick_7"><path d="M 377.427294 189.263439 L 377.427294 41.008893" clip-path="url(#p67a7a86ce0)" fill="none" stroke="#fff" stroke-width=".8" stroke-linecap="round" id="line2d_7"/></g><g id="xtick_8"><path d="M 415.300597 189.263439 L 415.300597 41.008893" clip-path="url(#p67a7a86ce0)" fill="none" stroke="#fff" stroke-width=".8" stroke-linecap="round" id="line2d_8"/></g><g id="xtick_9"><path d="M 453.1739 189.263439 L 453.1739 41.008893" clip-path="url(#p67a7a86ce0)" fill="none" stroke="#fff" stroke-width=".8" stroke-linecap="round" id="line2d_9"/></g></g><g id="matplotlib.axis_2"><g id="ytick_1"><path d="M 150.187475 58.979141 L 484.987475 58.979141" clip-path="url(#p67a7a86ce0)" fill="none" stroke="#fff" stroke-width=".8" stroke-linecap="round" id="line2d_10"/><g transform="matrix(.0968 0 0 -.0968 103.68 62.61)" fill="#262626" id="text_1"><defs><path id="FiraGO-Regular-53" d="M 1728 4486 C 915 4486 339 4013 339 3334 C 339 2650 787 2323 1645 2061 C 2394 1830 2598 1638 2598 1210 C 2598 678 2170 422 1651 422 C 1171 422 826 595 493 864 L 160 493 C 525 134 1024 -77 1658 -77 C 2650 -77 3232 461 3232 1229 C 3232 2074 2630 2349 1926 2566 C 1133 2810 960 2989 960 3360 C 960 3782 1312 3987 1754 3987 C 2118 3987 2426 3872 2758 3603 L 3091 3974 C 2720 4307 2336 4486 1728 4486 z" transform="scale(.01563)"/><path id="FiraGO-Regular-74" d="M 2086 544 C 1920 454 1786 410 1638 410 C 1344 410 1235 570 1235 909 L 1235 2918 L 1971 2918 L 2035 3373 L 1235 3373 L 1235 4205 L 646 4134 L 646 3373 L 58 3373 L 58 2918 L 646 2918 L 646 883 C 646 256 986 -77 1555 -77 C 1843 -77 2086 0 2310 154 L 2086 544 z" transform="scale(.01563)"/><path id="FiraGO-Regular-61" d="M 2880 787 L 2880 2330 C 2880 3034 2509 3450 1696 3450 C 1318 3450 947 3373 531 3219 L 678 2790 C 1024 2906 1338 2970 1587 2970 C 2054 2970 2291 2790 2291 2304 L 2291 2054 L 1773 2054 C 832 2054 288 1664 288 941 C 288 339 691 -77 1363 -77 C 1773 -77 2131 77 2368 429 C 2470 96 2688 -38 3027 -77 L 3162 333 C 2989 397 2880 493 2880 787 z M 1498 365 C 1114 365 915 576 915 973 C 915 1434 1229 1664 1850 1664 L 2291 1664 L 2291 890 C 2099 538 1843 365 1498 365 z" transform="scale(.01563)"/><path id="FiraGO-Regular-6e" d="M 2176 3450 C 1734 3450 1376 3219 1146 2874 L 1094 3373 L 589 3373 L 589 0 L 1178 0 L 1178 2394 C 1402 2752 1658 2989 2035 2989 C 2362 2989 2566 2842 2566 2336 L 2566 0 L 3155 0 L 3155 2419 C 3155 3059 2797 3450 2176 3450 z" transform="scale(.01563)"/><path id="FiraGO-Regular-64" d="M 2598 4800 L 2598 3034 C 2374 3270 2086 3450 1690 3450 C 864 3450 365 2701 365 1670 C 365 621 819 -77 1638 -77 C 2054 -77 2394 128 2611 467 L 2669 0 L 3187 0 L 3187 4730 L 2598 4800 z M 1766 390 C 1280 390 998 794 998 1683 C 998 2560 1312 2982 1818 2982 C 2150 2982 2387 2810 2598 2541 L 2598 890 C 2374 576 2144 390 1766 390 z" transform="scale(.01563)"/><path id="FiraGO-Regular-6f" d="M 1875 3450 C 915 3450 365 2726 365 1683 C 365 614 909 -77 1869 -77 C 2822 -77 3373 646 3373 1690 C 3373 2758 2835 3450 1875 3450 z M 1875 2976 C 2432 2976 2739 2566 2739 1690 C 2739 806 2432 397 1869 397 C 1306 397 998 806 998 1683 C 998 2566 1312 2976 1875 2976 z" transform="scale(.01563)"/><path id="FiraGO-Regular-72" d="M 2054 3450 C 1645 3450 1331 3194 1152 2688 L 1094 3373 L 589 3373 L 589 0 L 1178 0 L 1178 1926 C 1318 2573 1562 2874 1984 2874 C 2106 2874 2176 2861 2278 2835 L 2387 3411 C 2285 3437 2163 3450 2054 3450 z" transform="scale(.01563)"/></defs><use xlink:href="#FiraGO-Regular-53"/><use xlink:href="#FiraGO-Regular-74" x="54.5"/><use xlink:href="#FiraGO-Regular-61" x="90.6"/><use xlink:href="#FiraGO-Regular-6e" x="145"/><use xlink:href="#FiraGO-Regular-64" x="202.9"/><use xlink:href="#FiraGO-Regular-6f" x="261.9"/><use xlink:href="#FiraGO-Regular-72" x="320.3"/><use xlink:href="#FiraGO-Regular-74" x="358.6"/></g></g><g id="ytick_2"><path d="M 150.187475 81.441951 L 484.987475 81.441951" clip-path="url(#p67a7a86ce0)" fill="none" stroke="#fff" stroke-width=".8" stroke-linecap="round" id="line2d_11"/><g transform="matrix(.0968 0 0 -.0968 78 85.072)" fill="#262626" id="text_2"><defs><path id="FiraGO-Regular-4d" d="M 4218 4410 L 3392 4410 L 2509 1203 L 1581 4410 L 762 4410 L 397 0 L 973 0 L 1120 1946 C 1171 2592 1203 3277 1203 3795 L 2208 499 L 2778 499 L 3731 3789 C 3738 3424 3782 2682 3840 1990 L 3994 0 L 4582 0 L 4218 4410 z" transform="scale(.01563)"/><path id="FiraGO-Regular-65" d="M 3155 1786 C 3155 2816 2675 3450 1766 3450 C 896 3450 365 2701 365 1651 C 365 582 915 -77 1856 -77 C 2323 -77 2701 83 3034 346 L 2778 698 C 2483 493 2234 403 1901 403 C 1414 403 1050 704 992 1485 L 3142 1485 C 3149 1562 3155 1670 3155 1786 z M 2573 1920 L 992 1920 C 1037 2669 1331 2982 1779 2982 C 2310 2982 2573 2618 2573 1958 L 2573 1920 z" transform="scale(.01563)"/></defs><use xlink:href="#FiraGO-Regular-53"/><use xlink:href="#FiraGO-Regular-4d" x="54.5"/><use xlink:href="#FiraGO-Regular-53" x="132.3"/><use xlink:href="#FiraGO-Regular-20" x="186.8"/><use xlink:href="#FiraGO-Regular-6f" x="213.3"/><use xlink:href="#FiraGO-Regular-64" x="271.7"/><use xlink:href="#FiraGO-Regular-65" x="330.7"/><use xlink:href="#FiraGO-Regular-72" x="385.1"/><use xlink:href="#FiraGO-Regular-20" x="423.4"/><use xlink:href="#FiraGO-Regular-4d" x="449.9"/><use xlink:href="#FiraGO-Regular-4d" x="527.7"/><use xlink:href="#FiraGO-Regular-53" x="605.5"/></g></g><g id="ytick_3"><path d="M 150.187475 103.904761 L 484.987475 103.904761" clip-path="url(#p67a7a86ce0)" fill="none" stroke="#fff" stroke-width=".8" stroke-linecap="round" id="line2d_12"/><g transform="matrix(.0968 0 0 -.0968 102.478 107.535)" fill="#262626" id="text_3"><defs><path id="FiraGO-Regular-4b" d="M 1248 4410 L 640 4410 L 640 0 L 1248 0 L 1248 4410 z M 3648 4410 L 2957 4410 L 1280 2355 L 3021 0 L 3770 0 L 1978 2394 L 3648 4410 z" transform="scale(.01563)"/><path id="FiraGO-Regular-6b" d="M 1178 4800 L 589 4730 L 589 0 L 1178 0 L 1178 4800 z M 3117 3373 L 2458 3373 L 1216 1843 L 2554 0 L 3258 0 L 1875 1882 L 3117 3373 z" transform="scale(.01563)"/></defs><use xlink:href="#FiraGO-Regular-4b"/><use xlink:href="#FiraGO-Regular-6f" x="58.9"/><use xlink:href="#FiraGO-Regular-6e" x="117.3"/><use xlink:href="#FiraGO-Regular-74" x="175.2"/><use xlink:href="#FiraGO-Regular-61" x="211.3"/><use xlink:href="#FiraGO-Regular-6b" x="265.7"/><use xlink:href="#FiraGO-Regular-74" x="316.6"/><use xlink:href="#FiraGO-Regular-65" x="352.7"/></g></g><g id="ytick_4"><path d="M 150.187475 126.367571 L 484.987475 126.367571" clip-path="url(#p67a7a86ce0)" fill="none" stroke="#fff" stroke-width=".8" stroke-linecap="round" id="line2d_13"/><g transform="matrix(.0968 0 0 -.0968 76.292 130.143)" fill="#262626" id="text_4"><defs><path id="FiraGO-Regular-44" d="M 1562 4410 L 640 4410 L 640 0 L 1696 0 C 2650 0 3770 429 3770 2227 C 3770 4058 2688 4410 1562 4410 z M 1696 3923 C 2400 3923 3123 3718 3123 2227 C 3123 774 2432 480 1741 480 L 1248 480 L 1248 3923 L 1696 3923 z" transform="scale(.01563)"/><path id="FiraGO-Regular-69" d="M 877 4992 C 634 4992 467 4819 467 4589 C 467 4365 634 4192 877 4192 C 1126 4192 1293 4365 1293 4589 C 1293 4819 1126 4992 877 4992 z M 1178 3373 L 589 3373 L 589 0 L 1178 0 L 1178 3373 z" transform="scale(.01563)"/><path id="FiraGO-Regular-67" d="M 3155 3750 C 2758 3571 2451 3430 1613 3450 C 870 3450 314 2963 314 2272 C 314 1837 493 1542 883 1338 C 640 1178 512 960 512 742 C 512 403 781 102 1382 102 L 1914 102 C 2336 102 2592 -58 2592 -378 C 2592 -717 2336 -902 1606 -902 C 864 -902 691 -723 691 -339 L 160 -339 C 160 -1024 506 -1363 1606 -1363 C 2650 -1363 3187 -992 3187 -339 C 3187 198 2726 595 2035 595 L 1498 595 C 1152 595 1056 717 1056 870 C 1056 992 1126 1114 1222 1184 C 1363 1139 1498 1120 1651 1120 C 2458 1120 2938 1600 2938 2266 C 2938 2656 2739 2938 2342 3117 C 2726 3117 3046 3130 3328 3219 L 3155 3750 z M 1613 3027 C 2093 3027 2336 2771 2336 2278 C 2336 1792 2086 1510 1626 1510 C 1165 1510 915 1824 915 2272 C 915 2714 1158 3027 1613 3027 z" transform="scale(.01563)"/><path id="FiraGO-Regular-73" d="M 1523 3450 C 826 3450 307 3059 307 2522 C 307 2048 595 1734 1325 1542 C 1978 1370 2144 1242 2144 909 C 2144 589 1862 397 1421 397 C 1056 397 742 518 474 723 L 160 365 C 454 109 864 -77 1434 -77 C 2118 -77 2765 243 2765 947 C 2765 1536 2355 1818 1645 1997 C 1101 2138 922 2266 922 2541 C 922 2810 1158 2982 1542 2982 C 1856 2982 2118 2886 2419 2694 L 2669 3066 C 2349 3309 1997 3450 1523 3450 z" transform="scale(.01563)"/></defs><use xlink:href="#FiraGO-Regular-44"/><use xlink:href="#FiraGO-Regular-69" x="64.4"/><use xlink:href="#FiraGO-Regular-61" x="92"/><use xlink:href="#FiraGO-Regular-67" x="146.4"/><use xlink:href="#FiraGO-Regular-6e" x="198.4"/><use xlink:href="#FiraGO-Regular-6f" x="256.3"/><use xlink:href="#FiraGO-Regular-73" x="314.7"/><use xlink:href="#FiraGO-Regular-65" x="361.4"/><use xlink:href="#FiraGO-Regular-64" x="415.8"/><use xlink:href="#FiraGO-Regular-61" x="474.8"/><use xlink:href="#FiraGO-Regular-74" x="529.2"/><use xlink:href="#FiraGO-Regular-65" x="565.3"/><use xlink:href="#FiraGO-Regular-6e" x="619.7"/></g></g><g id="ytick_5"><path d="M 150.187475 148.830381 L 484.987475 148.830381" clip-path="url(#p67a7a86ce0)" fill="none" stroke="#fff" stroke-width=".8" stroke-linecap="round" id="line2d_14"/><g transform="matrix(.0968 0 0 -.0968 14.169 152.606)" fill="#262626" id="text_5"><defs><path id="FiraGO-Regular-41" d="M 2989 0 L 3629 0 L 2221 4410 L 1453 4410 L 38 0 L 653 0 L 986 1107 L 2656 1107 L 2989 0 z M 1133 1600 L 1824 3904 L 2509 1600 L 1133 1600 z" transform="scale(.01563)"/><path id="FiraGO-Regular-70" d="M 2138 3450 C 1754 3450 1389 3264 1139 2918 L 1094 3373 L 589 3373 L 589 -1363 L 1178 -1293 L 1178 307 C 1395 45 1696 -77 2061 -77 C 2931 -77 3386 666 3386 1690 C 3386 2752 3034 3450 2138 3450 z M 1920 403 C 1613 403 1350 550 1178 813 L 1178 2458 C 1357 2726 1632 2982 1990 2982 C 2496 2982 2752 2566 2752 1690 C 2752 806 2458 403 1920 403 z" transform="scale(.01563)"/><path id="FiraGO-Regular-2d" d="M 384 1754 L 2195 1754 L 2195 2253 L 384 2253 L 384 1754 z" transform="scale(.01563)"/><path id="FiraGO-Regular-4c" d="M 1248 4410 L 640 4410 L 640 0 L 2989 0 L 3059 531 L 1248 531 L 1248 4410 z" transform="scale(.01563)"/><path id="FiraGO-Regular-75" d="M 3091 3373 L 2502 3373 L 2502 966 C 2298 627 2022 384 1658 384 C 1293 384 1139 557 1139 1018 L 1139 3373 L 550 3373 L 550 954 C 550 294 902 -77 1491 -77 C 1971 -77 2285 115 2541 525 L 2586 0 L 3091 0 L 3091 3373 z" transform="scale(.01563)"/></defs><use xlink:href="#FiraGO-Regular-53"/><use xlink:href="#FiraGO-Regular-6f" x="54.5"/><use xlink:href="#FiraGO-Regular-6e" x="112.9"/><use xlink:href="#FiraGO-Regular-73" x="170.8"/><use xlink:href="#FiraGO-Regular-74" x="217.5"/><use xlink:href="#FiraGO-Regular-69" x="253.6"/><use xlink:href="#FiraGO-Regular-67" x="281.2"/><use xlink:href="#FiraGO-Regular-65" x="333.2"/><use xlink:href="#FiraGO-Regular-20" x="387.6"/><use xlink:href="#FiraGO-Regular-41" x="414.1"/><use xlink:href="#FiraGO-Regular-70" x="471.4"/><use xlink:href="#FiraGO-Regular-70" x="530"/><use xlink:href="#FiraGO-Regular-2d" x="588.6"/><use xlink:href="#FiraGO-Regular-4c" x="628.9"/><use xlink:href="#FiraGO-Regular-65" x="678.7"/><use xlink:href="#FiraGO-Regular-69" x="733.1"/><use xlink:href="#FiraGO-Regular-73" x="760.7"/><use xlink:href="#FiraGO-Regular-74" x="807.4"/><use xlink:href="#FiraGO-Regular-75" x="843.5"/><use xlink:href="#FiraGO-Regular-6e" x="901"/><use xlink:href="#FiraGO-Regular-67" x="958.9"/><use xlink:href="#FiraGO-Regular-73" x="1010.9"/><use xlink:href="#FiraGO-Regular-64" x="1057.6"/><use xlink:href="#FiraGO-Regular-61" x="1116.6"/><use xlink:href="#FiraGO-Regular-74" x="1171"/><use xlink:href="#FiraGO-Regular-65" x="1207.1"/><use xlink:href="#FiraGO-Regular-6e" x="1261.5"/></g></g><g id="ytick_6"><path d="M 150.187475 171.293191 L 484.987475 171.293191" clip-path="url(#p67a7a86ce0)" fill="none" stroke="#fff" stroke-width=".8" stroke-linecap="round" id="line2d_15"/><g transform="matrix(.0968 0 0 -.0968 36.41 174.923)" fill="#262626" id="text_6"><defs><path id="FiraGO-Regular-47" d="M 2266 4486 C 1248 4486 352 3693 352 2208 C 352 685 1062 -77 2202 -77 C 2765 -77 3226 77 3642 314 L 3642 2445 L 2189 2445 L 2259 1952 L 3040 1952 L 3040 621 C 2790 480 2496 422 2202 422 C 1427 422 998 941 998 2208 C 998 3507 1632 3987 2266 3987 C 2662 3987 2925 3878 3232 3629 L 3590 4000 C 3213 4314 2848 4486 2266 4486 z" transform="scale(.01563)"/><path id="FiraGO-Regular-e4" d="M 998 4186 C 1203 4186 1363 4346 1363 4550 C 1363 4755 1203 4915 998 4915 C 787 4915 627 4755 627 4550 C 627 4346 787 4186 998 4186 z M 2336 4186 C 2547 4186 2707 4346 2707 4550 C 2707 4755 2547 4915 2336 4915 C 2131 4915 1971 4755 1971 4550 C 1971 4346 2131 4186 2336 4186 z M 2880 787 L 2880 2330 C 2880 3034 2509 3450 1696 3450 C 1318 3450 947 3373 531 3219 L 678 2790 C 1024 2906 1338 2970 1587 2970 C 2054 2970 2291 2790 2291 2304 L 2291 2054 L 1773 2054 C 832 2054 288 1664 288 941 C 288 339 691 -77 1363 -77 C 1773 -77 2131 77 2368 429 C 2470 96 2688 -38 3027 -77 L 3162 333 C 2989 397 2880 493 2880 787 z M 1498 365 C 1114 365 915 576 915 973 C 915 1434 1229 1664 1850 1664 L 2291 1664 L 2291 890 C 2099 538 1843 365 1498 365 z" transform="scale(.01563)"/><path id="FiraGO-Regular-49" d="M 1248 4410 L 640 4410 L 640 0 L 1248 0 L 1248 4410 z" transform="scale(.01563)"/></defs><use xlink:href="#FiraGO-Regular-47"/><use xlink:href="#FiraGO-Regular-65" x="63.1"/><use xlink:href="#FiraGO-Regular-72" x="117.5"/><use xlink:href="#FiraGO-Regular-e4" x="155.8"/><use xlink:href="#FiraGO-Regular-74" x="210.2"/><use xlink:href="#FiraGO-Regular-65" x="246.3"/><use xlink:href="#FiraGO-Regular-2d" x="300.7"/><use xlink:href="#FiraGO-Regular-20" x="341"/><use xlink:href="#FiraGO-Regular-6f" x="367.5"/><use xlink:href="#FiraGO-Regular-64" x="425.9"/><use xlink:href="#FiraGO-Regular-65" x="484.9"/><use xlink:href="#FiraGO-Regular-72" x="539.3"/><use xlink:href="#FiraGO-Regular-20" x="577.6"/><use xlink:href="#FiraGO-Regular-61" x="604.1"/><use xlink:href="#FiraGO-Regular-6e" x="658.5"/><use xlink:href="#FiraGO-Regular-64" x="716.4"/><use xlink:href="#FiraGO-Regular-65" x="775.4"/><use xlink:href="#FiraGO-Regular-72" x="829.8"/><use xlink:href="#FiraGO-Regular-65" x="868.1"/><use xlink:href="#FiraGO-Regular-20" x="922.5"/><use xlink:href="#FiraGO-Regular-49" x="949"/><use xlink:href="#FiraGO-Regular-44" x="978.5"/><use xlink:href="#FiraGO-Regular-73" x="1042.9"/></g></g><g transform="matrix(0 -.1056 -.1056 0 7.92 136.843)" fill="#262626" id="text_7"><defs><path id="FiraGO-Regular-79" d="M 3085 3373 L 2477 3373 L 1594 429 L 691 3373 L 64 3373 L 1197 0 L 1395 0 C 1203 -525 1011 -787 326 -902 L 390 -1363 C 1325 -1261 1722 -736 1958 -19 L 3085 3373 z" transform="scale(.01563)"/></defs><use xlink:href="#FiraGO-Regular-44"/><use xlink:href="#FiraGO-Regular-61" x="64.4"/><use xlink:href="#FiraGO-Regular-74" x="118.8"/><use xlink:href="#FiraGO-Regular-65" x="154.9"/><use xlink:href="#FiraGO-Regular-6e" x="209.3"/><use xlink:href="#FiraGO-Regular-74" x="267.2"/><use xlink:href="#FiraGO-Regular-79" x="303.3"/><use xlink:href="#FiraGO-Regular-70" x="352.5"/></g></g><path d="M 150.187475 47.747736 L 340.311457 47.747736 L 340.311457 70.210546 L 150.187475 70.210546 z" clip-path="url(#p67a7a86ce0)" fill="#0173b2" fill-opacity=".75" stroke="#fff" stroke-width=".8" id="patch_3"/><path d="M 150.187475 70.210546 L 475.897882 70.210546 L 475.897882 92.673356 L 150.187475 92.673356 z" clip-path="url(#p67a7a86ce0)" fill="#0173b2" fill-opacity=".75" stroke="#fff" stroke-width=".8" id="patch_4"/><path d="M 150.187475 92.673356 L 446.356706 92.673356 L 446.356706 115.136166 L 150.187475 115.136166 z" clip-path="url(#p67a7a86ce0)" fill="#0173b2" fill-opacity=".75" stroke="#fff" stroke-width=".8" id="patch_5"/><path d="M 150.187475 115.136166 L 234.266208 115.136166 L 234.266208 137.598976 L 150.187475 137.598976 z" clip-path="url(#p67a7a86ce0)" fill="#0173b2" fill-opacity=".75" stroke="#fff" stroke-width=".8" id="patch_6"/><path d="M 150.187475 137.598976 L 313.042679 137.598976 L 313.042679 160.061786 L 150.187475 160.061786 z" clip-path="url(#p67a7a86ce0)" fill="#0173b2" fill-opacity=".75" stroke="#fff" stroke-width=".8" id="patch_7"/><path d="M 150.187475 160.061786 L 183.515982 160.061786 L 183.515982 182.524596 L 150.187475 182.524596 z" clip-path="url(#p67a7a86ce0)" fill="#0173b2" fill-opacity=".75" stroke="#fff" stroke-width=".8" id="patch_8"/><path d="M 340.311457 47.747736 L 344.098787 47.747736 L 344.098787 70.210546 L 340.311457 70.210546 z" clip-path="url(#p67a7a86ce0)" fill="#56b4e9" fill-opacity=".75" stroke="#fff" stroke-width=".8" id="patch_9"/><path d="M 475.897882 70.210546 L 475.897882 70.210546 L 475.897882 92.673356 L 475.897882 92.673356 z" clip-path="url(#p67a7a86ce0)" fill="#56b4e9" fill-opacity=".75" stroke="#fff" stroke-width=".8" id="patch_10"/><path d="M 446.356706 92.673356 L 446.356706 92.673356 L 446.356706 115.136166 L 446.356706 115.136166 z" clip-path="url(#p67a7a86ce0)" fill="#56b4e9" fill-opacity=".75" stroke="#fff" stroke-width=".8" id="patch_11"/><path d="M 234.266208 115.136166 L 278.956706 115.136166 L 278.956706 137.598976 L 234.266208 137.598976 z" clip-path="url(#p67a7a86ce0)" fill="#56b4e9" fill-opacity=".75" stroke="#fff" stroke-width=".8" id="patch_12"/><path d="M 313.042679 137.598976 L 341.068923 137.598976 L 341.068923 160.061786 L 313.042679 160.061786 z" clip-path="url(#p67a7a86ce0)" fill="#56b4e9" fill-opacity=".75" stroke="#fff" stroke-width=".8" id="patch_13"/><path d="M 183.515982 160.061786 L 369.095167 160.061786 L 369.095167 182.524596 L 183.515982 182.524596 z" clip-path="url(#p67a7a86ce0)" fill="#56b4e9" fill-opacity=".75" stroke="#fff" stroke-width=".8" id="patch_14"/><path d="M 344.098787 47.747736 L 481.200145 47.747736 L 481.200145 70.210546 L 344.098787 70.210546 z" clip-path="url(#p67a7a86ce0)" fill="#949494" fill-opacity=".75" stroke="#fff" stroke-width=".8" id="patch_15"/><path d="M 475.897882 70.210546 L 484.987475 70.210546 L 484.987475 92.673356 L 475.897882 92.673356 z" clip-path="url(#p67a7a86ce0)" fill="#949494" fill-opacity=".75" stroke="#fff" stroke-width=".8" id="patch_16"/><path d="M 446.356706 92.673356 L 484.987475 92.673356 L 484.987475 115.136166 L 446.356706 115.136166 z" clip-path="url(#p67a7a86ce0)" fill="#949494" fill-opacity=".75" stroke="#fff" stroke-width=".8" id="patch_17"/><path d="M 278.956706 115.136166 L 448.629104 115.136166 L 448.629104 137.598976 L 278.956706 137.598976 z" clip-path="url(#p67a7a86ce0)" fill="#949494" fill-opacity=".75" stroke="#fff" stroke-width=".8" id="patch_18"/><path d="M 341.068923 137.598976 L 429.692452 137.598976 L 429.692452 160.061786 L 341.068923 160.061786 z" clip-path="url(#p67a7a86ce0)" fill="#949494" fill-opacity=".75" stroke="#fff" stroke-width=".8" id="patch_19"/><path d="M 369.095167 160.061786 L 441.054443 160.061786 L 441.054443 182.524596 L 369.095167 182.524596 z" clip-path="url(#p67a7a86ce0)" fill="#949494" fill-opacity=".75" stroke="#fff" stroke-width=".8" id="patch_20"/><path d="M 481.200145 47.747736 L 484.987475 47.747736 L 484.987475 70.210546 L 481.200145 70.210546 z" clip-path="url(#p67a7a86ce0)" fill="#d55e00" fill-opacity=".75" stroke="#fff" stroke-width=".8" id="patch_21"/><path d="M 484.987475 70.210546 L 484.987475 70.210546 L 484.987475 92.673356 L 484.987475 92.673356 z" clip-path="url(#p67a7a86ce0)" fill="#d55e00" fill-opacity=".75" stroke="#fff" stroke-width=".8" id="patch_22"/><path d="M 484.987475 92.673356 L 484.987475 92.673356 L 484.987475 115.136166 L 484.987475 115.136166 z" clip-path="url(#p67a7a86ce0)" fill="#d55e00" fill-opacity=".75" stroke="#fff" stroke-width=".8" id="patch_23"/><path d="M 448.629104 115.136166 L 484.987475 115.136166 L 484.987475 137.598976 L 448.629104 137.598976 z" clip-path="url(#p67a7a86ce0)" fill="#d55e00" fill-opacity=".75" stroke="#fff" stroke-width=".8" id="patch_24"/><path d="M 429.692452 137.598976 L 484.987475 137.598976 L 484.987475 160.061786 L 429.692452 160.061786 z" clip-path="url(#p67a7a86ce0)" fill="#d55e00" fill-opacity=".75" stroke="#fff" stroke-width=".8" id="patch_25"/><path d="M 441.054443 160.061786 L 484.987475 160.061786 L 484.987475 182.524596 L 441.054443 182.524596 z" clip-path="url(#p67a7a86ce0)" fill="#d55e00" fill-opacity=".75" stroke="#fff" stroke-width=".8" id="patch_26"/><path d="M 150.187475 189.263439 L 150.187475 41.008893" fill="none" stroke="#fff" stroke-linecap="square" id="patch_27"/><path d="M 484.987475 189.263439 L 484.987475 41.008893" fill="none" stroke="#fff" stroke-linecap="square" id="patch_28"/><path d="M 150.187475 189.263439 L 484.987475 189.263439" fill="none" stroke="#fff" stroke-linecap="square" id="patch_29"/><path d="M 150.187475 41.008893 L 484.987475 41.008893" fill="none" stroke="#fff" stroke-linecap="square" id="patch_30"/></g><g id="axes_2"><path d="M 150.187475 258.448893 L 484.987475 258.448893 L 484.987475 209.030711 L 150.187475 209.030711 L 150.187475 258.448893 z" fill="none" id="patch_31"/><g id="matplotlib.axis_3"><g id="xtick_10"><path d="M 150.187475 258.448893 L 150.187475 209.030711" clip-path="url(#p6504497d17)" fill="none" stroke="#fff" stroke-width=".8" stroke-linecap="round" id="line2d_16"/><g transform="matrix(.0968 0 0 -.0968 147.487 274.009)" fill="#262626" id="text_8"><defs><path id="FiraGO-Regular-30" d="M 1786 4346 C 826 4346 352 3558 352 2138 C 352 717 826 -77 1786 -77 C 2746 -77 3219 717 3219 2138 C 3219 3552 2746 4346 1786 4346 z M 1786 3878 C 2317 3878 2605 3392 2605 2138 C 2605 877 2317 390 1786 390 C 1248 390 966 877 966 2138 C 966 3392 1248 3878 1786 3878 z" transform="scale(.01563)"/></defs><use xlink:href="#FiraGO-Regular-30"/></g></g><g id="xtick_11"><path d="M 188.060778 258.448893 L 188.060778 209.030711" clip-path="url(#p6504497d17)" fill="none" stroke="#fff" stroke-width=".8" stroke-linecap="round" id="line2d_17"/><g transform="matrix(.0968 0 0 -.0968 182.936 274.009)" fill="#262626" id="text_9"><defs><path id="FiraGO-Regular-35" d="M 2771 4282 L 454 4282 L 454 2125 L 915 2125 C 1120 2221 1293 2272 1523 2272 C 1965 2272 2304 2042 2304 1382 C 2304 755 1965 403 1427 403 C 1056 403 781 538 512 806 L 166 467 C 499 128 890 -77 1434 -77 C 2323 -77 2918 518 2918 1370 C 2918 2221 2426 2726 1702 2726 C 1472 2726 1242 2675 1018 2560 L 1018 3821 L 2688 3821 L 2771 4282 z" transform="scale(.01563)"/></defs><use xlink:href="#FiraGO-Regular-35"/><use xlink:href="#FiraGO-Regular-30" x="50.1"/></g></g><g id="xtick_12"><path d="M 225.934081 258.448893 L 225.934081 209.030711" clip-path="url(#p6504497d17)" fill="none" stroke="#fff" stroke-width=".8" stroke-linecap="round" id="line2d_18"/><g transform="matrix(.0968 0 0 -.0968 218.437 274.009)" fill="#262626" id="text_10"><defs><path id="FiraGO-Regular-31" d="M 2067 4282 L 1549 4282 L 224 3462 L 480 3046 L 1478 3654 L 1478 0 L 2067 0 L 2067 4282 z" transform="scale(.01563)"/></defs><use xlink:href="#FiraGO-Regular-31"/><use xlink:href="#FiraGO-Regular-30" x="43.3"/><use xlink:href="#FiraGO-Regular-30" x="99.1"/></g></g><g id="xtick_13"><path d="M 263.807385 258.448893 L 263.807385 209.030711" clip-path="url(#p6504497d17)" fill="none" stroke="#fff" stroke-width=".8" stroke-linecap="round" id="line2d_19"/><g transform="matrix(.0968 0 0 -.0968 256.587 274.009)" fill="#262626" id="text_11"><use xlink:href="#FiraGO-Regular-31"/><use xlink:href="#FiraGO-Regular-35" x="43.3"/><use xlink:href="#FiraGO-Regular-30" x="93.4"/></g></g><g id="xtick_14"><path d="M 301.680688 258.448893 L 301.680688 209.030711" clip-path="url(#p6504497d17)" fill="none" stroke="#fff" stroke-width=".8" stroke-linecap="round" id="line2d_20"/><g transform="matrix(.0968 0 0 -.0968 293.884 274.009)" fill="#262626" id="text_12"><defs><path id="FiraGO-Regular-32" d="M 1459 4346 C 922 4346 506 4128 160 3699 L 544 3392 C 832 3718 1069 3859 1427 3859 C 1843 3859 2131 3597 2131 3149 C 2131 2451 1760 2042 250 467 L 250 0 L 2778 0 L 2848 493 L 922 493 C 2234 1805 2746 2374 2746 3174 C 2746 3840 2246 4346 1459 4346 z" transform="scale(.01563)"/></defs><use xlink:href="#FiraGO-Regular-32"/><use xlink:href="#FiraGO-Regular-30" x="49.5"/><use xlink:href="#FiraGO-Regular-30" x="105.3"/></g></g><g id="xtick_15"><path d="M 339.553991 258.448893 L 339.553991 209.030711" clip-path="url(#p6504497d17)" fill="none" stroke="#fff" stroke-width=".8" stroke-linecap="round" id="line2d_21"/><g transform="matrix(.0968 0 0 -.0968 332.033 274.009)" fill="#262626" id="text_13"><use xlink:href="#FiraGO-Regular-32"/><use xlink:href="#FiraGO-Regular-35" x="49.5"/><use xlink:href="#FiraGO-Regular-30" x="99.6"/></g></g><g id="xtick_16"><path d="M 377.427294 258.448893 L 377.427294 209.030711" clip-path="url(#p6504497d17)" fill="none" stroke="#fff" stroke-width=".8" stroke-linecap="round" id="line2d_22"/><g transform="matrix(.0968 0 0 -.0968 369.61 274.009)" fill="#262626" id="text_14"><defs><path id="FiraGO-Regular-33" d="M 1440 4346 C 979 4346 582 4179 218 3840 L 525 3488 C 813 3757 1069 3872 1408 3872 C 1837 3872 2118 3622 2118 3219 C 2118 2720 1766 2464 1344 2464 L 1126 2464 L 1056 2010 L 1376 2010 C 1894 2010 2227 1830 2227 1242 C 2227 736 1901 403 1363 403 C 1018 403 730 531 448 826 L 96 499 C 422 109 870 -77 1382 -77 C 2272 -77 2842 486 2842 1235 C 2842 1882 2413 2221 1875 2272 C 2355 2387 2707 2714 2707 3258 C 2707 3834 2259 4346 1440 4346 z" transform="scale(.01563)"/></defs><use xlink:href="#FiraGO-Regular-33"/><use xlink:href="#FiraGO-Regular-30" x="49.9"/><use xlink:href="#FiraGO-Regular-30" x="105.7"/></g></g><g id="xtick_17"><path d="M 415.300597 258.448893 L 415.300597 209.030711" clip-path="url(#p6504497d17)" fill="none" stroke="#fff" stroke-width=".8" stroke-linecap="round" id="line2d_23"/><g transform="matrix(.0968 0 0 -.0968 407.76 274.009)" fill="#262626" id="text_15"><use xlink:href="#FiraGO-Regular-33"/><use xlink:href="#FiraGO-Regular-35" x="49.9"/><use xlink:href="#FiraGO-Regular-30" x="100"/></g></g><g id="xtick_18"><path d="M 453.1739 258.448893 L 453.1739 209.030711" clip-path="url(#p6504497d17)" fill="none" stroke="#fff" stroke-width=".8" stroke-linecap="round" id="line2d_24"/><g transform="matrix(.0968 0 0 -.0968 445.198 274.009)" fill="#262626" id="text_16"><defs><path id="FiraGO-Regular-34" d="M 3213 1523 L 2656 1523 L 2656 2675 L 2144 2675 L 2093 1523 L 877 1523 L 2035 4141 L 1542 4346 L 256 1478 L 256 1056 L 2086 1056 L 2086 0 L 2656 0 L 2656 1056 L 3213 1056 L 3213 1523 z" transform="scale(.01563)"/></defs><use xlink:href="#FiraGO-Regular-34"/><use xlink:href="#FiraGO-Regular-30" x="53.2"/><use xlink:href="#FiraGO-Regular-30" x="109"/></g></g><g transform="matrix(.1056 0 0 -.1056 281.334 287.99)" fill="#262626" id="text_17"><defs><path id="FiraGO-Regular-7a" d="M 2586 3373 L 307 3373 L 307 2874 L 1914 2874 L 160 442 L 160 0 L 2534 0 L 2605 493 L 826 493 L 2586 2925 L 2586 3373 z" transform="scale(.01563)"/><path id="FiraGO-Regular-68" d="M 2176 3450 C 1754 3450 1421 3238 1178 2906 L 1178 4787 L 589 4723 L 589 0 L 1178 0 L 1178 2400 C 1402 2752 1664 2989 2029 2989 C 2349 2989 2566 2842 2566 2336 L 2566 0 L 3155 0 L 3155 2419 C 3155 3053 2790 3450 2176 3450 z" transform="scale(.01563)"/><path id="FiraGO-Regular-6c" d="M 1254 -77 C 1427 -77 1594 -32 1722 38 L 1568 448 C 1504 422 1434 410 1350 410 C 1197 410 1139 499 1139 678 L 1139 4800 L 550 4730 L 550 666 C 550 186 826 -77 1254 -77 z" transform="scale(.01563)"/></defs><use xlink:href="#FiraGO-Regular-41"/><use xlink:href="#FiraGO-Regular-6e" x="57.3"/><use xlink:href="#FiraGO-Regular-7a" x="115.2"/><use xlink:href="#FiraGO-Regular-61" x="158.4"/><use xlink:href="#FiraGO-Regular-68" x="212.8"/><use xlink:href="#FiraGO-Regular-6c" x="270.7"/><use xlink:href="#FiraGO-Regular-20" x="300.1"/><use xlink:href="#FiraGO-Regular-61" x="326.6"/><use xlink:href="#FiraGO-Regular-6e" x="381"/><use xlink:href="#FiraGO-Regular-20" x="438.9"/><use xlink:href="#FiraGO-Regular-41" x="465.4"/><use xlink:href="#FiraGO-Regular-70" x="522.7"/><use xlink:href="#FiraGO-Regular-70" x="581.3"/><use xlink:href="#FiraGO-Regular-73" x="639.9"/></g></g><g id="matplotlib.axis_4"><g id="ytick_7"><path d="M 150.187475 222.508397 L 484.987475 222.508397" clip-path="url(#p6504497d17)" fill="none" stroke="#fff" stroke-width=".8" stroke-linecap="round" id="line2d_25"/><g transform="matrix(.0968 0 0 -.0968 108.073 226.138)" fill="#262626" id="text_18"><use xlink:href="#FiraGO-Regular-41"/><use xlink:href="#FiraGO-Regular-6e" x="57.3"/><use xlink:href="#FiraGO-Regular-61" x="115.2"/><use xlink:href="#FiraGO-Regular-6c" x="169.6"/><use xlink:href="#FiraGO-Regular-79" x="199"/><use xlink:href="#FiraGO-Regular-73" x="248.2"/><use xlink:href="#FiraGO-Regular-65" x="294.9"/></g></g><g id="ytick_8"><path d="M 150.187475 244.971207 L 484.987475 244.971207" clip-path="url(#p6504497d17)" fill="none" stroke="#fff" stroke-width=".8" stroke-linecap="round" id="line2d_26"/><g transform="matrix(.0968 0 0 -.0968 34.07 248.746)" fill="#262626" id="text_19"><defs><path id="FiraGO-Regular-57" d="M 5126 4410 L 4570 4410 L 3834 531 L 2963 4410 L 2317 4410 L 1466 531 L 755 4410 L 160 4410 L 1056 0 L 1818 0 L 2637 3693 L 3450 0 L 4230 0 L 5126 4410 z" transform="scale(.01563)"/><path id="FiraGO-Regular-62" d="M 2131 3450 C 1722 3450 1408 3264 1178 2950 L 1178 4800 L 589 4730 L 589 0 L 1107 0 L 1165 371 C 1395 90 1690 -77 2061 -77 C 2880 -77 3386 634 3386 1690 C 3386 2816 2893 3450 2131 3450 z M 1920 390 C 1619 390 1350 576 1178 845 L 1178 2458 C 1350 2726 1594 2982 1965 2982 C 2438 2982 2752 2650 2752 1690 C 2752 768 2413 390 1920 390 z" transform="scale(.01563)"/></defs><use xlink:href="#FiraGO-Regular-57"/><use xlink:href="#FiraGO-Regular-65" x="82.6"/><use xlink:href="#FiraGO-Regular-72" x="137"/><use xlink:href="#FiraGO-Regular-62" x="175.3"/><use xlink:href="#FiraGO-Regular-75" x="233.9"/><use xlink:href="#FiraGO-Regular-6e" x="291.4"/><use xlink:href="#FiraGO-Regular-67" x="349.3"/><use xlink:href="#FiraGO-Regular-20" x="401.3"/><use xlink:href="#FiraGO-Regular-6f" x="427.8"/><use xlink:href="#FiraGO-Regular-64" x="486.2"/><use xlink:href="#FiraGO-Regular-65" x="545.2"/><use xlink:href="#FiraGO-Regular-72" x="599.6"/><use xlink:href="#FiraGO-Regular-20" x="637.9"/><use xlink:href="#FiraGO-Regular-4d" x="664.4"/><use xlink:href="#FiraGO-Regular-61" x="742.2"/><use xlink:href="#FiraGO-Regular-72" x="796.6"/><use xlink:href="#FiraGO-Regular-6b" x="834.9"/><use xlink:href="#FiraGO-Regular-65" x="885.8"/><use xlink:href="#FiraGO-Regular-74" x="940.2"/><use xlink:href="#FiraGO-Regular-69" x="976.3"/><use xlink:href="#FiraGO-Regular-6e" x="1003.9"/><use xlink:href="#FiraGO-Regular-67" x="1061.8"/></g></g><g transform="matrix(0 -.1056 -.1056 0 27.821 248.361)" fill="#262626" id="text_20"><defs><path id="FiraGO-Regular-5a" d="M 3053 4410 L 422 4410 L 422 3898 L 2394 3898 L 192 486 L 192 0 L 2982 0 L 3053 518 L 870 518 L 3053 3917 L 3053 4410 z" transform="scale(.01563)"/><path id="FiraGO-Regular-77" d="M 4461 3373 L 3898 3373 L 3283 410 L 2650 3373 L 1990 3373 L 1325 410 L 717 3373 L 128 3373 L 915 0 L 1696 0 L 2304 2842 L 2893 0 L 3693 0 L 4461 3373 z" transform="scale(.01563)"/><path id="FiraGO-Regular-63" d="M 1837 3450 C 922 3450 365 2733 365 1658 C 365 570 928 -77 1837 -77 C 2227 -77 2566 51 2867 294 L 2598 678 C 2342 512 2144 422 1862 422 C 1331 422 998 787 998 1670 C 998 2547 1331 2963 1862 2963 C 2144 2963 2355 2880 2586 2714 L 2867 3085 C 2554 3347 2234 3450 1837 3450 z" transform="scale(.01563)"/></defs><use xlink:href="#FiraGO-Regular-5a"/><use xlink:href="#FiraGO-Regular-77" x="52.2"/><use xlink:href="#FiraGO-Regular-65" x="123.9"/><use xlink:href="#FiraGO-Regular-63" x="178.3"/><use xlink:href="#FiraGO-Regular-6b" x="226"/></g></g><path d="M 150.187475 211.276992 L 192.605575 211.276992 L 192.605575 233.739802 L 150.187475 233.739802 z" clip-path="url(#p6504497d17)" fill="#0173b2" fill-opacity=".75" stroke="#fff" stroke-width=".8" id="patch_32"/><path d="M 150.187475 233.739802 L 268.352181 233.739802 L 268.352181 256.202612 L 150.187475 256.202612 z" clip-path="url(#p6504497d17)" fill="#0173b2" fill-opacity=".75" stroke="#fff" stroke-width=".8" id="patch_33"/><path d="M 192.605575 211.276992 L 257.747656 211.276992 L 257.747656 233.739802 L 192.605575 233.739802 z" clip-path="url(#p6504497d17)" fill="#56b4e9" fill-opacity=".75" stroke="#fff" stroke-width=".8" id="patch_34"/><path d="M 268.352181 233.739802 L 292.591095 233.739802 L 292.591095 256.202612 L 268.352181 256.202612 z" clip-path="url(#p6504497d17)" fill="#56b4e9" fill-opacity=".75" stroke="#fff" stroke-width=".8" id="patch_35"/><path d="M 257.747656 211.276992 L 466.050823 211.276992 L 466.050823 233.739802 L 257.747656 233.739802 z" clip-path="url(#p6504497d17)" fill="#949494" fill-opacity=".75" stroke="#fff" stroke-width=".8" id="patch_36"/><path d="M 292.591095 233.739802 L 463.778425 233.739802 L 463.778425 256.202612 L 292.591095 256.202612 z" clip-path="url(#p6504497d17)" fill="#949494" fill-opacity=".75" stroke="#fff" stroke-width=".8" id="patch_37"/><path d="M 466.050823 211.276992 L 484.987475 211.276992 L 484.987475 233.739802 L 466.050823 233.739802 z" clip-path="url(#p6504497d17)" fill="#d55e00" fill-opacity=".75" stroke="#fff" stroke-width=".8" id="patch_38"/><path d="M 463.778425 233.739802 L 484.987475 233.739802 L 484.987475 256.202612 L 463.778425 256.202612 z" clip-path="url(#p6504497d17)" fill="#d55e00" fill-opacity=".75" stroke="#fff" stroke-width=".8" id="patch_39"/><path d="M 150.187475 258.448893 L 150.187475 209.030711" fill="none" stroke="#fff" stroke-linecap="square" id="patch_40"/><path d="M 484.987475 258.448893 L 484.987475 209.030711" fill="none" stroke="#fff" stroke-linecap="square" id="patch_41"/><path d="M 150.187475 258.448893 L 484.987475 258.448893" fill="none" stroke="#fff" stroke-linecap="square" id="patch_42"/><path d="M 150.187475 209.030711 L 484.987475 209.030711" fill="none" stroke="#fff" stroke-linecap="square" id="patch_43"/><g id="legend_1"><path d="M 100.391512 31.227075 L 424.299438 31.227075 Q 426.235437 31.227075 426.235437 29.291075 L 426.235437 1.936 Q 426.235437 -0 424.299438 -0 L 100.391512 -0 Q 98.455512 -0 98.455512 1.936 L 98.455512 29.291075 Q 98.455512 31.227075 100.391512 31.227075 z" fill="#eaeaf2" opacity=".8" stroke="#ccc" stroke-width=".8" id="patch_44"/><path d="M 102.327512 11.132 L 121.687512 11.132 L 121.687512 4.356 L 102.327512 4.356 z" fill="#d55e00" fill-opacity=".75" stroke="#fff" stroke-width=".8" id="patch_45"/><g transform="matrix(.0968 0 0 -.0968 129.432 11.132)" fill="#262626" id="text_21"><defs><path id="FiraGO-Regular-2c" d="M 762 813 C 512 813 320 614 320 371 C 320 218 390 83 499 0 L 243 -1062 L 666 -1062 L 1094 -83 C 1178 102 1210 230 1210 371 C 1210 614 1018 813 762 813 z" transform="scale(.01563)"/></defs><use xlink:href="#FiraGO-Regular-6e"/><use xlink:href="#FiraGO-Regular-69" x="57.9"/><use xlink:href="#FiraGO-Regular-63" x="85.5"/><use xlink:href="#FiraGO-Regular-68" x="133.2"/><use xlink:href="#FiraGO-Regular-74" x="191.1"/><use xlink:href="#FiraGO-Regular-20" x="227.2"/><use xlink:href="#FiraGO-Regular-64" x="253.7"/><use xlink:href="#FiraGO-Regular-65" x="312.7"/><use xlink:href="#FiraGO-Regular-6b" x="367.1"/><use xlink:href="#FiraGO-Regular-6c" x="418"/><use xlink:href="#FiraGO-Regular-61" x="447.4"/><use xlink:href="#FiraGO-Regular-72" x="501.8"/><use xlink:href="#FiraGO-Regular-69" x="540.1"/><use xlink:href="#FiraGO-Regular-65" x="567.7"/><use xlink:href="#FiraGO-Regular-72" x="622.1"/><use xlink:href="#FiraGO-Regular-74" x="660.4"/><use xlink:href="#FiraGO-Regular-2c" x="696.5"/><use xlink:href="#FiraGO-Regular-20" x="720.5"/><use xlink:href="#FiraGO-Regular-61" x="747"/><use xlink:href="#FiraGO-Regular-62" x="801.4"/><use xlink:href="#FiraGO-Regular-65" x="860"/><use xlink:href="#FiraGO-Regular-72" x="914.4"/><use xlink:href="#FiraGO-Regular-20" x="952.7"/><use xlink:href="#FiraGO-Regular-62" x="979.2"/><use xlink:href="#FiraGO-Regular-65" x="1037.8"/><use xlink:href="#FiraGO-Regular-6f" x="1092.2"/><use xlink:href="#FiraGO-Regular-62" x="1150.6"/><use xlink:href="#FiraGO-Regular-61" x="1209.2"/><use xlink:href="#FiraGO-Regular-63" x="1263.6"/><use xlink:href="#FiraGO-Regular-68" x="1311.3"/><use xlink:href="#FiraGO-Regular-74" x="1369.2"/><use xlink:href="#FiraGO-Regular-65" x="1405.3"/><use xlink:href="#FiraGO-Regular-74" x="1459.7"/></g><path d="M 102.327512 25.293537 L 121.687512 25.293537 L 121.687512 18.517537 L 102.327512 18.517537 z" fill="#949494" fill-opacity=".75" stroke="#fff" stroke-width=".8" id="patch_46"/><g transform="matrix(.0968 0 0 -.0968 129.432 25.294)" fill="#262626" id="text_22"><use xlink:href="#FiraGO-Regular-64"/><use xlink:href="#FiraGO-Regular-65" x="59"/><use xlink:href="#FiraGO-Regular-6b" x="113.4"/><use xlink:href="#FiraGO-Regular-6c" x="164.3"/><use xlink:href="#FiraGO-Regular-61" x="193.7"/><use xlink:href="#FiraGO-Regular-72" x="248.1"/><use xlink:href="#FiraGO-Regular-69" x="286.4"/><use xlink:href="#FiraGO-Regular-65" x="314"/><use xlink:href="#FiraGO-Regular-72" x="368.4"/><use xlink:href="#FiraGO-Regular-74" x="406.7"/><use xlink:href="#FiraGO-Regular-2c" x="442.8"/><use xlink:href="#FiraGO-Regular-20" x="466.8"/><use xlink:href="#FiraGO-Regular-61" x="493.3"/><use xlink:href="#FiraGO-Regular-62" x="547.7"/><use xlink:href="#FiraGO-Regular-65" x="606.3"/><use xlink:href="#FiraGO-Regular-72" x="660.7"/><use xlink:href="#FiraGO-Regular-20" x="699"/><use xlink:href="#FiraGO-Regular-6e" x="725.5"/><use xlink:href="#FiraGO-Regular-69" x="783.4"/><use xlink:href="#FiraGO-Regular-63" x="811"/><use xlink:href="#FiraGO-Regular-68" x="858.7"/><use xlink:href="#FiraGO-Regular-74" x="916.6"/><use xlink:href="#FiraGO-Regular-20" x="952.7"/><use xlink:href="#FiraGO-Regular-62" x="979.2"/><use xlink:href="#FiraGO-Regular-65" x="1037.8"/><use xlink:href="#FiraGO-Regular-6f" x="1092.2"/><use xlink:href="#FiraGO-Regular-62" x="1150.6"/><use xlink:href="#FiraGO-Regular-61" x="1209.2"/><use xlink:href="#FiraGO-Regular-63" x="1263.6"/><use xlink:href="#FiraGO-Regular-68" x="1311.3"/><use xlink:href="#FiraGO-Regular-74" x="1369.2"/><use xlink:href="#FiraGO-Regular-65" x="1405.3"/><use xlink:href="#FiraGO-Regular-74" x="1459.7"/></g><path d="M 293.587675 11.132 L 312.947675 11.132 L 312.947675 4.356 L 293.587675 4.356 z" fill="#56b4e9" fill-opacity=".75" stroke="#fff" stroke-width=".8" id="patch_47"/><g transform="matrix(.0968 0 0 -.0968 320.692 11.132)" fill="#262626" id="text_23"><use xlink:href="#FiraGO-Regular-6b"/><use xlink:href="#FiraGO-Regular-6f" x="50.9"/><use xlink:href="#FiraGO-Regular-72" x="109.3"/><use xlink:href="#FiraGO-Regular-72" x="147.6"/><use xlink:href="#FiraGO-Regular-65" x="185.9"/><use xlink:href="#FiraGO-Regular-6b" x="240.3"/><use xlink:href="#FiraGO-Regular-74" x="291.2"/><use xlink:href="#FiraGO-Regular-20" x="327.3"/><use xlink:href="#FiraGO-Regular-64" x="353.8"/><use xlink:href="#FiraGO-Regular-65" x="412.8"/><use xlink:href="#FiraGO-Regular-6b" x="467.2"/><use xlink:href="#FiraGO-Regular-6c" x="518.1"/><use xlink:href="#FiraGO-Regular-61" x="547.5"/><use xlink:href="#FiraGO-Regular-72" x="601.9"/><use xlink:href="#FiraGO-Regular-69" x="640.2"/><use xlink:href="#FiraGO-Regular-65" x="667.8"/><use xlink:href="#FiraGO-Regular-72" x="722.2"/><use xlink:href="#FiraGO-Regular-74" x="760.5"/></g><path d="M 293.587675 25.293537 L 312.947675 25.293537 L 312.947675 18.517537 L 293.587675 18.517537 z" fill="#0173b2" fill-opacity=".75" stroke="#fff" stroke-width=".8" id="patch_48"/><g transform="matrix(.0968 0 0 -.0968 320.692 25.294)" fill="#262626" id="text_24"><use xlink:href="#FiraGO-Regular-6b"/><use xlink:href="#FiraGO-Regular-6f" x="50.9"/><use xlink:href="#FiraGO-Regular-72" x="109.3"/><use xlink:href="#FiraGO-Regular-72" x="147.6"/><use xlink:href="#FiraGO-Regular-65" x="185.9"/><use xlink:href="#FiraGO-Regular-6b" x="240.3"/><use xlink:href="#FiraGO-Regular-74" x="291.2"/><use xlink:href="#FiraGO-Regular-20" x="327.3"/><use xlink:href="#FiraGO-Regular-6e" x="353.8"/><use xlink:href="#FiraGO-Regular-69" x="411.7"/><use xlink:href="#FiraGO-Regular-63" x="439.3"/><use xlink:href="#FiraGO-Regular-68" x="487"/><use xlink:href="#FiraGO-Regular-74" x="544.9"/><use xlink:href="#FiraGO-Regular-20" x="581"/><use xlink:href="#FiraGO-Regular-64" x="607.5"/><use xlink:href="#FiraGO-Regular-65" x="666.5"/><use xlink:href="#FiraGO-Regular-6b" x="720.9"/><use xlink:href="#FiraGO-Regular-6c" x="771.8"/><use xlink:href="#FiraGO-Regular-61" x="801.2"/><use xlink:href="#FiraGO-Regular-72" x="855.6"/><use xlink:href="#FiraGO-Regular-69" x="893.9"/><use xlink:href="#FiraGO-Regular-65" x="921.5"/><use xlink:href="#FiraGO-Regular-72" x="975.9"/><use xlink:href="#FiraGO-Regular-74" x="1014.2"/></g></g></g></g><defs><clipPath id="p67a7a86ce0"><path d="M150.187 41.009H484.987V189.264H150.187z"/></clipPath><clipPath id="p6504497d17"><path d="M150.187 209.031H484.987V258.449H150.187z"/></clipPath></defs></svg>