<svg xmlns:xlink="http://www.w3.org/1999/xlink" width="758.569" height="273.018" viewBox="0 0 568.927 204.763" xmlns="http://www.w3.org/2000/svg"><defs><style>*{stroke-linejoin:round;stroke-linecap:butt}</style></defs><g id="figure_1"><path d="M 0 204.763287 L 568.926875 204.763287 L 568.926875 0 L 0 0 L 0 204.763287 z" fill="none" id="patch_1"/><g id="axes_1"><path d="M 211.806875 172.9728 L 568.926875 172.9728 L 568.926875 -0 L 211.806875 -0 L 211.806875 172.9728 z" fill="none" id="patch_2"/><g id="matplotlib.axis_1"><g id="xtick_1"><path d="M 211.806875 172.9728 L 211.806875 -0" clip-path="url(#p70979f82ae)" fill="none" stroke="#fff" stroke-width=".8" stroke-linecap="round" id="line2d_1"/><g transform="matrix(.0968 0 0 -.0968 209.106 188.533)" fill="#262626" id="text_1"><defs><path id="FiraGO-Regular-30" d="M 1786 4346 C 826 4346 352 3558 352 2138 C 352 717 826 -77 1786 -77 C 2746 -77 3219 717 3219 2138 C 3219 3552 2746 4346 1786 4346 z M 1786 3878 C 2317 3878 2605 3392 2605 2138 C 2605 877 2317 390 1786 390 C 1248 390 966 877 966 2138 C 966 3392 1248 3878 1786 3878 z" transform="scale(.01563)"/></defs><use xlink:href="#FiraGO-Regular-30"/></g></g><g id="xtick_2"><path d="M 258.306148 172.9728 L 258.306148 -0" clip-path="url(#p70979f82ae)" fill="none" stroke="#fff" stroke-width=".8" stroke-linecap="round" id="line2d_2"/><g transform="matrix(.0968 0 0 -.0968 246.923 188.533)" fill="#262626" id="text_2"><defs><path id="FiraGO-Regular-32" d="M 1459 4346 C 922 4346 506 4128 160 3699 L 544 3392 C 832 3718 1069 3859 1427 3859 C 1843 3859 2131 3597 2131 3149 C 2131 2451 1760 2042 250 467 L 250 0 L 2778 0 L 2848 493 L 922 493 C 2234 1805 2746 2374 2746 3174 C 2746 3840 2246 4346 1459 4346 z" transform="scale(.01563)"/><path id="FiraGO-Regular-2e" d="M 762 813 C 512 813 320 614 320 371 C 320 122 512 -77 762 -77 C 1018 -77 1210 122 1210 371 C 1210 614 1018 813 762 813 z" transform="scale(.01563)"/><path id="FiraGO-Regular-35" d="M 2771 4282 L 454 4282 L 454 2125 L 915 2125 C 1120 2221 1293 2272 1523 2272 C 1965 2272 2304 2042 2304 1382 C 2304 755 1965 403 1427 403 C 1056 403 781 538 512 806 L 166 467 C 499 128 890 -77 1434 -77 C 2323 -77 2918 518 2918 1370 C 2918 2221 2426 2726 1702 2726 C 1472 2726 1242 2675 1018 2560 L 1018 3821 L 2688 3821 L 2771 4282 z" transform="scale(.01563)"/></defs><use xlink:href="#FiraGO-Regular-32"/><use xlink:href="#FiraGO-Regular-2e" x="49.5"/><use xlink:href="#FiraGO-Regular-35" x="73.5"/><use xlink:href="#FiraGO-Regular-30" x="123.6"/><use xlink:href="#FiraGO-Regular-30" x="179.4"/></g></g><g id="xtick_3"><path d="M 304.805422 172.9728 L 304.805422 -0" clip-path="url(#p70979f82ae)" fill="none" stroke="#fff" stroke-width=".8" stroke-linecap="round" id="line2d_3"/><g transform="matrix(.0968 0 0 -.0968 293.118 188.533)" fill="#262626" id="text_3"><use xlink:href="#FiraGO-Regular-35"/><use xlink:href="#FiraGO-Regular-2e" x="50.1"/><use xlink:href="#FiraGO-Regular-30" x="74.1"/><use xlink:href="#FiraGO-Regular-30" x="129.9"/><use xlink:href="#FiraGO-Regular-30" x="185.7"/></g></g><g id="xtick_4"><path d="M 351.304695 172.9728 L 351.304695 -0" clip-path="url(#p70979f82ae)" fill="none" stroke="#fff" stroke-width=".8" stroke-linecap="round" id="line2d_4"/><g transform="matrix(.0968 0 0 -.0968 340.168 188.533)" fill="#262626" id="text_4"><defs><path id="FiraGO-Regular-37" d="M 2650 4282 L 160 4282 L 160 3802 L 2054 3802 L 512 115 L 1050 -64 L 2650 3840 L 2650 4282 z" transform="scale(.01563)"/></defs><use xlink:href="#FiraGO-Regular-37"/><use xlink:href="#FiraGO-Regular-2e" x="44.4"/><use xlink:href="#FiraGO-Regular-35" x="68.4"/><use xlink:href="#FiraGO-Regular-30" x="118.5"/><use xlink:href="#FiraGO-Regular-30" x="174.3"/></g></g><g id="xtick_5"><path d="M 397.803969 172.9728 L 397.803969 -0" clip-path="url(#p70979f82ae)" fill="none" stroke="#fff" stroke-width=".8" stroke-linecap="round" id="line2d_5"/><g transform="matrix(.0968 0 0 -.0968 383.745 188.533)" fill="#262626" id="text_5"><defs><path id="FiraGO-Regular-31" d="M 2067 4282 L 1549 4282 L 224 3462 L 480 3046 L 1478 3654 L 1478 0 L 2067 0 L 2067 4282 z" transform="scale(.01563)"/></defs><use xlink:href="#FiraGO-Regular-31"/><use xlink:href="#FiraGO-Regular-30" x="43.3"/><use xlink:href="#FiraGO-Regular-2e" x="99.1"/><use xlink:href="#FiraGO-Regular-30" x="123.1"/><use xlink:href="#FiraGO-Regular-30" x="178.9"/><use xlink:href="#FiraGO-Regular-30" x="234.7"/></g></g><g id="xtick_6"><path d="M 444.303242 172.9728 L 444.303242 -0" clip-path="url(#p70979f82ae)" fill="none" stroke="#fff" stroke-width=".8" stroke-linecap="round" id="line2d_6"/><g transform="matrix(.0968 0 0 -.0968 430.825 188.533)" fill="#262626" id="text_6"><use xlink:href="#FiraGO-Regular-31"/><use xlink:href="#FiraGO-Regular-32" x="43.3"/><use xlink:href="#FiraGO-Regular-2e" x="92.8"/><use xlink:href="#FiraGO-Regular-35" x="116.8"/><use xlink:href="#FiraGO-Regular-30" x="166.9"/><use xlink:href="#FiraGO-Regular-30" x="222.7"/></g></g><g id="xtick_7"><path d="M 490.802516 172.9728 L 490.802516 -0" clip-path="url(#p70979f82ae)" fill="none" stroke="#fff" stroke-width=".8" stroke-linecap="round" id="line2d_7"/><g transform="matrix(.0968 0 0 -.0968 477.02 188.533)" fill="#262626" id="text_7"><use xlink:href="#FiraGO-Regular-31"/><use xlink:href="#FiraGO-Regular-35" x="43.3"/><use xlink:href="#FiraGO-Regular-2e" x="93.4"/><use xlink:href="#FiraGO-Regular-30" x="117.4"/><use xlink:href="#FiraGO-Regular-30" x="173.2"/><use xlink:href="#FiraGO-Regular-30" x="229"/></g></g><g id="xtick_8"><path d="M 537.301789 172.9728 L 537.301789 -0" clip-path="url(#p70979f82ae)" fill="none" stroke="#fff" stroke-width=".8" stroke-linecap="round" id="line2d_8"/><g transform="matrix(.0968 0 0 -.0968 524.07 188.533)" fill="#262626" id="text_8"><use xlink:href="#FiraGO-Regular-31"/><use xlink:href="#FiraGO-Regular-37" x="43.3"/><use xlink:href="#FiraGO-Regular-2e" x="87.7"/><use xlink:href="#FiraGO-Regular-35" x="111.7"/><use xlink:href="#FiraGO-Regular-30" x="161.8"/><use xlink:href="#FiraGO-Regular-30" x="217.6"/></g></g><g transform="matrix(.1056 0 0 -.1056 354.113 202.514)" fill="#262626" id="text_9"><defs><path id="FiraGO-Regular-41" d="M 2989 0 L 3629 0 L 2221 4410 L 1453 4410 L 38 0 L 653 0 L 986 1107 L 2656 1107 L 2989 0 z M 1133 1600 L 1824 3904 L 2509 1600 L 1133 1600 z" transform="scale(.01563)"/><path id="FiraGO-Regular-6e" d="M 2176 3450 C 1734 3450 1376 3219 1146 2874 L 1094 3373 L 589 3373 L 589 0 L 1178 0 L 1178 2394 C 1402 2752 1658 2989 2035 2989 C 2362 2989 2566 2842 2566 2336 L 2566 0 L 3155 0 L 3155 2419 C 3155 3059 2797 3450 2176 3450 z" transform="scale(.01563)"/><path id="FiraGO-Regular-7a" d="M 2586 3373 L 307 3373 L 307 2874 L 1914 2874 L 160 442 L 160 0 L 2534 0 L 2605 493 L 826 493 L 2586 2925 L 2586 3373 z" transform="scale(.01563)"/><path id="FiraGO-Regular-61" d="M 2880 787 L 2880 2330 C 2880 3034 2509 3450 1696 3450 C 1318 3450 947 3373 531 3219 L 678 2790 C 1024 2906 1338 2970 1587 2970 C 2054 2970 2291 2790 2291 2304 L 2291 2054 L 1773 2054 C 832 2054 288 1664 288 941 C 288 339 691 -77 1363 -77 C 1773 -77 2131 77 2368 429 C 2470 96 2688 -38 3027 -77 L 3162 333 C 2989 397 2880 493 2880 787 z M 1498 365 C 1114 365 915 576 915 973 C 915 1434 1229 1664 1850 1664 L 2291 1664 L 2291 890 C 2099 538 1843 365 1498 365 z" transform="scale(.01563)"/><path id="FiraGO-Regular-68" d="M 2176 3450 C 1754 3450 1421 3238 1178 2906 L 1178 4787 L 589 4723 L 589 0 L 1178 0 L 1178 2400 C 1402 2752 1664 2989 2029 2989 C 2349 2989 2566 2842 2566 2336 L 2566 0 L 3155 0 L 3155 2419 C 3155 3053 2790 3450 2176 3450 z" transform="scale(.01563)"/><path id="FiraGO-Regular-6c" d="M 1254 -77 C 1427 -77 1594 -32 1722 38 L 1568 448 C 1504 422 1434 410 1350 410 C 1197 410 1139 499 1139 678 L 1139 4800 L 550 4730 L 550 666 C 550 186 826 -77 1254 -77 z" transform="scale(.01563)"/><path id="FiraGO-Regular-70" d="M 2138 3450 C 1754 3450 1389 3264 1139 2918 L 1094 3373 L 589 3373 L 589 -1363 L 1178 -1293 L 1178 307 C 1395 45 1696 -77 2061 -77 C 2931 -77 3386 666 3386 1690 C 3386 2752 3034 3450 2138 3450 z M 1920 403 C 1613 403 1350 550 1178 813 L 1178 2458 C 1357 2726 1632 2982 1990 2982 C 2496 2982 2752 2566 2752 1690 C 2752 806 2458 403 1920 403 z" transform="scale(.01563)"/><path id="FiraGO-Regular-73" d="M 1523 3450 C 826 3450 307 3059 307 2522 C 307 2048 595 1734 1325 1542 C 1978 1370 2144 1242 2144 909 C 2144 589 1862 397 1421 397 C 1056 397 742 518 474 723 L 160 365 C 454 109 864 -77 1434 -77 C 2118 -77 2765 243 2765 947 C 2765 1536 2355 1818 1645 1997 C 1101 2138 922 2266 922 2541 C 922 2810 1158 2982 1542 2982 C 1856 2982 2118 2886 2419 2694 L 2669 3066 C 2349 3309 1997 3450 1523 3450 z" transform="scale(.01563)"/></defs><use xlink:href="#FiraGO-Regular-41"/><use xlink:href="#FiraGO-Regular-6e" x="57.3"/><use xlink:href="#FiraGO-Regular-7a" x="115.2"/><use xlink:href="#FiraGO-Regular-61" x="158.4"/><use xlink:href="#FiraGO-Regular-68" x="212.8"/><use xlink:href="#FiraGO-Regular-6c" x="270.7"/><use xlink:href="#FiraGO-Regular-20" x="300.1"/><use xlink:href="#FiraGO-Regular-61" x="326.6"/><use xlink:href="#FiraGO-Regular-6e" x="381"/><use xlink:href="#FiraGO-Regular-20" x="438.9"/><use xlink:href="#FiraGO-Regular-41" x="465.4"/><use xlink:href="#FiraGO-Regular-70" x="522.7"/><use xlink:href="#FiraGO-Regular-70" x="581.3"/><use xlink:href="#FiraGO-Regular-73" x="639.9"/></g></g><g id="matplotlib.axis_2"><g id="ytick_1"><path d="M 211.806875 17.112282 L 568.926875 17.112282" clip-path="url(#p70979f82ae)" fill="none" stroke="#fff" stroke-width=".8" stroke-linecap="round" id="line2d_9"/><g transform="matrix(.0968 0 0 -.0968 169.692 20.742)" fill="#262626" id="text_10"><defs><path id="FiraGO-Regular-79" d="M 3085 3373 L 2477 3373 L 1594 429 L 691 3373 L 64 3373 L 1197 0 L 1395 0 C 1203 -525 1011 -787 326 -902 L 390 -1363 C 1325 -1261 1722 -736 1958 -19 L 3085 3373 z" transform="scale(.01563)"/><path id="FiraGO-Regular-65" d="M 3155 1786 C 3155 2816 2675 3450 1766 3450 C 896 3450 365 2701 365 1651 C 365 582 915 -77 1856 -77 C 2323 -77 2701 83 3034 346 L 2778 698 C 2483 493 2234 403 1901 403 C 1414 403 1050 704 992 1485 L 3142 1485 C 3149 1562 3155 1670 3155 1786 z M 2573 1920 L 992 1920 C 1037 2669 1331 2982 1779 2982 C 2310 2982 2573 2618 2573 1958 L 2573 1920 z" transform="scale(.01563)"/></defs><use xlink:href="#FiraGO-Regular-41"/><use xlink:href="#FiraGO-Regular-6e" x="57.3"/><use xlink:href="#FiraGO-Regular-61" x="115.2"/><use xlink:href="#FiraGO-Regular-6c" x="169.6"/><use xlink:href="#FiraGO-Regular-79" x="199"/><use xlink:href="#FiraGO-Regular-73" x="248.2"/><use xlink:href="#FiraGO-Regular-65" x="294.9"/></g></g><g id="ytick_2"><path d="M 211.806875 40.236988 L 568.926875 40.236988" clip-path="url(#p70979f82ae)" fill="none" stroke="#fff" stroke-width=".8" stroke-linecap="round" id="line2d_10"/><g transform="matrix(.0968 0 0 -.0968 117.654 44.012)" fill="#262626" id="text_11"><defs><path id="FiraGO-Regular-46" d="M 640 0 L 1248 0 L 1248 1939 L 2688 1939 L 2688 2419 L 1248 2419 L 1248 3923 L 2912 3923 L 2982 4410 L 640 4410 L 640 0 z" transform="scale(.01563)"/><path id="FiraGO-Regular-75" d="M 3091 3373 L 2502 3373 L 2502 966 C 2298 627 2022 384 1658 384 C 1293 384 1139 557 1139 1018 L 1139 3373 L 550 3373 L 550 954 C 550 294 902 -77 1491 -77 C 1971 -77 2285 115 2541 525 L 2586 0 L 3091 0 L 3091 3373 z" transform="scale(.01563)"/><path id="FiraGO-Regular-6b" d="M 1178 4800 L 589 4730 L 589 0 L 1178 0 L 1178 4800 z M 3117 3373 L 2458 3373 L 1216 1843 L 2554 0 L 3258 0 L 1875 1882 L 3117 3373 z" transform="scale(.01563)"/><path id="FiraGO-Regular-74" d="M 2086 544 C 1920 454 1786 410 1638 410 C 1344 410 1235 570 1235 909 L 1235 2918 L 1971 2918 L 2035 3373 L 1235 3373 L 1235 4205 L 646 4134 L 646 3373 L 58 3373 L 58 2918 L 646 2918 L 646 883 C 646 256 986 -77 1555 -77 C 1843 -77 2086 0 2310 154 L 2086 544 z" transform="scale(.01563)"/><path id="FiraGO-Regular-69" d="M 877 4992 C 634 4992 467 4819 467 4589 C 467 4365 634 4192 877 4192 C 1126 4192 1293 4365 1293 4589 C 1293 4819 1126 4992 877 4992 z M 1178 3373 L 589 3373 L 589 0 L 1178 0 L 1178 3373 z" transform="scale(.01563)"/><path id="FiraGO-Regular-6f" d="M 1875 3450 C 915 3450 365 2726 365 1683 C 365 614 909 -77 1869 -77 C 2822 -77 3373 646 3373 1690 C 3373 2758 2835 3450 1875 3450 z M 1875 2976 C 2432 2976 2739 2566 2739 1690 C 2739 806 2432 397 1869 397 C 1306 397 998 806 998 1683 C 998 2566 1312 2976 1875 2976 z" transform="scale(.01563)"/><path id="FiraGO-Regular-64" d="M 2598 4800 L 2598 3034 C 2374 3270 2086 3450 1690 3450 C 864 3450 365 2701 365 1670 C 365 621 819 -77 1638 -77 C 2054 -77 2394 128 2611 467 L 2669 0 L 3187 0 L 3187 4730 L 2598 4800 z M 1766 390 C 1280 390 998 794 998 1683 C 998 2560 1312 2982 1818 2982 C 2150 2982 2387 2810 2598 2541 L 2598 890 C 2374 576 2144 390 1766 390 z" transform="scale(.01563)"/><path id="FiraGO-Regular-72" d="M 2054 3450 C 1645 3450 1331 3194 1152 2688 L 1094 3373 L 589 3373 L 589 0 L 1178 0 L 1178 1926 C 1318 2573 1562 2874 1984 2874 C 2106 2874 2176 2861 2278 2835 L 2387 3411 C 2285 3437 2163 3450 2054 3450 z" transform="scale(.01563)"/></defs><use xlink:href="#FiraGO-Regular-46"/><use xlink:href="#FiraGO-Regular-75" x="49.1"/><use xlink:href="#FiraGO-Regular-6e" x="106.6"/><use xlink:href="#FiraGO-Regular-6b" x="164.5"/><use xlink:href="#FiraGO-Regular-74" x="215.4"/><use xlink:href="#FiraGO-Regular-69" x="251.5"/><use xlink:href="#FiraGO-Regular-6f" x="279.1"/><use xlink:href="#FiraGO-Regular-6e" x="337.5"/><use xlink:href="#FiraGO-Regular-65" x="395.4"/><use xlink:href="#FiraGO-Regular-6e" x="449.8"/><use xlink:href="#FiraGO-Regular-20" x="507.7"/><use xlink:href="#FiraGO-Regular-64" x="534.2"/><use xlink:href="#FiraGO-Regular-65" x="593.2"/><use xlink:href="#FiraGO-Regular-72" x="647.6"/><use xlink:href="#FiraGO-Regular-20" x="685.9"/><use xlink:href="#FiraGO-Regular-41" x="712.4"/><use xlink:href="#FiraGO-Regular-70" x="769.7"/><use xlink:href="#FiraGO-Regular-70" x="828.3"/></g></g><g id="ytick_3"><path d="M 211.806875 63.361694 L 568.926875 63.361694" clip-path="url(#p70979f82ae)" fill="none" stroke="#fff" stroke-width=".8" stroke-linecap="round" id="line2d_11"/><g transform="matrix(.0968 0 0 -.0968 95.69 67.137)" fill="#262626" id="text_12"><defs><path id="FiraGO-Regular-57" d="M 5126 4410 L 4570 4410 L 3834 531 L 2963 4410 L 2317 4410 L 1466 531 L 755 4410 L 160 4410 L 1056 0 L 1818 0 L 2637 3693 L 3450 0 L 4230 0 L 5126 4410 z" transform="scale(.01563)"/><path id="FiraGO-Regular-62" d="M 2131 3450 C 1722 3450 1408 3264 1178 2950 L 1178 4800 L 589 4730 L 589 0 L 1107 0 L 1165 371 C 1395 90 1690 -77 2061 -77 C 2880 -77 3386 634 3386 1690 C 3386 2816 2893 3450 2131 3450 z M 1920 390 C 1619 390 1350 576 1178 845 L 1178 2458 C 1350 2726 1594 2982 1965 2982 C 2438 2982 2752 2650 2752 1690 C 2752 768 2413 390 1920 390 z" transform="scale(.01563)"/><path id="FiraGO-Regular-67" d="M 3155 3750 C 2758 3571 2451 3430 1613 3450 C 870 3450 314 2963 314 2272 C 314 1837 493 1542 883 1338 C 640 1178 512 960 512 742 C 512 403 781 102 1382 102 L 1914 102 C 2336 102 2592 -58 2592 -378 C 2592 -717 2336 -902 1606 -902 C 864 -902 691 -723 691 -339 L 160 -339 C 160 -1024 506 -1363 1606 -1363 C 2650 -1363 3187 -992 3187 -339 C 3187 198 2726 595 2035 595 L 1498 595 C 1152 595 1056 717 1056 870 C 1056 992 1126 1114 1222 1184 C 1363 1139 1498 1120 1651 1120 C 2458 1120 2938 1600 2938 2266 C 2938 2656 2739 2938 2342 3117 C 2726 3117 3046 3130 3328 3219 L 3155 3750 z M 1613 3027 C 2093 3027 2336 2771 2336 2278 C 2336 1792 2086 1510 1626 1510 C 1165 1510 915 1824 915 2272 C 915 2714 1158 3027 1613 3027 z" transform="scale(.01563)"/><path id="FiraGO-Regular-4d" d="M 4218 4410 L 3392 4410 L 2509 1203 L 1581 4410 L 762 4410 L 397 0 L 973 0 L 1120 1946 C 1171 2592 1203 3277 1203 3795 L 2208 499 L 2778 499 L 3731 3789 C 3738 3424 3782 2682 3840 1990 L 3994 0 L 4582 0 L 4218 4410 z" transform="scale(.01563)"/></defs><use xlink:href="#FiraGO-Regular-57"/><use xlink:href="#FiraGO-Regular-65" x="82.6"/><use xlink:href="#FiraGO-Regular-72" x="137"/><use xlink:href="#FiraGO-Regular-62" x="175.3"/><use xlink:href="#FiraGO-Regular-75" x="233.9"/><use xlink:href="#FiraGO-Regular-6e" x="291.4"/><use xlink:href="#FiraGO-Regular-67" x="349.3"/><use xlink:href="#FiraGO-Regular-20" x="401.3"/><use xlink:href="#FiraGO-Regular-6f" x="427.8"/><use xlink:href="#FiraGO-Regular-64" x="486.2"/><use xlink:href="#FiraGO-Regular-65" x="545.2"/><use xlink:href="#FiraGO-Regular-72" x="599.6"/><use xlink:href="#FiraGO-Regular-20" x="637.9"/><use xlink:href="#FiraGO-Regular-4d" x="664.4"/><use xlink:href="#FiraGO-Regular-61" x="742.2"/><use xlink:href="#FiraGO-Regular-72" x="796.6"/><use xlink:href="#FiraGO-Regular-6b" x="834.9"/><use xlink:href="#FiraGO-Regular-65" x="885.8"/><use xlink:href="#FiraGO-Regular-74" x="940.2"/><use xlink:href="#FiraGO-Regular-69" x="976.3"/><use xlink:href="#FiraGO-Regular-6e" x="1003.9"/><use xlink:href="#FiraGO-Regular-67" x="1061.8"/></g></g><g id="ytick_4"><path d="M 211.806875 86.4864 L 568.926875 86.4864" clip-path="url(#p70979f82ae)" fill="none" stroke="#fff" stroke-width=".8" stroke-linecap="round" id="line2d_12"/><g transform="matrix(.0968 0 0 -.0968 128.909 90.116)" fill="#262626" id="text_13"><defs><path id="FiraGO-Regular-4b" d="M 1248 4410 L 640 4410 L 640 0 L 1248 0 L 1248 4410 z M 3648 4410 L 2957 4410 L 1280 2355 L 3021 0 L 3770 0 L 1978 2394 L 3648 4410 z" transform="scale(.01563)"/><path id="FiraGO-Regular-76" d="M 3085 3373 L 2464 3373 L 1587 525 L 704 3373 L 64 3373 L 1229 0 L 1939 0 L 3085 3373 z" transform="scale(.01563)"/><path id="FiraGO-Regular-77" d="M 4461 3373 L 3898 3373 L 3283 410 L 2650 3373 L 1990 3373 L 1325 410 L 717 3373 L 128 3373 L 915 0 L 1696 0 L 2304 2842 L 2893 0 L 3693 0 L 4461 3373 z" transform="scale(.01563)"/></defs><use xlink:href="#FiraGO-Regular-4b"/><use xlink:href="#FiraGO-Regular-6f" x="58.9"/><use xlink:href="#FiraGO-Regular-6e" x="117.3"/><use xlink:href="#FiraGO-Regular-74" x="175.2"/><use xlink:href="#FiraGO-Regular-6f" x="211.3"/><use xlink:href="#FiraGO-Regular-76" x="269.7"/><use xlink:href="#FiraGO-Regular-65" x="318.9"/><use xlink:href="#FiraGO-Regular-72" x="373.3"/><use xlink:href="#FiraGO-Regular-77" x="411.6"/><use xlink:href="#FiraGO-Regular-61" x="483.3"/><use xlink:href="#FiraGO-Regular-6c" x="537.7"/><use xlink:href="#FiraGO-Regular-74" x="567.1"/><use xlink:href="#FiraGO-Regular-75" x="603.2"/><use xlink:href="#FiraGO-Regular-6e" x="660.7"/><use xlink:href="#FiraGO-Regular-67" x="718.6"/></g></g><g id="ytick_5"><path d="M 211.806875 109.611106 L 568.926875 109.611106" clip-path="url(#p70979f82ae)" fill="none" stroke="#fff" stroke-width=".8" stroke-linecap="round" id="line2d_13"/><g transform="matrix(.0968 0 0 -.0968 0 113.386)" fill="#262626" id="text_14"><defs><path id="FiraGO-Regular-42" d="M 2586 2330 C 3014 2419 3411 2752 3411 3296 C 3411 4064 2771 4410 1683 4410 L 640 4410 L 640 0 L 1856 0 C 2880 0 3603 320 3603 1254 C 3603 2003 3098 2240 2586 2330 z M 1747 3930 C 2400 3930 2790 3795 2790 3251 C 2790 2784 2406 2541 1914 2541 L 1248 2541 L 1248 3930 L 1747 3930 z M 1856 486 L 1248 486 L 1248 2074 L 1971 2074 C 2502 2074 2963 1875 2963 1254 C 2963 614 2496 486 1856 486 z" transform="scale(.01563)"/><path id="FiraGO-Regular-e4" d="M 998 4186 C 1203 4186 1363 4346 1363 4550 C 1363 4755 1203 4915 998 4915 C 787 4915 627 4755 627 4550 C 627 4346 787 4186 998 4186 z M 2336 4186 C 2547 4186 2707 4346 2707 4550 C 2707 4755 2547 4915 2336 4915 C 2131 4915 1971 4755 1971 4550 C 1971 4346 2131 4186 2336 4186 z M 2880 787 L 2880 2330 C 2880 3034 2509 3450 1696 3450 C 1318 3450 947 3373 531 3219 L 678 2790 C 1024 2906 1338 2970 1587 2970 C 2054 2970 2291 2790 2291 2304 L 2291 2054 L 1773 2054 C 832 2054 288 1664 288 941 C 288 339 691 -77 1363 -77 C 1773 -77 2131 77 2368 429 C 2470 96 2688 -38 3027 -77 L 3162 333 C 2989 397 2880 493 2880 787 z M 1498 365 C 1114 365 915 576 915 973 C 915 1434 1229 1664 1850 1664 L 2291 1664 L 2291 890 C 2099 538 1843 365 1498 365 z" transform="scale(.01563)"/><path id="FiraGO-Regular-2c" d="M 762 813 C 512 813 320 614 320 371 C 320 218 390 83 499 0 L 243 -1062 L 666 -1062 L 1094 -83 C 1178 102 1210 230 1210 371 C 1210 614 1018 813 762 813 z" transform="scale(.01563)"/><path id="FiraGO-Regular-53" d="M 1728 4486 C 915 4486 339 4013 339 3334 C 339 2650 787 2323 1645 2061 C 2394 1830 2598 1638 2598 1210 C 2598 678 2170 422 1651 422 C 1171 422 826 595 493 864 L 160 493 C 525 134 1024 -77 1658 -77 C 2650 -77 3232 461 3232 1229 C 3232 2074 2630 2349 1926 2566 C 1133 2810 960 2989 960 3360 C 960 3782 1312 3987 1754 3987 C 2118 3987 2426 3872 2758 3603 L 3091 3974 C 2720 4307 2336 4486 1728 4486 z" transform="scale(.01563)"/><path id="FiraGO-Regular-63" d="M 1837 3450 C 922 3450 365 2733 365 1658 C 365 570 928 -77 1837 -77 C 2227 -77 2566 51 2867 294 L 2598 678 C 2342 512 2144 422 1862 422 C 1331 422 998 787 998 1670 C 998 2547 1331 2963 1862 2963 C 2144 2963 2355 2880 2586 2714 L 2867 3085 C 2554 3347 2234 3450 1837 3450 z" transform="scale(.01563)"/><path id="FiraGO-Regular-43" d="M 2182 4486 C 1184 4486 352 3699 352 2208 C 352 723 1126 -77 2195 -77 C 2790 -77 3213 166 3456 416 L 3155 800 C 2906 614 2630 435 2214 435 C 1530 435 998 934 998 2208 C 998 3539 1555 3987 2221 3987 C 2528 3987 2797 3885 3072 3661 L 3405 4051 C 3053 4333 2739 4486 2182 4486 z" transform="scale(.01563)"/><path id="FiraGO-Regular-6d" d="M 3974 3450 C 3520 3450 3213 3206 2970 2842 C 2842 3226 2534 3450 2118 3450 C 1677 3450 1370 3219 1146 2880 L 1094 3373 L 589 3373 L 589 0 L 1178 0 L 1178 2394 C 1402 2752 1606 2989 1971 2989 C 2227 2989 2445 2842 2445 2336 L 2445 0 L 3034 0 L 3034 2394 C 3264 2752 3462 2989 3827 2989 C 4083 2989 4301 2842 4301 2336 L 4301 0 L 4890 0 L 4890 2419 C 4890 3053 4525 3450 3974 3450 z" transform="scale(.01563)"/></defs><use xlink:href="#FiraGO-Regular-42"/><use xlink:href="#FiraGO-Regular-65" x="60.8"/><use xlink:href="#FiraGO-Regular-74" x="115.2"/><use xlink:href="#FiraGO-Regular-72" x="151.3"/><use xlink:href="#FiraGO-Regular-75" x="189.6"/><use xlink:href="#FiraGO-Regular-67" x="247.1"/><use xlink:href="#FiraGO-Regular-73" x="299.1"/><use xlink:href="#FiraGO-Regular-70" x="345.8"/><use xlink:href="#FiraGO-Regular-72" x="404.4"/><use xlink:href="#FiraGO-Regular-e4" x="442.7"/><use xlink:href="#FiraGO-Regular-76" x="497.1"/><use xlink:href="#FiraGO-Regular-65" x="546.3"/><use xlink:href="#FiraGO-Regular-6e" x="600.7"/><use xlink:href="#FiraGO-Regular-74" x="658.6"/><use xlink:href="#FiraGO-Regular-69" x="694.7"/><use xlink:href="#FiraGO-Regular-6f" x="722.3"/><use xlink:href="#FiraGO-Regular-6e" x="780.7"/><use xlink:href="#FiraGO-Regular-2c" x="838.6"/><use xlink:href="#FiraGO-Regular-20" x="862.6"/><use xlink:href="#FiraGO-Regular-53" x="889.1"/><use xlink:href="#FiraGO-Regular-69" x="943.6"/><use xlink:href="#FiraGO-Regular-63" x="971.2"/><use xlink:href="#FiraGO-Regular-68" x="1018.9"/><use xlink:href="#FiraGO-Regular-65" x="1076.8"/><use xlink:href="#FiraGO-Regular-72" x="1131.2"/><use xlink:href="#FiraGO-Regular-68" x="1169.5"/><use xlink:href="#FiraGO-Regular-65" x="1227.4"/><use xlink:href="#FiraGO-Regular-69" x="1281.8"/><use xlink:href="#FiraGO-Regular-74" x="1309.4"/><use xlink:href="#FiraGO-Regular-20" x="1345.5"/><use xlink:href="#FiraGO-Regular-75" x="1372"/><use xlink:href="#FiraGO-Regular-6e" x="1429.5"/><use xlink:href="#FiraGO-Regular-64" x="1487.4"/><use xlink:href="#FiraGO-Regular-20" x="1546.4"/><use xlink:href="#FiraGO-Regular-43" x="1572.9"/><use xlink:href="#FiraGO-Regular-6f" x="1628.9"/><use xlink:href="#FiraGO-Regular-6d" x="1687.3"/><use xlink:href="#FiraGO-Regular-70" x="1772.3"/><use xlink:href="#FiraGO-Regular-6c" x="1830.9"/><use xlink:href="#FiraGO-Regular-69" x="1860.3"/><use xlink:href="#FiraGO-Regular-61" x="1887.9"/><use xlink:href="#FiraGO-Regular-6e" x="1942.3"/><use xlink:href="#FiraGO-Regular-63" x="2000.2"/><use xlink:href="#FiraGO-Regular-65" x="2047.9"/></g></g><g id="ytick_6"><path d="M 211.806875 132.735812 L 568.926875 132.735812" clip-path="url(#p70979f82ae)" fill="none" stroke="#fff" stroke-width=".8" stroke-linecap="round" id="line2d_14"/><g transform="matrix(.0968 0 0 -.0968 129.897 136.511)" fill="#262626" id="text_15"><defs><path id="FiraGO-Regular-50" d="M 1798 4410 L 640 4410 L 640 0 L 1248 0 L 1248 1619 L 1805 1619 C 2778 1619 3514 2035 3514 3046 C 3514 3974 2861 4410 1798 4410 z M 1779 2099 L 1248 2099 L 1248 3936 L 1792 3936 C 2445 3936 2867 3699 2867 3040 C 2867 2291 2432 2099 1779 2099 z" transform="scale(.01563)"/></defs><use xlink:href="#FiraGO-Regular-50"/><use xlink:href="#FiraGO-Regular-65" x="58.9"/><use xlink:href="#FiraGO-Regular-72" x="113.3"/><use xlink:href="#FiraGO-Regular-73" x="151.6"/><use xlink:href="#FiraGO-Regular-6f" x="198.3"/><use xlink:href="#FiraGO-Regular-6e" x="256.7"/><use xlink:href="#FiraGO-Regular-61" x="314.6"/><use xlink:href="#FiraGO-Regular-6c" x="369"/><use xlink:href="#FiraGO-Regular-69" x="398.4"/><use xlink:href="#FiraGO-Regular-73" x="426"/><use xlink:href="#FiraGO-Regular-69" x="472.7"/><use xlink:href="#FiraGO-Regular-65" x="500.3"/><use xlink:href="#FiraGO-Regular-72" x="554.7"/><use xlink:href="#FiraGO-Regular-75" x="593"/><use xlink:href="#FiraGO-Regular-6e" x="650.5"/><use xlink:href="#FiraGO-Regular-67" x="708.4"/></g></g><g id="ytick_7"><path d="M 211.806875 155.860518 L 568.926875 155.860518" clip-path="url(#p70979f82ae)" fill="none" stroke="#fff" stroke-width=".8" stroke-linecap="round" id="line2d_15"/><g transform="matrix(.0968 0 0 -.0968 70.076 159.636)" fill="#262626" id="text_16"><defs><path id="FiraGO-Regular-45" d="M 3027 4410 L 640 4410 L 640 0 L 3078 0 L 3078 486 L 1248 486 L 1248 1997 L 2733 1997 L 2733 2483 L 1248 2483 L 1248 3923 L 2957 3923 L 3027 4410 z" transform="scale(.01563)"/><path id="FiraGO-Regular-5f" d="M 109 -909 L 3219 -909 L 3219 -403 L 109 -403 L 109 -909 z" transform="scale(.01563)"/></defs><use xlink:href="#FiraGO-Regular-4d"/><use xlink:href="#FiraGO-Regular-69" x="77.8"/><use xlink:href="#FiraGO-Regular-74" x="105.4"/><use xlink:href="#FiraGO-Regular-74" x="141.5"/><use xlink:href="#FiraGO-Regular-65" x="177.6"/><use xlink:href="#FiraGO-Regular-69" x="232"/><use xlink:href="#FiraGO-Regular-6c" x="259.6"/><use xlink:href="#FiraGO-Regular-75" x="289"/><use xlink:href="#FiraGO-Regular-6e" x="346.5"/><use xlink:href="#FiraGO-Regular-67" x="404.4"/><use xlink:href="#FiraGO-Regular-65" x="456.4"/><use xlink:href="#FiraGO-Regular-6e" x="510.8"/><use xlink:href="#FiraGO-Regular-20" x="568.7"/><use xlink:href="#FiraGO-Regular-64" x="595.2"/><use xlink:href="#FiraGO-Regular-65" x="654.2"/><use xlink:href="#FiraGO-Regular-72" x="708.6"/><use xlink:href="#FiraGO-Regular-20" x="746.9"/><use xlink:href="#FiraGO-Regular-45" x="773.4"/><use xlink:href="#FiraGO-Regular-6e" x="826.9"/><use xlink:href="#FiraGO-Regular-74" x="884.8"/><use xlink:href="#FiraGO-Regular-77" x="920.9"/><use xlink:href="#FiraGO-Regular-69" x="992.6"/><use xlink:href="#FiraGO-Regular-63" x="1020.2"/><use xlink:href="#FiraGO-Regular-6b" x="1067.9"/><use xlink:href="#FiraGO-Regular-6c" x="1118.8"/><use xlink:href="#FiraGO-Regular-65" x="1148.2"/><use xlink:href="#FiraGO-Regular-72" x="1202.6"/><use xlink:href="#FiraGO-Regular-5f" x="1240.9"/><use xlink:href="#FiraGO-Regular-69" x="1292.9"/><use xlink:href="#FiraGO-Regular-6e" x="1320.5"/></g></g></g><path d="M 211.806875 17.112282 L 431.00445 17.112282 L 431.00445 26.362165 L 211.806875 26.362165 z" clip-path="url(#p70979f82ae)" fill="#de8f05" fill-opacity=".75" stroke="#fff" stroke-width=".8" id="patch_3"/><path d="M 211.806875 40.236988 L 341.651446 40.236988 L 341.651446 49.486871 L 211.806875 49.486871 z" clip-path="url(#p70979f82ae)" fill="#de8f05" fill-opacity=".75" stroke="#fff" stroke-width=".8" id="patch_4"/><path d="M 211.806875 63.361694 L 409.447387 63.361694 L 409.447387 72.611576 L 211.806875 72.611576 z" clip-path="url(#p70979f82ae)" fill="#de8f05" fill-opacity=".75" stroke="#fff" stroke-width=".8" id="patch_5"/><path d="M 211.806875 86.4864 L 258.19455 86.4864 L 258.19455 95.736282 L 211.806875 95.736282 z" clip-path="url(#p70979f82ae)" fill="#de8f05" fill-opacity=".75" stroke="#fff" stroke-width=".8" id="patch_6"/><path d="M 211.806875 109.611106 L 290.706842 109.611106 L 290.706842 118.860988 L 211.806875 118.860988 z" clip-path="url(#p70979f82ae)" fill="#de8f05" fill-opacity=".75" stroke="#fff" stroke-width=".8" id="patch_7"/><path d="M 211.806875 132.735812 L 264.332454 132.735812 L 264.332454 141.985694 L 211.806875 141.985694 z" clip-path="url(#p70979f82ae)" fill="#de8f05" fill-opacity=".75" stroke="#fff" stroke-width=".8" id="patch_8"/><path d="M 211.806875 155.860518 L 256.427578 155.860518 L 256.427578 165.1104 L 211.806875 165.1104 z" clip-path="url(#p70979f82ae)" fill="#de8f05" fill-opacity=".75" stroke="#fff" stroke-width=".8" id="patch_9"/><path d="M 211.806875 7.8624 L 551.921161 7.8624 L 551.921161 17.112282 L 211.806875 17.112282 z" clip-path="url(#p70979f82ae)" fill="#0173b2" fill-opacity=".75" stroke="#fff" stroke-width=".8" id="patch_10"/><path d="M 211.806875 30.987106 L 503.003925 30.987106 L 503.003925 40.236988 L 211.806875 40.236988 z" clip-path="url(#p70979f82ae)" fill="#0173b2" fill-opacity=".75" stroke="#fff" stroke-width=".8" id="patch_11"/><path d="M 211.806875 54.111812 L 422.169588 54.111812 L 422.169588 63.361694 L 211.806875 63.361694 z" clip-path="url(#p70979f82ae)" fill="#0173b2" fill-opacity=".75" stroke="#fff" stroke-width=".8" id="patch_12"/><path d="M 211.806875 77.236518 L 408.889396 77.236518 L 408.889396 86.4864 L 211.806875 86.4864 z" clip-path="url(#p70979f82ae)" fill="#0173b2" fill-opacity=".75" stroke="#fff" stroke-width=".8" id="patch_13"/><path d="M 211.806875 100.361224 L 365.998466 100.361224 L 365.998466 109.611106 L 211.806875 109.611106 z" clip-path="url(#p70979f82ae)" fill="#0173b2" fill-opacity=".75" stroke="#fff" stroke-width=".8" id="patch_14"/><path d="M 211.806875 123.485929 L 343.660215 123.485929 L 343.660215 132.735812 L 211.806875 132.735812 z" clip-path="url(#p70979f82ae)" fill="#0173b2" fill-opacity=".75" stroke="#fff" stroke-width=".8" id="patch_15"/><path d="M 211.806875 146.610635 L 328.929245 146.610635 L 328.929245 155.860518 L 211.806875 155.860518 z" clip-path="url(#p70979f82ae)" fill="#0173b2" fill-opacity=".75" stroke="#fff" stroke-width=".8" id="patch_16"/><path d="M 211.806875 172.9728 L 211.806875 -0" fill="none" stroke="#fff" stroke-linecap="square" id="patch_17"/><path d="M 568.926875 172.9728 L 568.926875 -0" fill="none" stroke="#fff" stroke-linecap="square" id="patch_18"/><path d="M 211.806875 172.9728 L 568.926875 172.9728" fill="none" stroke="#fff" stroke-linecap="square" id="patch_19"/><path d="M 211.806875 -0 L 568.926875 -0" fill="none" stroke="#fff" stroke-linecap="square" id="patch_20"/><g id="legend_1"><path d="M 432.9864 168.1328 L 562.150875 168.1328 Q 564.086875 168.1328 564.086875 166.1968 L 564.086875 138.551325 Q 564.086875 136.615325 562.150875 136.615325 L 432.9864 136.615325 Q 431.0504 136.615325 431.0504 138.551325 L 431.0504 166.1968 Q 431.0504 168.1328 432.9864 168.1328 z" fill="#eaeaf2" opacity=".8" stroke="#ccc" stroke-width=".8" id="patch_21"/><path d="M 434.9224 147.747325 L 454.2824 147.747325 L 454.2824 140.971325 L 434.9224 140.971325 z" fill="#0173b2" fill-opacity=".75" stroke="#fff" stroke-width=".8" id="patch_22"/><g transform="matrix(.0968 0 0 -.0968 462.026 147.747)" fill="#262626" id="text_17"><defs><path id="FiraGO-Regular-44" d="M 1562 4410 L 640 4410 L 640 0 L 1696 0 C 2650 0 3770 429 3770 2227 C 3770 4058 2688 4410 1562 4410 z M 1696 3923 C 2400 3923 3123 3718 3123 2227 C 3123 774 2432 480 1741 480 L 1248 480 L 1248 3923 L 1696 3923 z" transform="scale(.01563)"/></defs><use xlink:href="#FiraGO-Regular-65"/><use xlink:href="#FiraGO-Regular-72" x="54.4"/><use xlink:href="#FiraGO-Regular-68" x="92.7"/><use xlink:href="#FiraGO-Regular-6f" x="150.6"/><use xlink:href="#FiraGO-Regular-62" x="209"/><use xlink:href="#FiraGO-Regular-65" x="267.6"/><use xlink:href="#FiraGO-Regular-6e" x="322"/><use xlink:href="#FiraGO-Regular-65" x="379.9"/><use xlink:href="#FiraGO-Regular-20" x="434.3"/><use xlink:href="#FiraGO-Regular-44" x="460.8"/><use xlink:href="#FiraGO-Regular-61" x="525.2"/><use xlink:href="#FiraGO-Regular-74" x="579.6"/><use xlink:href="#FiraGO-Regular-65" x="615.7"/><use xlink:href="#FiraGO-Regular-6e" x="670.1"/></g><path d="M 434.9224 162.199262 L 454.2824 162.199262 L 454.2824 155.423262 L 434.9224 155.423262 z" fill="#de8f05" fill-opacity=".75" stroke="#fff" stroke-width=".8" id="patch_23"/><g transform="matrix(.0968 0 0 -.0968 462.026 162.2)" fill="#262626" id="text_18"><use xlink:href="#FiraGO-Regular-77"/><use xlink:href="#FiraGO-Regular-65" x="71.7"/><use xlink:href="#FiraGO-Regular-69" x="126.1"/><use xlink:href="#FiraGO-Regular-74" x="153.7"/><use xlink:href="#FiraGO-Regular-65" x="189.8"/><use xlink:href="#FiraGO-Regular-72" x="244.2"/><use xlink:href="#FiraGO-Regular-67" x="282.5"/><use xlink:href="#FiraGO-Regular-65" x="334.5"/><use xlink:href="#FiraGO-Regular-67" x="388.9"/><use xlink:href="#FiraGO-Regular-65" x="440.9"/><use xlink:href="#FiraGO-Regular-62" x="495.3"/><use xlink:href="#FiraGO-Regular-65" x="553.9"/><use xlink:href="#FiraGO-Regular-6e" x="608.3"/><use xlink:href="#FiraGO-Regular-65" x="666.2"/><use xlink:href="#FiraGO-Regular-20" x="720.6"/><use xlink:href="#FiraGO-Regular-44" x="747.1"/><use xlink:href="#FiraGO-Regular-61" x="811.5"/><use xlink:href="#FiraGO-Regular-74" x="865.9"/><use xlink:href="#FiraGO-Regular-65" x="902"/><use xlink:href="#FiraGO-Regular-6e" x="956.4"/></g></g></g></g><defs><clipPath id="p70979f82ae"><path d="M211.807 0H568.927V172.973H211.807z"/></clipPath></defs></svg>