<svg xmlns:xlink="http://www.w3.org/1999/xlink" width="654.229" height="653.248" viewBox="0 0 490.672 489.936" xmlns="http://www.w3.org/2000/svg"><defs><style>*{stroke-linejoin:round;stroke-linecap:butt}</style></defs><g id="figure_1"><path d="M 0 489.935788 L 490.671637 489.935788 L 490.671637 0 L 0 0 L 0 489.935788 z" fill="none" id="patch_1"/><g id="axes_1"><path d="M 133.551638 456.624 L 490.671638 456.624 L 490.671638 0 L 133.551638 0 L 133.551638 456.624 z" fill="none" id="patch_2"/><g id="matplotlib.axis_1"><g id="xtick_1"><path d="M 133.551638 456.624 L 133.551638 0" clip-path="url(#pdeaf960686)" fill="none" stroke="#fff" stroke-width=".8" stroke-linecap="round" id="line2d_1"/><g transform="matrix(.0968 0 0 -.0968 130.851 472.184)" fill="#262626" id="text_1"><defs><path id="FiraGO-Regular-30" d="M 1786 4346 C 826 4346 352 3558 352 2138 C 352 717 826 -77 1786 -77 C 2746 -77 3219 717 3219 2138 C 3219 3552 2746 4346 1786 4346 z M 1786 3878 C 2317 3878 2605 3392 2605 2138 C 2605 877 2317 390 1786 390 C 1248 390 966 877 966 2138 C 966 3392 1248 3878 1786 3878 z" transform="scale(.01563)"/></defs><use xlink:href="#FiraGO-Regular-30"/></g></g><g id="xtick_2"><path d="M 208.384264 456.624 L 208.384264 0" clip-path="url(#pdeaf960686)" fill="none" stroke="#fff" stroke-width=".8" stroke-linecap="round" id="line2d_2"/><g transform="matrix(.0968 0 0 -.0968 200.587 472.184)" fill="#262626" id="text_2"><defs><path id="FiraGO-Regular-32" d="M 1459 4346 C 922 4346 506 4128 160 3699 L 544 3392 C 832 3718 1069 3859 1427 3859 C 1843 3859 2131 3597 2131 3149 C 2131 2451 1760 2042 250 467 L 250 0 L 2778 0 L 2848 493 L 922 493 C 2234 1805 2746 2374 2746 3174 C 2746 3840 2246 4346 1459 4346 z" transform="scale(.01563)"/></defs><use xlink:href="#FiraGO-Regular-32"/><use xlink:href="#FiraGO-Regular-30" x="49.5"/><use xlink:href="#FiraGO-Regular-30" x="105.3"/></g></g><g id="xtick_3"><path d="M 283.21689 456.624 L 283.21689 0" clip-path="url(#pdeaf960686)" fill="none" stroke="#fff" stroke-width=".8" stroke-linecap="round" id="line2d_3"/><g transform="matrix(.0968 0 0 -.0968 275.24 472.184)" fill="#262626" id="text_3"><defs><path id="FiraGO-Regular-34" d="M 3213 1523 L 2656 1523 L 2656 2675 L 2144 2675 L 2093 1523 L 877 1523 L 2035 4141 L 1542 4346 L 256 1478 L 256 1056 L 2086 1056 L 2086 0 L 2656 0 L 2656 1056 L 3213 1056 L 3213 1523 z" transform="scale(.01563)"/></defs><use xlink:href="#FiraGO-Regular-34"/><use xlink:href="#FiraGO-Regular-30" x="53.2"/><use xlink:href="#FiraGO-Regular-30" x="109"/></g></g><g id="xtick_4"><path d="M 358.049516 456.624 L 358.049516 0" clip-path="url(#pdeaf960686)" fill="none" stroke="#fff" stroke-width=".8" stroke-linecap="round" id="line2d_4"/><g transform="matrix(.0968 0 0 -.0968 350.069 472.184)" fill="#262626" id="text_4"><defs><path id="FiraGO-Regular-36" d="M 1971 2816 C 1568 2816 1222 2650 941 2253 C 973 3232 1344 3878 1965 3878 C 2202 3878 2426 3814 2624 3693 L 2854 4083 C 2605 4250 2317 4346 1971 4346 C 960 4346 352 3411 352 2010 C 352 781 749 -77 1792 -77 C 2547 -77 3155 518 3155 1453 C 3155 2368 2598 2816 1971 2816 z M 1792 390 C 1222 390 973 826 947 1760 C 1165 2112 1485 2349 1869 2349 C 2272 2349 2560 2112 2560 1434 C 2560 806 2298 390 1792 390 z" transform="scale(.01563)"/></defs><use xlink:href="#FiraGO-Regular-36"/><use xlink:href="#FiraGO-Regular-30" x="53.3"/><use xlink:href="#FiraGO-Regular-30" x="109.1"/></g></g><g id="xtick_5"><path d="M 432.882142 456.624 L 432.882142 0" clip-path="url(#pdeaf960686)" fill="none" stroke="#fff" stroke-width=".8" stroke-linecap="round" id="line2d_5"/><g transform="matrix(.0968 0 0 -.0968 424.814 472.184)" fill="#262626" id="text_5"><defs><path id="FiraGO-Regular-38" d="M 2336 2298 C 2822 2541 3066 2829 3066 3264 C 3066 3994 2406 4346 1766 4346 C 1114 4346 467 3968 467 3245 C 467 2803 672 2477 1133 2246 C 608 2016 288 1683 288 1133 C 288 429 870 -77 1754 -77 C 2624 -77 3238 429 3238 1146 C 3238 1683 2925 2061 2336 2298 z M 1766 3904 C 2234 3904 2490 3642 2490 3245 C 2490 2880 2330 2656 1946 2438 L 1837 2477 C 1344 2637 1043 2797 1043 3238 C 1043 3667 1325 3904 1766 3904 z M 1760 390 C 1229 390 902 666 902 1133 C 902 1600 1107 1894 1530 2099 L 1690 2042 C 2381 1805 2624 1600 2624 1139 C 2624 691 2298 390 1760 390 z" transform="scale(.01563)"/></defs><use xlink:href="#FiraGO-Regular-38"/><use xlink:href="#FiraGO-Regular-30" x="55.1"/><use xlink:href="#FiraGO-Regular-30" x="110.9"/></g></g><g transform="matrix(.1056 0 0 -.1056 201.793 487.687)" fill="#262626" id="text_6"><defs><path id="FiraGO-Regular-41" d="M 2989 0 L 3629 0 L 2221 4410 L 1453 4410 L 38 0 L 653 0 L 986 1107 L 2656 1107 L 2989 0 z M 1133 1600 L 1824 3904 L 2509 1600 L 1133 1600 z" transform="scale(.01563)"/><path id="FiraGO-Regular-6e" d="M 2176 3450 C 1734 3450 1376 3219 1146 2874 L 1094 3373 L 589 3373 L 589 0 L 1178 0 L 1178 2394 C 1402 2752 1658 2989 2035 2989 C 2362 2989 2566 2842 2566 2336 L 2566 0 L 3155 0 L 3155 2419 C 3155 3059 2797 3450 2176 3450 z" transform="scale(.01563)"/><path id="FiraGO-Regular-7a" d="M 2586 3373 L 307 3373 L 307 2874 L 1914 2874 L 160 442 L 160 0 L 2534 0 L 2605 493 L 826 493 L 2586 2925 L 2586 3373 z" transform="scale(.01563)"/><path id="FiraGO-Regular-61" d="M 2880 787 L 2880 2330 C 2880 3034 2509 3450 1696 3450 C 1318 3450 947 3373 531 3219 L 678 2790 C 1024 2906 1338 2970 1587 2970 C 2054 2970 2291 2790 2291 2304 L 2291 2054 L 1773 2054 C 832 2054 288 1664 288 941 C 288 339 691 -77 1363 -77 C 1773 -77 2131 77 2368 429 C 2470 96 2688 -38 3027 -77 L 3162 333 C 2989 397 2880 493 2880 787 z M 1498 365 C 1114 365 915 576 915 973 C 915 1434 1229 1664 1850 1664 L 2291 1664 L 2291 890 C 2099 538 1843 365 1498 365 z" transform="scale(.01563)"/><path id="FiraGO-Regular-68" d="M 2176 3450 C 1754 3450 1421 3238 1178 2906 L 1178 4787 L 589 4723 L 589 0 L 1178 0 L 1178 2400 C 1402 2752 1664 2989 2029 2989 C 2349 2989 2566 2842 2566 2336 L 2566 0 L 3155 0 L 3155 2419 C 3155 3053 2790 3450 2176 3450 z" transform="scale(.01563)"/><path id="FiraGO-Regular-6c" d="M 1254 -77 C 1427 -77 1594 -32 1722 38 L 1568 448 C 1504 422 1434 410 1350 410 C 1197 410 1139 499 1139 678 L 1139 4800 L 550 4730 L 550 666 C 550 186 826 -77 1254 -77 z" transform="scale(.01563)"/><path id="FiraGO-Regular-dc" d="M 1446 5722 C 1235 5722 1075 5562 1075 5357 C 1075 5152 1235 4992 1446 4992 C 1651 4992 1811 5152 1811 5357 C 1811 5562 1651 5722 1446 5722 z M 2784 5722 C 2579 5722 2419 5562 2419 5357 C 2419 5152 2579 4992 2784 4992 C 2995 4992 3155 5152 3155 5357 C 3155 5562 2995 5722 2784 5722 z M 3661 4410 L 3046 4410 L 3046 1459 C 3046 774 2746 435 2112 435 C 1485 435 1184 774 1184 1459 L 1184 4410 L 576 4410 L 576 1414 C 576 538 1107 -77 2112 -77 C 3104 -77 3661 538 3661 1414 L 3661 4410 z" transform="scale(.01563)"/><path id="FiraGO-Regular-62" d="M 2131 3450 C 1722 3450 1408 3264 1178 2950 L 1178 4800 L 589 4730 L 589 0 L 1107 0 L 1165 371 C 1395 90 1690 -77 2061 -77 C 2880 -77 3386 634 3386 1690 C 3386 2816 2893 3450 2131 3450 z M 1920 390 C 1619 390 1350 576 1178 845 L 1178 2458 C 1350 2726 1594 2982 1965 2982 C 2438 2982 2752 2650 2752 1690 C 2752 768 2413 390 1920 390 z" transform="scale(.01563)"/><path id="FiraGO-Regular-65" d="M 3155 1786 C 3155 2816 2675 3450 1766 3450 C 896 3450 365 2701 365 1651 C 365 582 915 -77 1856 -77 C 2323 -77 2701 83 3034 346 L 2778 698 C 2483 493 2234 403 1901 403 C 1414 403 1050 704 992 1485 L 3142 1485 C 3149 1562 3155 1670 3155 1786 z M 2573 1920 L 992 1920 C 1037 2669 1331 2982 1779 2982 C 2310 2982 2573 2618 2573 1958 L 2573 1920 z" transform="scale(.01563)"/><path id="FiraGO-Regular-72" d="M 2054 3450 C 1645 3450 1331 3194 1152 2688 L 1094 3373 L 589 3373 L 589 0 L 1178 0 L 1178 1926 C 1318 2573 1562 2874 1984 2874 C 2106 2874 2176 2861 2278 2835 L 2387 3411 C 2285 3437 2163 3450 2054 3450 z" transform="scale(.01563)"/><path id="FiraGO-Regular-74" d="M 2086 544 C 1920 454 1786 410 1638 410 C 1344 410 1235 570 1235 909 L 1235 2918 L 1971 2918 L 2035 3373 L 1235 3373 L 1235 4205 L 646 4134 L 646 3373 L 58 3373 L 58 2918 L 646 2918 L 646 883 C 646 256 986 -77 1555 -77 C 1843 -77 2086 0 2310 154 L 2086 544 z" transform="scale(.01563)"/><path id="FiraGO-Regular-67" d="M 3155 3750 C 2758 3571 2451 3430 1613 3450 C 870 3450 314 2963 314 2272 C 314 1837 493 1542 883 1338 C 640 1178 512 960 512 742 C 512 403 781 102 1382 102 L 1914 102 C 2336 102 2592 -58 2592 -378 C 2592 -717 2336 -902 1606 -902 C 864 -902 691 -723 691 -339 L 160 -339 C 160 -1024 506 -1363 1606 -1363 C 2650 -1363 3187 -992 3187 -339 C 3187 198 2726 595 2035 595 L 1498 595 C 1152 595 1056 717 1056 870 C 1056 992 1126 1114 1222 1184 C 1363 1139 1498 1120 1651 1120 C 2458 1120 2938 1600 2938 2266 C 2938 2656 2739 2938 2342 3117 C 2726 3117 3046 3130 3328 3219 L 3155 3750 z M 1613 3027 C 2093 3027 2336 2771 2336 2278 C 2336 1792 2086 1510 1626 1510 C 1165 1510 915 1824 915 2272 C 915 2714 1158 3027 1613 3027 z" transform="scale(.01563)"/><path id="FiraGO-Regular-75" d="M 3091 3373 L 2502 3373 L 2502 966 C 2298 627 2022 384 1658 384 C 1293 384 1139 557 1139 1018 L 1139 3373 L 550 3373 L 550 954 C 550 294 902 -77 1491 -77 C 1971 -77 2285 115 2541 525 L 2586 0 L 3091 0 L 3091 3373 z" transform="scale(.01563)"/><path id="FiraGO-Regular-70" d="M 2138 3450 C 1754 3450 1389 3264 1139 2918 L 1094 3373 L 589 3373 L 589 -1363 L 1178 -1293 L 1178 307 C 1395 45 1696 -77 2061 -77 C 2931 -77 3386 666 3386 1690 C 3386 2752 3034 3450 2138 3450 z M 1920 403 C 1613 403 1350 550 1178 813 L 1178 2458 C 1357 2726 1632 2982 1990 2982 C 2496 2982 2752 2566 2752 1690 C 2752 806 2458 403 1920 403 z" transform="scale(.01563)"/><path id="FiraGO-Regular-6f" d="M 1875 3450 C 915 3450 365 2726 365 1683 C 365 614 909 -77 1869 -77 C 2822 -77 3373 646 3373 1690 C 3373 2758 2835 3450 1875 3450 z M 1875 2976 C 2432 2976 2739 2566 2739 1690 C 2739 806 2432 397 1869 397 C 1306 397 998 806 998 1683 C 998 2566 1312 2976 1875 2976 z" transform="scale(.01563)"/><path id="FiraGO-Regular-64" d="M 2598 4800 L 2598 3034 C 2374 3270 2086 3450 1690 3450 C 864 3450 365 2701 365 1670 C 365 621 819 -77 1638 -77 C 2054 -77 2394 128 2611 467 L 2669 0 L 3187 0 L 3187 4730 L 2598 4800 z M 1766 390 C 1280 390 998 794 998 1683 C 998 2560 1312 2982 1818 2982 C 2150 2982 2387 2810 2598 2541 L 2598 890 C 2374 576 2144 390 1766 390 z" transform="scale(.01563)"/><path id="FiraGO-Regular-54" d="M 3245 4410 L 96 4410 L 96 3891 L 1350 3891 L 1350 0 L 1958 0 L 1958 3891 L 3181 3891 L 3245 4410 z" transform="scale(.01563)"/><path id="FiraGO-Regular-63" d="M 1837 3450 C 922 3450 365 2733 365 1658 C 365 570 928 -77 1837 -77 C 2227 -77 2566 51 2867 294 L 2598 678 C 2342 512 2144 422 1862 422 C 1331 422 998 787 998 1670 C 998 2547 1331 2963 1862 2963 C 2144 2963 2355 2880 2586 2714 L 2867 3085 C 2554 3347 2234 3450 1837 3450 z" transform="scale(.01563)"/><path id="FiraGO-Regular-6b" d="M 1178 4800 L 589 4730 L 589 0 L 1178 0 L 1178 4800 z M 3117 3373 L 2458 3373 L 1216 1843 L 2554 0 L 3258 0 L 1875 1882 L 3117 3373 z" transform="scale(.01563)"/></defs><use xlink:href="#FiraGO-Regular-41"/><use xlink:href="#FiraGO-Regular-6e" x="57.3"/><use xlink:href="#FiraGO-Regular-7a" x="115.2"/><use xlink:href="#FiraGO-Regular-61" x="158.4"/><use xlink:href="#FiraGO-Regular-68" x="212.8"/><use xlink:href="#FiraGO-Regular-6c" x="270.7"/><use xlink:href="#FiraGO-Regular-20" x="300.1"/><use xlink:href="#FiraGO-Regular-61" x="326.6"/><use xlink:href="#FiraGO-Regular-6e" x="381"/><use xlink:href="#FiraGO-Regular-20" x="438.9"/><use xlink:href="#FiraGO-Regular-dc" x="465.4"/><use xlink:href="#FiraGO-Regular-62" x="531.6"/><use xlink:href="#FiraGO-Regular-65" x="590.2"/><use xlink:href="#FiraGO-Regular-72" x="644.6"/><use xlink:href="#FiraGO-Regular-74" x="682.9"/><use xlink:href="#FiraGO-Regular-72" x="719"/><use xlink:href="#FiraGO-Regular-61" x="757.3"/><use xlink:href="#FiraGO-Regular-67" x="811.7"/><use xlink:href="#FiraGO-Regular-75" x="863.7"/><use xlink:href="#FiraGO-Regular-6e" x="921.2"/><use xlink:href="#FiraGO-Regular-67" x="979.1"/><use xlink:href="#FiraGO-Regular-65" x="1031.1"/><use xlink:href="#FiraGO-Regular-6e" x="1085.5"/><use xlink:href="#FiraGO-Regular-20" x="1143.4"/><use xlink:href="#FiraGO-Regular-70" x="1169.9"/><use xlink:href="#FiraGO-Regular-72" x="1228.5"/><use xlink:href="#FiraGO-Regular-6f" x="1266.8"/><use xlink:href="#FiraGO-Regular-20" x="1325.2"/><use xlink:href="#FiraGO-Regular-41" x="1351.7"/><use xlink:href="#FiraGO-Regular-70" x="1409"/><use xlink:href="#FiraGO-Regular-70" x="1467.6"/><use xlink:href="#FiraGO-Regular-20" x="1526.2"/><use xlink:href="#FiraGO-Regular-75" x="1552.7"/><use xlink:href="#FiraGO-Regular-6e" x="1610.2"/><use xlink:href="#FiraGO-Regular-64" x="1668.1"/><use xlink:href="#FiraGO-Regular-20" x="1727.1"/><use xlink:href="#FiraGO-Regular-54" x="1753.6"/><use xlink:href="#FiraGO-Regular-72" x="1805.3"/><use xlink:href="#FiraGO-Regular-61" x="1843.6"/><use xlink:href="#FiraGO-Regular-63" x="1898"/><use xlink:href="#FiraGO-Regular-6b" x="1945.7"/><use xlink:href="#FiraGO-Regular-65" x="1996.6"/><use xlink:href="#FiraGO-Regular-72" x="2051"/></g></g><g id="matplotlib.axis_2"><g id="ytick_1"><path d="M 133.551638 25.668213 L 490.671638 25.668213" clip-path="url(#pdeaf960686)" fill="none" stroke="#fff" stroke-width=".8" stroke-linecap="round" id="line2d_6"/><g transform="matrix(.0968 0 0 -.0968 95.37 29.298)" fill="#262626" id="text_7"><defs><path id="FiraGO-Regular-2d" d="M 384 1754 L 2195 1754 L 2195 2253 L 384 2253 L 384 1754 z" transform="scale(.01563)"/><path id="FiraGO-Regular-49" d="M 1248 4410 L 640 4410 L 640 0 L 1248 0 L 1248 4410 z" transform="scale(.01563)"/><path id="FiraGO-Regular-44" d="M 1562 4410 L 640 4410 L 640 0 L 1696 0 C 2650 0 3770 429 3770 2227 C 3770 4058 2688 4410 1562 4410 z M 1696 3923 C 2400 3923 3123 3718 3123 2227 C 3123 774 2432 480 1741 480 L 1248 480 L 1248 3923 L 1696 3923 z" transform="scale(.01563)"/></defs><use xlink:href="#FiraGO-Regular-41"/><use xlink:href="#FiraGO-Regular-70" x="57.3"/><use xlink:href="#FiraGO-Regular-70" x="115.9"/><use xlink:href="#FiraGO-Regular-2d" x="174.5"/><use xlink:href="#FiraGO-Regular-49" x="214.8"/><use xlink:href="#FiraGO-Regular-44" x="244.3"/></g></g><g id="ytick_2"><path d="M 133.551638 37.949655 L 490.671638 37.949655" clip-path="url(#pdeaf960686)" fill="none" stroke="#fff" stroke-width=".8" stroke-linecap="round" id="line2d_7"/><g transform="matrix(.0968 0 0 -.0968 84.354 41.58)" fill="#262626" id="text_8"><defs><path id="FiraGO-Regular-57" d="M 5126 4410 L 4570 4410 L 3834 531 L 2963 4410 L 2317 4410 L 1466 531 L 755 4410 L 160 4410 L 1056 0 L 1818 0 L 2637 3693 L 3450 0 L 4230 0 L 5126 4410 z" transform="scale(.01563)"/></defs><use xlink:href="#FiraGO-Regular-57"/><use xlink:href="#FiraGO-Regular-65" x="82.6"/><use xlink:href="#FiraGO-Regular-72" x="137"/><use xlink:href="#FiraGO-Regular-62" x="175.3"/><use xlink:href="#FiraGO-Regular-65" x="233.9"/><use xlink:href="#FiraGO-Regular-2d" x="288.3"/><use xlink:href="#FiraGO-Regular-49" x="328.6"/><use xlink:href="#FiraGO-Regular-44" x="358.1"/></g></g><g id="ytick_3"><path d="M 133.551638 50.231096 L 490.671638 50.231096" clip-path="url(#pdeaf960686)" fill="none" stroke="#fff" stroke-width=".8" stroke-linecap="round" id="line2d_8"/><g transform="matrix(.0968 0 0 -.0968 21.269 54.006)" fill="#262626" id="text_9"><defs><path id="FiraGO-Regular-42" d="M 2586 2330 C 3014 2419 3411 2752 3411 3296 C 3411 4064 2771 4410 1683 4410 L 640 4410 L 640 0 L 1856 0 C 2880 0 3603 320 3603 1254 C 3603 2003 3098 2240 2586 2330 z M 1747 3930 C 2400 3930 2790 3795 2790 3251 C 2790 2784 2406 2541 1914 2541 L 1248 2541 L 1248 3930 L 1747 3930 z M 1856 486 L 1248 486 L 1248 2074 L 1971 2074 C 2502 2074 2963 1875 2963 1254 C 2963 614 2496 486 1856 486 z" transform="scale(.01563)"/><path id="FiraGO-Regular-69" d="M 877 4992 C 634 4992 467 4819 467 4589 C 467 4365 634 4192 877 4192 C 1126 4192 1293 4365 1293 4589 C 1293 4819 1126 4992 877 4992 z M 1178 3373 L 589 3373 L 589 0 L 1178 0 L 1178 3373 z" transform="scale(.01563)"/><path id="FiraGO-Regular-73" d="M 1523 3450 C 826 3450 307 3059 307 2522 C 307 2048 595 1734 1325 1542 C 1978 1370 2144 1242 2144 909 C 2144 589 1862 397 1421 397 C 1056 397 742 518 474 723 L 160 365 C 454 109 864 -77 1434 -77 C 2118 -77 2765 243 2765 947 C 2765 1536 2355 1818 1645 1997 C 1101 2138 922 2266 922 2541 C 922 2810 1158 2982 1542 2982 C 1856 2982 2118 2886 2419 2694 L 2669 3066 C 2349 3309 1997 3450 1523 3450 z" transform="scale(.01563)"/><path id="FiraGO-Regular-79" d="M 3085 3373 L 2477 3373 L 1594 429 L 691 3373 L 64 3373 L 1197 0 L 1395 0 C 1203 -525 1011 -787 326 -902 L 390 -1363 C 1325 -1261 1722 -736 1958 -19 L 3085 3373 z" transform="scale(.01563)"/><path id="FiraGO-Regular-6d" d="M 3974 3450 C 3520 3450 3213 3206 2970 2842 C 2842 3226 2534 3450 2118 3450 C 1677 3450 1370 3219 1146 2880 L 1094 3373 L 589 3373 L 589 0 L 1178 0 L 1178 2394 C 1402 2752 1606 2989 1971 2989 C 2227 2989 2445 2842 2445 2336 L 2445 0 L 3034 0 L 3034 2394 C 3264 2752 3462 2989 3827 2989 C 4083 2989 4301 2842 4301 2336 L 4301 0 L 4890 0 L 4890 2419 C 4890 3053 4525 3450 3974 3450 z" transform="scale(.01563)"/><path id="FiraGO-Regular-56" d="M 3520 4410 L 2906 4410 L 1798 659 L 691 4410 L 38 4410 L 1459 0 L 2112 0 L 3520 4410 z" transform="scale(.01563)"/></defs><use xlink:href="#FiraGO-Regular-42"/><use xlink:href="#FiraGO-Regular-65" x="60.8"/><use xlink:href="#FiraGO-Regular-74" x="115.2"/><use xlink:href="#FiraGO-Regular-72" x="151.3"/><use xlink:href="#FiraGO-Regular-69" x="189.6"/><use xlink:href="#FiraGO-Regular-65" x="217.2"/><use xlink:href="#FiraGO-Regular-62" x="271.6"/><use xlink:href="#FiraGO-Regular-73" x="330.2"/><use xlink:href="#FiraGO-Regular-73" x="376.9"/><use xlink:href="#FiraGO-Regular-79" x="423.6"/><use xlink:href="#FiraGO-Regular-73" x="472.8"/><use xlink:href="#FiraGO-Regular-74" x="519.5"/><use xlink:href="#FiraGO-Regular-65" x="555.6"/><use xlink:href="#FiraGO-Regular-6d" x="610"/><use xlink:href="#FiraGO-Regular-2d" x="695"/><use xlink:href="#FiraGO-Regular-56" x="735.3"/><use xlink:href="#FiraGO-Regular-65" x="790.9"/><use xlink:href="#FiraGO-Regular-72" x="845.3"/><use xlink:href="#FiraGO-Regular-73" x="883.6"/><use xlink:href="#FiraGO-Regular-69" x="930.3"/><use xlink:href="#FiraGO-Regular-6f" x="957.9"/><use xlink:href="#FiraGO-Regular-6e" x="1016.3"/></g></g><g id="ytick_4"><path d="M 133.551638 62.512538 L 490.671638 62.512538" clip-path="url(#pdeaf960686)" fill="none" stroke="#fff" stroke-width=".8" stroke-linecap="round" id="line2d_9"/><g transform="matrix(.0968 0 0 -.0968 95.396 66.143)" fill="#262626" id="text_10"><defs><path id="FiraGO-Regular-4d" d="M 4218 4410 L 3392 4410 L 2509 1203 L 1581 4410 L 762 4410 L 397 0 L 973 0 L 1120 1946 C 1171 2592 1203 3277 1203 3795 L 2208 499 L 2778 499 L 3731 3789 C 3738 3424 3782 2682 3840 1990 L 3994 0 L 4582 0 L 4218 4410 z" transform="scale(.01563)"/></defs><use xlink:href="#FiraGO-Regular-4d"/><use xlink:href="#FiraGO-Regular-6f" x="77.8"/><use xlink:href="#FiraGO-Regular-64" x="136.2"/><use xlink:href="#FiraGO-Regular-65" x="195.2"/><use xlink:href="#FiraGO-Regular-6c" x="249.6"/><use xlink:href="#FiraGO-Regular-6c" x="279"/></g></g><g id="ytick_5"><path d="M 133.551638 74.79398 L 490.671638 74.79398" clip-path="url(#pdeaf960686)" fill="none" stroke="#fff" stroke-width=".8" stroke-linecap="round" id="line2d_10"/><g transform="matrix(.0968 0 0 -.0968 71.655 78.57)" fill="#262626" id="text_11"><use xlink:href="#FiraGO-Regular-41"/><use xlink:href="#FiraGO-Regular-70" x="57.3"/><use xlink:href="#FiraGO-Regular-70" x="115.9"/><use xlink:href="#FiraGO-Regular-2d" x="174.5"/><use xlink:href="#FiraGO-Regular-56" x="214.8"/><use xlink:href="#FiraGO-Regular-65" x="270.4"/><use xlink:href="#FiraGO-Regular-72" x="324.8"/><use xlink:href="#FiraGO-Regular-73" x="363.1"/><use xlink:href="#FiraGO-Regular-69" x="409.8"/><use xlink:href="#FiraGO-Regular-6f" x="437.4"/><use xlink:href="#FiraGO-Regular-6e" x="495.8"/></g></g><g id="ytick_6"><path d="M 133.551638 87.075421 L 490.671638 87.075421" clip-path="url(#pdeaf960686)" fill="none" stroke="#fff" stroke-width=".8" stroke-linecap="round" id="line2d_11"/><g transform="matrix(.0968 0 0 -.0968 89.841 90.705)" fill="#262626" id="text_12"><defs><path id="FiraGO-Regular-53" d="M 1728 4486 C 915 4486 339 4013 339 3334 C 339 2650 787 2323 1645 2061 C 2394 1830 2598 1638 2598 1210 C 2598 678 2170 422 1651 422 C 1171 422 826 595 493 864 L 160 493 C 525 134 1024 -77 1658 -77 C 2650 -77 3232 461 3232 1229 C 3232 2074 2630 2349 1926 2566 C 1133 2810 960 2989 960 3360 C 960 3782 1312 3987 1754 3987 C 2118 3987 2426 3872 2758 3603 L 3091 3974 C 2720 4307 2336 4486 1728 4486 z" transform="scale(.01563)"/></defs><use xlink:href="#FiraGO-Regular-53"/><use xlink:href="#FiraGO-Regular-70" x="54.5"/><use xlink:href="#FiraGO-Regular-72" x="113.1"/><use xlink:href="#FiraGO-Regular-61" x="151.4"/><use xlink:href="#FiraGO-Regular-63" x="205.8"/><use xlink:href="#FiraGO-Regular-68" x="253.5"/><use xlink:href="#FiraGO-Regular-65" x="311.4"/></g></g><g id="ytick_7"><path d="M 133.551638 99.356863 L 490.671638 99.356863" clip-path="url(#pdeaf960686)" fill="none" stroke="#fff" stroke-width=".8" stroke-linecap="round" id="line2d_12"/><g transform="matrix(.0968 0 0 -.0968 65.435 102.987)" fill="#262626" id="text_13"><defs><path id="FiraGO-Regular-55" d="M 3661 4410 L 3046 4410 L 3046 1459 C 3046 774 2746 435 2112 435 C 1485 435 1184 774 1184 1459 L 1184 4410 L 576 4410 L 576 1414 C 576 538 1107 -77 2112 -77 C 3104 -77 3661 538 3661 1414 L 3661 4410 z" transform="scale(.01563)"/></defs><use xlink:href="#FiraGO-Regular-61"/><use xlink:href="#FiraGO-Regular-6e" x="54.4"/><use xlink:href="#FiraGO-Regular-64" x="112.3"/><use xlink:href="#FiraGO-Regular-65" x="171.3"/><use xlink:href="#FiraGO-Regular-72" x="225.7"/><use xlink:href="#FiraGO-Regular-65" x="264"/><use xlink:href="#FiraGO-Regular-20" x="318.4"/><use xlink:href="#FiraGO-Regular-55" x="344.9"/><use xlink:href="#FiraGO-Regular-55" x="411.1"/><use xlink:href="#FiraGO-Regular-49" x="477.3"/><use xlink:href="#FiraGO-Regular-44" x="506.8"/><use xlink:href="#FiraGO-Regular-73" x="571.2"/></g></g><g id="ytick_8"><path d="M 133.551638 111.638304 L 490.671638 111.638304" clip-path="url(#pdeaf960686)" fill="none" stroke="#fff" stroke-width=".8" stroke-linecap="round" id="line2d_13"/><g transform="matrix(.0968 0 0 -.0968 53.415 115.414)" fill="#262626" id="text_14"><defs><path id="FiraGO-Regular-f6" d="M 1197 4915 C 986 4915 826 4755 826 4550 C 826 4346 986 4186 1197 4186 C 1402 4186 1562 4346 1562 4550 C 1562 4755 1402 4915 1197 4915 z M 2534 4915 C 2330 4915 2170 4755 2170 4550 C 2170 4346 2330 4186 2534 4186 C 2746 4186 2906 4346 2906 4550 C 2906 4755 2746 4915 2534 4915 z M 1875 3450 C 915 3450 365 2726 365 1683 C 365 614 909 -77 1869 -77 C 2822 -77 3373 646 3373 1690 C 3373 2758 2835 3450 1875 3450 z M 1875 2976 C 2432 2976 2739 2566 2739 1690 C 2739 806 2432 397 1869 397 C 1306 397 998 806 998 1683 C 998 2566 1312 2976 1875 2976 z" transform="scale(.01563)"/><path id="FiraGO-Regular-df" d="M 1875 4800 C 1056 4800 589 4301 589 3450 L 589 0 L 1178 0 L 1178 3450 C 1178 4058 1427 4339 1869 4339 C 2195 4339 2464 4179 2464 3853 C 2464 3283 1760 3302 1760 2688 C 1760 1901 2918 1888 2918 1043 C 2918 608 2669 397 2323 397 C 2118 397 1990 435 1901 480 L 1728 70 C 1894 -19 2080 -77 2381 -77 C 2976 -77 3520 346 3520 1037 C 3520 2150 2317 2195 2317 2733 C 2317 3142 3027 3194 3027 3885 C 3027 4397 2592 4800 1875 4800 z" transform="scale(.01563)"/></defs><use xlink:href="#FiraGO-Regular-42"/><use xlink:href="#FiraGO-Regular-69" x="60.8"/><use xlink:href="#FiraGO-Regular-6c" x="88.4"/><use xlink:href="#FiraGO-Regular-64" x="117.8"/><use xlink:href="#FiraGO-Regular-73" x="176.8"/><use xlink:href="#FiraGO-Regular-63" x="223.5"/><use xlink:href="#FiraGO-Regular-68" x="271.2"/><use xlink:href="#FiraGO-Regular-69" x="329.1"/><use xlink:href="#FiraGO-Regular-72" x="356.7"/><use xlink:href="#FiraGO-Regular-6d" x="395"/><use xlink:href="#FiraGO-Regular-67" x="480"/><use xlink:href="#FiraGO-Regular-72" x="532"/><use xlink:href="#FiraGO-Regular-f6" x="570.3"/><use xlink:href="#FiraGO-Regular-df" x="628.7"/><use xlink:href="#FiraGO-Regular-65" x="687.7"/></g></g><g id="ytick_9"><path d="M 133.551638 123.919746 L 490.671638 123.919746" clip-path="url(#pdeaf960686)" fill="none" stroke="#fff" stroke-width=".8" stroke-linecap="round" id="line2d_14"/><g transform="matrix(.0968 0 0 -.0968 64.975 127.55)" fill="#262626" id="text_15"><defs><path id="FiraGO-Regular-4e" d="M 3731 4410 L 3162 4410 L 3162 2003 C 3162 1466 3232 762 3245 659 L 1434 4410 L 640 4410 L 640 0 L 1210 0 L 1210 2022 C 1210 2842 1158 3379 1126 3744 L 2918 0 L 3731 0 L 3731 4410 z" transform="scale(.01563)"/></defs><use xlink:href="#FiraGO-Regular-4e"/><use xlink:href="#FiraGO-Regular-65" x="68.3"/><use xlink:href="#FiraGO-Regular-74" x="122.7"/><use xlink:href="#FiraGO-Regular-7a" x="158.8"/><use xlink:href="#FiraGO-Regular-62" x="202"/><use xlink:href="#FiraGO-Regular-65" x="260.6"/><use xlink:href="#FiraGO-Regular-74" x="315"/><use xlink:href="#FiraGO-Regular-72" x="351.1"/><use xlink:href="#FiraGO-Regular-65" x="389.4"/><use xlink:href="#FiraGO-Regular-69" x="443.8"/><use xlink:href="#FiraGO-Regular-62" x="471.4"/><use xlink:href="#FiraGO-Regular-65" x="530"/><use xlink:href="#FiraGO-Regular-72" x="584.4"/></g></g><g id="ytick_10"><path d="M 133.551638 136.201188 L 490.671638 136.201188" clip-path="url(#pdeaf960686)" fill="none" stroke="#fff" stroke-width=".8" stroke-linecap="round" id="line2d_15"/><g transform="matrix(.0968 0 0 -.0968 0 139.976)" fill="#262626" id="text_16"><defs><path id="FiraGO-Regular-77" d="M 4461 3373 L 3898 3373 L 3283 410 L 2650 3373 L 1990 3373 L 1325 410 L 717 3373 L 128 3373 L 915 0 L 1696 0 L 2304 2842 L 2893 0 L 3693 0 L 4461 3373 z" transform="scale(.01563)"/><path id="FiraGO-Regular-76" d="M 3085 3373 L 2464 3373 L 1587 525 L 704 3373 L 64 3373 L 1229 0 L 1939 0 L 3085 3373 z" transform="scale(.01563)"/></defs><use xlink:href="#FiraGO-Regular-54"/><use xlink:href="#FiraGO-Regular-79" x="51.7"/><use xlink:href="#FiraGO-Regular-70" x="100.9"/><use xlink:href="#FiraGO-Regular-20" x="159.5"/><use xlink:href="#FiraGO-Regular-64" x="186"/><use xlink:href="#FiraGO-Regular-65" x="245"/><use xlink:href="#FiraGO-Regular-72" x="299.4"/><use xlink:href="#FiraGO-Regular-20" x="337.7"/><use xlink:href="#FiraGO-Regular-4e" x="364.2"/><use xlink:href="#FiraGO-Regular-65" x="432.5"/><use xlink:href="#FiraGO-Regular-74" x="486.9"/><use xlink:href="#FiraGO-Regular-7a" x="523"/><use xlink:href="#FiraGO-Regular-77" x="566.2"/><use xlink:href="#FiraGO-Regular-65" x="637.9"/><use xlink:href="#FiraGO-Regular-72" x="692.3"/><use xlink:href="#FiraGO-Regular-6b" x="730.6"/><use xlink:href="#FiraGO-Regular-76" x="781.5"/><use xlink:href="#FiraGO-Regular-65" x="830.7"/><use xlink:href="#FiraGO-Regular-72" x="885.1"/><use xlink:href="#FiraGO-Regular-62" x="923.4"/><use xlink:href="#FiraGO-Regular-69" x="982"/><use xlink:href="#FiraGO-Regular-6e" x="1009.6"/><use xlink:href="#FiraGO-Regular-64" x="1067.5"/><use xlink:href="#FiraGO-Regular-75" x="1126.5"/><use xlink:href="#FiraGO-Regular-6e" x="1184"/><use xlink:href="#FiraGO-Regular-67" x="1241.9"/></g></g><g id="ytick_11"><path d="M 133.551638 148.482629 L 490.671638 148.482629" clip-path="url(#pdeaf960686)" fill="none" stroke="#fff" stroke-width=".8" stroke-linecap="round" id="line2d_16"/><g transform="matrix(.0968 0 0 -.0968 103.848 152.113)" fill="#262626" id="text_17"><defs><path id="FiraGO-Regular-4c" d="M 1248 4410 L 640 4410 L 640 0 L 2989 0 L 3059 531 L 1248 531 L 1248 4410 z" transform="scale(.01563)"/></defs><use xlink:href="#FiraGO-Regular-4c"/><use xlink:href="#FiraGO-Regular-61" x="49.8"/><use xlink:href="#FiraGO-Regular-6e" x="104.2"/><use xlink:href="#FiraGO-Regular-64" x="162.1"/></g></g><g id="ytick_12"><path d="M 133.551638 160.764071 L 490.671638 160.764071" clip-path="url(#pdeaf960686)" fill="none" stroke="#fff" stroke-width=".8" stroke-linecap="round" id="line2d_17"/><g transform="matrix(.0968 0 0 -.0968 25.517 164.54)" fill="#262626" id="text_18"><defs><path id="FiraGO-Regular-47" d="M 2266 4486 C 1248 4486 352 3693 352 2208 C 352 685 1062 -77 2202 -77 C 2765 -77 3226 77 3642 314 L 3642 2445 L 2189 2445 L 2259 1952 L 3040 1952 L 3040 621 C 2790 480 2496 422 2202 422 C 1427 422 998 941 998 2208 C 998 3507 1632 3987 2266 3987 C 2662 3987 2925 3878 3232 3629 L 3590 4000 C 3213 4314 2848 4486 2266 4486 z" transform="scale(.01563)"/><path id="FiraGO-Regular-e4" d="M 998 4186 C 1203 4186 1363 4346 1363 4550 C 1363 4755 1203 4915 998 4915 C 787 4915 627 4755 627 4550 C 627 4346 787 4186 998 4186 z M 2336 4186 C 2547 4186 2707 4346 2707 4550 C 2707 4755 2547 4915 2336 4915 C 2131 4915 1971 4755 1971 4550 C 1971 4346 2131 4186 2336 4186 z M 2880 787 L 2880 2330 C 2880 3034 2509 3450 1696 3450 C 1318 3450 947 3373 531 3219 L 678 2790 C 1024 2906 1338 2970 1587 2970 C 2054 2970 2291 2790 2291 2304 L 2291 2054 L 1773 2054 C 832 2054 288 1664 288 941 C 288 339 691 -77 1363 -77 C 1773 -77 2131 77 2368 429 C 2470 96 2688 -38 3027 -77 L 3162 333 C 2989 397 2880 493 2880 787 z M 1498 365 C 1114 365 915 576 915 973 C 915 1434 1229 1664 1850 1664 L 2291 1664 L 2291 890 C 2099 538 1843 365 1498 365 z" transform="scale(.01563)"/><path id="FiraGO-Regular-3f" d="M 1523 4486 C 992 4486 557 4282 192 3853 L 595 3539 C 858 3859 1165 4000 1485 4000 C 1882 4000 2131 3802 2131 3450 C 2131 2758 1005 2867 1005 1792 L 1005 1472 L 1587 1472 L 1587 1760 C 1587 2598 2746 2464 2746 3488 C 2746 4000 2330 4486 1523 4486 z M 1312 813 C 1062 813 870 614 870 371 C 870 122 1062 -77 1312 -77 C 1568 -77 1760 122 1760 371 C 1760 614 1568 813 1312 813 z" transform="scale(.01563)"/></defs><use xlink:href="#FiraGO-Regular-69"/><use xlink:href="#FiraGO-Regular-73" x="27.6"/><use xlink:href="#FiraGO-Regular-74" x="74.3"/><use xlink:href="#FiraGO-Regular-20" x="110.4"/><use xlink:href="#FiraGO-Regular-64" x="136.9"/><use xlink:href="#FiraGO-Regular-61" x="195.9"/><use xlink:href="#FiraGO-Regular-73" x="250.3"/><use xlink:href="#FiraGO-Regular-20" x="297"/><use xlink:href="#FiraGO-Regular-47" x="323.5"/><use xlink:href="#FiraGO-Regular-65" x="386.6"/><use xlink:href="#FiraGO-Regular-72" x="441"/><use xlink:href="#FiraGO-Regular-e4" x="479.3"/><use xlink:href="#FiraGO-Regular-74" x="533.7"/><use xlink:href="#FiraGO-Regular-20" x="569.8"/><use xlink:href="#FiraGO-Regular-67" x="596.3"/><use xlink:href="#FiraGO-Regular-65" x="648.3"/><use xlink:href="#FiraGO-Regular-72" x="702.7"/><use xlink:href="#FiraGO-Regular-6f" x="741"/><use xlink:href="#FiraGO-Regular-6f" x="799.4"/><use xlink:href="#FiraGO-Regular-74" x="857.8"/><use xlink:href="#FiraGO-Regular-65" x="893.9"/><use xlink:href="#FiraGO-Regular-74" x="948.3"/><use xlink:href="#FiraGO-Regular-3f" x="984.4"/></g></g><g id="ytick_13"><path d="M 133.551638 173.045513 L 490.671638 173.045513" clip-path="url(#pdeaf960686)" fill="none" stroke="#fff" stroke-width=".8" stroke-linecap="round" id="line2d_18"/><g transform="matrix(.0968 0 0 -.0968 79.686 176.676)" fill="#262626" id="text_19"><use xlink:href="#FiraGO-Regular-41"/><use xlink:href="#FiraGO-Regular-6b" x="57.3"/><use xlink:href="#FiraGO-Regular-6b" x="108.2"/><use xlink:href="#FiraGO-Regular-75" x="159.1"/><use xlink:href="#FiraGO-Regular-73" x="216.6"/><use xlink:href="#FiraGO-Regular-74" x="263.3"/><use xlink:href="#FiraGO-Regular-61" x="299.4"/><use xlink:href="#FiraGO-Regular-6e" x="353.8"/><use xlink:href="#FiraGO-Regular-64" x="411.7"/></g></g><g id="ytick_14"><path d="M 133.551638 185.326954 L 490.671638 185.326954" clip-path="url(#pdeaf960686)" fill="none" stroke="#fff" stroke-width=".8" stroke-linecap="round" id="line2d_19"/><g transform="matrix(.0968 0 0 -.0968 78.922 188.957)" fill="#262626" id="text_20"><use xlink:href="#FiraGO-Regular-4c"/><use xlink:href="#FiraGO-Regular-61" x="49.8"/><use xlink:href="#FiraGO-Regular-75" x="104.2"/><use xlink:href="#FiraGO-Regular-74" x="161.7"/><use xlink:href="#FiraGO-Regular-73" x="197.8"/><use xlink:href="#FiraGO-Regular-74" x="244.5"/><use xlink:href="#FiraGO-Regular-e4" x="280.6"/><use xlink:href="#FiraGO-Regular-72" x="335"/><use xlink:href="#FiraGO-Regular-6b" x="373.3"/><use xlink:href="#FiraGO-Regular-65" x="424.2"/></g></g><g id="ytick_15"><path d="M 133.551638 197.608396 L 490.671638 197.608396" clip-path="url(#pdeaf960686)" fill="none" stroke="#fff" stroke-width=".8" stroke-linecap="round" id="line2d_20"/><g transform="matrix(.0968 0 0 -.0968 54.452 201.238)" fill="#262626" id="text_21"><defs><path id="FiraGO-Regular-52" d="M 2989 0 L 3712 0 L 2522 1978 C 3155 2170 3475 2541 3475 3162 C 3475 3987 2899 4410 1798 4410 L 640 4410 L 640 0 L 1248 0 L 1248 1869 L 1933 1869 L 2989 0 z M 1248 2336 L 1248 3936 L 1792 3936 C 2515 3936 2829 3712 2829 3162 C 2829 2566 2477 2336 1862 2336 L 1248 2336 z" transform="scale(.01563)"/></defs><use xlink:href="#FiraGO-Regular-52"/><use xlink:href="#FiraGO-Regular-41" x="60.5"/><use xlink:href="#FiraGO-Regular-4d" x="117.8"/><use xlink:href="#FiraGO-Regular-2d" x="195.6"/><use xlink:href="#FiraGO-Regular-41" x="235.9"/><use xlink:href="#FiraGO-Regular-75" x="293.2"/><use xlink:href="#FiraGO-Regular-73" x="350.7"/><use xlink:href="#FiraGO-Regular-6c" x="397.4"/><use xlink:href="#FiraGO-Regular-61" x="426.8"/><use xlink:href="#FiraGO-Regular-73" x="481.2"/><use xlink:href="#FiraGO-Regular-74" x="527.9"/><use xlink:href="#FiraGO-Regular-75" x="564"/><use xlink:href="#FiraGO-Regular-6e" x="621.5"/><use xlink:href="#FiraGO-Regular-67" x="679.4"/></g></g><g id="ytick_16"><path d="M 133.551638 209.889838 L 490.671638 209.889838" clip-path="url(#pdeaf960686)" fill="none" stroke="#fff" stroke-width=".8" stroke-linecap="round" id="line2d_21"/><g transform="matrix(.0968 0 0 -.0968 88.06 213.52)" fill="#262626" id="text_22"><defs><path id="FiraGO-Regular-5a" d="M 3053 4410 L 422 4410 L 422 3898 L 2394 3898 L 192 486 L 192 0 L 2982 0 L 3053 518 L 870 518 L 3053 3917 L 3053 4410 z" transform="scale(.01563)"/></defs><use xlink:href="#FiraGO-Regular-5a"/><use xlink:href="#FiraGO-Regular-65" x="52.2"/><use xlink:href="#FiraGO-Regular-69" x="106.6"/><use xlink:href="#FiraGO-Regular-74" x="134.2"/><use xlink:href="#FiraGO-Regular-7a" x="170.3"/><use xlink:href="#FiraGO-Regular-6f" x="213.5"/><use xlink:href="#FiraGO-Regular-6e" x="271.9"/><use xlink:href="#FiraGO-Regular-65" x="329.8"/></g></g><g id="ytick_17"><path d="M 133.551638 222.171279 L 490.671638 222.171279" clip-path="url(#pdeaf960686)" fill="none" stroke="#fff" stroke-width=".8" stroke-linecap="round" id="line2d_22"/><g transform="matrix(.0968 0 0 -.0968 27.887 225.801)" fill="#262626" id="text_23"><defs><path id="FiraGO-Regular-46" d="M 640 0 L 1248 0 L 1248 1939 L 2688 1939 L 2688 2419 L 1248 2419 L 1248 3923 L 2912 3923 L 2982 4410 L 640 4410 L 640 0 z" transform="scale(.01563)"/></defs><use xlink:href="#FiraGO-Regular-46"/><use xlink:href="#FiraGO-Regular-65" x="49.1"/><use xlink:href="#FiraGO-Regular-73" x="103.5"/><use xlink:href="#FiraGO-Regular-74" x="150.2"/><use xlink:href="#FiraGO-Regular-70" x="186.3"/><use xlink:href="#FiraGO-Regular-6c" x="244.9"/><use xlink:href="#FiraGO-Regular-61" x="274.3"/><use xlink:href="#FiraGO-Regular-74" x="328.7"/><use xlink:href="#FiraGO-Regular-74" x="364.8"/><use xlink:href="#FiraGO-Regular-65" x="400.9"/><use xlink:href="#FiraGO-Regular-6e" x="455.3"/><use xlink:href="#FiraGO-Regular-61" x="513.2"/><use xlink:href="#FiraGO-Regular-75" x="567.6"/><use xlink:href="#FiraGO-Regular-73" x="625.1"/><use xlink:href="#FiraGO-Regular-6c" x="671.8"/><use xlink:href="#FiraGO-Regular-61" x="701.2"/><use xlink:href="#FiraGO-Regular-73" x="755.6"/><use xlink:href="#FiraGO-Regular-74" x="802.3"/><use xlink:href="#FiraGO-Regular-75" x="838.4"/><use xlink:href="#FiraGO-Regular-6e" x="895.9"/><use xlink:href="#FiraGO-Regular-67" x="953.8"/></g></g><g id="ytick_18"><path d="M 133.551638 234.452721 L 490.671638 234.452721" clip-path="url(#pdeaf960686)" fill="none" stroke="#fff" stroke-width=".8" stroke-linecap="round" id="line2d_23"/><g transform="matrix(.0968 0 0 -.0968 79.089 238.083)" fill="#262626" id="text_24"><use xlink:href="#FiraGO-Regular-41"/><use xlink:href="#FiraGO-Regular-70" x="57.3"/><use xlink:href="#FiraGO-Regular-70" x="115.9"/><use xlink:href="#FiraGO-Regular-2d" x="174.5"/><use xlink:href="#FiraGO-Regular-4e" x="214.8"/><use xlink:href="#FiraGO-Regular-61" x="283.1"/><use xlink:href="#FiraGO-Regular-6d" x="337.5"/><use xlink:href="#FiraGO-Regular-65" x="422.5"/></g></g><g id="ytick_19"><path d="M 133.551638 246.734162 L 490.671638 246.734162" clip-path="url(#pdeaf960686)" fill="none" stroke="#fff" stroke-width=".8" stroke-linecap="round" id="line2d_24"/><g transform="matrix(.0968 0 0 -.0968 77.325 250.364)" fill="#262626" id="text_25"><use xlink:href="#FiraGO-Regular-4c"/><use xlink:href="#FiraGO-Regular-61" x="49.8"/><use xlink:href="#FiraGO-Regular-64" x="104.2"/><use xlink:href="#FiraGO-Regular-65" x="163.2"/><use xlink:href="#FiraGO-Regular-73" x="217.6"/><use xlink:href="#FiraGO-Regular-74" x="264.3"/><use xlink:href="#FiraGO-Regular-61" x="300.4"/><use xlink:href="#FiraGO-Regular-74" x="354.8"/><use xlink:href="#FiraGO-Regular-75" x="390.9"/><use xlink:href="#FiraGO-Regular-73" x="448.4"/></g></g><g id="ytick_20"><path d="M 133.551638 259.015604 L 490.671638 259.015604" clip-path="url(#pdeaf960686)" fill="none" stroke="#fff" stroke-width=".8" stroke-linecap="round" id="line2d_25"/><g transform="matrix(.0968 0 0 -.0968 7.038 262.646)" fill="#262626" id="text_26"><defs><path id="FiraGO-Regular-45" d="M 3027 4410 L 640 4410 L 640 0 L 3078 0 L 3078 486 L 1248 486 L 1248 1997 L 2733 1997 L 2733 2483 L 1248 2483 L 1248 3923 L 2957 3923 L 3027 4410 z" transform="scale(.01563)"/></defs><use xlink:href="#FiraGO-Regular-69"/><use xlink:href="#FiraGO-Regular-73" x="27.6"/><use xlink:href="#FiraGO-Regular-74" x="74.3"/><use xlink:href="#FiraGO-Regular-20" x="110.4"/><use xlink:href="#FiraGO-Regular-64" x="136.9"/><use xlink:href="#FiraGO-Regular-61" x="195.9"/><use xlink:href="#FiraGO-Regular-73" x="250.3"/><use xlink:href="#FiraGO-Regular-20" x="297"/><use xlink:href="#FiraGO-Regular-47" x="323.5"/><use xlink:href="#FiraGO-Regular-65" x="386.6"/><use xlink:href="#FiraGO-Regular-72" x="441"/><use xlink:href="#FiraGO-Regular-e4" x="479.3"/><use xlink:href="#FiraGO-Regular-74" x="533.7"/><use xlink:href="#FiraGO-Regular-20" x="569.8"/><use xlink:href="#FiraGO-Regular-65" x="596.3"/><use xlink:href="#FiraGO-Regular-69" x="650.7"/><use xlink:href="#FiraGO-Regular-6e" x="678.3"/><use xlink:href="#FiraGO-Regular-20" x="736.2"/><use xlink:href="#FiraGO-Regular-45" x="762.7"/><use xlink:href="#FiraGO-Regular-6d" x="816.2"/><use xlink:href="#FiraGO-Regular-75" x="901.2"/><use xlink:href="#FiraGO-Regular-6c" x="958.7"/><use xlink:href="#FiraGO-Regular-61" x="988.1"/><use xlink:href="#FiraGO-Regular-74" x="1042.5"/><use xlink:href="#FiraGO-Regular-6f" x="1078.6"/><use xlink:href="#FiraGO-Regular-72" x="1137"/><use xlink:href="#FiraGO-Regular-3f" x="1175.3"/></g></g><g id="ytick_21"><path d="M 133.551638 271.297046 L 490.671638 271.297046" clip-path="url(#pdeaf960686)" fill="none" stroke="#fff" stroke-width=".8" stroke-linecap="round" id="line2d_26"/><g transform="matrix(.0968 0 0 -.0968 76.649 274.927)" fill="#262626" id="text_27"><use xlink:href="#FiraGO-Regular-41"/><use xlink:href="#FiraGO-Regular-72" x="57.3"/><use xlink:href="#FiraGO-Regular-63" x="95.6"/><use xlink:href="#FiraGO-Regular-68" x="143.3"/><use xlink:href="#FiraGO-Regular-69" x="201.2"/><use xlink:href="#FiraGO-Regular-74" x="228.8"/><use xlink:href="#FiraGO-Regular-65" x="264.9"/><use xlink:href="#FiraGO-Regular-6b" x="319.3"/><use xlink:href="#FiraGO-Regular-74" x="370.2"/><use xlink:href="#FiraGO-Regular-75" x="406.3"/><use xlink:href="#FiraGO-Regular-72" x="463.8"/></g></g><g id="ytick_22"><path d="M 133.551638 283.578487 L 490.671638 283.578487" clip-path="url(#pdeaf960686)" fill="none" stroke="#fff" stroke-width=".8" stroke-linecap="round" id="line2d_27"/><g transform="matrix(.0968 0 0 -.0968 76.502 287.208)" fill="#262626" id="text_28"><use xlink:href="#FiraGO-Regular-55"/><use xlink:href="#FiraGO-Regular-73" x="66.2"/><use xlink:href="#FiraGO-Regular-65" x="112.9"/><use xlink:href="#FiraGO-Regular-72" x="167.3"/><use xlink:href="#FiraGO-Regular-2d" x="205.6"/><use xlink:href="#FiraGO-Regular-41" x="245.9"/><use xlink:href="#FiraGO-Regular-67" x="303.2"/><use xlink:href="#FiraGO-Regular-65" x="355.2"/><use xlink:href="#FiraGO-Regular-6e" x="409.6"/><use xlink:href="#FiraGO-Regular-74" x="467.5"/></g></g><g id="ytick_23"><path d="M 133.551638 295.859929 L 490.671638 295.859929" clip-path="url(#pdeaf960686)" fill="none" stroke="#fff" stroke-width=".8" stroke-linecap="round" id="line2d_28"/><g transform="matrix(.0968 0 0 -.0968 82.8 299.49)" fill="#262626" id="text_29"><defs><path id="FiraGO-Regular-50" d="M 1798 4410 L 640 4410 L 640 0 L 1248 0 L 1248 1619 L 1805 1619 C 2778 1619 3514 2035 3514 3046 C 3514 3974 2861 4410 1798 4410 z M 1779 2099 L 1248 2099 L 1248 3936 L 1792 3936 C 2445 3936 2867 3699 2867 3040 C 2867 2291 2432 2099 1779 2099 z" transform="scale(.01563)"/></defs><use xlink:href="#FiraGO-Regular-6c"/><use xlink:href="#FiraGO-Regular-6f" x="29.4"/><use xlink:href="#FiraGO-Regular-6b" x="87.8"/><use xlink:href="#FiraGO-Regular-61" x="138.7"/><use xlink:href="#FiraGO-Regular-6c" x="193.1"/><use xlink:href="#FiraGO-Regular-65" x="222.5"/><use xlink:href="#FiraGO-Regular-20" x="276.9"/><use xlink:href="#FiraGO-Regular-49" x="303.4"/><use xlink:href="#FiraGO-Regular-50" x="332.9"/><use xlink:href="#FiraGO-Regular-73" x="391.8"/></g></g><g id="ytick_24"><path d="M 133.551638 308.141371 L 490.671638 308.141371" clip-path="url(#pdeaf960686)" fill="none" stroke="#fff" stroke-width=".8" stroke-linecap="round" id="line2d_29"/><g transform="matrix(.0968 0 0 -.0968 41.73 311.771)" fill="#262626" id="text_30"><use xlink:href="#FiraGO-Regular-67"/><use xlink:href="#FiraGO-Regular-65" x="52"/><use xlink:href="#FiraGO-Regular-68" x="106.4"/><use xlink:href="#FiraGO-Regular-61" x="164.3"/><use xlink:href="#FiraGO-Regular-73" x="218.7"/><use xlink:href="#FiraGO-Regular-68" x="265.4"/><use xlink:href="#FiraGO-Regular-74" x="323.3"/><use xlink:href="#FiraGO-Regular-65" x="359.4"/><use xlink:href="#FiraGO-Regular-20" x="413.8"/><use xlink:href="#FiraGO-Regular-57" x="440.3"/><use xlink:href="#FiraGO-Regular-65" x="522.9"/><use xlink:href="#FiraGO-Regular-72" x="577.3"/><use xlink:href="#FiraGO-Regular-62" x="615.6"/><use xlink:href="#FiraGO-Regular-65" x="674.2"/><use xlink:href="#FiraGO-Regular-2d" x="728.6"/><use xlink:href="#FiraGO-Regular-49" x="768.9"/><use xlink:href="#FiraGO-Regular-44" x="798.4"/></g></g><g id="ytick_25"><path d="M 133.551638 320.422812 L 490.671638 320.422812" clip-path="url(#pdeaf960686)" fill="none" stroke="#fff" stroke-width=".8" stroke-linecap="round" id="line2d_30"/><g transform="matrix(.0968 0 0 -.0968 27.134 324.198)" fill="#262626" id="text_31"><use xlink:href="#FiraGO-Regular-42"/><use xlink:href="#FiraGO-Regular-69" x="60.8"/><use xlink:href="#FiraGO-Regular-6c" x="88.4"/><use xlink:href="#FiraGO-Regular-64" x="117.8"/><use xlink:href="#FiraGO-Regular-73" x="176.8"/><use xlink:href="#FiraGO-Regular-63" x="223.5"/><use xlink:href="#FiraGO-Regular-68" x="271.2"/><use xlink:href="#FiraGO-Regular-69" x="329.1"/><use xlink:href="#FiraGO-Regular-72" x="356.7"/><use xlink:href="#FiraGO-Regular-6d" x="395"/><use xlink:href="#FiraGO-Regular-61" x="480"/><use xlink:href="#FiraGO-Regular-75" x="534.4"/><use xlink:href="#FiraGO-Regular-73" x="591.9"/><use xlink:href="#FiraGO-Regular-72" x="638.6"/><use xlink:href="#FiraGO-Regular-69" x="676.9"/><use xlink:href="#FiraGO-Regular-63" x="704.5"/><use xlink:href="#FiraGO-Regular-68" x="752.2"/><use xlink:href="#FiraGO-Regular-74" x="810.1"/><use xlink:href="#FiraGO-Regular-75" x="846.2"/><use xlink:href="#FiraGO-Regular-6e" x="903.7"/><use xlink:href="#FiraGO-Regular-67" x="961.6"/></g></g><g id="ytick_26"><path d="M 133.551638 332.704254 L 490.671638 332.704254" clip-path="url(#pdeaf960686)" fill="none" stroke="#fff" stroke-width=".8" stroke-linecap="round" id="line2d_31"/><g transform="matrix(.0968 0 0 -.0968 22.367 336.48)" fill="#262626" id="text_32"><use xlink:href="#FiraGO-Regular-42"/><use xlink:href="#FiraGO-Regular-65" x="60.8"/><use xlink:href="#FiraGO-Regular-73" x="115.2"/><use xlink:href="#FiraGO-Regular-63" x="161.9"/><use xlink:href="#FiraGO-Regular-68" x="209.6"/><use xlink:href="#FiraGO-Regular-6c" x="267.5"/><use xlink:href="#FiraGO-Regular-65" x="296.9"/><use xlink:href="#FiraGO-Regular-75" x="351.3"/><use xlink:href="#FiraGO-Regular-6e" x="408.8"/><use xlink:href="#FiraGO-Regular-69" x="466.7"/><use xlink:href="#FiraGO-Regular-67" x="494.3"/><use xlink:href="#FiraGO-Regular-75" x="546.3"/><use xlink:href="#FiraGO-Regular-6e" x="603.8"/><use xlink:href="#FiraGO-Regular-67" x="661.7"/><use xlink:href="#FiraGO-Regular-73" x="713.7"/><use xlink:href="#FiraGO-Regular-73" x="760.4"/><use xlink:href="#FiraGO-Regular-65" x="807.1"/><use xlink:href="#FiraGO-Regular-6e" x="861.5"/><use xlink:href="#FiraGO-Regular-73" x="919.4"/><use xlink:href="#FiraGO-Regular-6f" x="966.1"/><use xlink:href="#FiraGO-Regular-72" x="1024.5"/></g></g><g id="ytick_27"><path d="M 133.551638 344.985696 L 490.671638 344.985696" clip-path="url(#pdeaf960686)" fill="none" stroke="#fff" stroke-width=".8" stroke-linecap="round" id="line2d_32"/><g transform="matrix(.0968 0 0 -.0968 87.044 348.616)" fill="#262626" id="text_33"><use xlink:href="#FiraGO-Regular-53"/><use xlink:href="#FiraGO-Regular-74" x="54.5"/><use xlink:href="#FiraGO-Regular-61" x="90.6"/><use xlink:href="#FiraGO-Regular-6e" x="145"/><use xlink:href="#FiraGO-Regular-64" x="202.9"/><use xlink:href="#FiraGO-Regular-6f" x="261.9"/><use xlink:href="#FiraGO-Regular-72" x="320.3"/><use xlink:href="#FiraGO-Regular-74" x="358.6"/></g></g><g id="ytick_28"><path d="M 133.551638 357.267137 L 490.671638 357.267137" clip-path="url(#pdeaf960686)" fill="none" stroke="#fff" stroke-width=".8" stroke-linecap="round" id="line2d_33"/><g transform="matrix(.0968 0 0 -.0968 77.053 360.897)" fill="#262626" id="text_34"><use xlink:href="#FiraGO-Regular-44"/><use xlink:href="#FiraGO-Regular-61" x="64.4"/><use xlink:href="#FiraGO-Regular-72" x="118.8"/><use xlink:href="#FiraGO-Regular-6b" x="157.1"/><use xlink:href="#FiraGO-Regular-2d" x="208"/><use xlink:href="#FiraGO-Regular-4d" x="248.3"/><use xlink:href="#FiraGO-Regular-6f" x="326.1"/><use xlink:href="#FiraGO-Regular-64" x="384.5"/><use xlink:href="#FiraGO-Regular-65" x="443.5"/></g></g><g id="ytick_29"><path d="M 133.551638 369.548579 L 490.671638 369.548579" clip-path="url(#pdeaf960686)" fill="none" stroke="#fff" stroke-width=".8" stroke-linecap="round" id="line2d_34"/><g transform="matrix(.0968 0 0 -.0968 93.512 373.324)" fill="#262626" id="text_35"><use xlink:href="#FiraGO-Regular-55"/><use xlink:href="#FiraGO-Regular-70" x="66.2"/><use xlink:href="#FiraGO-Regular-74" x="124.8"/><use xlink:href="#FiraGO-Regular-69" x="160.9"/><use xlink:href="#FiraGO-Regular-6d" x="188.5"/><use xlink:href="#FiraGO-Regular-65" x="273.5"/></g></g><g id="ytick_30"><path d="M 133.551638 381.83002 L 490.671638 381.83002" clip-path="url(#pdeaf960686)" fill="none" stroke="#fff" stroke-width=".8" stroke-linecap="round" id="line2d_35"/><g transform="matrix(.0968 0 0 -.0968 71.37 385.605)" fill="#262626" id="text_36"><use xlink:href="#FiraGO-Regular-53"/><use xlink:href="#FiraGO-Regular-69" x="54.5"/><use xlink:href="#FiraGO-Regular-67" x="82.1"/><use xlink:href="#FiraGO-Regular-6e" x="134.1"/><use xlink:href="#FiraGO-Regular-61" x="192"/><use xlink:href="#FiraGO-Regular-6c" x="246.4"/><use xlink:href="#FiraGO-Regular-73" x="275.8"/><use xlink:href="#FiraGO-Regular-74" x="322.5"/><use xlink:href="#FiraGO-Regular-e4" x="358.6"/><use xlink:href="#FiraGO-Regular-72" x="413"/><use xlink:href="#FiraGO-Regular-6b" x="451.3"/><use xlink:href="#FiraGO-Regular-65" x="502.2"/></g></g><g id="ytick_31"><path d="M 133.551638 394.111462 L 490.671638 394.111462" clip-path="url(#pdeaf960686)" fill="none" stroke="#fff" stroke-width=".8" stroke-linecap="round" id="line2d_36"/><g transform="matrix(.0968 0 0 -.0968 87.557 397.741)" fill="#262626" id="text_37"><use xlink:href="#FiraGO-Regular-52"/><use xlink:href="#FiraGO-Regular-6f" x="60.5"/><use xlink:href="#FiraGO-Regular-74" x="118.9"/><use xlink:href="#FiraGO-Regular-61" x="155"/><use xlink:href="#FiraGO-Regular-74" x="209.4"/><use xlink:href="#FiraGO-Regular-69" x="245.5"/><use xlink:href="#FiraGO-Regular-6f" x="273.1"/><use xlink:href="#FiraGO-Regular-6e" x="331.5"/></g></g><g id="ytick_32"><path d="M 133.551638 406.392904 L 490.671638 406.392904" clip-path="url(#pdeaf960686)" fill="none" stroke="#fff" stroke-width=".8" stroke-linecap="round" id="line2d_37"/><g transform="matrix(.0968 0 0 -.0968 48.01 410.168)" fill="#262626" id="text_38"><use xlink:href="#FiraGO-Regular-61"/><use xlink:href="#FiraGO-Regular-6e" x="54.4"/><use xlink:href="#FiraGO-Regular-67" x="112.3"/><use xlink:href="#FiraGO-Regular-65" x="164.3"/><use xlink:href="#FiraGO-Regular-73" x="218.7"/><use xlink:href="#FiraGO-Regular-65" x="265.4"/><use xlink:href="#FiraGO-Regular-68" x="319.8"/><use xlink:href="#FiraGO-Regular-65" x="377.7"/><use xlink:href="#FiraGO-Regular-6e" x="432.1"/><use xlink:href="#FiraGO-Regular-65" x="490"/><use xlink:href="#FiraGO-Regular-20" x="544.4"/><use xlink:href="#FiraGO-Regular-53" x="570.9"/><use xlink:href="#FiraGO-Regular-65" x="625.4"/><use xlink:href="#FiraGO-Regular-69" x="679.8"/><use xlink:href="#FiraGO-Regular-74" x="707.4"/><use xlink:href="#FiraGO-Regular-65" x="743.5"/></g></g><g id="ytick_33"><path d="M 133.551638 418.674345 L 490.671638 418.674345" clip-path="url(#pdeaf960686)" fill="none" stroke="#fff" stroke-width=".8" stroke-linecap="round" id="line2d_38"/><g transform="matrix(.0968 0 0 -.0968 52.293 422.45)" fill="#262626" id="text_39"><use xlink:href="#FiraGO-Regular-69"/><use xlink:href="#FiraGO-Regular-6d" x="27.6"/><use xlink:href="#FiraGO-Regular-20" x="112.6"/><use xlink:href="#FiraGO-Regular-56" x="139.1"/><use xlink:href="#FiraGO-Regular-6f" x="194.7"/><use xlink:href="#FiraGO-Regular-72" x="253.1"/><use xlink:href="#FiraGO-Regular-64" x="291.4"/><use xlink:href="#FiraGO-Regular-65" x="350.4"/><use xlink:href="#FiraGO-Regular-72" x="404.8"/><use xlink:href="#FiraGO-Regular-67" x="443.1"/><use xlink:href="#FiraGO-Regular-72" x="495.1"/><use xlink:href="#FiraGO-Regular-75" x="533.4"/><use xlink:href="#FiraGO-Regular-6e" x="590.9"/><use xlink:href="#FiraGO-Regular-64" x="648.8"/><use xlink:href="#FiraGO-Regular-3f" x="707.8"/></g></g><g id="ytick_34"><path d="M 133.551638 430.955787 L 490.671638 430.955787" clip-path="url(#pdeaf960686)" fill="none" stroke="#fff" stroke-width=".8" stroke-linecap="round" id="line2d_39"/><g transform="matrix(.0968 0 0 -.0968 86.937 434.731)" fill="#262626" id="text_40"><use xlink:href="#FiraGO-Regular-52"/><use xlink:href="#FiraGO-Regular-6f" x="60.5"/><use xlink:href="#FiraGO-Regular-61" x="118.9"/><use xlink:href="#FiraGO-Regular-6d" x="173.3"/><use xlink:href="#FiraGO-Regular-69" x="258.3"/><use xlink:href="#FiraGO-Regular-6e" x="285.9"/><use xlink:href="#FiraGO-Regular-67" x="343.8"/></g></g></g><path d="M 133.551638 20.755636 L 357.30119 20.755636 L 357.30119 30.58079 L 133.551638 30.58079 z" clip-path="url(#pdeaf960686)" fill="#de8f05" fill-opacity=".75" stroke="#fff" stroke-width=".8" id="patch_3"/><path d="M 133.551638 33.037078 L 360.294495 33.037078 L 360.294495 42.862231 L 133.551638 42.862231 z" clip-path="url(#pdeaf960686)" fill="#de8f05" fill-opacity=".75" stroke="#fff" stroke-width=".8" id="patch_4"/><path d="M 133.551638 45.31852 L 328.116465 45.31852 L 328.116465 55.143673 L 133.551638 55.143673 z" clip-path="url(#pdeaf960686)" fill="#de8f05" fill-opacity=".75" stroke="#fff" stroke-width=".8" id="patch_5"/><path d="M 133.551638 57.599961 L 254.780492 57.599961 L 254.780492 67.425115 L 133.551638 67.425115 z" clip-path="url(#pdeaf960686)" fill="#de8f05" fill-opacity=".75" stroke="#fff" stroke-width=".8" id="patch_6"/><path d="M 133.551638 69.881403 L 292.196805 69.881403 L 292.196805 79.706556 L 133.551638 79.706556 z" clip-path="url(#pdeaf960686)" fill="#de8f05" fill-opacity=".75" stroke="#fff" stroke-width=".8" id="patch_7"/><path d="M 133.551638 82.162845 L 207.261774 82.162845 L 207.261774 91.987998 L 133.551638 91.987998 z" clip-path="url(#pdeaf960686)" fill="#de8f05" fill-opacity=".75" stroke="#fff" stroke-width=".8" id="patch_8"/><path d="M 133.551638 94.444286 L 224.847441 94.444286 L 224.847441 104.269439 L 133.551638 104.269439 z" clip-path="url(#pdeaf960686)" fill="#de8f05" fill-opacity=".75" stroke="#fff" stroke-width=".8" id="patch_9"/><path d="M 133.551638 106.725728 L 201.275164 106.725728 L 201.275164 116.550881 L 133.551638 116.550881 z" clip-path="url(#pdeaf960686)" fill="#de8f05" fill-opacity=".75" stroke="#fff" stroke-width=".8" id="patch_10"/><path d="M 133.551638 119.007169 L 179.199539 119.007169 L 179.199539 128.832323 L 133.551638 128.832323 z" clip-path="url(#pdeaf960686)" fill="#de8f05" fill-opacity=".75" stroke="#fff" stroke-width=".8" id="patch_11"/><path d="M 133.551638 131.288611 L 157.498078 131.288611 L 157.498078 141.113764 L 133.551638 141.113764 z" clip-path="url(#pdeaf960686)" fill="#de8f05" fill-opacity=".75" stroke="#fff" stroke-width=".8" id="patch_12"/><path d="M 133.551638 143.570053 L 165.729667 143.570053 L 165.729667 153.395206 L 133.551638 153.395206 z" clip-path="url(#pdeaf960686)" fill="#de8f05" fill-opacity=".75" stroke="#fff" stroke-width=".8" id="patch_13"/><path d="M 133.551638 155.851494 L 161.613872 155.851494 L 161.613872 165.676648 L 133.551638 165.676648 z" clip-path="url(#pdeaf960686)" fill="#de8f05" fill-opacity=".75" stroke="#fff" stroke-width=".8" id="patch_14"/><path d="M 133.551638 168.132936 L 160.865546 168.132936 L 160.865546 177.958089 L 133.551638 177.958089 z" clip-path="url(#pdeaf960686)" fill="#de8f05" fill-opacity=".75" stroke="#fff" stroke-width=".8" id="patch_15"/><path d="M 133.551638 180.414378 L 137.293269 180.414378 L 137.293269 190.239531 L 133.551638 190.239531 z" clip-path="url(#pdeaf960686)" fill="#de8f05" fill-opacity=".75" stroke="#fff" stroke-width=".8" id="patch_16"/><path d="M 133.551638 192.695819 L 154.504773 192.695819 L 154.504773 202.520973 L 133.551638 202.520973 z" clip-path="url(#pdeaf960686)" fill="#de8f05" fill-opacity=".75" stroke="#fff" stroke-width=".8" id="patch_17"/><path d="M 133.551638 204.977261 L 149.640652 204.977261 L 149.640652 214.802414 L 133.551638 214.802414 z" clip-path="url(#pdeaf960686)" fill="#de8f05" fill-opacity=".75" stroke="#fff" stroke-width=".8" id="patch_18"/><path d="M 133.551638 217.258703 L 154.13061 217.258703 L 154.13061 227.083856 L 133.551638 227.083856 z" clip-path="url(#pdeaf960686)" fill="#de8f05" fill-opacity=".75" stroke="#fff" stroke-width=".8" id="patch_19"/><path d="M 133.551638 229.540144 L 136.544943 229.540144 L 136.544943 239.365297 L 133.551638 239.365297 z" clip-path="url(#pdeaf960686)" fill="#de8f05" fill-opacity=".75" stroke="#fff" stroke-width=".8" id="patch_20"/><path d="M 133.551638 241.821586 L 154.13061 241.821586 L 154.13061 251.646739 L 133.551638 251.646739 z" clip-path="url(#pdeaf960686)" fill="#de8f05" fill-opacity=".75" stroke="#fff" stroke-width=".8" id="patch_21"/><path d="M 133.551638 254.103027 L 150.388978 254.103027 L 150.388978 263.928181 L 133.551638 263.928181 z" clip-path="url(#pdeaf960686)" fill="#de8f05" fill-opacity=".75" stroke="#fff" stroke-width=".8" id="patch_22"/><path d="M 133.551638 266.384469 L 145.150695 266.384469 L 145.150695 276.209622 L 133.551638 276.209622 z" clip-path="url(#pdeaf960686)" fill="#de8f05" fill-opacity=".75" stroke="#fff" stroke-width=".8" id="patch_23"/><path d="M 133.551638 278.665911 L 137.667432 278.665911 L 137.667432 288.491064 L 133.551638 288.491064 z" clip-path="url(#pdeaf960686)" fill="#de8f05" fill-opacity=".75" stroke="#fff" stroke-width=".8" id="patch_24"/><path d="M 133.551638 290.947352 L 143.279879 290.947352 L 143.279879 300.772506 L 133.551638 300.772506 z" clip-path="url(#pdeaf960686)" fill="#de8f05" fill-opacity=".75" stroke="#fff" stroke-width=".8" id="patch_25"/><path d="M 133.551638 303.228794 L 138.789921 303.228794 L 138.789921 313.053947 L 133.551638 313.053947 z" clip-path="url(#pdeaf960686)" fill="#de8f05" fill-opacity=".75" stroke="#fff" stroke-width=".8" id="patch_26"/><path d="M 133.551638 315.510236 L 137.293269 315.510236 L 137.293269 325.335389 L 133.551638 325.335389 z" clip-path="url(#pdeaf960686)" fill="#de8f05" fill-opacity=".75" stroke="#fff" stroke-width=".8" id="patch_27"/><path d="M 133.551638 327.791677 L 137.667432 327.791677 L 137.667432 337.616831 L 133.551638 337.616831 z" clip-path="url(#pdeaf960686)" fill="#de8f05" fill-opacity=".75" stroke="#fff" stroke-width=".8" id="patch_28"/><path d="M 133.551638 340.073119 L 134.299964 340.073119 L 134.299964 349.898272 L 133.551638 349.898272 z" clip-path="url(#pdeaf960686)" fill="#de8f05" fill-opacity=".75" stroke="#fff" stroke-width=".8" id="patch_29"/><path d="M 133.551638 352.354561 L 136.544943 352.354561 L 136.544943 362.179714 L 133.551638 362.179714 z" clip-path="url(#pdeaf960686)" fill="#de8f05" fill-opacity=".75" stroke="#fff" stroke-width=".8" id="patch_30"/><path d="M 133.551638 364.636002 L 133.925801 364.636002 L 133.925801 374.461155 L 133.551638 374.461155 z" clip-path="url(#pdeaf960686)" fill="#de8f05" fill-opacity=".75" stroke="#fff" stroke-width=".8" id="patch_31"/><path d="M 133.551638 376.917444 L 133.925801 376.917444 L 133.925801 386.742597 L 133.551638 386.742597 z" clip-path="url(#pdeaf960686)" fill="#de8f05" fill-opacity=".75" stroke="#fff" stroke-width=".8" id="patch_32"/><path d="M 133.551638 389.198885 L 133.925801 389.198885 L 133.925801 399.024039 L 133.551638 399.024039 z" clip-path="url(#pdeaf960686)" fill="#de8f05" fill-opacity=".75" stroke="#fff" stroke-width=".8" id="patch_33"/><path d="M 133.551638 401.480327 L 133.925801 401.480327 L 133.925801 411.30548 L 133.551638 411.30548 z" clip-path="url(#pdeaf960686)" fill="#de8f05" fill-opacity=".75" stroke="#fff" stroke-width=".8" id="patch_34"/><path d="M 133.551638 413.761769 L 133.925801 413.761769 L 133.925801 423.586922 L 133.551638 423.586922 z" clip-path="url(#pdeaf960686)" fill="#de8f05" fill-opacity=".75" stroke="#fff" stroke-width=".8" id="patch_35"/><path d="M 133.551638 426.04321 L 133.925801 426.04321 L 133.925801 435.868364 L 133.551638 435.868364 z" clip-path="url(#pdeaf960686)" fill="#de8f05" fill-opacity=".75" stroke="#fff" stroke-width=".8" id="patch_36"/><path d="M 357.30119 20.755636 L 473.665923 20.755636 L 473.665923 30.58079 L 357.30119 30.58079 z" clip-path="url(#pdeaf960686)" fill="#0173b2" fill-opacity=".75" stroke="#fff" stroke-width=".8" id="patch_37"/><path d="M 360.294495 33.037078 L 360.294495 33.037078 L 360.294495 42.862231 L 360.294495 42.862231 z" clip-path="url(#pdeaf960686)" fill="#0173b2" fill-opacity=".75" stroke="#fff" stroke-width=".8" id="patch_38"/><path d="M 328.116465 45.31852 L 343.831317 45.31852 L 343.831317 55.143673 L 328.116465 55.143673 z" clip-path="url(#pdeaf960686)" fill="#0173b2" fill-opacity=".75" stroke="#fff" stroke-width=".8" id="patch_39"/><path d="M 254.780492 57.599961 L 338.21887 57.599961 L 338.21887 67.425115 L 254.780492 67.425115 z" clip-path="url(#pdeaf960686)" fill="#0173b2" fill-opacity=".75" stroke="#fff" stroke-width=".8" id="patch_40"/><path d="M 292.196805 69.881403 L 315.020756 69.881403 L 315.020756 79.706556 L 292.196805 79.706556 z" clip-path="url(#pdeaf960686)" fill="#0173b2" fill-opacity=".75" stroke="#fff" stroke-width=".8" id="patch_41"/><path d="M 207.261774 82.162845 L 240.562293 82.162845 L 240.562293 91.987998 L 207.261774 91.987998 z" clip-path="url(#pdeaf960686)" fill="#0173b2" fill-opacity=".75" stroke="#fff" stroke-width=".8" id="patch_42"/><path d="M 224.847441 94.444286 L 224.847441 94.444286 L 224.847441 104.269439 L 224.847441 104.269439 z" clip-path="url(#pdeaf960686)" fill="#0173b2" fill-opacity=".75" stroke="#fff" stroke-width=".8" id="patch_43"/><path d="M 201.275164 106.725728 L 209.880916 106.725728 L 209.880916 116.550881 L 201.275164 116.550881 z" clip-path="url(#pdeaf960686)" fill="#0173b2" fill-opacity=".75" stroke="#fff" stroke-width=".8" id="patch_44"/><path d="M 179.199539 119.007169 L 191.546923 119.007169 L 191.546923 128.832323 L 179.199539 128.832323 z" clip-path="url(#pdeaf960686)" fill="#0173b2" fill-opacity=".75" stroke="#fff" stroke-width=".8" id="patch_45"/><path d="M 157.498078 131.288611 L 181.818681 131.288611 L 181.818681 141.113764 L 157.498078 141.113764 z" clip-path="url(#pdeaf960686)" fill="#0173b2" fill-opacity=".75" stroke="#fff" stroke-width=".8" id="patch_46"/><path d="M 165.729667 143.570053 L 172.838766 143.570053 L 172.838766 153.395206 L 165.729667 153.395206 z" clip-path="url(#pdeaf960686)" fill="#0173b2" fill-opacity=".75" stroke="#fff" stroke-width=".8" id="patch_47"/><path d="M 161.613872 155.851494 L 169.471298 155.851494 L 169.471298 165.676648 L 161.613872 165.676648 z" clip-path="url(#pdeaf960686)" fill="#0173b2" fill-opacity=".75" stroke="#fff" stroke-width=".8" id="patch_48"/><path d="M 160.865546 168.132936 L 168.722972 168.132936 L 168.722972 177.958089 L 160.865546 177.958089 z" clip-path="url(#pdeaf960686)" fill="#0173b2" fill-opacity=".75" stroke="#fff" stroke-width=".8" id="patch_49"/><path d="M 137.293269 180.414378 L 165.729667 180.414378 L 165.729667 190.239531 L 137.293269 190.239531 z" clip-path="url(#pdeaf960686)" fill="#0173b2" fill-opacity=".75" stroke="#fff" stroke-width=".8" id="patch_50"/><path d="M 154.504773 192.695819 L 165.729667 192.695819 L 165.729667 202.520973 L 154.504773 202.520973 z" clip-path="url(#pdeaf960686)" fill="#0173b2" fill-opacity=".75" stroke="#fff" stroke-width=".8" id="patch_51"/><path d="M 149.640652 204.977261 L 162.362199 204.977261 L 162.362199 214.802414 L 149.640652 214.802414 z" clip-path="url(#pdeaf960686)" fill="#0173b2" fill-opacity=".75" stroke="#fff" stroke-width=".8" id="patch_52"/><path d="M 154.13061 217.258703 L 161.988035 217.258703 L 161.988035 227.083856 L 154.13061 227.083856 z" clip-path="url(#pdeaf960686)" fill="#0173b2" fill-opacity=".75" stroke="#fff" stroke-width=".8" id="patch_53"/><path d="M 136.544943 229.540144 L 157.123915 229.540144 L 157.123915 239.365297 L 136.544943 239.365297 z" clip-path="url(#pdeaf960686)" fill="#0173b2" fill-opacity=".75" stroke="#fff" stroke-width=".8" id="patch_54"/><path d="M 154.13061 241.821586 L 154.878936 241.821586 L 154.878936 251.646739 L 154.13061 251.646739 z" clip-path="url(#pdeaf960686)" fill="#0173b2" fill-opacity=".75" stroke="#fff" stroke-width=".8" id="patch_55"/><path d="M 150.388978 254.103027 L 150.388978 254.103027 L 150.388978 263.928181 L 150.388978 263.928181 z" clip-path="url(#pdeaf960686)" fill="#0173b2" fill-opacity=".75" stroke="#fff" stroke-width=".8" id="patch_56"/><path d="M 145.150695 266.384469 L 149.266489 266.384469 L 149.266489 276.209622 L 145.150695 276.209622 z" clip-path="url(#pdeaf960686)" fill="#0173b2" fill-opacity=".75" stroke="#fff" stroke-width=".8" id="patch_57"/><path d="M 137.667432 278.665911 L 146.647347 278.665911 L 146.647347 288.491064 L 137.667432 288.491064 z" clip-path="url(#pdeaf960686)" fill="#0173b2" fill-opacity=".75" stroke="#fff" stroke-width=".8" id="patch_58"/><path d="M 143.279879 290.947352 L 144.028205 290.947352 L 144.028205 300.772506 L 143.279879 300.772506 z" clip-path="url(#pdeaf960686)" fill="#0173b2" fill-opacity=".75" stroke="#fff" stroke-width=".8" id="patch_59"/><path d="M 138.789921 303.228794 L 138.789921 303.228794 L 138.789921 313.053947 L 138.789921 313.053947 z" clip-path="url(#pdeaf960686)" fill="#0173b2" fill-opacity=".75" stroke="#fff" stroke-width=".8" id="patch_60"/><path d="M 137.293269 315.510236 L 138.789921 315.510236 L 138.789921 325.335389 L 137.293269 325.335389 z" clip-path="url(#pdeaf960686)" fill="#0173b2" fill-opacity=".75" stroke="#fff" stroke-width=".8" id="patch_61"/><path d="M 137.667432 327.791677 L 137.667432 327.791677 L 137.667432 337.616831 L 137.667432 337.616831 z" clip-path="url(#pdeaf960686)" fill="#0173b2" fill-opacity=".75" stroke="#fff" stroke-width=".8" id="patch_62"/><path d="M 134.299964 340.073119 L 137.293269 340.073119 L 137.293269 349.898272 L 134.299964 349.898272 z" clip-path="url(#pdeaf960686)" fill="#0173b2" fill-opacity=".75" stroke="#fff" stroke-width=".8" id="patch_63"/><path d="M 136.544943 352.354561 L 136.544943 352.354561 L 136.544943 362.179714 L 136.544943 362.179714 z" clip-path="url(#pdeaf960686)" fill="#0173b2" fill-opacity=".75" stroke="#fff" stroke-width=".8" id="patch_64"/><path d="M 133.925801 364.636002 L 133.925801 364.636002 L 133.925801 374.461155 L 133.925801 374.461155 z" clip-path="url(#pdeaf960686)" fill="#0173b2" fill-opacity=".75" stroke="#fff" stroke-width=".8" id="patch_65"/><path d="M 133.925801 376.917444 L 133.925801 376.917444 L 133.925801 386.742597 L 133.925801 386.742597 z" clip-path="url(#pdeaf960686)" fill="#0173b2" fill-opacity=".75" stroke="#fff" stroke-width=".8" id="patch_66"/><path d="M 133.925801 389.198885 L 133.925801 389.198885 L 133.925801 399.024039 L 133.925801 399.024039 z" clip-path="url(#pdeaf960686)" fill="#0173b2" fill-opacity=".75" stroke="#fff" stroke-width=".8" id="patch_67"/><path d="M 133.925801 401.480327 L 133.925801 401.480327 L 133.925801 411.30548 L 133.925801 411.30548 z" clip-path="url(#pdeaf960686)" fill="#0173b2" fill-opacity=".75" stroke="#fff" stroke-width=".8" id="patch_68"/><path d="M 133.925801 413.761769 L 133.925801 413.761769 L 133.925801 423.586922 L 133.925801 423.586922 z" clip-path="url(#pdeaf960686)" fill="#0173b2" fill-opacity=".75" stroke="#fff" stroke-width=".8" id="patch_69"/><path d="M 133.925801 426.04321 L 133.925801 426.04321 L 133.925801 435.868364 L 133.925801 435.868364 z" clip-path="url(#pdeaf960686)" fill="#0173b2" fill-opacity=".75" stroke="#fff" stroke-width=".8" id="patch_70"/><path d="M 133.551638 456.624 L 133.551638 0" fill="none" stroke="#fff" stroke-linecap="square" id="patch_71"/><path d="M 490.671638 456.624 L 490.671638 0" fill="none" stroke="#fff" stroke-linecap="square" id="patch_72"/><path d="M 133.551638 456.624 L 490.671638 456.624" fill="none" stroke="#fff" stroke-linecap="square" id="patch_73"/><path d="M 133.551638 0 L 490.671638 0" fill="none" stroke="#fff" stroke-linecap="square" id="patch_74"/><g id="legend_1"><path d="M 379.602713 451.784 L 483.895638 451.784 Q 485.831638 451.784 485.831638 449.848 L 485.831638 405.381875 Q 485.831638 403.445875 483.895638 403.445875 L 379.602713 403.445875 Q 377.666713 403.445875 377.666713 405.381875 L 377.666713 449.848 Q 377.666713 451.784 379.602713 451.784 z" fill="#eaeaf2" opacity=".8" stroke="#ccc" stroke-width=".8" id="patch_75"/><g transform="matrix(.1056 0 0 -.1056 392.614 416.76)" fill="#262626" id="text_41"><use xlink:href="#FiraGO-Regular-dc"/><use xlink:href="#FiraGO-Regular-62" x="66.2"/><use xlink:href="#FiraGO-Regular-65" x="124.8"/><use xlink:href="#FiraGO-Regular-72" x="179.2"/><use xlink:href="#FiraGO-Regular-74" x="217.5"/><use xlink:href="#FiraGO-Regular-72" x="253.6"/><use xlink:href="#FiraGO-Regular-61" x="291.9"/><use xlink:href="#FiraGO-Regular-67" x="346.3"/><use xlink:href="#FiraGO-Regular-75" x="398.3"/><use xlink:href="#FiraGO-Regular-6e" x="455.8"/><use xlink:href="#FiraGO-Regular-67" x="513.7"/><use xlink:href="#FiraGO-Regular-73" x="565.7"/><use xlink:href="#FiraGO-Regular-61" x="612.4"/><use xlink:href="#FiraGO-Regular-72" x="666.8"/><use xlink:href="#FiraGO-Regular-74" x="705.1"/></g><path d="M 381.538713 431.398525 L 400.898713 431.398525 L 400.898713 424.622525 L 381.538713 424.622525 z" fill="#0173b2" fill-opacity=".75" stroke="#fff" stroke-width=".8" id="patch_76"/><g transform="matrix(.0968 0 0 -.0968 408.643 431.399)" fill="#262626" id="text_42"><use xlink:href="#FiraGO-Regular-61"/><use xlink:href="#FiraGO-Regular-6e" x="54.4"/><use xlink:href="#FiraGO-Regular-6f" x="112.3"/><use xlink:href="#FiraGO-Regular-6e" x="170.7"/><use xlink:href="#FiraGO-Regular-79" x="228.6"/><use xlink:href="#FiraGO-Regular-6d" x="277.8"/><use xlink:href="#FiraGO-Regular-69" x="362.8"/><use xlink:href="#FiraGO-Regular-73" x="390.4"/><use xlink:href="#FiraGO-Regular-69" x="437.1"/><use xlink:href="#FiraGO-Regular-65" x="464.7"/><use xlink:href="#FiraGO-Regular-72" x="519.1"/><use xlink:href="#FiraGO-Regular-74" x="557.4"/></g><path d="M 381.538713 445.850463 L 400.898713 445.850463 L 400.898713 439.074463 L 381.538713 439.074463 z" fill="#de8f05" fill-opacity=".75" stroke="#fff" stroke-width=".8" id="patch_77"/><g transform="matrix(.0968 0 0 -.0968 408.643 445.85)" fill="#262626" id="text_43"><use xlink:href="#FiraGO-Regular-70"/><use xlink:href="#FiraGO-Regular-73" x="58.6"/><use xlink:href="#FiraGO-Regular-65" x="105.3"/><use xlink:href="#FiraGO-Regular-75" x="159.7"/><use xlink:href="#FiraGO-Regular-64" x="217.2"/><use xlink:href="#FiraGO-Regular-6f" x="276.2"/><use xlink:href="#FiraGO-Regular-6e" x="334.6"/><use xlink:href="#FiraGO-Regular-79" x="392.5"/><use xlink:href="#FiraGO-Regular-6d" x="441.7"/><use xlink:href="#FiraGO-Regular-69" x="526.7"/><use xlink:href="#FiraGO-Regular-73" x="554.3"/><use xlink:href="#FiraGO-Regular-69" x="601"/><use xlink:href="#FiraGO-Regular-65" x="628.6"/><use xlink:href="#FiraGO-Regular-72" x="683"/><use xlink:href="#FiraGO-Regular-74" x="721.3"/></g></g></g></g><defs><clipPath id="pdeaf960686"><path d="M133.552 0H490.672V456.624H133.552z"/></clipPath></defs></svg>