<svg version="1.1" id="Layer_1" xmlns="http://www.w3.org/2000/svg" x="0" y="0" viewBox="0 0 1266.8 1050.9" xml:space="preserve"><style>.st0{fill:#204391}.st1{fill:#ecc94b}.st6{fill:#222f62}</style><path class="st0" d="M398.6 918h-56.3v108.1H228.2l-.7-108.1H16.4v-77.8l142.2-327.3 99.2 37-120.7 280.7H229l12.6-118.5h100.7v118.5h56.3V918zM820 776.5c0 167.4-65.9 262.2-188.9 262.2-122.9 0-188.9-94.8-188.9-262.2 0-168.1 65.9-261.4 188.9-261.4S820 608.4 820 776.5zm-257.8 0c0 132.6 20 175.5 68.9 175.5 48.1 0 68.9-40 68.9-175.5 0-136.3-20.7-174.8-68.9-174.8-48.9.1-68.9 42.3-68.9 174.8zM1250.3 918H1194v108.1h-114.1l-.7-108.1H868.1v-77.8l142.2-327.3 99.2 37-120.7 280.7h91.8l12.6-118.5H1194v118.5h56.3V918zM691.5 137.7c-8.6-1-11.3-12.3-10.7-21 2.8-44.4 34.5-84.5 75.5-101.6S845.8 2.8 885 23.8c8.8 4.7 17.2 10.2 24.5 17 10.4 9.7 18.3 21.9 25 34.4 22.7 42.6 33.6 92.2 65.3 128.7 16.6 19.1 38 33.4 57.4 49.7s37.5 36.1 43.8 60.6c1 3.9 1.7 8.1.4 11.9-1.3 3.7-4.3 6.5-7.3 9-29.6 24.8-67.2 40-105.8 42.5-16.3 1.1-32.9-.1-48.1-6-27-10.4-46.1-34.1-64-56.9-23.2-29.5-46.4-59-69.6-88.6-9.2-11.7-18.4-23.4-29.8-33-25.5-21.6-59.7-30.9-85.3-52.5"/><path class="st1" d="M789.4 471.1c.1 45.8-7.4 101.6-39 134.7-24.2 25.4-59.6 36-92.7 47.6a862.51 862.51 0 00-120.2 52.8c-22.6 12-45.1 25.5-61.5 45.1-7 8.4-12.7 17.7-18.3 27-9.3 15.3-18.7 30.5-28 45.8-1.7 2.8-3.6 5.8-6.5 7.4-5.6 3.1-13-.2-16.4-5.6-3.5-5.4-3.9-12.1-3.9-18.4.1-30.3 8.1-60.3 19.8-88.2 39-92.9 117.4-164.2 202.8-217.7 12.9-8.1 26.1-15.9 40.4-21 38.6-13.7 83.2-17.7 123.5-9.5"/><path class="st1" d="M654.5 453.8c-38.4-3.1-77 .2-115.2 5-8.2 1-16.4 2.1-24.4 4.3-26.4 7.2-48.6 26.2-63.8 48.9-15.2 22.7-24.1 49.1-30.5 75.8-7.6 32.1-11.8 65.5-7.7 98.3 1.7 13.4 4.8 26.5 7.8 39.6 4.9 20.8 9.7 41.7 14.6 62.5 3.7 15.9 7.5 32.1 15.7 46.2 1.1 1.9 2.3 3.8 4.2 5 3 1.9 7 1.4 10.5.8 6.4-1.1 13.5-2.5 17.4-7.7 3-4.1 3.3-9.5 3.3-14.5 0-28.2-6.7-56.6-1.4-84.3 2.8-14.7 9-28.5 13.7-42.7 11.7-34.8 15.4-72.8 34.1-104.4 14.3-24.2 36.5-43 60.8-57s51-23.5 77.6-32.6c14.2-4.8 28.7-9.6 40.7-18.6 1.3-1 2.7-2.2 2.8-3.9 0-2.4-2.7-3.7-5.1-4.4-20.9-6.4-41.8-12.7-62.6-19.1"/><path d="M654.5 452.3c-41.5-3.2-83.9.1-125.1 6.4-33.8 5.1-61.3 25.1-80.1 53.4-20.8 31.5-30.9 70.3-36.4 107.3-2.9 19.9-4.1 40.1-2.2 60.2 1.9 20.3 7.1 40.1 11.7 59.9s9 39.7 13.9 59.5c2.2 8.9 4.8 17.7 8.4 26.2 2.7 6.3 5.9 15.8 13.6 17 6.2 1 14.9-1 20.3-3.9 6-3.2 8.6-8.9 9.1-15.5 1.7-20-2.8-40.4-3.3-60.4-.3-11 .4-22 2.9-32.7 2.3-9.7 5.9-19.1 9.3-28.5 6.5-17.9 11-36.3 15.7-54.8 4.6-18.1 9.7-36.4 18.4-53 8.4-16.1 20.2-30 34-41.8 29.7-25.4 66.8-39.4 103.4-51.9 8.7-3 17.4-5.8 25.8-9.4 4-1.7 7.8-3.6 11.6-5.8 3-1.8 7.3-3.9 9.5-6.8 3.9-5.4-2.6-8.2-6.8-9.5-10.1-3.1-20.2-6.2-30.4-9.2-10.1-3.1-20.2-6.2-30.4-9.2-1.8-.6-2.6 2.3-.8 2.8 19 5.8 38 11.5 56.9 17.3 1.5.5 6.7 1.3 7.7 2.5l.3 2.1c.9 1.4.6 2.4-.7 2.9-.7.9-2.2 1.6-3.2 2.2-3.8 2.5-7.9 4.7-12.1 6.6-8.3 3.8-17 6.7-25.7 9.6-33.2 11.3-66.8 23.6-95.5 44.3-12.7 9.2-24.3 19.8-33.8 32.2-10 13-17.2 27.8-22.5 43.3-5.6 16.3-9.3 33.2-13.6 49.9-4.5 17.5-11 34.2-16.6 51.4-6 18.3-7.1 36.6-5.9 55.7.6 9.6 1.6 19.2 2.3 28.9.6 8.5 2.5 19.8-1.1 27.7-3.5 7.5-15.8 10.6-23.5 9.9-5.9-.6-8.4-6.9-10.7-11.7-2.2-4.6-4-9.4-5.6-14.3-5.7-17.5-9.1-35.9-13.3-53.9-4.4-18.8-9.2-37.7-12.9-56.6-3.8-19.3-5.2-38.8-3.9-58.5 1.2-19.5 4.6-38.8 9.2-57.8 4.3-17.7 9.7-35.2 17.5-51.7 14.1-29.9 37.4-57.2 69.4-68.4 18.1-6.3 38.2-7.3 57.1-9.2 19.5-1.9 39.1-3.2 58.7-3.1 9.8 0 19.6.4 29.3 1.2 1.9.3 1.9-2.6.1-2.8z" fill="#fff"/><path d="M680.4 515.4c-8.4 1.8-52.9.5-60.4-2.2-4.4-1.6-8.9-3.3-13.1-5.3-8.8-4.3-15.8-10.5-23.6-16.2-6.3-4.6-13.1-7.8-19.2-12.9-13.3-11-24.5-24.5-33.1-39.5-10.6-18.5-17.4-39.4-19.2-60.7-2-23.2 4.6-41.1 14-62 18.9-41.9 46.7-80.5 84.5-107.2 17.1-12 37.5-21.7 58.8-22.2 10.1-.2 19.3 2.9 29.3 2.8 8.9-.1 17.8.9 26.6 2.3 3.2.5 6.3 1.1 9.5 1.7 5.1 2.2 10.1 4.7 14.9 7.5 35.7 20.3 63.8 53.7 84 90 4.5 8.1 8.8 16.5 11.6 25.4 6.5 20.3 5.5 42.4.6 63.1-13.3 56.1-56.7 104.1-111.1 123-17.5 6.1-35.8 9.3-54.1 12.4" fill="#ea64a5"/><path d="M723.9 176.1c4.2-7.6 8.4-15.5 9.1-24.1s-3.3-18.2-11.4-21.3c-5.6-2.2-11.9-.8-17.7.8-10.7 3.1-21.9 7.8-27.7 17.3s-2.6 24.8 8.2 27.7c3 .8 6.4.6 9 2.4 3.7 2.6 4 7.9 3.4 12.4-5.5 38.4-49.4 63.7-52.1 102.5-.4 5 .1 10.4 3.1 14.5 6.5 9.1 20.5 7.1 30.9 3 29.8-11.8 55.4-33.9 71.5-61.6 3.3-5.7 6.3-11.8 6.5-18.4.8-22.4-28.8-35.2-32.2-57.3" fill="#00e9e1"/><path d="M723.9 176.1c4.2-7.6 8.4-15.5 9.1-24.1s-3.3-18.2-11.4-21.3c-5.6-2.2-11.9-.8-17.7.8-10.7 3.1-21.9 7.8-27.7 17.3s-2.6 24.8 8.2 27.7c3 .8 6.4.6 9 2.4 3.7 2.6 4 7.9 3.4 12.4-5.5 38.4-49.4 63.7-52.1 102.5-.4 5 .1 10.4 3.1 14.5 6.5 9.1 20.5 7.1 30.9 3 29.8-11.8 55.4-33.9 71.5-61.6 3.3-5.7 6.3-11.8 6.5-18.4.8-22.4-28.8-35.2-32.2-57.3" fill="#39b395"/><path d="M607.9 571.3L404.7 437.8l38.8-22.5 91.1-52.9L633 429l107.6 72.8-132.7 69.5zm-77.5-78.9c9 0 20 .9 31 4.1 28.4 8.2 46.2 28.3 51.4 58.2l.2 1.4 106-55.4-109.8-74.3-75.1-50.7-85 49.3-2.2 1.3-8 4.6c18.9.2 44 3.9 60.2 19.9 10.6 10.5 16 24.8 15.9 42.5 3.8-.5 9.2-.9 15.4-.9zm-3 11.1l73.7 49.7c-9.7-44.7-50.1-50.4-73.7-49.7zM436.1 442l67.6 45.6c-.9-12-5.1-21.7-12.4-28.9-14.3-14.2-38.1-16.9-55.2-16.7z"/><path class="st0" d="M426.5 437c-7 .5-11.4 1.3-11.4 1.3l28.8-16.7 2.2-1.3 88-51.1c60.2-2.2 83 31 91.3 50.6 3.3 7.8 4.2 13.4 4.3 13.9L539.9 483l-28.6 16.4"/><path class="st0" d="M729.8 501.1l-121.6 63.6c-.3-3.2-.6-6.2-1.1-9.1-11.4-66.5-82.9-58.3-95.9-56.2-1.3.2 0 0 0 0l-.6-.4 29.4-16.2 89.8-49.3c99-8 100 67.6 100 67.6z"/><path class="st6" d="M607.1 555.6l1.1 9.1-97-65.4c13-2 84.5-10.1 95.9 56.3z"/><path class="st6" d="M511.3 499.4l-96-61.3 11.4-1.3c25.8-1.9 88.1 1.6 84.6 62.6z"/><path fill="#4a69b2" stroke="#fff" stroke-width="2.791" stroke-linecap="square" stroke-miterlimit="10" d="M511.3 499.4l6.3-68.9 8.1 11.5 5.9-19.6 19.1 28.7.7-20.5 15.7 15 5.8-26.6 15.5 13.7 10.5-8.8 12.3 7 3.3-27.9 9.9 18.8 9.3-18.2-3.8 30"/><path d="M579.3 351.9c-.9 0-1.5-.7-1.5-1.5 0-2.2 1.4-53.6 23.3-66.1.7-.4 1.6-.2 2 .6.4.7.2 1.6-.6 2-20.4 11.6-21.8 63-21.8 63.6.1.8-.6 1.4-1.4 1.4z" fill="#f7b4cc"/><path d="M767.3 338.4s-.6 55.9-62.3 84" fill="none" stroke="#f7b4cc" stroke-width="3" stroke-linecap="round" stroke-miterlimit="10"/></svg>