<svg xmlns="http://www.w3.org/2000/svg" viewBox="0 0 100 100">
  <defs>
    <style>
      .cls-1 {
        fill: #00ffd8;
      }

      .cls-2 {
        fill: #003bff;
      }
    </style>
  </defs>
  <g id="Group_100" data-name="Group 100" transform="translate(-417 -2771)">
    <g id="Group_81" data-name="Group 81" transform="translate(417 2771)">
      <path id="Path_79" data-name="Path 79" class="cls-1" d="M18,29.789v-7.6A4.161,4.161,0,0,1,22.1,18H80.955a4.161,4.161,0,0,1,4.1,4.192v7.6a4.161,4.161,0,0,1-4.1,4.192H22.1A4.144,4.144,0,0,1,18,29.789Z" transform="translate(-13.382 -13.284)"/>
      <path id="Path_80" data-name="Path 80" class="cls-1" d="M18,125.289v-7.6a4.161,4.161,0,0,1,4.1-4.192h87.173a4.161,4.161,0,0,1,4.1,4.192v7.6a4.161,4.161,0,0,1-4.1,4.192H22.1A4.144,4.144,0,0,1,18,125.289Z" transform="translate(-13.382 -83.765)"/>
      <path id="Path_81" data-name="Path 81" class="cls-1" d="M18,230.189v-7.6a4.161,4.161,0,0,1,4.1-4.192h80.682a4.161,4.161,0,0,1,4.1,4.192v7.6a4.161,4.161,0,0,1-4.1,4.192H22.1A4.161,4.161,0,0,1,18,230.189Z" transform="translate(-13.382 -161.182)"/>
      <path id="Path_82" data-name="Path 82" class="cls-1" d="M15.5,332.489v-7.6a4.161,4.161,0,0,1,4.1-4.192H61.421a4.161,4.161,0,0,1,4.1,4.192v7.6a4.161,4.161,0,0,1-4.1,4.192H19.6A4.161,4.161,0,0,1,15.5,332.489Z" transform="translate(-11.524 -236.681)"/>
      <path id="Path_83" data-name="Path 83" class="cls-2" d="M0,11.789v-7.6A4.161,4.161,0,0,1,4.1,0H62.955a4.161,4.161,0,0,1,4.1,4.192v7.6a4.161,4.161,0,0,1-4.1,4.192H4.1A4.144,4.144,0,0,1,0,11.789Z"/>
      <path id="Path_84" data-name="Path 84" class="cls-2" d="M0,107.289v-7.6A4.161,4.161,0,0,1,4.1,95.5H91.278a4.161,4.161,0,0,1,4.1,4.192v7.6a4.161,4.161,0,0,1-4.1,4.192H4.1A4.144,4.144,0,0,1,0,107.289Z" transform="translate(0 -70.48)"/>
      <path id="Path_85" data-name="Path 85" class="cls-2" d="M0,212.189v-7.6A4.161,4.161,0,0,1,4.1,200.4H84.787a4.161,4.161,0,0,1,4.1,4.192v7.6a4.161,4.161,0,0,1-4.1,4.192H4.1A4.161,4.161,0,0,1,0,212.189Z" transform="translate(0 -147.898)"/>
      <path id="Path_86" data-name="Path 86" class="cls-2" d="M0,316.989v-7.6A4.161,4.161,0,0,1,4.1,305.2H45.921a4.161,4.161,0,0,1,4.1,4.192v7.6a4.161,4.161,0,0,1-4.1,4.192H4.1A4.161,4.161,0,0,1,0,316.989Z" transform="translate(0 -225.242)"/>
    </g>
  </g>
</svg>
