<svg enable-background="new 0 0 35 40" viewBox="0 0 35 40" xmlns="http://www.w3.org/2000/svg"><g fill="#003bff" transform="translate(163 122)"><path d="m-157.7-104.7v-5.8c0-6.4 5.2-11.5 11.5-11.5 6.4 0 11.5 5.2 11.5 11.5v.8c0 1.2-.9 2.1-2 2.1-1.2 0-2.1-.9-2.1-2v-.1-.8c0-4.1-3.3-7.4-7.4-7.4s-7.3 3.3-7.3 7.4v5.8h19.5.7l-12.2 12.1-12.2-12.1h.6z"/><path d="m-128-98.8v10.8c0 3.3-2.7 6-6 5.9h-23c-3.3 0-6-2.6-6-5.9v-10.8c0-1.5.5-2.9 1.5-4 .1.1.2.3.3.4l14.2 14.1c.8.8 2.1.8 3 0l14.6-14.5c.9 1.2 1.4 2.6 1.4 4z"/></g></svg>