<svg version="1.1" id="Layer_1" xmlns="http://www.w3.org/2000/svg" x="0" y="0" viewBox="0 0 384 49.7" xml:space="preserve"><style>.st0{fill:#204391}</style><g id="Group_1" transform="translate(163 122)"><path id="Path_48" class="st0" d="M-157.7-104.7v-5.8c0-6.4 5.2-11.5 11.5-11.5s11.5 5.2 11.5 11.5v.8c0 1.2-.9 2.1-2 2.1s-2.1-.9-2.1-2v-.9c0-4.1-3.3-7.3-7.4-7.3-4.1 0-7.4 3.3-7.4 7.3v5.8h20.2l-12.2 12.1-12.1-12.1h.6-.6z"/><path id="Path_49" class="st0" d="M-128-98.8V-88c0 3.3-2.7 5.9-6 5.9h-23c-3.3 0-5.9-2.6-6-5.9v-10.8c0-1.5.5-2.9 1.5-3.9.1.1.2.3.3.4l14.2 14.1c.8.8 2.1.8 3 0l14.6-14.5c.9 1.1 1.4 2.5 1.4 3.9z"/></g><path class="st0" d="M52.8 32.7c1.7.9 3.9 1.7 5.5 1.7 1.5 0 2.3-.6 2.3-1.4 0-.8-.5-1.3-1.8-1.8l-2.2-.8c-2.8-1-4.9-2.7-4.9-5.9 0-4 3-6.5 7.7-6.5 2.4 0 5.5.8 7.3 1.7.1 1.5-.7 3.6-1.7 4.3-1.7-.8-3.6-1.5-5.5-1.5-1.1 0-1.6.6-1.6 1.3 0 .7.4 1.1 1.5 1.5l2.5.9c3 1.1 5.3 3 5.3 6.4 0 4-3.2 6.4-8 6.4-3.1 0-6.1-.9-7.9-1.9-.2-1.5.6-3.4 1.5-4.4zM84.4 36.5c-1.7 1.6-3.8 2.3-6.3 2.3s-4.7-.7-6.3-2.3c-2.1-2.1-2.8-4.7-2.8-8.1 0-3.4.8-6 2.8-8.1 1.6-1.6 3.8-2.3 6.3-2.3s4.6.7 6.3 2.3c2.1 2.1 2.8 4.7 2.8 8.1.1 3.4-.7 6-2.8 8.1zm-6.3-2.3c2.4 0 2.8-2.6 2.8-5.9 0-3.2-.4-5.8-2.8-5.8-2.5 0-2.8 2.6-2.8 5.8 0 3.3.4 5.9 2.8 5.9zM99.6 33.7c.3.9.5 1.9.5 2.9 0 .5 0 1-.1 1.4-1.2.2-2.8.4-4.3.4-3.6 0-4.9-1.7-4.9-5.5V9.4l.2-.3h2.4c2.5 0 3.4.9 3.4 3.7v19c0 1.2.5 1.9 1.7 1.9h1.1zM110.3 38.3c-.9.2-2.1.2-3.1.2s-2.2-.1-3.1-.2V25.2c0-1.3-.5-2.3-1.9-2.3h-.6c-.2-.7-.2-1.3-.2-2.1 0-.7 0-1.5.2-2.2 1.2-.1 2.6-.2 3.5-.2h.9c2.6 0 4.3 1.8 4.3 4.7v15.2zm-6.9-27.7c.7-.4 1.9-.6 2.9-.6s2.3.3 2.9.6c.3.7.5 1.6.5 2.3s-.2 1.6-.5 2.3c-.6.3-1.9.6-2.9.6s-2.3-.2-2.9-.6c-.3-.7-.5-1.6-.5-2.3 0-.8.2-1.6.5-2.3zM122.5 22.5c-1.8 0-2.5 1.8-2.5 5.9 0 4.2 1.2 5.6 3.4 5.6 1.5 0 3.1-.8 4.4-1.7 1 .6 2.1 2.2 2.3 3.4-1.7 1.9-4.8 3-7.7 3-5.7 0-8.7-4.1-8.7-10.4 0-7.7 4.5-10.5 8.9-10.5s7.7 2.6 7.7 6.6c0 2.1-1.3 3-3 3-1 0-1.7-.1-2.5-.2.1-3-.2-4.7-2.3-4.7zM141.3 38.3c-.9.2-2.1.2-3.1.2s-2.2-.1-3.1-.2V25.2c0-1.3-.5-2.3-1.9-2.3h-.6c-.2-.7-.2-1.3-.2-2.1 0-.7 0-1.5.2-2.2 1.2-.1 2.6-.2 3.5-.2h.9c2.6 0 4.3 1.8 4.3 4.7v15.2zm-6.9-27.7c.7-.4 1.9-.6 2.9-.6s2.3.3 2.9.6c.3.7.5 1.6.5 2.3s-.2 1.6-.5 2.3c-.6.3-1.9.6-2.9.6s-2.3-.2-2.9-.6c-.3-.7-.5-1.6-.5-2.3 0-.8.2-1.6.5-2.3zM157.5 20.6c0 .8-.1 1.5-.2 2.3l-4.7-.1v9.1c0 1.2.5 1.9 1.7 1.9h2.2c.3.9.5 2 .5 2.9 0 .5 0 1-.2 1.4-1.5.2-3.6.4-5.1.4-3.6 0-5.3-1.7-5.3-5.5V22.8h-3.1c-.2-.7-.3-1.5-.3-2.3 0-.7.1-1.4.3-2.1l3.1.1v-2.3c0-2.7.9-3.7 3.4-3.7h2.4l.3.3v5.7l4.7-.1c.3.8.3 1.5.3 2.2zM160.5 23.5c0-1.5-.2-2.9-.9-4 .9-.8 2.3-1.3 3.8-1.3 2.5 0 3.3 1.3 3.3 3.8v8.4c0 1.8.4 2.6 1.7 2.6.8 0 1.9-.4 2.9-1.3V18.5c.9-.2 2-.2 3.1-.2 1 0 2.2.1 3.1.2v14.1c0 1.3.4 2.4 1.1 2.9-.2 1.1-1.1 2.5-1.9 3.1-2.2-.1-3.8-1.1-4.7-2.8-1.7 1.5-3.6 2.8-6 2.8-3.6 0-5.5-2.9-5.5-7v-8.1zM189.1 18.1c1.4 0 2.6.4 3.7.9V9.4l.2-.3h2.4c2.5 0 3.4.9 3.4 3.7v19.7c0 1.3.4 2.4 1.1 2.8-.2 1.1-1.1 2.6-1.9 3.2-2 0-3.4-.9-4.2-2.2-1.4 1.5-3.3 2.5-5.5 2.5-4.8 0-7.1-4.2-7.1-10.2 0-6.8 3.6-10.5 7.9-10.5zm3.7 14.2v-8.7c-.9-.6-1.8-.9-2.6-.9-1.9 0-2.7 2.3-2.7 5.9 0 3.7 1 5.2 2.4 5.2.8.1 1.9-.3 2.9-1.5zM210.4 18.1c1.4 0 2.6.4 3.7.9V9.4l.2-.3h2.4c2.5 0 3.4.9 3.4 3.7v19.7c0 1.3.4 2.4 1.1 2.8-.2 1.1-1.1 2.6-1.9 3.2-2 0-3.4-.9-4.2-2.2-1.4 1.5-3.3 2.5-5.5 2.5-4.8 0-7.1-4.2-7.1-10.2 0-6.8 3.6-10.5 7.9-10.5zm3.7 14.2v-8.7c-.9-.6-1.8-.9-2.6-.9-1.9 0-2.7 2.3-2.7 5.9 0 3.7 1 5.2 2.4 5.2.8.1 1.9-.3 2.9-1.5zM230 30.4c.2 2.1.9 3.8 3.6 3.8 1.8 0 3.5-.6 5.1-1.2.9.9 1.5 2.4 1.6 3.6-2 1.4-5 2.3-7.8 2.3-7 0-8.8-5.1-8.8-10.3 0-6 2.6-10.6 8.9-10.6 5.2 0 8.2 3.6 8.2 8.4 0 1.7-.1 2.8-.5 4.1H230zm0-4.3h5.2v-.4c0-1.8-.8-3.4-2.6-3.4s-2.5 1.2-2.6 3.8zM251.4 18.1c1.4 0 2.6.4 3.7.9V9.4l.2-.3h2.4c2.5 0 3.4.9 3.4 3.7v19.7c0 1.3.4 2.4 1.1 2.8-.2 1.1-1.1 2.6-1.9 3.2-2 0-3.4-.9-4.2-2.2-1.4 1.5-3.3 2.5-5.5 2.5-4.8 0-7.1-4.2-7.1-10.2 0-6.8 3.6-10.5 7.9-10.5zm3.7 14.2v-8.7c-.9-.6-1.8-.9-2.6-.9-1.9 0-2.7 2.3-2.7 5.9 0 3.7 1 5.2 2.4 5.2.8.1 1.9-.3 2.9-1.5zM280.8 38.6c-2 0-3.4-.9-4.3-2.1-1.4 1.3-3.2 2.4-5.8 2.4-4.1 0-6-3.2-6-6 0-4.7 3.8-6.8 7.8-6.8.7 0 1.8 0 2.8.1v-.8c0-1.7-.8-2.5-2.6-2.5-1.7 0-3.8.6-5.8 1.3-.9-1-1.3-2.8-1.5-4.3 2.7-1.1 6.5-1.7 9.1-1.7 3.4 0 7 1.7 7 6.8v8c0 1.1.3 2 1.1 2.6-.1.9-1 2.4-1.8 3zm-5.4-5.5V30c-.8 0-1.6-.1-2.1-.1-1.8 0-2.5 1-2.5 2.5 0 1.1.7 1.9 1.8 1.9.9 0 1.9-.4 2.8-1.2zM297.7 20.6c0 .8-.1 1.5-.2 2.3l-4.7-.1v9.1c0 1.2.5 1.9 1.7 1.9h2.2c.3.9.5 2 .5 2.9 0 .5 0 1-.2 1.4-1.5.2-3.6.4-5.1.4-3.6 0-5.3-1.7-5.3-5.5V22.8h-3.1c-.2-.7-.3-1.5-.3-2.3 0-.7.1-1.4.3-2.1l3.1.1v-2.3c0-2.7.9-3.7 3.4-3.7h2.4l.3.3v5.7l4.7-.1c.2.8.3 1.5.3 2.2zM314.7 36.5c-1.7 1.6-3.8 2.3-6.3 2.3s-4.7-.7-6.3-2.3c-2.1-2.1-2.8-4.7-2.8-8.1 0-3.4.8-6 2.8-8.1 1.6-1.6 3.8-2.3 6.3-2.3s4.6.7 6.3 2.3c2.1 2.1 2.8 4.7 2.8 8.1.1 3.4-.7 6-2.8 8.1zm-6.3-2.3c2.4 0 2.8-2.6 2.8-5.9 0-3.2-.4-5.8-2.8-5.8-2.5 0-2.8 2.6-2.8 5.8 0 3.3.4 5.9 2.8 5.9zM321.3 32.7c1.7.9 3.9 1.7 5.5 1.7 1.5 0 2.3-.6 2.3-1.4 0-.8-.5-1.3-1.8-1.8l-2.2-.8c-2.8-1-4.9-2.7-4.9-5.9 0-4 3-6.5 7.7-6.5 2.4 0 5.5.8 7.3 1.7.1 1.5-.7 3.6-1.7 4.3-1.7-.8-3.6-1.5-5.5-1.5-1.1 0-1.6.6-1.6 1.3 0 .7.4 1.1 1.5 1.5l2.5.9c3 1.1 5.3 3 5.3 6.4 0 4-3.2 6.4-8 6.4-3.1 0-6.1-.9-7.9-1.9-.2-1.5.6-3.4 1.5-4.4z"/><path d="M338.9 33.1c.8-.4 2.1-.7 3.1-.7s2.3.3 3.1.7c.4.8.5 1.9.5 2.4s-.1 1.7-.5 2.4c-.8.5-2.1.8-3.1.8s-2.3-.2-3.1-.8c-.4-.7-.5-1.9-.5-2.4s.1-1.6.5-2.4z" fill="#02826c"/><path class="st0" d="M355.1 30.4c.2 2.1.9 3.8 3.6 3.8 1.8 0 3.5-.6 5.1-1.2.9.9 1.5 2.4 1.6 3.6-2 1.4-5 2.3-7.8 2.3-7 0-8.8-5.1-8.8-10.3 0-6 2.6-10.6 8.9-10.6 5.2 0 8.2 3.6 8.2 8.4 0 1.7-.1 2.8-.5 4.1h-10.3zm-.1-4.3h5.2v-.4c0-1.8-.8-3.4-2.6-3.4-1.7 0-2.4 1.2-2.6 3.8zM369.8 32.7c1.7.9 3.9 1.7 5.5 1.7 1.5 0 2.3-.6 2.3-1.4 0-.8-.5-1.3-1.8-1.8l-2.2-.8c-2.8-1-4.9-2.7-4.9-5.9 0-4 3-6.5 7.7-6.5 2.4 0 5.5.8 7.3 1.7.1 1.5-.7 3.6-1.7 4.3-1.7-.8-3.6-1.5-5.5-1.5-1.1 0-1.6.6-1.6 1.3 0 .7.4 1.1 1.5 1.5l2.5.9c3 1.1 5.3 3 5.3 6.4 0 4-3.2 6.4-8 6.4-3.1 0-6.1-.9-7.9-1.9-.2-1.5.6-3.4 1.5-4.4z"/></svg>