<svg version="1.0" id="Layer_1" xmlns="http://www.w3.org/2000/svg" x="0" y="0" viewBox="0 0 484.19 49.72" xml:space="preserve"><style>.st0{fill:#204391}</style><g id="Group_1" transform="translate(163 122)"><path id="Path_48" class="st0" d="M-157.66-104.71L-157.66-104.71v-5.77c0-6.36,5.16-11.52,11.52-11.52 c6.36,0,11.52,5.16,11.52,11.52v0.81c0.03,1.15-0.88,2.11-2.03,2.14c-1.15,0.03-2.11-0.88-2.14-2.03c0-0.03,0-0.06,0-0.09v-0.83 l0,0c0-4.06-3.29-7.35-7.35-7.35c-4.06,0-7.35,3.29-7.35,7.35v5.77h19.53c0.22,0,0.45,0.02,0.67,0.03l-12.17,12.13l-12.17-12.13 c0.19-0.02,0.4-0.03,0.61-0.03H-157.66z"/><path id="Path_49" class="st0" d="M-128-98.75v10.85c-0.01,3.29-2.68,5.95-5.97,5.94c0,0,0,0,0,0h-23.07 c-3.28,0.01-5.95-2.64-5.97-5.92c0-0.01,0-0.01,0-0.02v-10.85c0-1.46,0.54-2.87,1.52-3.95c0.08,0.14,0.18,0.27,0.3,0.38L-147-88.21 l0.03,0.03l0,0l0.03,0.03c0.82,0.81,2.14,0.81,2.96,0l14.56-14.5C-128.5-101.56-127.99-100.18-128-98.75z"/></g><path class="st0" d="M58.28 17.69c1.4 0 2.6.36 3.72.88V8.89l.24-.28h2.44c2.48 0 3.4.96 3.4 3.76v19.92c0 1.28.44 2.4 1.12 2.88-.24 1.08-1.12 2.6-1.92 3.2-2-.04-3.4-.88-4.28-2.24-1.4 1.48-3.32 2.52-5.52 2.52-4.88 0-7.2-4.28-7.2-10.36C50.28 21.41 53.92 17.69 58.28 17.69zM62 32.04v-8.76c-.96-.56-1.84-.96-2.6-.96-1.92 0-2.72 2.32-2.72 6 0 3.72 1 5.28 2.4 5.28C59.88 33.6 61 33.29 62 32.04zM80.08 30.08c.2 2.16.96 3.8 3.6 3.8 1.8 0 3.56-.56 5.2-1.2.92.92 1.48 2.44 1.64 3.68-2 1.44-5.04 2.28-7.84 2.28-7.04 0-8.92-5.16-8.92-10.44 0-6.04 2.6-10.72 8.96-10.72 5.28 0 8.32 3.64 8.32 8.48 0 1.76-.12 2.8-.52 4.12H80.08zM80.04 25.77h5.28v-.44c0-1.84-.76-3.4-2.64-3.4C80.92 21.93 80.2 23.17 80.04 25.77zM105.72 23.33c-.84.04-1.8.56-2.64 1.36v13.36c-.88.16-2.04.24-3.12.24-1.04 0-2.24-.08-3.12-.24V18.09l.28-.28h2.32c1.72 0 2.84.92 3.36 2.52 1.56-1.44 3.44-2.6 5.52-2.6 2.2 0 3.8 1.08 4.68 2.76 1.72-1.52 3.96-2.76 6.16-2.76 3.52 0 5.32 2.72 5.32 6.36v8.96c0 1.56.28 2.96 1 3.96-.92.8-2.32 1.36-3.88 1.36-2.52 0-3.36-1.36-3.36-3.88v-8.52c0-2.12-1.04-2.64-1.88-2.64-.76 0-1.72.56-2.56 1.4v13.32c-.88.16-2.08.24-3.16.24-1.04 0-2.2-.08-3.12-.24V26.01C107.52 23.89 106.6 23.33 105.72 23.33zM146.2 38.36c-2.04-.04-3.44-.96-4.32-2.12-1.4 1.32-3.24 2.4-5.84 2.4-4.12 0-6.08-3.2-6.08-6.08 0-4.8 3.8-6.92 7.92-6.92.72 0 1.8 0 2.84.08v-.76c0-1.68-.8-2.52-2.6-2.52-1.72 0-3.8.64-5.88 1.28-.88-1.04-1.36-2.8-1.52-4.36 2.68-1.08 6.56-1.76 9.16-1.76 3.48 0 7.12 1.76 7.12 6.84v8.12c0 1.16.32 2.04 1.12 2.6C147.88 36.24 147 37.76 146.2 38.36zM140.72 32.88v-3.2c-.8-.04-1.6-.08-2.16-.08-1.8 0-2.52 1.04-2.52 2.56 0 1.08.72 1.88 1.84 1.88C138.8 34.04 139.8 33.64 140.72 32.88zM170.88 33.04c0 1.56.24 2.96.96 3.96-.92.8-2.32 1.36-3.88 1.36-2.52 0-3.36-1.36-3.36-3.88v-8.52c0-1.8-.36-2.64-1.72-2.64-.8 0-1.92.4-2.96 1.36v13.36c-.88.16-2.04.24-3.12.24-1.04 0-2.24-.08-3.12-.24V18.09l.28-.28h2.36c1.68 0 2.76.88 3.28 2.4 1.56-1.4 3.36-2.48 5.68-2.48 3.64 0 5.6 2.96 5.6 7.12V33.04zM184.44 17.69c1.4 0 2.6.36 3.72.88V8.89l.24-.28h2.44c2.48 0 3.4.96 3.4 3.76v19.92c0 1.28.44 2.4 1.12 2.88-.24 1.08-1.12 2.6-1.92 3.2-2-.04-3.4-.88-4.28-2.24-1.4 1.48-3.32 2.52-5.52 2.52-4.88 0-7.2-4.28-7.2-10.36C176.44 21.41 180.08 17.69 184.44 17.69zM188.16 32.04v-8.76c-.96-.56-1.84-.96-2.6-.96-1.92 0-2.72 2.32-2.72 6 0 3.72 1 5.28 2.4 5.28C186.04 33.6 187.16 33.29 188.16 32.04zM206.24 30.08c.2 2.16.96 3.8 3.6 3.8 1.8 0 3.56-.56 5.2-1.2.92.92 1.48 2.44 1.64 3.68-2 1.44-5.04 2.28-7.84 2.28-7.04 0-8.92-5.16-8.92-10.44 0-6.04 2.6-10.72 8.96-10.72 5.28 0 8.32 3.64 8.32 8.48 0 1.76-.12 2.8-.52 4.12H206.24zM206.2 25.77h5.28v-.44c0-1.84-.76-3.4-2.64-3.4C207.08 21.93 206.36 23.17 206.2 25.77zM234.92 20.21c0 .8-.08 1.56-.24 2.28l-4.76-.08v9.2c0 1.2.52 1.88 1.76 1.88h2.24c.32.88.52 2 .52 2.96 0 .48-.04 1-.16 1.4-1.48.2-3.6.4-5.16.4-3.64 0-5.32-1.76-5.32-5.56V22.45l-3.12.04c-.2-.72-.28-1.48-.28-2.28 0-.68.08-1.4.28-2.16l3.12.08v-2.32c0-2.76.96-3.76 3.4-3.76h2.44l.28.28v5.8l4.76-.08C234.84 18.81 234.92 19.53 234.92 20.21zM244.84 30.08c.2 2.16.96 3.8 3.6 3.8 1.8 0 3.56-.56 5.2-1.2.92.92 1.48 2.44 1.64 3.68-2 1.44-5.04 2.28-7.84 2.28-7.04 0-8.92-5.16-8.92-10.44 0-6.04 2.6-10.72 8.96-10.72 5.28 0 8.32 3.64 8.32 8.48 0 1.76-.12 2.8-.52 4.12H244.84zM244.8 25.77h5.28v-.44c0-1.84-.76-3.4-2.64-3.4C245.68 21.93 244.96 23.17 244.8 25.77zM261.72 32.45c1.76.92 3.96 1.68 5.56 1.68 1.52 0 2.32-.6 2.32-1.4 0-.76-.52-1.36-1.84-1.8l-2.2-.84c-2.8-1.04-5-2.76-5-6 0-4.04 3.04-6.6 7.76-6.6 2.4 0 5.6.8 7.36 1.68.08 1.48-.72 3.6-1.72 4.36-1.68-.76-3.68-1.52-5.6-1.52-1.08 0-1.64.56-1.64 1.28 0 .68.44 1.12 1.52 1.52l2.48.88c3.04 1.08 5.32 3.04 5.32 6.44 0 4-3.2 6.52-8.08 6.52-3.12 0-6.12-.92-7.96-1.96C260.04 35.32 260.8 33.4 261.72 32.45zM288.2 17.69c1.4 0 2.6.36 3.72.88V8.89l.24-.28h2.44c2.48 0 3.4.96 3.4 3.76v19.92c0 1.28.44 2.4 1.12 2.88-.24 1.08-1.12 2.6-1.92 3.2-2-.04-3.4-.88-4.28-2.24-1.4 1.48-3.32 2.52-5.52 2.52-4.88 0-7.2-4.28-7.2-10.36C280.2 21.41 283.84 17.69 288.2 17.69zM291.92 32.04v-8.76c-.96-.56-1.84-.96-2.6-.96-1.92 0-2.72 2.32-2.72 6 0 3.72 1 5.28 2.4 5.28C289.8 33.6 290.92 33.29 291.92 32.04zM319.27 36.28c-1.68 1.64-3.88 2.36-6.36 2.36-2.52 0-4.72-.72-6.36-2.36-2.12-2.12-2.88-4.72-2.88-8.24 0-3.48.76-6.08 2.88-8.2 1.64-1.64 3.84-2.36 6.36-2.36 2.48 0 4.68.72 6.36 2.36 2.12 2.12 2.88 4.72 2.88 8.2C322.15 31.57 321.39 34.16 319.27 36.28zM312.92 33.96c2.44 0 2.8-2.6 2.8-5.92 0-3.28-.36-5.88-2.8-5.88-2.48 0-2.84 2.6-2.84 5.88C310.08 31.37 310.44 33.96 312.92 33.96zM344.95 33.04c0 1.56.24 2.96.96 3.96-.92.8-2.32 1.36-3.88 1.36-2.52 0-3.36-1.36-3.36-3.88v-8.52c0-1.8-.36-2.64-1.72-2.64-.8 0-1.92.4-2.96 1.36v13.36c-.88.16-2.04.24-3.12.24-1.04 0-2.24-.08-3.12-.24V18.09l.28-.28h2.36c1.68 0 2.76.88 3.28 2.4 1.56-1.4 3.36-2.48 5.68-2.48 3.64 0 5.6 2.96 5.6 7.12V33.04zM368.83 33.04c0 1.56.24 2.96.96 3.96-.92.8-2.32 1.36-3.88 1.36-2.52 0-3.36-1.36-3.36-3.88v-8.52c0-1.8-.36-2.64-1.72-2.64-.8 0-1.92.4-2.96 1.36v13.36c-.88.16-2.04.24-3.12.24-1.04 0-2.24-.08-3.12-.24V18.09l.28-.28h2.36c1.68 0 2.76.88 3.28 2.4 1.56-1.4 3.36-2.48 5.68-2.48 3.64 0 5.6 2.96 5.6 7.12V33.04zM380.63 30.08c.2 2.16.96 3.8 3.6 3.8 1.8 0 3.56-.56 5.2-1.2.92.92 1.48 2.44 1.64 3.68-2 1.44-5.04 2.28-7.84 2.28-7.04 0-8.92-5.16-8.92-10.44 0-6.04 2.6-10.72 8.96-10.72 5.28 0 8.32 3.64 8.32 8.48 0 1.76-.12 2.8-.52 4.12H380.63zM380.59 25.77h5.28v-.44c0-1.84-.76-3.4-2.64-3.4C381.47 21.93 380.75 23.17 380.59 25.77zM402.51 30.08c.2 2.16.96 3.8 3.6 3.8 1.8 0 3.56-.56 5.2-1.2.92.92 1.48 2.44 1.64 3.68-2 1.44-5.04 2.28-7.84 2.28-7.04 0-8.92-5.16-8.92-10.44 0-6.04 2.6-10.72 8.96-10.72 5.28 0 8.32 3.64 8.32 8.48 0 1.76-.12 2.8-.52 4.12H402.51zM402.47 25.77h5.28v-.44c0-1.84-.76-3.4-2.64-3.4C403.35 21.93 402.63 23.17 402.47 25.77zM419.4 32.45c1.76.92 3.96 1.68 5.56 1.68 1.52 0 2.32-.6 2.32-1.4 0-.76-.52-1.36-1.84-1.8l-2.2-.84c-2.8-1.04-5-2.76-5-6 0-4.04 3.04-6.6 7.76-6.6 2.4 0 5.6.8 7.36 1.68.08 1.48-.72 3.6-1.72 4.36-1.68-.76-3.68-1.52-5.6-1.52-1.08 0-1.64.56-1.64 1.28 0 .68.44 1.12 1.52 1.52l2.48.88c3.04 1.08 5.32 3.04 5.32 6.44 0 4-3.2 6.52-8.08 6.52-3.12 0-6.12-.92-7.96-1.96C417.72 35.32 418.48 33.4 419.4 32.45z"/><path d="M439.2,32.88c0.8-0.44,2.08-0.72,3.12-0.72c1.04,0,2.36,0.28,3.16,0.72c0.36,0.76,0.48,1.96,0.48,2.44 c0,0.48-0.12,1.68-0.48,2.4c-0.8,0.52-2.12,0.76-3.16,0.76c-1.04,0-2.32-0.24-3.12-0.76c-0.36-0.72-0.48-1.92-0.48-2.4 C438.72,34.84,438.83,33.64,439.2,32.88z" fill="#02826c"/><path class="st0" d="M453.59 22.45l-3.44.04c-.16-.68-.24-1.56-.24-2.28 0-.68.08-1.48.24-2.16l3.12.04c-.12-.88-.2-1.76-.2-2.68 0-3.96 2.8-6.96 6.96-6.96 2.52 0 4.76.6 6.16 1.12.04 1.4-.56 3.28-1.36 4.12-.8-.24-2-.56-3.08-.56-1.72 0-2.68.92-2.68 2.76 0 .68.04 1.44.16 2.24l5.24-.08c.16.68.24 1.48.24 2.16 0 .72-.08 1.6-.24 2.28l-4.8-.08v15.64c-.92.16-2.04.24-3.08.24-1 0-2.04-.08-3-.24V22.45zM470.39 17.77c2.56.2 4.2 1.52 5.12 3.64.88-2.08 2.4-3.6 5-3.6 1.2 0 1.84.16 2.64.32 0 1.48-.52 4.12-1.56 5.84-.68-.24-1.36-.32-2.04-.4-1.44 0-2.44.72-3.28 2.04v12.44c-.88.16-2.04.24-3.12.24-1.04 0-2.2-.08-3.12-.24V25.13c0-2.36-.88-3.68-1.52-4.16C468.75 19.89 469.63 18.37 470.39 17.77z"/></svg>