<svg enable-background="new 0 0 374.9 47.6" viewBox="0 0 374.9 47.6" xmlns="http://www.w3.org/2000/svg"><g fill="#003bff" transform="translate(163 122)"><path d="m-157.7-104.8v-5.8c0-6.4 5.2-11.5 11.5-11.5 6.4 0 11.5 5.2 11.5 11.5v.8c0 1.2-.9 2.1-2 2.1-1.2 0-2.1-.9-2.1-2v-.1-.8c0-4.1-3.3-7.3-7.4-7.3s-7.3 3.3-7.3 7.3v5.8h19.5.7l-12.2 12.1-12.2-12.1h.6z"/><path d="m-128-98.8v10.8c0 3.3-2.7 6-6 5.9h-23c-3.3 0-6-2.6-6-5.9v-10.8c0-1.5.5-2.9 1.5-4 .1.1.2.3.3.4l14.2 14.1c.8.8 2.1.8 3 0l14.6-14.5c.9 1.2 1.4 2.6 1.4 4z"/></g><g enable-background="new"><g fill="#003bff"><path d="m58.3 17.6c1.3 0 2.5.3 3.7.9v-9.7l.2-.3h2.4c1.3 0 2.2.3 2.7.8.5.6.7 1.5.7 2.9v19.9c0 1.4.4 2.4 1.1 2.9-.1.6-.4 1.2-.8 1.8s-.8 1.1-1.2 1.4c-1.9-.1-3.4-.8-4.3-2.2-1.6 1.7-3.5 2.5-5.8 2.5-2.2 0-4-.9-5.2-2.8s-1.8-4.4-1.8-7.7c0-1.6.2-3 .6-4.3s1-2.4 1.7-3.3 1.6-1.6 2.5-2.1c1.3-.4 2.4-.7 3.5-.7zm.8 16c1.1 0 2.1-.5 2.9-1.6v-8.8c-1.1-.6-2-1-2.6-1-1.8 0-2.7 2-2.7 6-.1 3.6.7 5.4 2.4 5.4z"/><path d="m91.9 35.1c-.1.6-.4 1.2-.8 1.8s-.8 1.1-1.2 1.4c-1.9-.1-3.3-.8-4.3-2.1-1.7 1.6-3.6 2.4-5.6 2.4-1 0-1.9-.2-2.7-.5s-1.4-.8-2-1.3c-.5-.6-.9-1.2-1.2-1.9s-.4-1.5-.4-2.3c0-1.1.2-2.2.6-3 .4-.9 1-1.6 1.7-2.2s1.6-1 2.5-1.3c1-.3 2-.4 3.1-.4h1.6c.5 0 .9 0 1.2.1v-.8c0-1.7-.9-2.6-2.6-2.6-1.1 0-3.1.4-5.9 1.3-.8-.9-1.3-2.4-1.5-4.4.6-.2 1.4-.5 2.1-.7l2.4-.6c.8-.2 1.6-.3 2.4-.4s1.5-.1 2.2-.1c.9 0 1.8.1 2.7.4s1.6.7 2.3 1.2 1.2 1.3 1.6 2.1c.4.9.6 1.9.6 3.1v8.1c.1 1.3.5 2.2 1.2 2.7zm-12.1-3c0 1.3.7 1.9 2.2 1.9.7 0 1.6-.4 2.5-1.2v-3.2c-.5 0-1 0-1.3-.1-.4 0-.6 0-.8 0-1.7.1-2.6.9-2.6 2.6z"/><path d="m108.9 18c.2.7.2 1.5.2 2.2s-.1 1.5-.2 2.2l-4.8-.1v9.2c0 1.3.6 1.9 1.8 1.9h2.2c.3 1 .5 1.9.5 2.7s-.1 1.4-.2 1.7c-2 .3-3.8.4-5.4.4-3.4 0-5-1.9-5-5.6v-10.2h-3.1c-.2-.7-.3-1.4-.3-2.2s.1-1.5.3-2.2l3.1.1v-2.3c0-1.4.3-2.3.8-2.9s1.4-.9 2.6-.9h2.4l.3.3v5.8z"/><path d="m131.2 35.1c-.1.6-.4 1.2-.8 1.8s-.8 1.1-1.2 1.4c-1.9-.1-3.3-.8-4.3-2.1-1.7 1.6-3.6 2.4-5.6 2.4-1 0-1.9-.2-2.7-.5s-1.4-.8-2-1.3c-.5-.6-.9-1.2-1.2-1.9s-.4-1.5-.4-2.3c0-1.1.2-2.2.6-3 .4-.9 1-1.6 1.7-2.2s1.6-1 2.5-1.3c1-.3 2-.4 3.1-.4h1.6c.5 0 .9 0 1.2.1v-.8c0-1.7-.9-2.6-2.6-2.6-1.1 0-3.1.4-5.9 1.3-.8-.9-1.3-2.4-1.5-4.4.6-.2 1.4-.5 2.1-.7l2.4-.6c.8-.2 1.6-.3 2.4-.4s1.5-.1 2.2-.1c.9 0 1.8.1 2.7.4s1.6.7 2.3 1.2 1.2 1.3 1.6 2.1c.4.9.6 1.9.6 3.1v8.1c0 1.3.4 2.2 1.2 2.7zm-12.1-3c0 1.3.7 1.9 2.2 1.9.7 0 1.6-.4 2.5-1.2v-3.2c-.5 0-1 0-1.3-.1-.4 0-.6 0-.8 0-1.8.1-2.6.9-2.6 2.6z"/><path d="m135.5 20.9c.1-.5.4-1.1.8-1.8s.7-1.1 1.1-1.4c2.5.2 4.2 1.4 5.1 3.6 1-2.4 2.7-3.6 5-3.6.7 0 1.6.1 2.6.3 0 .8-.1 1.8-.4 2.9s-.7 2.1-1.1 2.9c-.5-.2-1.1-.3-2-.4-1.3 0-2.4.7-3.3 2v12.6c-.9.2-1.9.2-3.1.2s-2.2-.1-3.1-.2v-12.9c-.1-2-.6-3.4-1.6-4.2z"/><path d="m169.6 30h-10.4c.1 1.2.4 2.1.9 2.8.6.7 1.5 1 2.7 1 .6 0 1.4-.1 2.2-.3s1.8-.5 2.9-.9c.9.9 1.4 2.1 1.6 3.7-2.1 1.5-4.7 2.3-7.8 2.3-1.7 0-3.1-.3-4.2-.8s-2.1-1.3-2.8-2.2c-.7-1-1.2-2.1-1.5-3.4s-.4-2.7-.4-4.3c0-1.5.2-2.9.5-4.1.4-1.3.9-2.4 1.6-3.3s1.7-1.7 2.8-2.2 2.5-.8 4-.8c1.3 0 2.4.2 3.5.6 1 .4 1.9 1 2.6 1.8.7.7 1.3 1.6 1.7 2.7.4 1 .6 2.2.6 3.4 0 1.5-.2 2.9-.5 4zm-10.5-4.3h5.2v-.4c0-1-.2-1.8-.7-2.4-.4-.6-1.1-1-2-1-.8 0-1.5.3-1.9.9-.3.6-.5 1.6-.6 2.9z"/><path d="m186.5 42.9v-6c-1.4 1-2.9 1.5-4.5 1.5-2.4 0-4.2-.9-5.4-2.8s-1.8-4.4-1.8-7.7c0-1.6.2-3.1.6-4.4s1-2.4 1.7-3.3 1.5-1.6 2.5-2.1c.9-.5 1.9-.7 3-.7 2.2 0 4 .6 5.4 1.8.9-1 2.2-1.5 3.8-1.6.2.2.4.4.6.6s.4.5.6.8.3.6.5.9c.1.3.2.6.3.9-.7.6-1.1 1.5-1.1 2.9v22.6l-.3.3h-2.4c-1.2 0-2.1-.3-2.6-.8-.7-.6-.9-1.5-.9-2.9zm-3-9.5c1.1 0 2.1-.4 3-1.3v-8.6c-1-.9-1.8-1.3-2.6-1.3-1.8 0-2.7 2-2.7 6-.1 3.4.7 5.2 2.3 5.2z"/><path d="m199.3 31.2v-8.2c0-1.7-.3-3.1-1-4 1-.9 2.2-1.3 3.6-1.3s2.4.3 2.9 1c.5.6.8 1.6.8 2.9v8.5c0 .9.1 1.6.3 2s.8.6 1.7.6 1.8-.5 2.7-1.4v-13.3c.9-.2 1.9-.2 3.1-.2s2.2.1 3.2.2v14.2c0 1.4.4 2.4 1.1 2.9-.1.5-.4 1.1-.8 1.7s-.8 1.1-1.2 1.4c-2.2-.1-3.8-1-4.7-2.8-2.1 1.9-4.1 2.8-6 2.8s-3.3-.6-4.3-1.9c-.9-1.2-1.4-2.9-1.4-5.1z"/><path d="m239 30h-10.4c.1 1.2.4 2.1.9 2.8.6.7 1.5 1 2.8 1 .6 0 1.4-.1 2.2-.3s1.8-.5 2.9-.9c.9.9 1.4 2.1 1.6 3.7-2.1 1.5-4.7 2.3-7.8 2.3-1.7 0-3.1-.3-4.2-.8s-2.1-1.3-2.8-2.2-1.2-2.1-1.5-3.4-.4-2.7-.4-4.3c0-1.5.2-2.9.5-4.1s.9-2.4 1.6-3.3 1.7-1.7 2.8-2.2 2.5-.8 4-.8c1.3 0 2.4.2 3.5.6 1 .4 1.9 1 2.6 1.8.7.7 1.3 1.6 1.7 2.7.4 1 .6 2.2.6 3.4-.1 1.5-.3 2.9-.6 4zm-10.5-4.3h5.2v-.4c0-1-.2-1.8-.7-2.4-.4-.6-1.1-1-2-1-.8 0-1.5.3-1.9.9-.3.6-.5 1.6-.6 2.9z"/><path d="m243.7 36.6c0-.7.2-1.5.5-2.3s.7-1.5 1.2-2c2.1 1.1 4 1.7 5.6 1.7.7 0 1.3-.1 1.7-.4s.6-.6.6-1c0-.8-.6-1.4-1.8-1.8l-2.2-.8c-3.3-1.2-5-3.2-5-6 0-2 .7-3.6 2.1-4.8s3.3-1.8 5.7-1.8c1.2 0 2.5.2 3.9.5s2.6.7 3.5 1.2c.1.7-.1 1.6-.4 2.5s-.8 1.5-1.3 1.9c-2.2-1-4.1-1.5-5.6-1.5-.5 0-.9.1-1.2.4-.3.2-.4.5-.4.9 0 .6.5 1.1 1.5 1.5l2.5.9c3.5 1.3 5.3 3.4 5.3 6.4 0 2-.7 3.6-2.2 4.8s-3.6 1.8-6.3 1.8c-2.9-.1-5.4-.8-7.7-2.1z"/><path d="m276.7 18c.2.7.2 1.5.2 2.2s-.1 1.5-.2 2.2l-4.8-.1v9.2c0 1.3.6 1.9 1.8 1.9h2.2c.3 1 .5 1.9.5 2.7s-.1 1.4-.2 1.7c-2 .3-3.8.4-5.4.4-3.4 0-5-1.9-5-5.6v-10.2h-3.1c-.2-.7-.3-1.4-.3-2.2s.1-1.5.3-2.2l3.1.1v-2.3c0-1.4.3-2.3.8-2.9s1.4-.9 2.6-.9h2.4l.3.3v5.8z"/><path d="m280.4 36.6c0-.7.2-1.5.5-2.3s.7-1.5 1.2-2c2.1 1.1 4 1.7 5.6 1.7.7 0 1.3-.1 1.7-.4s.6-.6.6-1c0-.8-.6-1.4-1.8-1.8l-2.2-.8c-3.3-1.2-5-3.2-5-6 0-2 .7-3.6 2.1-4.8s3.3-1.8 5.7-1.8c1.2 0 2.5.2 3.9.5s2.6.7 3.5 1.2c.1.7-.1 1.6-.4 2.5s-.8 1.5-1.3 1.9c-2.2-1-4.1-1.5-5.6-1.5-.5 0-.9.1-1.2.4-.3.2-.4.5-.4.9 0 .6.5 1.1 1.5 1.5l2.5.9c3.5 1.3 5.3 3.4 5.3 6.4 0 2-.7 3.6-2.2 4.8s-3.6 1.8-6.3 1.8c-2.9-.1-5.4-.8-7.7-2.1z"/></g><path d="m301.9 32.8c.5-.2.9-.4 1.5-.5s1.1-.2 1.6-.2c1.2 0 2.3.2 3.2.7.3.7.5 1.5.5 2.4 0 .5 0 .9-.1 1.3s-.2.8-.4 1.1c-.7.5-1.8.8-3.2.8-1.3 0-2.4-.3-3.1-.8-.2-.3-.3-.7-.4-1.1s-.1-.8-.1-1.3c0-.9.2-1.7.5-2.4z" fill="#01ddbb"/><path d="m329.6 19.8c1.9 1.9 2.9 4.7 2.9 8.2 0 1.6-.2 3.1-.6 4.4s-1 2.4-1.8 3.3-1.8 1.6-2.9 2.1-2.5.7-4 .7-2.8-.3-3.9-.8-2.1-1.2-2.9-2.1-1.4-2-1.8-3.3-.6-2.7-.6-4.3.2-3 .6-4.3 1-2.4 1.8-3.3 1.7-1.7 2.9-2.2c1.1-.5 2.5-.8 4-.8 2.5 0 4.7.8 6.3 2.4zm-6.4 2.3c-.6 0-1.1.1-1.4.4s-.7.7-.9 1.1c-.2.5-.4 1-.4 1.7-.1.6-.1 1.3-.1 2 0 1.1 0 2.1.1 2.9s.2 1.5.4 2 .5 1 .8 1.2c.4.3.8.4 1.4.4 1.2 0 2-.5 2.3-1.5.4-1 .6-2.5.6-4.4s-.2-3.4-.6-4.4-1.1-1.4-2.2-1.4z" fill="#003bff"/><path d="m336.9 20.9c.1-.5.4-1.1.8-1.8s.7-1.1 1.1-1.4c2.5.2 4.2 1.4 5.1 3.6 1-2.4 2.7-3.6 5-3.6.7 0 1.6.1 2.6.3 0 .8-.1 1.8-.4 2.9s-.7 2.1-1.1 2.9c-.5-.2-1.1-.3-2-.4-1.3 0-2.4.7-3.3 2v12.6c-.9.2-1.9.2-3.1.2s-2.2-.1-3.1-.2v-12.9c-.1-2-.6-3.4-1.6-4.2z" fill="#003bff"/><path d="m367.6 19.3c.9-1 2.2-1.5 3.8-1.6.4.3.8.8 1.2 1.4s.6 1.2.7 1.8c-.7.5-1.1 1.5-1.1 2.9v10.6c0 2.5-.2 4.5-.6 6.1s-1 2.9-1.8 3.8-1.8 1.6-3 2-2.6.6-4.2.6c-2.7 0-5.3-.4-7.5-1.3 0-.7.1-1.6.4-2.4.3-.9.7-1.6 1.1-2.1 1.8.8 3.6 1.2 5.4 1.2 2.7 0 4-1.3 4-4v-1.3c-1.4 1-3 1.6-4.6 1.6-2.4 0-4.2-.9-5.4-2.8s-1.8-4.4-1.8-7.7c0-1.6.2-3.1.6-4.4s1-2.4 1.7-3.3 1.6-1.6 2.5-2.1 2-.7 3-.7c2.4-.2 4.2.5 5.6 1.7zm-1.5 12.7v-8.6c-.9-.9-1.8-1.4-2.7-1.4-1.8 0-2.7 2-2.7 6 0 3.5.8 5.3 2.4 5.3 1.1.1 2.1-.4 3-1.3z" fill="#003bff"/></g></svg>