<svg id="Layer_1" xmlns="http://www.w3.org/2000/svg" viewBox="0 0 474.7 47.6"><style>.st0{fill:#003bff}.st1{enable-background:new}.st2{fill:#01ddbb}</style><g id="Group_1" transform="translate(163 122)"><path id="Path_48" class="st0" d="M-157.7-104.8v-5.8c0-6.4 5.2-11.5 11.5-11.5 6.4 0 11.5 5.2 11.5 11.5v.8c0 1.2-.9 2.1-2 2.1-1.2 0-2.1-.9-2.1-2v-.9c0-4.1-3.3-7.3-7.4-7.3s-7.3 3.3-7.3 7.3v5.8h20.2l-12.2 12.1-12.2-12.1h.6-.6z"/><path id="Path_49" class="st0" d="M-128-98.8V-88c0 3.3-2.7 6-6 5.9h-23c-3.3 0-6-2.6-6-5.9v-10.8c0-1.5.5-2.9 1.5-4 .1.1.2.3.3.4l14.2 14.1c.8.8 2.1.8 3 0l14.6-14.5c.9 1.2 1.4 2.6 1.4 4z"/></g><g class="st1"><path class="st0" d="M69.7 36.2c-.9.7-2 1.2-3.4 1.5-1.4.3-2.9.5-4.6.5h-3.6c-1.6 0-3.5-.1-5.9-.1l-.2-.3V10.9l.3-.3c1.5-.1 3.2-.1 4.8-.1h5.3c2.3 0 4.2.4 5.7 1.1 1.5.7 2.7 1.7 3.6 3 .9 1.3 1.5 2.7 1.9 4.4.4 1.7.6 3.5.6 5.5 0 2.7-.3 5-.9 6.9-.6 1.8-1.8 3.5-3.6 4.8zm-7.3-3c3.5 0 5.3-3 5.3-8.9s-1.8-8.9-5.3-8.9h-4v17.9h1.7c.7-.1 1.4-.1 2.3-.1zm34.2 1.9c-.1.6-.4 1.2-.8 1.8-.4.6-.8 1.1-1.2 1.4-1.9-.1-3.3-.8-4.3-2.1-1.7 1.6-3.6 2.4-5.6 2.4-1 0-1.9-.2-2.7-.5-.8-.3-1.4-.8-2-1.3-.5-.6-.9-1.2-1.2-1.9-.3-.7-.4-1.5-.4-2.3 0-1.1.2-2.2.6-3 .4-.9 1-1.6 1.7-2.2.7-.6 1.6-1 2.5-1.3 1-.3 2-.4 3.1-.4h1.6c.5 0 .9 0 1.2.1V25c0-1.7-.9-2.6-2.6-2.6-1.1 0-3.1.4-5.9 1.3-.8-.9-1.3-2.4-1.5-4.4.6-.2 1.4-.5 2.1-.7l2.4-.6c.8-.2 1.6-.3 2.4-.4s1.5-.1 2.2-.1c.9 0 1.8.1 2.7.4.9.3 1.6.7 2.3 1.2.7.5 1.2 1.3 1.6 2.1.4.9.6 1.9.6 3.1v8.1c0 1.3.4 2.2 1.2 2.7zm-12.1-3c0 1.3.7 1.9 2.2 1.9.7 0 1.6-.4 2.5-1.2v-3.2c-.5 0-1 0-1.3-.1h-.8c-1.8.1-2.6.9-2.6 2.6zm29-14.1c.2.7.2 1.5.2 2.2 0 .7-.1 1.5-.2 2.2l-4.8-.1v9.2c0 1.3.6 1.9 1.8 1.9h2.2c.3 1 .5 1.9.5 2.7s-.1 1.4-.2 1.7c-2 .3-3.8.4-5.4.4-3.4 0-5-1.9-5-5.6V22.4h-3.1c-.2-.7-.3-1.4-.3-2.2 0-.8.1-1.5.3-2.2l3.1.1v-2.3c0-1.4.3-2.3.8-2.9s1.4-.9 2.6-.9h2.4l.3.3v5.8l4.8-.1zm20.6 12h-10.4c.1 1.2.4 2.1.9 2.8.6.7 1.5 1 2.7 1 .6 0 1.4-.1 2.2-.3.8-.2 1.8-.5 2.9-.9.9.9 1.4 2.1 1.6 3.7-2.1 1.5-4.7 2.3-7.8 2.3-1.7 0-3.1-.3-4.2-.8s-2.1-1.3-2.8-2.2c-.7-1-1.2-2.1-1.5-3.4-.3-1.3-.4-2.7-.4-4.3 0-1.5.2-2.9.5-4.1.4-1.3.9-2.4 1.6-3.3s1.7-1.7 2.8-2.2c1.1-.5 2.5-.8 4-.8 1.3 0 2.4.2 3.5.6 1 .4 1.9 1 2.6 1.8.7.7 1.3 1.6 1.7 2.7.4 1 .6 2.2.6 3.4 0 1.5-.1 2.9-.5 4zm-10.4-4.3h5.2v-.4c0-1-.2-1.8-.7-2.4-.4-.6-1.1-1-2-1-.8 0-1.5.3-1.9.9-.3.6-.5 1.6-.6 2.9zm33.9-.9V33c0 1.8.3 3.1 1 4-1 .9-2.2 1.4-3.6 1.4s-2.3-.3-2.8-1c-.5-.6-.8-1.6-.8-2.9V26c0-.9-.1-1.6-.4-2-.2-.4-.7-.6-1.4-.6-.4 0-.9.1-1.4.3-.5.2-1 .6-1.6 1V38c-.5.1-.9.1-1.5.2-.5 0-1.1.1-1.6.1s-1.1 0-1.6-.1c-.5 0-1-.1-1.5-.2V18l.3-.3h2.4c1.6 0 2.7.8 3.3 2.4 1.9-1.7 3.7-2.5 5.6-2.5 1.9 0 3.3.6 4.3 1.9.9 1.4 1.3 3.1 1.3 5.3zm23.7 10.3c-.1.6-.4 1.2-.8 1.8-.4.6-.8 1.1-1.2 1.4-1.9-.1-3.3-.8-4.3-2.1-1.7 1.6-3.6 2.4-5.6 2.4-1 0-1.9-.2-2.7-.5-.8-.3-1.4-.8-2-1.3-.5-.6-.9-1.2-1.2-1.9-.3-.7-.4-1.5-.4-2.3 0-1.1.2-2.2.6-3 .4-.9 1-1.6 1.7-2.2.7-.6 1.6-1 2.5-1.3 1-.3 2-.4 3.1-.4h1.6c.5 0 .9 0 1.2.1V25c0-1.7-.9-2.6-2.6-2.6-1.1 0-3.1.4-5.9 1.3-.8-.9-1.3-2.4-1.5-4.4.6-.2 1.4-.5 2.1-.7l2.4-.6c.8-.2 1.6-.3 2.4-.4s1.5-.1 2.2-.1c.9 0 1.8.1 2.7.4.9.3 1.6.7 2.3 1.2.7.5 1.2 1.3 1.6 2.1.4.9.6 1.9.6 3.1v8.1c.1 1.3.4 2.2 1.2 2.7zm-12.1-3c0 1.3.7 1.9 2.2 1.9.7 0 1.6-.4 2.5-1.2v-3.2c-.5 0-1 0-1.3-.1h-.8c-1.8.1-2.6.9-2.6 2.6zm34.8-7.3V33c0 1.8.3 3.1 1 4-1 .9-2.2 1.4-3.6 1.4s-2.3-.3-2.8-1c-.5-.6-.8-1.6-.8-2.9V26c0-.9-.1-1.6-.4-2-.2-.4-.7-.6-1.4-.6-.4 0-.9.1-1.4.3-.5.2-1 .6-1.6 1V38c-.5.1-.9.1-1.5.2-.5 0-1.1.1-1.6.1s-1.1 0-1.6-.1c-.5 0-1-.1-1.5-.2V18l.3-.3h2.4c1.6 0 2.7.8 3.3 2.4 1.9-1.7 3.7-2.5 5.6-2.5 1.9 0 3.3.6 4.3 1.9.9 1.4 1.3 3.1 1.3 5.3zm7.8 13.2V22.4h-3.4c-.2-.7-.2-1.4-.2-2.2 0-.8.1-1.5.2-2.2h3.1c-.1-1-.2-1.9-.2-2.7 0-2 .6-3.7 1.9-5 1.3-1.3 3-2 5.1-2s4.1.4 6.1 1.1c0 .7-.1 1.4-.4 2.3s-.6 1.4-1 1.9c-1.3-.4-2.3-.6-3.1-.6-1.8 0-2.7.9-2.7 2.8 0 .8.1 1.5.2 2.2l5.2-.1c.2.7.2 1.4.2 2.2 0 .8-.1 1.5-.2 2.2l-4.8-.1V38c-.9.2-1.9.2-3 .2-1 0-2 0-3-.2zm15-17.1c.1-.5.4-1.1.8-1.8s.7-1.1 1.1-1.4c2.5.2 4.2 1.4 5.1 3.6 1-2.4 2.7-3.6 5-3.6.7 0 1.6.1 2.6.3 0 .8-.1 1.8-.4 2.9-.3 1.1-.7 2.1-1.1 2.9-.5-.2-1.1-.3-2-.4-1.3 0-2.4.7-3.3 2V38c-.9.2-1.9.2-3.1.2-1.2 0-2.2-.1-3.1-.2V25.1c-.1-2-.6-3.4-1.6-4.2zm35.6 14.2c-.1.6-.4 1.2-.8 1.8-.4.6-.8 1.1-1.2 1.4-1.9-.1-3.3-.8-4.3-2.1-1.7 1.6-3.6 2.4-5.6 2.4-1 0-1.9-.2-2.7-.5-.8-.3-1.4-.8-2-1.3-.5-.6-.9-1.2-1.2-1.9-.3-.7-.4-1.5-.4-2.3 0-1.1.2-2.2.6-3 .4-.9 1-1.6 1.7-2.2.7-.6 1.6-1 2.5-1.3 1-.3 2-.4 3.1-.4h1.6c.5 0 .9 0 1.2.1V25c0-1.7-.9-2.6-2.6-2.6-1.1 0-3.1.4-5.9 1.3-.8-.9-1.3-2.4-1.5-4.4.6-.2 1.4-.5 2.1-.7l2.4-.6c.8-.2 1.6-.3 2.4-.4s1.5-.1 2.2-.1c.9 0 1.8.1 2.7.4.9.3 1.6.7 2.3 1.2.7.5 1.2 1.3 1.6 2.1.4.9.6 1.9.6 3.1v8.1c.1 1.3.5 2.2 1.2 2.7zm-12.1-3c0 1.3.7 1.9 2.2 1.9.7 0 1.6-.4 2.5-1.2v-3.2c-.5 0-1 0-1.3-.1h-.8c-1.7.1-2.6.9-2.6 2.6zm29.5-12.8c.9-1 2.2-1.5 3.8-1.6.4.3.8.8 1.2 1.4.4.6.6 1.2.7 1.8-.7.5-1.1 1.5-1.1 2.9v10.6c0 2.5-.2 4.5-.6 6.1s-1 2.9-1.8 3.8-1.8 1.6-3 2c-1.2.4-2.6.6-4.2.6-2.7 0-5.3-.4-7.5-1.3 0-.7.1-1.6.4-2.4.3-.9.7-1.6 1.1-2.1 1.8.8 3.6 1.2 5.4 1.2 2.7 0 4-1.3 4-4V37c-1.4 1-3 1.6-4.6 1.6-2.4 0-4.2-.9-5.4-2.8-1.2-1.9-1.8-4.4-1.8-7.7 0-1.6.2-3.1.6-4.4.4-1.3 1-2.4 1.7-3.3.7-.9 1.6-1.6 2.5-2.1.9-.5 2-.7 3-.7 2.3-.2 4.1.5 5.6 1.7zM278.3 32v-8.6c-.9-.9-1.8-1.4-2.7-1.4-1.8 0-2.7 2-2.7 6 0 3.5.8 5.3 2.4 5.3 1.1.1 2.1-.4 3-1.3zm28.3-2h-10.4c.1 1.2.4 2.1.9 2.8.6.7 1.5 1 2.7 1 .6 0 1.4-.1 2.2-.3.8-.2 1.8-.5 2.9-.9.9.9 1.4 2.1 1.6 3.7-2.1 1.5-4.7 2.3-7.8 2.3-1.7 0-3.1-.3-4.2-.8s-2.1-1.3-2.8-2.2c-.7-1-1.2-2.1-1.5-3.4-.3-1.3-.4-2.7-.4-4.3 0-1.5.2-2.9.5-4.1.4-1.3.9-2.4 1.6-3.3s1.7-1.7 2.8-2.2 2.5-.8 4-.8c1.3 0 2.4.2 3.5.6s1.9 1 2.6 1.8c.7.7 1.3 1.6 1.7 2.7.4 1 .6 2.2.6 3.4.1 1.5-.1 2.9-.5 4zm-10.4-4.3h5.2v-.4c0-1-.2-1.8-.7-2.4-.4-.6-1.1-1-2-1-.8 0-1.5.3-1.9.9-.3.6-.5 1.6-.6 2.9zm34-.9V33c0 1.8.3 3.1 1 4-1 .9-2.2 1.4-3.6 1.4s-2.3-.3-2.8-1c-.5-.6-.8-1.6-.8-2.9V26c0-.9-.1-1.6-.4-2-.2-.4-.7-.6-1.4-.6-.4 0-.9.1-1.4.3-.5.2-1 .6-1.6 1V38c-.5.1-.9.1-1.5.2-.5 0-1.1.1-1.6.1-.6 0-1.1 0-1.6-.1s-1-.1-1.5-.2V18l.3-.3h2.4c1.6 0 2.7.8 3.3 2.4 1.9-1.7 3.7-2.5 5.6-2.5 1.9 0 3.3.6 4.3 1.9.8 1.4 1.3 3.1 1.3 5.3z"/><path class="st2" d="M337 32.8c.5-.2.9-.4 1.5-.5s1.1-.2 1.6-.2c1.2 0 2.3.2 3.2.7.3.7.5 1.5.5 2.4 0 .5 0 .9-.1 1.3s-.2.8-.4 1.1c-.7.5-1.8.8-3.2.8-1.3 0-2.4-.3-3.1-.8-.2-.3-.3-.7-.4-1.1-.1-.4-.1-.8-.1-1.3.1-.9.2-1.7.5-2.4z"/><path class="st0" d="M357.2 17.6c1.3 0 2.5.3 3.7.9V8.8l.2-.3h2.4c1.3 0 2.2.3 2.7.8.5.6.7 1.5.7 2.9v19.9c0 1.4.4 2.4 1.1 2.9-.1.6-.4 1.2-.8 1.8-.4.6-.8 1.1-1.2 1.4-1.9-.1-3.4-.8-4.3-2.2-1.6 1.7-3.5 2.5-5.8 2.5s-4-.9-5.2-2.8c-1.2-1.9-1.8-4.4-1.8-7.7 0-1.6.2-3 .6-4.3.4-1.3 1-2.4 1.7-3.3.7-.9 1.6-1.6 2.5-2.1 1.3-.4 2.4-.7 3.5-.7zm.8 16c1.1 0 2.1-.5 2.9-1.6v-8.8c-1.1-.6-2-1-2.6-1-1.8 0-2.7 2-2.7 6 0 3.6.8 5.4 2.4 5.4zm31.4-3.6H379c.1 1.2.4 2.1.9 2.8.6.7 1.5 1 2.7 1 .6 0 1.4-.1 2.2-.3.8-.2 1.8-.5 2.9-.9.9.9 1.4 2.1 1.6 3.7-2.1 1.5-4.7 2.3-7.8 2.3-1.7 0-3.1-.3-4.2-.8s-2.1-1.3-2.8-2.2c-.7-1-1.2-2.1-1.5-3.4-.3-1.3-.4-2.7-.4-4.3 0-1.5.2-2.9.5-4.1.4-1.3.9-2.4 1.6-3.3s1.7-1.7 2.8-2.2 2.5-.8 4-.8c1.3 0 2.4.2 3.5.6 1 .4 1.9 1 2.6 1.8.7.7 1.3 1.6 1.7 2.7.4 1 .6 2.2.6 3.4.1 1.5-.1 2.9-.5 4zM379 25.7h5.2v-.4c0-1-.2-1.8-.7-2.4-.4-.6-1.1-1-2-1-.8 0-1.5.3-1.9.9-.3.6-.5 1.6-.6 2.9z"/><path class="st2" d="M422.1 30h-10.4c.1 1.2.4 2.1.9 2.8.6.7 1.5 1 2.7 1 .6 0 1.4-.1 2.2-.3.8-.2 1.8-.5 2.9-.9.9.9 1.4 2.1 1.6 3.7-2.1 1.5-4.7 2.3-7.8 2.3-1.7 0-3.1-.3-4.2-.8s-2.1-1.3-2.8-2.2c-.7-1-1.2-2.1-1.5-3.4-.3-1.3-.4-2.7-.4-4.3 0-1.5.2-2.9.5-4.1.4-1.3.9-2.4 1.6-3.3s1.7-1.7 2.8-2.2 2.5-.8 4-.8c1.3 0 2.4.2 3.5.6 1 .4 1.9 1 2.6 1.8.7.7 1.3 1.6 1.7 2.7.4 1 .6 2.2.6 3.4 0 1.5-.1 2.9-.5 4zm-10.4-4.3h5.2v-.4c0-1-.2-1.8-.7-2.4-.4-.6-1.1-1-2-1-.8 0-1.5.3-1.9.9-.3.6-.5 1.6-.6 2.9zm16.9 7.1c.5-.2.9-.4 1.5-.5.5-.1 1.1-.2 1.6-.2 1.2 0 2.3.2 3.2.7.3.7.5 1.5.5 2.4 0 .5 0 .9-.1 1.3s-.2.8-.4 1.1c-.7.5-1.8.8-3.2.8-1.3 0-2.4-.3-3.1-.8-.2-.3-.3-.7-.4-1.1-.1-.4-.1-.8-.1-1.3.1-.9.2-1.7.5-2.4zm24.6-.2l5.2-22c.6-.2 1.5-.2 2.5-.2 1.4 0 2.5.1 3.3.4l.2.3L457 38c-1.5.2-3 .2-4.6.2-1.5 0-2.6-.2-3.3-.6-.7-.4-1.2-1.2-1.5-2.3L441 11.2c1.4-.6 2.6-.9 3.6-.9 1.1 0 1.9.3 2.5.8.5.5.9 1.3 1.2 2.4l3.1 11.4c.5 1.8 1 4.2 1.5 7.3-.1.3.1.4.3.4zm12.9.2c.5-.2.9-.4 1.5-.5.5-.1 1.1-.2 1.6-.2 1.2 0 2.3.2 3.2.7.3.7.5 1.5.5 2.4 0 .5 0 .9-.1 1.3s-.2.8-.4 1.1c-.7.5-1.8.8-3.2.8-1.3 0-2.4-.3-3.1-.8-.2-.3-.3-.7-.4-1.1-.1-.4-.1-.8-.1-1.3 0-.9.2-1.7.5-2.4z"/></g></svg>