<svg version="1.0" id="Layer_1" xmlns="http://www.w3.org/2000/svg" x="0" y="0" viewBox="0 0 393.36 49.72" xml:space="preserve"><style>.st0{fill:#204391}</style><g id="Group_1" transform="translate(163 122)"><path id="Path_48" class="st0" d="M-157.66-104.71v-5.77c0-6.36 5.16-11.52 11.52-11.52 6.36 0 11.52 5.16 11.52 11.52v.81c.03 1.15-.88 2.11-2.03 2.14-1.15.03-2.11-.88-2.14-2.03v-.92a7.35 7.35 0 00-7.35-7.35 7.35 7.35 0 00-7.35 7.35v5.77h19.53c.22 0 .45.02.67.03l-12.17 12.13-12.17-12.13c.19-.02.4-.03.61-.03h-.64z"/><path id="Path_49" class="st0" d="M-128-98.75v10.85a5.954 5.954 0 01-5.97 5.94h-23.07a5.956 5.956 0 01-5.97-5.92v-10.87c0-1.46.54-2.87 1.52-3.95.08.14.18.27.3.38L-147-88.21l.03.03.03.03c.82.81 2.14.81 2.96 0l14.56-14.5a5.985 5.985 0 011.42 3.9z"/></g><path class="st0" d="M69.72 36.28c-1.84 1.44-5.12 2-7.32 2-3.48 0-6.6-.08-10.08-.16l-.28-.28V10.93l.28-.28c3.44-.12 6.6-.16 10.08-.16 2.2 0 5.48.56 7.32 2 3.76 2.96 4.48 7.24 4.48 11.88 0 4.68-.68 8.96-4.48 11.91zm-7.36-20.79c-1.36 0-2.52 0-3.96-.04v17.88c1.44-.04 2.6-.04 3.96-.04 4.6 0 5.28-4.84 5.28-8.92 0-4.04-.68-8.88-5.28-8.88zm32.28 22.87c-2.04-.04-3.44-.96-4.32-2.12-1.4 1.32-3.24 2.4-5.84 2.4-4.12 0-6.08-3.2-6.08-6.08 0-4.8 3.8-6.92 7.92-6.92.72 0 1.8 0 2.84.08v-.76c0-1.68-.8-2.52-2.6-2.52-1.72 0-3.8.64-5.88 1.28-.88-1.04-1.36-2.8-1.52-4.36 2.68-1.08 6.56-1.76 9.16-1.76 3.48 0 7.12 1.76 7.12 6.84v8.12c0 1.16.32 2.04 1.12 2.6-.24 1.08-1.12 2.6-1.92 3.2zm-5.48-5.48v-3.2c-.8-.04-1.6-.08-2.16-.08-1.8 0-2.52 1.04-2.52 2.56 0 1.08.72 1.88 1.84 1.88.92 0 1.92-.4 2.84-1.16zm24.6-12.67c0 .8-.08 1.56-.24 2.28l-4.76-.08v9.2c0 1.2.52 1.88 1.76 1.88h2.24c.32.88.52 2 .52 2.96 0 .48-.04 1-.16 1.4-1.48.2-3.6.4-5.16.4-3.64 0-5.32-1.76-5.32-5.56V22.45l-3.12.04c-.2-.72-.28-1.48-.28-2.28 0-.68.08-1.4.28-2.16l3.12.08v-2.32c0-2.76.96-3.76 3.4-3.76h2.44l.28.28v5.8l4.76-.08c.16.76.24 1.48.24 2.16zm9.92 9.87c.2 2.16.96 3.8 3.6 3.8 1.8 0 3.56-.56 5.2-1.2.92.92 1.48 2.44 1.64 3.68-2 1.44-5.04 2.28-7.84 2.28-7.04 0-8.92-5.16-8.92-10.44 0-6.04 2.6-10.72 8.96-10.72 5.28 0 8.32 3.64 8.32 8.48 0 1.76-.12 2.8-.52 4.12h-10.44zm-.04-4.31h5.28v-.44c0-1.84-.76-3.4-2.64-3.4-1.76 0-2.48 1.24-2.64 3.84zm34 7.27c0 1.56.24 2.96.96 3.96-.92.8-2.32 1.36-3.88 1.36-2.52 0-3.36-1.36-3.36-3.88v-8.52c0-1.8-.36-2.64-1.72-2.64-.8 0-1.92.4-2.96 1.36v13.36c-.88.16-2.04.24-3.12.24-1.04 0-2.24-.08-3.12-.24V18.09l.28-.28h2.36c1.68 0 2.76.88 3.28 2.4 1.56-1.4 3.36-2.48 5.68-2.48 3.64 0 5.6 2.96 5.6 7.12v8.19zm21.72 5.32c-2.04-.04-3.44-.96-4.32-2.12-1.4 1.32-3.24 2.4-5.84 2.4-4.12 0-6.08-3.2-6.08-6.08 0-4.8 3.8-6.92 7.92-6.92.72 0 1.8 0 2.84.08v-.76c0-1.68-.8-2.52-2.6-2.52-1.72 0-3.8.64-5.88 1.28-.88-1.04-1.36-2.8-1.52-4.36 2.68-1.08 6.56-1.76 9.16-1.76 3.48 0 7.12 1.76 7.12 6.84v8.12c0 1.16.32 2.04 1.12 2.6-.24 1.08-1.12 2.6-1.92 3.2zm-5.48-5.48v-3.2c-.8-.04-1.6-.08-2.16-.08-1.8 0-2.52 1.04-2.52 2.56 0 1.08.72 1.88 1.84 1.88.92 0 1.92-.4 2.84-1.16zm30.16.16c0 1.56.24 2.96.96 3.96-.92.8-2.32 1.36-3.88 1.36-2.52 0-3.36-1.36-3.36-3.88v-8.52c0-1.8-.36-2.64-1.72-2.64-.8 0-1.92.4-2.96 1.36v13.36c-.88.16-2.04.24-3.12.24-1.04 0-2.24-.08-3.12-.24V18.09l.28-.28h2.36c1.68 0 2.76.88 3.28 2.4 1.56-1.4 3.36-2.48 5.68-2.48 3.64 0 5.6 2.96 5.6 7.12v8.19zm7.8-10.59l-3.44.04c-.16-.68-.24-1.56-.24-2.28 0-.68.08-1.48.24-2.16l3.12.04c-.12-.88-.2-1.76-.2-2.68 0-3.96 2.8-6.96 6.96-6.96 2.52 0 4.76.6 6.16 1.12.04 1.4-.56 3.28-1.36 4.12-.8-.24-2-.56-3.08-.56-1.72 0-2.68.92-2.68 2.76 0 .68.04 1.44.16 2.24l5.24-.08c.16.68.24 1.48.24 2.16 0 .72-.08 1.6-.24 2.28l-4.8-.08v15.64c-.92.16-2.04.24-3.08.24-1 0-2.04-.08-3-.24v-15.6zm16.8-4.68c2.56.2 4.2 1.52 5.12 3.64.88-2.08 2.4-3.6 5-3.6 1.2 0 1.84.16 2.64.32 0 1.48-.52 4.12-1.56 5.84-.68-.24-1.36-.32-2.04-.4-1.44 0-2.44.72-3.28 2.04v12.44c-.88.16-2.04.24-3.12.24-1.04 0-2.2-.08-3.12-.24V25.13c0-2.36-.88-3.68-1.52-4.16.24-1.08 1.12-2.6 1.88-3.2zm31.83 20.59c-2.04-.04-3.44-.96-4.32-2.12-1.4 1.32-3.24 2.4-5.84 2.4-4.12 0-6.08-3.2-6.08-6.08 0-4.8 3.8-6.92 7.92-6.92.72 0 1.8 0 2.84.08v-.76c0-1.68-.8-2.52-2.6-2.52-1.72 0-3.8.64-5.88 1.28-.88-1.04-1.36-2.8-1.52-4.36 2.68-1.08 6.56-1.76 9.16-1.76 3.48 0 7.12 1.76 7.12 6.84v8.12c0 1.16.32 2.04 1.12 2.6-.24 1.08-1.11 2.6-1.92 3.2zM255 32.88v-3.2c-.8-.04-1.6-.08-2.16-.08-1.8 0-2.52 1.04-2.52 2.56 0 1.08.72 1.88 1.84 1.88.92 0 1.92-.4 2.84-1.16zm19.52-15.39c2.36 0 4.08.84 5.28 1.88.88-.96 2.12-1.56 3.76-1.6.8.6 1.76 2.08 1.92 3.2-.68.48-1.12 1.6-1.12 2.88V34.4c0 5.6-.8 7.96-2.04 9.56-1.6 2-4.32 2.92-7.52 2.92-2.52 0-5.44-.52-7.52-1.32 0-1.48.64-3.48 1.52-4.52 1.72.76 3.64 1.2 5.44 1.2 2.92 0 4.04-1.6 4.04-4.04v-1.32c-1.32.96-2.92 1.56-4.56 1.56-4.88 0-7.2-4.28-7.2-10.36 0-6.83 3.64-10.59 8-10.59zm3.76 6c-.92-.88-1.88-1.36-2.64-1.36-1.96 0-2.72 2.28-2.72 6s1 5.28 2.36 5.28c1.04 0 2.08-.44 3-1.36v-8.56zm17.92 6.59c.2 2.16.96 3.8 3.6 3.8 1.8 0 3.56-.56 5.2-1.2.92.92 1.48 2.44 1.64 3.68-2 1.44-5.04 2.28-7.84 2.28-7.04 0-8.92-5.16-8.92-10.44 0-6.04 2.6-10.72 8.96-10.72 5.28 0 8.32 3.64 8.32 8.48 0 1.76-.12 2.8-.52 4.12H296.2zm-.04-4.31h5.28v-.44c0-1.84-.76-3.4-2.64-3.4-1.76 0-2.48 1.24-2.64 3.84zm33.99 7.27c0 1.56.24 2.96.96 3.96-.92.8-2.32 1.36-3.88 1.36-2.52 0-3.36-1.36-3.36-3.88v-8.52c0-1.8-.36-2.64-1.72-2.64-.8 0-1.92.4-2.96 1.36v13.36c-.88.16-2.04.24-3.12.24-1.04 0-2.24-.08-3.12-.24V18.09l.28-.28h2.36c1.68 0 2.76.88 3.28 2.4 1.56-1.4 3.36-2.48 5.68-2.48 3.64 0 5.6 2.96 5.6 7.12v8.19z"/><path d="M337.04 32.88c.8-.44 2.08-.72 3.12-.72s2.36.28 3.16.72c.36.76.48 1.96.48 2.44s-.12 1.68-.48 2.4c-.8.52-2.12.76-3.16.76s-2.32-.24-3.12-.76c-.36-.72-.48-1.92-.48-2.4s.12-1.68.48-2.44z" fill="#02826c"/><path class="st0" d="M357.2 17.69c1.4 0 2.6.36 3.72.88V8.89l.24-.28h2.44c2.48 0 3.4.96 3.4 3.76v19.92c0 1.28.44 2.4 1.12 2.88-.24 1.08-1.12 2.6-1.92 3.2-2-.04-3.4-.88-4.28-2.24-1.4 1.48-3.32 2.52-5.52 2.52-4.88 0-7.2-4.28-7.2-10.36 0-6.88 3.64-10.6 8-10.6zm3.72 14.35v-8.76c-.96-.56-1.84-.96-2.6-.96-1.92 0-2.72 2.32-2.72 6 0 3.72 1 5.28 2.4 5.28.79 0 1.92-.31 2.92-1.56zM379 30.08c.2 2.16.96 3.8 3.6 3.8 1.8 0 3.56-.56 5.2-1.2.92.92 1.48 2.44 1.64 3.68-2 1.44-5.04 2.28-7.84 2.28-7.04 0-8.92-5.16-8.92-10.44 0-6.04 2.6-10.72 8.96-10.72 5.28 0 8.32 3.64 8.32 8.48 0 1.76-.12 2.8-.52 4.12H379zm-.04-4.31h5.28v-.44c0-1.84-.76-3.4-2.64-3.4-1.77 0-2.48 1.24-2.64 3.84z"/></svg>