<svg version="1.1" id="Layer_1" xmlns="http://www.w3.org/2000/svg" x="0" y="0" viewBox="0 0 393.4 49.7" xml:space="preserve"><style>.st0{fill:#204391}</style><g transform="translate(163 122)"><path id="Path_48_2_" class="st0" d="M-157.7-104.7v-5.8a11.5 11.5 0 0 1 23 0v.8c0 1.2-.9 2.1-2 2.1-1.2 0-2.1-.9-2.1-2v-.9c0-4.1-3.3-7.4-7.4-7.4s-7.3 3.3-7.3 7.4v5.8h20.2l-12.2 12.1"/><path id="Path_49" class="st0" d="M-128-98.8V-88c0 3.3-2.7 6-6 5.9h-23c-3.3 0-6-2.6-6-5.9v-10.8c0-1.5.5-2.9 1.5-4 .1.1.2.3.3.4l14.2 14.1c.8.8 2.1.8 3 0l14.6-14.5a6.7 6.7 0 0 1 1.4 4z"/></g><path class="st0" d="M55.6 26.4c1-1.3 2.3-2.8 3.2-3.8l-.1-.2c-1.5.2-3.5.3-5 .3h-3.1c-.2-.6-.2-1.3-.2-1.9 0-1 .2-1.9.4-2.7h13.9c.5 1.5.8 2.5.8 3.4 0 .6-.2 1.3-.6 1.9L60 29.9c-.9 1.2-2 2.6-3 3.6l.1.2c1.2-.2 2.2-.2 3.2-.2h1.4c1.2 0 2.6-.1 3.7-.7.4 1.1.6 1.7.6 2.5 0 1.6-.8 2.8-3.3 2.8h-12c-.5-1.5-.7-2.3-.7-3 0-.7.2-1.5.9-2.3l4.7-6.4zm30.8 12c-2 0-3.4-1-4.3-2.1a8.18 8.18 0 0 1-5.8 2.4c-4.1 0-6.1-3.2-6.1-6.1 0-4.8 3.8-6.9 7.9-6.9.7 0 1.8 0 2.8.1V25c0-1.7-.8-2.5-2.6-2.5-1.7 0-3.8.6-5.9 1.3-.9-1-1.4-2.8-1.5-4.4 2.7-1.1 6.6-1.8 9.2-1.8 3.5 0 7.1 1.8 7.1 6.8v8.1c0 1.2.3 2 1.1 2.6-.2 1.1-1.1 2.7-1.9 3.3zM81 32.9v-3.2c-.8 0-1.6-.1-2.2-.1-1.8 0-2.5 1-2.5 2.6 0 1.1.7 1.9 1.8 1.9.9-.1 1.9-.5 2.9-1.2zm19.5-15.2c1.4 0 2.6.4 3.7.9V8.9l.2-.3h2.4c2.5 0 3.4 1 3.4 3.8v19.9c0 1.3.4 2.4 1.1 2.9-.2 1.1-1.1 2.6-1.9 3.2-2 0-3.4-.9-4.3-2.2a7.49 7.49 0 0 1-5.5 2.5c-4.9 0-7.2-4.3-7.2-10.4.1-6.9 3.7-10.6 8.1-10.6zm3.7 14.3v-8.8c-1-.6-1.8-1-2.6-1-1.9 0-2.7 2.3-2.7 6s1 5.3 2.4 5.3c.8.1 1.9-.2 2.9-1.5zm27.4 4.3a9.08 9.08 0 0 1-6.4 2.4c-2.5 0-4.7-.7-6.4-2.4-2.1-2.1-2.9-4.7-2.9-8.2 0-3.5.8-6.1 2.9-8.2 1.6-1.6 3.8-2.4 6.4-2.4 2.5 0 4.7.7 6.4 2.4 2.1 2.1 2.9 4.7 2.9 8.2-.1 3.5-.8 6.1-2.9 8.2zm-6.4-2.3c2.4 0 2.8-2.6 2.8-5.9 0-3.3-.4-5.9-2.8-5.9-2.5 0-2.8 2.6-2.8 5.9 0 3.3.3 5.9 2.8 5.9zm15-1.6c1.8.9 4 1.7 5.6 1.7 1.5 0 2.3-.6 2.3-1.4 0-.8-.5-1.4-1.8-1.8l-2.2-.8c-2.8-1-5-2.8-5-6 0-4 3-6.6 7.8-6.6 2.4 0 5.6.8 7.4 1.7.1 1.5-.7 3.6-1.7 4.4-1.7-.8-3.7-1.5-5.6-1.5-1.1 0-1.6.6-1.6 1.3 0 .7.4 1.1 1.5 1.5l2.5.9c3 1.1 5.3 3 5.3 6.4 0 4-3.2 6.5-8.1 6.5-3.1 0-6.1-.9-8-2-.1-1.4.6-3.3 1.6-4.3zm31.5-12.2c0 .8-.1 1.6-.2 2.3l-4.8-.1v9.2c0 1.2.5 1.9 1.8 1.9h2.2c.3.9.5 2 .5 3 0 .5 0 1-.2 1.4-1.5.2-3.6.4-5.2.4-3.6 0-5.3-1.8-5.3-5.6V22.4h-3.1a8.52 8.52 0 0 1 0-4.5l3.1.1v-2.3c0-2.8 1-3.8 3.4-3.8h2.4l.3.3V18l4.8-.1c.2.9.3 1.6.3 2.3zm13 17.8c-.9.2-2.1.2-3.2.2-1 0-2.2-.1-3.1-.2V24.8c0-1.3-.5-2.3-1.9-2.3h-.5c-.2-.7-.2-1.4-.2-2.1 0-.7 0-1.5.2-2.2 1.2-.1 2.6-.2 3.5-.2h.9c2.6 0 4.4 1.8 4.4 4.8V38zm-7-28a7.94 7.94 0 0 1 6 0c.3.7.5 1.6.5 2.3s-.2 1.6-.5 2.3c-.6.3-1.9.6-3 .6s-2.4-.2-3-.6c-.3-.7-.5-1.6-.5-2.3 0-.7.2-1.5.5-2.3zm28.1 26.3a9.08 9.08 0 0 1-6.4 2.4c-2.5 0-4.7-.7-6.4-2.4-2.1-2.1-2.9-4.7-2.9-8.2 0-3.5.8-6.1 2.9-8.2 1.6-1.6 3.8-2.4 6.4-2.4 2.5 0 4.7.7 6.4 2.4 2.1 2.1 2.9 4.7 2.9 8.2 0 3.5-.7 6.1-2.9 8.2zm-6.3-2.3c2.4 0 2.8-2.6 2.8-5.9 0-3.3-.4-5.9-2.8-5.9-2.5 0-2.8 2.6-2.8 5.9-.1 3.3.3 5.9 2.8 5.9zm14.7-10.9c0-1.6-.2-3-1-4 .9-.8 2.3-1.3 3.9-1.3 2.5 0 3.4 1.4 3.4 3.9v8.5c0 1.8.4 2.7 1.7 2.7.8 0 1.9-.4 3-1.4V18.1c.9-.2 2-.2 3.1-.2 1 0 2.2.1 3.1.2v14.2c0 1.3.4 2.4 1.1 2.9-.2 1.1-1.1 2.5-1.9 3.1-2.2-.1-3.8-1.2-4.7-2.8-1.7 1.5-3.6 2.8-6.1 2.8-3.6 0-5.6-3-5.6-7.1v-8.1zm31-5.4c1.4 0 2.6.4 3.7.9V8.9l.2-.3h2.4c2.5 0 3.4 1 3.4 3.8v19.9c0 1.3.4 2.4 1.1 2.9-.2 1.1-1.1 2.6-1.9 3.2-2 0-3.4-.9-4.3-2.2a7.49 7.49 0 0 1-5.5 2.5c-4.9 0-7.2-4.3-7.2-10.4.1-6.9 3.7-10.6 8.1-10.6zm3.7 14.3v-8.8c-1-.6-1.8-1-2.6-1-1.9 0-2.7 2.3-2.7 6s1 5.3 2.4 5.3c.8.1 1.9-.2 2.9-1.5zm28 6.4c-2 0-3.4-1-4.3-2.1a8.18 8.18 0 0 1-5.8 2.4c-4.1 0-6.1-3.2-6.1-6.1 0-4.8 3.8-6.9 7.9-6.9.7 0 1.8 0 2.8.1V25c0-1.7-.8-2.5-2.6-2.5-1.7 0-3.8.6-5.9 1.3-.9-1-1.4-2.8-1.5-4.4 2.7-1.1 6.6-1.8 9.2-1.8 3.5 0 7.1 1.8 7.1 6.8v8.1c0 1.2.3 2 1.1 2.6-.2 1.1-1.1 2.7-1.9 3.3zm-5.5-5.5v-3.2c-.8 0-1.6-.1-2.2-.1-1.8 0-2.5 1-2.5 2.6 0 1.1.7 1.9 1.8 1.9 1-.1 2-.5 2.9-1.2zm20.4 4c0 5.9-1.2 8.7-7.7 10-.9-.7-1.6-2.4-1.7-3.8 2.3-1 3.2-2 3.2-4.9V24.8c0-1.3-.5-2.3-1.9-2.3h-1a7.61 7.61 0 0 1 0-4.3c1.4-.1 3-.2 3.8-.2h.9c2.6 0 4.3 1.8 4.3 4.8v14.1zM284.7 10a7.94 7.94 0 0 1 6 0c.3.7.5 1.6.5 2.3s-.2 1.6-.5 2.3c-.6.3-1.9.6-3 .6s-2.4-.2-3-.6c-.3-.7-.5-1.6-.5-2.3 0-.7.2-1.5.5-2.3zm18.9 20.1c.2 2.2 1 3.8 3.6 3.8 1.8 0 3.6-.6 5.2-1.2.9.9 1.5 2.4 1.6 3.7-2 1.4-5 2.3-7.8 2.3-7 0-8.9-5.2-8.9-10.4 0-6 2.6-10.7 9-10.7 5.3 0 8.3 3.6 8.3 8.5 0 1.8-.1 2.8-.5 4.1h-10.5zm0-4.3h5.3v-.4c0-1.8-.8-3.4-2.6-3.4-1.8-.1-2.5 1.2-2.7 3.8z"/><path d="M320.6 32.9c.8-.4 2.1-.7 3.1-.7s2.4.3 3.2.7c.4.8.5 2 .5 2.4 0 .5-.1 1.7-.5 2.4-.8.5-2.1.8-3.2.8-1 0-2.3-.2-3.1-.8-.4-.7-.5-1.9-.5-2.4s.1-1.7.5-2.4z" fill="#02826c"/><path class="st0" d="M348.3 36.3a9.08 9.08 0 0 1-6.4 2.4c-2.5 0-4.7-.7-6.4-2.4-2.1-2.1-2.9-4.7-2.9-8.2 0-3.5.8-6.1 2.9-8.2 1.6-1.6 3.8-2.4 6.4-2.4 2.5 0 4.7.7 6.4 2.4 2.1 2.1 2.9 4.7 2.9 8.2 0 3.5-.8 6.1-2.9 8.2zm-6.4-2.3c2.4 0 2.8-2.6 2.8-5.9 0-3.3-.4-5.9-2.8-5.9-2.5 0-2.8 2.6-2.8 5.9 0 3.3.3 5.9 2.8 5.9zm15.5-16.2c2.6.2 4.2 1.5 5.1 3.6.9-2.1 2.4-3.6 5-3.6 1.2 0 1.8.2 2.6.3 0 1.5-.5 4.1-1.6 5.8-.7-.2-1.4-.3-2-.4-1.4 0-2.4.7-3.3 2V38c-.9.2-2 .2-3.1.2-1 0-2.2-.1-3.1-.2V25.1c0-2.4-.9-3.7-1.5-4.2.3-1 1.2-2.5 1.9-3.1zm23.6-.3c2.4 0 4.1.8 5.3 1.9.9-1 2.1-1.6 3.8-1.6.8.6 1.8 2.1 1.9 3.2-.7.5-1.1 1.6-1.1 2.9v10.6c0 5.6-.8 8-2 9.6-1.6 2-4.3 2.9-7.5 2.9-2.5 0-5.4-.5-7.5-1.3 0-1.5.6-3.5 1.5-4.5 1.7.8 3.6 1.2 5.4 1.2 2.9 0 4-1.6 4-4v-1.3c-1.3 1-2.9 1.6-4.6 1.6-4.9 0-7.2-4.3-7.2-10.4 0-7.1 3.7-10.8 8-10.8zm3.8 6c-.9-.9-1.9-1.4-2.6-1.4-2 0-2.7 2.3-2.7 6s1 5.3 2.4 5.3c1 0 2.1-.4 3-1.4v-8.5z"/></svg>