<svg version="1.1" id="Layer_1" xmlns="http://www.w3.org/2000/svg" x="0" y="0" viewBox="0 0 435.7 50" xml:space="preserve"><style>.st0{fill:#204391}</style><g id="Group_1" transform="translate(163 122)"><path id="Path_48" class="st0" d="M-157.7-104.85v-5.8c0-6.4,5.2-11.5,11.5-11.5s11.5,5.2,11.5,11.5v0.8c0,1.2-0.9,2.1-2,2.1 s-2.1-0.9-2.1-2v-0.9c0-4.1-3.3-7.3-7.4-7.3c-4.1,0-7.4,3.3-7.4,7.3v5.8h20.2l-12.2,12.1L-157.7-104.85h0.6H-157.7z"/><path id="Path_49" class="st0" d="M-128-98.95v10.8c0,3.3-2.7,5.9-6,5.9h-23c-3.3,0-5.9-2.6-6-5.9v-10.8c0-1.5,0.5-2.9,1.5-3.9 c0.1,0.1,0.2,0.3,0.3,0.4l14.2,14.1c0.8,0.8,2.1,0.8,3,0l14.6-14.5C-128.5-101.75-128-100.35-128-98.95z"/></g><path class="st0" d="M58.9 17.32c2.35 0 4.06.84 5.25 1.87.88-.95 2.11-1.55 3.74-1.59.8.6 1.75 2.07 1.91 3.18-.68.48-1.11 1.59-1.11 2.86v10.5c0 5.57-.8 7.92-2.03 9.51-1.59 1.99-4.3 2.9-7.48 2.9-2.51 0-5.41-.52-7.48-1.31 0-1.47.64-3.46 1.51-4.5 1.71.76 3.62 1.19 5.41 1.19 2.9 0 4.02-1.59 4.02-4.02v-1.31c-1.31.95-2.9 1.55-4.54 1.55-4.85 0-7.16-4.26-7.16-10.3C50.95 21.06 54.57 17.32 58.9 17.32zM62.64 23.28c-.92-.88-1.87-1.35-2.63-1.35-1.95 0-2.71 2.27-2.71 5.97 0 3.7.99 5.25 2.35 5.25 1.03 0 2.07-.44 2.98-1.35v-8.23V23.28zM78.47 29.85c.2 2.15.95 3.78 3.58 3.78 1.79 0 3.54-.56 5.17-1.19.92.91 1.47 2.43 1.63 3.66-1.99 1.43-5.01 2.27-7.8 2.27-7 0-8.87-5.13-8.87-10.38 0-6.01 2.59-10.66 8.91-10.66 5.25 0 8.27 3.62 8.27 8.43 0 1.75-.12 2.79-.52 4.1H78.47zM78.43 25.55h5.25v-.44c0-1.83-.76-3.38-2.63-3.38C79.31 21.73 78.59 22.97 78.43 25.55zM99.99 17.32c2.35 0 4.06.84 5.25 1.87.88-.95 2.11-1.55 3.74-1.59.8.6 1.75 2.07 1.91 3.18-.68.48-1.11 1.59-1.11 2.86v10.5c0 5.57-.8 7.92-2.03 9.51-1.59 1.99-4.3 2.9-7.48 2.9-2.51 0-5.41-.52-7.48-1.31 0-1.47.64-3.46 1.51-4.5 1.71.76 3.62 1.19 5.41 1.19 2.9 0 4.02-1.59 4.02-4.02v-1.31c-1.31.95-2.9 1.55-4.54 1.55-4.85 0-7.16-4.26-7.16-10.3C92.04 21.06 95.66 17.32 99.99 17.32zM103.73 23.28c-.92-.88-1.87-1.35-2.63-1.35-1.95 0-2.71 2.27-2.71 5.97 0 3.7.99 5.25 2.35 5.25 1.03 0 2.07-.44 2.98-1.35v-8.23V23.28zM119.57 29.85c.2 2.15.95 3.78 3.58 3.78 1.79 0 3.54-.56 5.17-1.19.92.91 1.47 2.43 1.63 3.66-1.99 1.43-5.01 2.27-7.8 2.27-7 0-8.87-5.13-8.87-10.38 0-6.01 2.59-10.66 8.91-10.66 5.25 0 8.27 3.62 8.27 8.43 0 1.75-.12 2.79-.52 4.1H119.57zM119.53 25.55h5.25v-.44c0-1.83-.76-3.38-2.63-3.38C120.4 21.73 119.69 22.97 119.53 25.55zM144.91 17.95c.76-.16 1.51-.24 2.27-.24 1.07 0 2.27.12 3.22.48l.2.28c-1.59 5.77-4.06 14.72-5.53 19.29C143.71 37.92 142 38 140.41 38c-2.35 0-3.58-.52-4.3-2.98l-4.77-16.63c1.11-.48 2.43-.84 3.46-.84 1.95 0 3.06.76 3.58 2.9l1.79 7.44c.4 1.51.68 3.62.88 4.81.04.32.16.32.4.32L144.91 17.95zM157.6 29.85c.2 2.15.95 3.78 3.58 3.78 1.79 0 3.54-.56 5.17-1.19.92.91 1.47 2.43 1.63 3.66-1.99 1.43-5.01 2.27-7.8 2.27-7 0-8.87-5.13-8.87-10.38 0-6.01 2.59-10.66 8.91-10.66 5.25 0 8.27 3.62 8.27 8.43 0 1.75-.12 2.79-.52 4.1H157.6zM157.56 25.55h5.25v-.44c0-1.83-.76-3.38-2.63-3.38C158.43 21.73 157.72 22.97 157.56 25.55zM189.38 32.79c0 1.55.24 2.94.96 3.94-.92.8-2.31 1.35-3.86 1.35-2.51 0-3.34-1.35-3.34-3.86v-8.47c0-1.79-.36-2.62-1.71-2.62-.79 0-1.91.4-2.94 1.35v13.29c-.88.16-2.03.24-3.1.24-1.03 0-2.23-.08-3.1-.24V17.91l.28-.28h2.35c1.67 0 2.75.88 3.26 2.39 1.55-1.39 3.34-2.47 5.65-2.47 3.62 0 5.57 2.94 5.57 7.08V32.79zM194.15 32.19c1.75.92 3.94 1.67 5.53 1.67 1.51 0 2.31-.6 2.31-1.39 0-.76-.52-1.35-1.83-1.79l-2.19-.83c-2.79-1.03-4.97-2.75-4.97-5.97 0-4.02 3.02-6.56 7.72-6.56 2.39 0 5.57.8 7.32 1.67.08 1.47-.72 3.58-1.71 4.34-1.67-.76-3.66-1.51-5.57-1.51-1.07 0-1.63.56-1.63 1.27 0 .68.44 1.11 1.51 1.51l2.47.88c3.02 1.07 5.29 3.02 5.29 6.4 0 3.98-3.18 6.48-8.04 6.48-3.1 0-6.09-.92-7.92-1.95C192.48 35.06 193.24 33.15 194.15 32.19zM226.61 38.08c-2.03-.04-3.42-.96-4.3-2.11-1.39 1.31-3.22 2.39-5.81 2.39-4.1 0-6.05-3.18-6.05-6.05 0-4.77 3.78-6.88 7.88-6.88.72 0 1.79 0 2.83.08v-.76c0-1.67-.8-2.51-2.59-2.51-1.71 0-3.78.64-5.85 1.27-.88-1.03-1.35-2.78-1.51-4.34 2.67-1.07 6.52-1.75 9.11-1.75 3.46 0 7.08 1.75 7.08 6.8v8.07c0 1.15.32 2.03 1.11 2.59C228.28 35.97 227.41 37.48 226.61 38.08zM221.16 32.63v-3.18c-.8-.04-1.59-.08-2.15-.08-1.79 0-2.51 1.03-2.51 2.55 0 1.07.72 1.87 1.83 1.87C219.25 33.79 220.25 33.39 221.16 32.63zM247.02 38.08c-2.03-.04-3.42-.96-4.3-2.11-1.39 1.31-3.22 2.39-5.81 2.39-4.1 0-6.05-3.18-6.05-6.05 0-4.77 3.78-6.88 7.88-6.88.72 0 1.79 0 2.83.08v-.76c0-1.67-.8-2.51-2.59-2.51-1.71 0-3.78.64-5.85 1.27-.88-1.03-1.35-2.78-1.51-4.34 2.67-1.07 6.52-1.75 9.11-1.75 3.46 0 7.08 1.75 7.08 6.8v8.07c0 1.15.32 2.03 1.11 2.59C248.69 35.97 247.81 37.48 247.02 38.08zM241.57 32.63v-3.18c-.8-.04-1.59-.08-2.15-.08-1.79 0-2.51 1.03-2.51 2.55 0 1.07.72 1.87 1.83 1.87C239.66 33.79 240.65 33.39 241.57 32.63zM269.57 32.79c0 1.55.24 2.94.95 3.94-.91.8-2.31 1.35-3.86 1.35-2.51 0-3.34-1.35-3.34-3.86v-8.47c0-1.79-.36-2.62-1.71-2.62-.8 0-1.91.4-2.94 1.35v13.29c-.88.16-2.03.24-3.1.24-1.03 0-2.23-.08-3.1-.24V17.91l.28-.28h2.35c1.67 0 2.74.88 3.26 2.39 1.55-1.39 3.34-2.47 5.65-2.47 3.62 0 5.57 2.94 5.57 7.08V32.79zM284.85 17.95c.76-.16 1.51-.24 2.27-.24 1.07 0 2.27.12 3.22.48l.2.28c-1.59 5.77-4.06 14.72-5.53 19.29-1.35.16-3.06.24-4.65.24-2.35 0-3.58-.52-4.3-2.98l-4.77-16.63c1.11-.48 2.43-.84 3.46-.84 1.95 0 3.06.76 3.58 2.9l1.79 7.44c.4 1.51.68 3.62.88 4.81.04.32.16.32.4.32L284.85 17.95zM293.64 17.59c2.55.2 4.18 1.51 5.09 3.62.88-2.07 2.39-3.58 4.97-3.58 1.19 0 1.83.16 2.63.32 0 1.47-.52 4.1-1.55 5.81-.68-.24-1.35-.32-2.03-.4-1.43 0-2.43.72-3.26 2.03v12.37c-.88.16-2.03.24-3.1.24-1.03 0-2.19-.08-3.1-.24V24.91c0-2.35-.88-3.66-1.51-4.14C292.01 19.7 292.88 18.19 293.64 17.59zM323.32 38.08c-2.03-.04-3.42-.96-4.3-2.11-1.39 1.31-3.22 2.39-5.81 2.39-4.1 0-6.05-3.18-6.05-6.05 0-4.77 3.78-6.88 7.88-6.88.72 0 1.79 0 2.83.08v-.76c0-1.67-.8-2.51-2.59-2.51-1.71 0-3.78.64-5.85 1.27-.88-1.03-1.35-2.78-1.51-4.34 2.67-1.07 6.52-1.75 9.11-1.75 3.46 0 7.08 1.75 7.08 6.8v8.07c0 1.15.32 2.03 1.11 2.59C324.99 35.97 324.11 37.48 323.32 38.08zM317.87 32.63v-3.18c-.8-.04-1.59-.08-2.15-.08-1.79 0-2.51 1.03-2.51 2.55 0 1.07.72 1.87 1.83 1.87C315.96 33.79 316.95 33.39 317.87 32.63zM335.29 17.32c2.35 0 4.06.84 5.25 1.87.88-.95 2.11-1.55 3.74-1.59.8.6 1.75 2.07 1.91 3.18-.68.48-1.11 1.59-1.11 2.86v10.5c0 5.57-.8 7.92-2.03 9.51-1.59 1.99-4.3 2.9-7.48 2.9-2.51 0-5.41-.52-7.48-1.31 0-1.47.64-3.46 1.51-4.5 1.71.76 3.62 1.19 5.41 1.19 2.9 0 4.02-1.59 4.02-4.02v-1.31c-1.31.95-2.9 1.55-4.53 1.55-4.85 0-7.16-4.26-7.16-10.3C327.33 21.06 330.95 17.32 335.29 17.32zM339.03 23.28c-.91-.88-1.87-1.35-2.62-1.35-1.95 0-2.71 2.27-2.71 5.97 0 3.7.99 5.25 2.35 5.25 1.03 0 2.07-.44 2.98-1.35v-8.23V23.28zM354.86 29.85c.2 2.15.96 3.78 3.58 3.78 1.79 0 3.54-.56 5.17-1.19.92.91 1.47 2.43 1.63 3.66-1.99 1.43-5.01 2.27-7.8 2.27-7 0-8.87-5.13-8.87-10.38 0-6.01 2.59-10.66 8.91-10.66 5.25 0 8.27 3.62 8.27 8.43 0 1.75-.12 2.79-.52 4.1H354.86zM354.82 25.55h5.25v-.44c0-1.83-.76-3.38-2.62-3.38C355.7 21.73 354.98 22.97 354.82 25.55zM386.64 32.79c0 1.55.24 2.94.95 3.94-.91.8-2.31 1.35-3.86 1.35-2.51 0-3.34-1.35-3.34-3.86v-8.47c0-1.79-.36-2.62-1.71-2.62-.8 0-1.91.4-2.94 1.35v13.29c-.88.16-2.03.24-3.1.24-1.03 0-2.23-.08-3.1-.24V17.91l.28-.28h2.35c1.67 0 2.74.88 3.26 2.39 1.55-1.39 3.34-2.47 5.65-2.47 3.62 0 5.57 2.94 5.57 7.08V32.79z"/><path d="M391.5,32.63c0.79-0.44,2.07-0.72,3.1-0.72s2.35,0.28,3.14,0.72c0.36,0.76,0.48,1.95,0.48,2.43 s-0.12,1.67-0.48,2.39c-0.8,0.52-2.11,0.76-3.14,0.76s-2.31-0.24-3.1-0.76c-0.36-0.72-0.48-1.91-0.48-2.39 S391.14,33.39,391.5,32.63z" fill="#02826c"/><path class="st0" d="M419.82 32.79c0 1.55.24 2.94.95 3.94-.91.8-2.31 1.35-3.86 1.35-2.51 0-3.34-1.35-3.34-3.86v-8.47c0-1.79-.36-2.62-1.71-2.62-.8 0-1.91.4-2.94 1.35v13.29c-.88.16-2.03.24-3.1.24-1.03 0-2.23-.08-3.1-.24V17.91l.28-.28h2.35c1.67 0 2.74.88 3.26 2.39 1.55-1.39 3.34-2.47 5.65-2.47 3.62 0 5.57 2.94 5.57 7.08V32.79zM433.3 33.23c.32.88.48 1.95.48 2.94 0 .48 0 .99-.12 1.39-1.19.2-2.79.4-4.3.4-3.58 0-4.93-1.75-4.93-5.53V8.76l.24-.28h2.43c2.47 0 3.38.95 3.38 3.74v19.13c0 1.19.48 1.87 1.75 1.87H433.3z"/></svg>