<svg version="1.0" id="Layer_1" xmlns="http://www.w3.org/2000/svg" x="0" y="0" viewBox="0 0 376.52 49.72" xml:space="preserve"><style>.st0{fill:#204391}</style><g id="Group_1" transform="translate(163 122)"><path id="Path_48" class="st0" d="M-157.66-104.71v-5.77c0-6.36 5.16-11.52 11.52-11.52 6.36 0 11.52 5.16 11.52 11.52v.81c.03 1.15-.88 2.11-2.03 2.14-1.15.03-2.11-.88-2.14-2.03v-.92c0-4.06-3.29-7.35-7.35-7.35s-7.35 3.29-7.35 7.35v5.77h19.53c.22 0 .45.02.67.03l-12.17 12.13-12.17-12.13c.19-.02.4-.03.61-.03h-.64z"/><path id="Path_49" class="st0" d="M-128-98.75v10.85a5.954 5.954 0 01-5.97 5.94h-23.07a5.956 5.956 0 01-5.97-5.92v-10.87c0-1.46.54-2.87 1.52-3.95.08.14.18.27.3.38L-147-88.21l.03.03.03.03c.82.81 2.14.81 2.96 0l14.56-14.5a5.985 5.985 0 011.42 3.9z"/></g><path class="st0" d="M58.28 17.69c1.4 0 2.6.36 3.72.88V8.89l.24-.28h2.44c2.48 0 3.4.96 3.4 3.76v19.92c0 1.28.44 2.4 1.12 2.88-.24 1.08-1.12 2.6-1.92 3.2-2-.04-3.4-.88-4.28-2.24-1.4 1.48-3.32 2.52-5.52 2.52-4.88 0-7.2-4.28-7.2-10.36 0-6.88 3.64-10.6 8-10.6zM62 32.04v-8.76c-.96-.56-1.84-.96-2.6-.96-1.92 0-2.72 2.32-2.72 6 0 3.72 1 5.28 2.4 5.28.8 0 1.92-.31 2.92-1.56zm28 6.32c-2.04-.04-3.44-.96-4.32-2.12-1.4 1.32-3.24 2.4-5.84 2.4-4.12 0-6.08-3.2-6.08-6.08 0-4.8 3.8-6.92 7.92-6.92.72 0 1.8 0 2.84.08v-.76c0-1.68-.8-2.52-2.6-2.52-1.72 0-3.8.64-5.88 1.28-.88-1.04-1.36-2.8-1.52-4.36 2.68-1.08 6.56-1.76 9.16-1.76 3.48 0 7.12 1.76 7.12 6.84v8.12c0 1.16.32 2.04 1.12 2.6-.24 1.08-1.12 2.6-1.92 3.2zm-5.48-5.48v-3.2c-.8-.04-1.6-.08-2.16-.08-1.8 0-2.52 1.04-2.52 2.56 0 1.08.72 1.88 1.84 1.88.92 0 1.92-.4 2.84-1.16zm24.6-12.67c0 .8-.08 1.56-.24 2.28l-4.76-.08v9.2c0 1.2.52 1.88 1.76 1.88h2.24c.32.88.52 2 .52 2.96 0 .48-.04 1-.16 1.4-1.48.2-3.6.4-5.16.4-3.64 0-5.32-1.76-5.32-5.56V22.45l-3.12.04c-.2-.72-.28-1.48-.28-2.28 0-.68.08-1.4.28-2.16l3.12.08v-2.32c0-2.76.96-3.76 3.4-3.76h2.44l.28.28v5.8l4.76-.08c.16.76.24 1.48.24 2.16zm20.12 18.15c-2.04-.04-3.44-.96-4.32-2.12-1.4 1.32-3.24 2.4-5.84 2.4-4.12 0-6.08-3.2-6.08-6.08 0-4.8 3.8-6.92 7.92-6.92.72 0 1.8 0 2.84.08v-.76c0-1.68-.8-2.52-2.6-2.52-1.72 0-3.8.64-5.88 1.28-.88-1.04-1.36-2.8-1.52-4.36 2.68-1.08 6.56-1.76 9.16-1.76 3.48 0 7.12 1.76 7.12 6.84v8.12c0 1.16.32 2.04 1.12 2.6-.24 1.08-1.12 2.6-1.92 3.2zm-5.48-5.48v-3.2c-.8-.04-1.6-.08-2.16-.08-1.8 0-2.52 1.04-2.52 2.56 0 1.08.72 1.88 1.84 1.88.92 0 1.92-.4 2.84-1.16zm13.64-15.11c2.56.2 4.2 1.52 5.12 3.64.88-2.08 2.4-3.6 5-3.6 1.2 0 1.84.16 2.64.32 0 1.48-.52 4.12-1.56 5.84-.68-.24-1.36-.32-2.04-.4-1.44 0-2.44.72-3.28 2.04v12.44c-.88.16-2.04.24-3.12.24-1.04 0-2.2-.08-3.12-.24V25.13c0-2.36-.88-3.68-1.52-4.16.24-1.08 1.12-2.6 1.88-3.2zm21.72 12.31c.2 2.16.96 3.8 3.6 3.8 1.8 0 3.56-.56 5.2-1.2.92.92 1.48 2.44 1.64 3.68-2 1.44-5.04 2.28-7.84 2.28-7.04 0-8.92-5.16-8.92-10.44 0-6.04 2.6-10.72 8.96-10.72 5.28 0 8.32 3.64 8.32 8.48 0 1.76-.12 2.8-.52 4.12h-10.44zm-.04-4.31h5.28v-.44c0-1.84-.76-3.4-2.64-3.4-1.76 0-2.48 1.24-2.64 3.84zm27.4 11.15a7.59 7.59 0 01-4.52 1.52c-4.88 0-7.2-4.28-7.2-10.36 0-6.84 3.64-10.6 8-10.6 2.36 0 4.04.84 5.24 1.84.88-.96 2.16-1.52 3.8-1.56.76.6 1.64 2.08 1.88 3.2-.64.48-1.12 1.6-1.12 2.88V46.4l-.28.28h-2.44c-2.44 0-3.36-.96-3.36-3.76v-6zm0-4.84v-8.64c-.92-.84-1.84-1.32-2.6-1.32-1.92 0-2.72 2.28-2.72 6s1 5.28 2.36 5.28c1 0 2.08-.44 2.96-1.32zm12.84-8.99c0-1.56-.24-2.96-.96-4 .88-.76 2.32-1.32 3.88-1.32 2.52 0 3.36 1.36 3.36 3.88v8.48c0 1.84.36 2.68 1.72 2.68.76 0 1.92-.36 2.96-1.36V18.09c.88-.16 2.04-.24 3.12-.24 1.04 0 2.2.08 3.12.24v14.24c0 1.28.44 2.44 1.12 2.92-.24 1.08-1.12 2.52-1.92 3.12-2.24-.08-3.84-1.16-4.72-2.8-1.68 1.52-3.64 2.84-6.08 2.84-3.64 0-5.6-2.96-5.6-7.12v-8.2zm29.2 6.99c.2 2.16.96 3.8 3.6 3.8 1.8 0 3.56-.56 5.2-1.2.92.92 1.48 2.44 1.64 3.68-2 1.44-5.04 2.28-7.84 2.28-7.04 0-8.92-5.16-8.92-10.44 0-6.04 2.6-10.72 8.96-10.72 5.28 0 8.32 3.64 8.32 8.48 0 1.76-.12 2.8-.52 4.12h-10.44zm-.04-4.31h5.28v-.44c0-1.84-.76-3.4-2.64-3.4-1.76 0-2.48 1.24-2.64 3.84zm16.92 6.68c1.76.92 3.96 1.68 5.56 1.68 1.52 0 2.32-.6 2.32-1.4 0-.76-.52-1.36-1.84-1.8l-2.2-.84c-2.8-1.04-5-2.76-5-6 0-4.04 3.04-6.6 7.76-6.6 2.4 0 5.6.8 7.36 1.68.08 1.48-.72 3.6-1.72 4.36-1.68-.76-3.68-1.52-5.6-1.52-1.08 0-1.64.56-1.64 1.28 0 .68.44 1.12 1.52 1.52l2.48.88c3.04 1.08 5.32 3.04 5.32 6.44 0 4-3.2 6.52-8.08 6.52-3.12 0-6.12-.92-7.96-1.96.04-1.37.8-3.29 1.72-4.24zm31.51-12.24c0 .8-.08 1.56-.24 2.28l-4.76-.08v9.2c0 1.2.52 1.88 1.76 1.88h2.24c.32.88.52 2 .52 2.96 0 .48-.04 1-.16 1.4-1.48.2-3.6.4-5.16.4-3.64 0-5.32-1.76-5.32-5.56V22.45l-3.12.04c-.2-.72-.28-1.48-.28-2.28 0-.68.08-1.4.28-2.16l3.12.08v-2.32c0-2.76.96-3.76 3.4-3.76h2.44l.28.28v5.8l4.76-.08c.16.76.24 1.48.24 2.16zm5.21 12.24c1.76.92 3.96 1.68 5.56 1.68 1.52 0 2.32-.6 2.32-1.4 0-.76-.52-1.36-1.84-1.8l-2.2-.84c-2.8-1.04-5-2.76-5-6 0-4.04 3.04-6.6 7.76-6.6 2.4 0 5.6.8 7.36 1.68.08 1.48-.72 3.6-1.72 4.36-1.68-.76-3.68-1.52-5.6-1.52-1.08 0-1.64.56-1.64 1.28 0 .68.44 1.12 1.52 1.52l2.48.88c3.04 1.08 5.32 3.04 5.32 6.44 0 4-3.2 6.52-8.08 6.52-3.12 0-6.12-.92-7.96-1.96.04-1.37.8-3.29 1.72-4.24z"/><path d="M301.92 32.88c.8-.44 2.08-.72 3.12-.72s2.36.28 3.16.72c.36.76.48 1.96.48 2.44s-.12 1.68-.48 2.4c-.8.52-2.12.76-3.16.76s-2.32-.24-3.12-.76c-.36-.72-.48-1.92-.48-2.4s.12-1.68.48-2.44z" fill="#02826c"/><path class="st0" d="M329.59 36.28c-1.68 1.64-3.88 2.36-6.36 2.36-2.52 0-4.72-.72-6.36-2.36-2.12-2.12-2.88-4.72-2.88-8.24 0-3.48.76-6.08 2.88-8.2 1.64-1.64 3.84-2.36 6.36-2.36 2.48 0 4.68.72 6.36 2.36 2.12 2.12 2.88 4.72 2.88 8.2 0 3.53-.76 6.12-2.88 8.24zm-6.36-2.32c2.44 0 2.8-2.6 2.8-5.92 0-3.28-.36-5.88-2.8-5.88-2.48 0-2.84 2.6-2.84 5.88 0 3.33.36 5.92 2.84 5.92zm15.53-16.19c2.56.2 4.2 1.52 5.12 3.64.88-2.08 2.4-3.6 5-3.6 1.2 0 1.84.16 2.64.32 0 1.48-.52 4.12-1.56 5.84-.68-.24-1.36-.32-2.04-.4-1.44 0-2.44.72-3.28 2.04v12.44c-.88.16-2.04.24-3.12.24-1.04 0-2.2-.08-3.12-.24V25.13c0-2.36-.88-3.68-1.52-4.16.24-1.08 1.12-2.6 1.88-3.2zm23.59-.28c2.36 0 4.08.84 5.28 1.88.88-.96 2.12-1.56 3.76-1.6.8.6 1.76 2.08 1.92 3.2-.68.48-1.12 1.6-1.12 2.88V34.4c0 5.6-.8 7.96-2.04 9.56-1.6 2-4.32 2.92-7.52 2.92-2.52 0-5.44-.52-7.52-1.32 0-1.48.64-3.48 1.52-4.52 1.72.76 3.64 1.2 5.44 1.2 2.92 0 4.04-1.6 4.04-4.04v-1.32c-1.32.96-2.92 1.56-4.56 1.56-4.88 0-7.2-4.28-7.2-10.36.01-6.83 3.64-10.59 8-10.59zm3.76 6c-.92-.88-1.88-1.36-2.64-1.36-1.96 0-2.72 2.28-2.72 6s1 5.28 2.36 5.28c1.04 0 2.08-.44 3-1.36v-8.56z"/></svg>