<svg version="1.1" id="Layer_1" xmlns="http://www.w3.org/2000/svg" x="0" y="0" viewBox="0 0 341.3 50.3" xml:space="preserve"><style>.st0{fill:#204391}</style><g id="Group_1" transform="translate(163 122)"><path id="Path_48" class="st0" d="M-157.7-104.7v-5.8c0-6.4 5.2-11.5 11.5-11.5s11.5 5.2 11.5 11.5v.8c0 1.2-.9 2.1-2 2.1s-2.1-.9-2.1-2v-.9c0-4.1-3.3-7.3-7.4-7.3-4.1 0-7.4 3.3-7.4 7.3v5.8h20.2l-12.2 12.1-12.1-12.1h.6-.6z"/><path id="Path_49" class="st0" d="M-128-98.8V-88c0 3.3-2.7 5.9-6 5.9h-23c-3.3 0-5.9-2.6-6-5.9v-10.8c0-1.5.5-2.9 1.5-3.9.1.1.2.3.3.4l14.2 14.1c.8.8 2.1.8 3 0l14.6-14.5c.9 1.1 1.4 2.5 1.4 3.9z"/></g><path class="st0" d="M66.3 36.5c-1.6 1.7-3.8 2.4-6.2 2.4-2.5 0-4.6-.7-6.2-2.4-2.1-2.2-2.8-4.8-2.8-8.5 0-3.6.7-6.2 2.8-8.4 1.6-1.7 3.7-2.4 6.2-2.4 2.4 0 4.6.7 6.2 2.4 2.1 2.2 2.8 4.8 2.8 8.4 0 3.7-.8 6.3-2.8 8.5zm-6.2-2.4c2.4 0 2.7-2.7 2.7-6.1 0-3.4-.4-6-2.7-6-2.4 0-2.8 2.7-2.8 6 0 3.5.4 6.1 2.8 6.1zm12.6-1.5c1.7.9 3.9 1.7 5.4 1.7 1.5 0 2.3-.6 2.3-1.4 0-.8-.5-1.4-1.8-1.8l-2.1-.9c-2.7-1.1-4.9-2.8-4.9-6.2 0-4.1 3-6.8 7.6-6.8 2.3 0 5.5.8 7.2 1.7.1 1.5-.7 3.7-1.7 4.5-1.6-.8-3.6-1.6-5.5-1.6-1.1 0-1.6.6-1.6 1.3 0 .7.4 1.1 1.5 1.6l2.4.9c3 1.1 5.2 3.1 5.2 6.6 0 4.1-3.1 6.7-7.9 6.7-3 0-6-.9-7.7-2 0-1.4.7-3.3 1.6-4.3zm31.1 3.9c-1.6 1.7-3.8 2.4-6.2 2.4-2.5 0-4.6-.7-6.2-2.4-2.1-2.2-2.8-4.8-2.8-8.5 0-3.6.7-6.2 2.8-8.4 1.6-1.7 3.7-2.4 6.2-2.4 2.4 0 4.6.7 6.2 2.4 2.1 2.2 2.8 4.8 2.8 8.4 0 3.7-.7 6.3-2.8 8.5zm-6.1-2.4c2.4 0 2.7-2.7 2.7-6.1 0-3.4-.4-6-2.7-6-2.4 0-2.8 2.7-2.8 6 0 3.5.3 6.1 2.8 6.1zm20.1 4.6c-2.8 0-5.6-.5-7.6-1.4V8.4l.3-.3h2.3c2.4 0 3.3 1 3.3 3.9v6.9c1.2-.8 2.7-1.4 4.5-1.4 4.6 0 6.9 4.4 6.9 10.3 0 6.7-3.8 10.9-9.7 10.9zm-1.7-14.8v10c.6.1 1.2.2 1.8.2 2.4 0 3.4-2.4 3.4-6.2 0-3.7-.8-5.3-2.5-5.3-.9 0-1.9.3-2.7 1.3zm31.6 9.3c0 1.6.2 3 .9 4.1-.9.8-2.3 1.4-3.8 1.4-2.5 0-3.3-1.4-3.3-4V26c0-1.8-.4-2.7-1.7-2.7-.8 0-1.9.4-2.9 1.4v13.7c-.9.2-2 .2-3 .2s-2.2-.1-3-.2V17.8l.3-.3h2.3c1.6 0 2.7.9 3.2 2.5 1.5-1.4 3.3-2.5 5.5-2.5 3.5 0 5.5 3 5.5 7.3v8.4zm11.6 5.1c-.9.2-2 .2-3.1.2-1 0-2.1-.1-3-.2V24.7c0-1.4-.5-2.4-1.8-2.4h-.6c-.2-.7-.2-1.4-.2-2.2 0-.7 0-1.6.2-2.3 1.2-.1 2.6-.2 3.4-.2h.9c2.6 0 4.2 1.9 4.2 4.9v15.8zm-6.8-28.7c.7-.4 1.8-.7 2.9-.7 1.1 0 2.3.3 2.9.7.3.7.5 1.6.5 2.4s-.2 1.6-.5 2.4c-.6.3-1.8.6-2.9.6-1.1 0-2.3-.2-2.9-.6-.3-.7-.5-1.6-.5-2.4 0-.8.2-1.7.5-2.4zm20.9 29.1c-1.4 0-2.5-.4-3.6-.9v5.5c0 2.9-.9 3.9-3.3 3.9h-2.3l-.3-.3v-29l.3-.3h1.6c1.4 0 2.6.7 3.3 2 1.3-1.4 3.2-2.3 5.2-2.3 4.8 0 7 4.4 7 10.6 0 7-3.6 10.8-7.9 10.8zM169.9 24v9c.9.6 1.8.9 2.5.9 1.9 0 2.6-2.4 2.6-6.2 0-3.8-1-5.4-2.3-5.4-.8.1-1.9.4-2.8 1.7zm29 12.5c-1.6 1.7-3.8 2.4-6.2 2.4-2.5 0-4.6-.7-6.2-2.4-2.1-2.2-2.8-4.8-2.8-8.5 0-3.6.7-6.2 2.8-8.4 1.6-1.7 3.7-2.4 6.2-2.4 2.4 0 4.6.7 6.2 2.4 2.1 2.2 2.8 4.8 2.8 8.4 0 3.7-.8 6.3-2.8 8.5zm-6.2-2.4c2.4 0 2.7-2.7 2.7-6.1 0-3.4-.3-6-2.7-6-2.4 0-2.8 2.7-2.8 6 0 3.5.4 6.1 2.8 6.1zm19.2-16.7c1.4 0 2.5.4 3.6.9V8.4l.2-.3h2.4c2.4 0 3.3 1 3.3 3.9v20.4c0 1.3.4 2.5 1.1 3-.2 1.1-1.1 2.7-1.9 3.3-1.9 0-3.3-.9-4.2-2.3-1.4 1.5-3.2 2.6-5.4 2.6-4.8 0-7-4.4-7-10.6.1-7.2 3.6-11 7.9-11zm3.6 14.8v-9c-.9-.6-1.8-1-2.5-1-1.9 0-2.6 2.4-2.6 6.2 0 3.8 1 5.4 2.3 5.4.7 0 1.8-.4 2.8-1.6zm25.3 6.4c-2 0-3.3-1-4.2-2.2-1.4 1.4-3.2 2.5-5.7 2.5-4 0-5.9-3.3-5.9-6.2 0-4.9 3.7-7.1 7.7-7.1.7 0 1.8 0 2.8.1v-.8c0-1.7-.8-2.6-2.5-2.6s-3.7.7-5.7 1.3c-.9-1.1-1.3-2.9-1.5-4.5 2.6-1.1 6.4-1.8 8.9-1.8 3.4 0 6.9 1.8 6.9 7v8.3c0 1.2.3 2.1 1.1 2.7-.3 1.2-1.1 2.7-1.9 3.3zm-5.3-5.6v-3.3c-.8 0-1.6-.1-2.1-.1-1.8 0-2.5 1.1-2.5 2.6 0 1.1.7 1.9 1.8 1.9.9.1 1.9-.3 2.8-1.1zm17.7-11c-1.8 0-2.4 1.8-2.4 6.2 0 4.3 1.2 5.8 3.4 5.8 1.5 0 3-.8 4.3-1.7 1 .6 2 2.3 2.3 3.6-1.7 1.9-4.7 3.2-7.6 3.2-5.6 0-8.6-4.2-8.6-10.8 0-8 4.4-10.9 8.7-10.9 4.4 0 7.6 2.7 7.6 6.8 0 2.1-1.3 3.1-3 3.1-1 0-1.7-.1-2.5-.2.1-3.3-.2-5.1-2.2-5.1zm18.4 16.3c-.9.2-2 .2-3.1.2-1 0-2.1-.1-3-.2V24.7c0-1.4-.5-2.4-1.8-2.4h-.6c-.2-.7-.2-1.4-.2-2.2 0-.7 0-1.6.2-2.3 1.2-.1 2.6-.2 3.4-.2h.9c2.6 0 4.2 1.9 4.2 4.9v15.8zm-6.8-28.7c.7-.4 1.8-.7 2.9-.7 1.1 0 2.3.3 2.9.7.3.7.5 1.6.5 2.4s-.2 1.6-.5 2.4c-.6.3-1.8.6-2.9.6-1.1 0-2.3-.2-2.9-.6-.3-.7-.5-1.6-.5-2.4.1-.8.2-1.7.5-2.4z"/><path d="M276.4 33c.8-.5 2-.7 3-.7s2.3.3 3.1.7c.4.8.5 2 .5 2.5s-.1 1.7-.5 2.5c-.8.5-2.1.8-3.1.8s-2.3-.2-3-.8c-.4-.7-.5-2-.5-2.5s.2-1.7.5-2.5z" fill="#02826c"/><path class="st0" d="M301.4 36.5c-1.6 1.7-3.8 2.4-6.2 2.4-2.5 0-4.6-.7-6.2-2.4-2.1-2.2-2.8-4.8-2.8-8.5 0-3.6.7-6.2 2.8-8.4 1.6-1.7 3.7-2.4 6.2-2.4 2.4 0 4.6.7 6.2 2.4 2.1 2.2 2.8 4.8 2.8 8.4 0 3.7-.7 6.3-2.8 8.5zm-6.2-2.4c2.4 0 2.7-2.7 2.7-6.1 0-3.4-.4-6-2.7-6-2.4 0-2.8 2.7-2.8 6 .1 3.5.4 6.1 2.8 6.1zm13.2-16.6c2.5.2 4.1 1.6 5 3.7.9-2.1 2.3-3.7 4.9-3.7 1.2 0 1.8.2 2.6.3 0 1.5-.5 4.2-1.5 6-.7-.2-1.3-.3-2-.4-1.4 0-2.4.7-3.2 2.1v12.8c-.9.2-2 .2-3 .2s-2.1-.1-3-.2V25.1c0-2.4-.9-3.8-1.5-4.3.1-1.1 1-2.7 1.7-3.3zm21-.3c2.3 0 4 .9 5.1 1.9.9-1 2.1-1.6 3.7-1.6.8.6 1.7 2.1 1.9 3.3-.7.5-1.1 1.6-1.1 3v10.8c0 5.7-.8 8.2-2 9.8-1.6 2.1-4.2 3-7.3 3-2.5 0-5.3-.5-7.3-1.4 0-1.5.6-3.6 1.5-4.6 1.7.8 3.5 1.2 5.3 1.2 2.8 0 3.9-1.6 3.9-4.1v-1.4c-1.3 1-2.8 1.6-4.4 1.6-4.8 0-7-4.4-7-10.6-.1-7 3.5-10.9 7.7-10.9zm3.7 6.2c-.9-.9-1.8-1.4-2.6-1.4-1.9 0-2.6 2.3-2.6 6.2 0 3.8 1 5.4 2.3 5.4 1 0 2-.5 2.9-1.4v-8.8z"/></svg>