<svg version="1.1" id="Layer_1" xmlns="http://www.w3.org/2000/svg" x="0" y="0" viewBox="0 0 411.8 49.7" xml:space="preserve"><style>.st0{fill:#204391}</style><g id="Group_1" transform="translate(163 122)"><path id="Path_48" class="st0" d="M-157.7-104.7L-157.7-104.7v-5.8c0-6.4,5.2-11.5,11.5-11.5s11.5,5.2,11.5,11.5v0.8 c0,1.2-0.9,2.1-2,2.1s-2.1-0.9-2.1-2c0,0,0-0.1,0-0.1v-0.8l0,0c0-4.1-3.3-7.3-7.4-7.3c-4.1,0-7.4,3.3-7.4,7.3v5.8h19.5 c0.2,0,0.4,0,0.7,0l-12.2,12.1L-157.7-104.7c0.2,0,0.4,0,0.6,0H-157.7z"/><path id="Path_49" class="st0" d="M-128-98.8v10.8c0,3.3-2.7,5.9-6,5.9l0,0H-157c-3.3,0-5.9-2.6-6-5.9c0,0,0,0,0,0v-10.8 c0-1.5,0.5-2.9,1.5-3.9c0.1,0.1,0.2,0.3,0.3,0.4l14.2,14.1l0,0l0,0l0,0c0.8,0.8,2.1,0.8,3,0l14.6-14.5 C-128.5-101.6-128-100.2-128-98.8z"/></g><path class="st0" d="M60.2 38.4c-1.4 0-2.6-.4-3.7-.8v5.3c0 2.8-1 3.8-3.4 3.8h-2.4l-.3-.3V18.1l.3-.3h1.6c1.5 0 2.7.7 3.4 2 1.4-1.4 3.2-2.3 5.3-2.3 4.9 0 7.2 4.3 7.2 10.3C68.3 34.7 64.6 38.4 60.2 38.4zM56.6 24.1v8.8c.9.6 1.8.9 2.6.9 1.9 0 2.7-2.3 2.7-6 0-3.7-1-5.3-2.4-5.3C58.7 22.5 57.6 22.8 56.6 24.1zM79.1 30.1c.2 2.2 1 3.8 3.6 3.8 1.8 0 3.6-.6 5.2-1.2.9.9 1.5 2.4 1.6 3.7-2 1.4-5 2.3-7.8 2.3-7 0-8.9-5.2-8.9-10.4 0-6 2.6-10.7 9-10.7 5.3 0 8.3 3.6 8.3 8.5 0 1.8-.1 2.8-.5 4.1H79.1zM79 25.8h5.3v-.4c0-1.8-.8-3.4-2.6-3.4C79.9 21.9 79.2 23.2 79 25.8zM102.7 17.7c1.4 0 2.6.4 3.7.9V8.9l.2-.3h2.4c2.5 0 3.4 1 3.4 3.8v19.9c0 1.3.4 2.4 1.1 2.9-.2 1.1-1.1 2.6-1.9 3.2-2 0-3.4-.9-4.3-2.2-1.4 1.5-3.3 2.5-5.5 2.5-4.9 0-7.2-4.3-7.2-10.4C94.7 21.4 98.4 17.7 102.7 17.7zM106.4 32v-8.8c-1-.6-1.8-1-2.6-1-1.9 0-2.7 2.3-2.7 6 0 3.7 1 5.3 2.4 5.3C104.3 33.6 105.4 33.3 106.4 32zM126.6 38c-.9.2-2.1.2-3.2.2-1 0-2.2-.1-3.1-.2V24.8c0-1.3-.5-2.3-1.9-2.3h-.6c-.2-.7-.2-1.4-.2-2.1 0-.7 0-1.5.2-2.2 1.2-.1 2.6-.2 3.5-.2h.9c2.6 0 4.4 1.8 4.4 4.8V38zM119.6 10c.7-.4 1.9-.6 3-.6s2.4.3 3 .6c.3.7.5 1.6.5 2.3s-.2 1.6-.5 2.3c-.6.3-1.9.6-3 .6s-2.4-.2-3-.6c-.3-.7-.5-1.6-.5-2.3C119.1 11.6 119.3 10.8 119.6 10zM140.2 17.7c1.4 0 2.6.4 3.7.9V8.9l.2-.3h2.4c2.5 0 3.4 1 3.4 3.8v19.9c0 1.3.4 2.4 1.1 2.9-.2 1.1-1.1 2.6-1.9 3.2-2 0-3.4-.9-4.3-2.2-1.4 1.5-3.3 2.5-5.5 2.5-4.9 0-7.2-4.3-7.2-10.4C132.2 21.4 135.8 17.7 140.2 17.7zM143.9 32v-8.8c-1-.6-1.8-1-2.6-1-1.9 0-2.7 2.3-2.7 6 0 3.7 1 5.3 2.4 5.3C141.8 33.6 142.9 33.3 143.9 32zM171.3 36.3c-1.7 1.6-3.9 2.4-6.4 2.4-2.5 0-4.7-.7-6.4-2.4-2.1-2.1-2.9-4.7-2.9-8.2 0-3.5.8-6.1 2.9-8.2 1.6-1.6 3.8-2.4 6.4-2.4 2.5 0 4.7.7 6.4 2.4 2.1 2.1 2.9 4.7 2.9 8.2C174.2 31.6 173.4 34.2 171.3 36.3zM164.9 34c2.4 0 2.8-2.6 2.8-5.9 0-3.3-.4-5.9-2.8-5.9-2.5 0-2.8 2.6-2.8 5.9C162.1 31.4 162.4 34 164.9 34zM186.6 17.7c1.4 0 2.6.4 3.7.9V8.9l.2-.3h2.4c2.5 0 3.4 1 3.4 3.8v19.9c0 1.3.4 2.4 1.1 2.9-.2 1.1-1.1 2.6-1.9 3.2-2 0-3.4-.9-4.3-2.2-1.4 1.5-3.3 2.5-5.5 2.5-4.9 0-7.2-4.3-7.2-10.4C178.6 21.4 182.3 17.7 186.6 17.7zM190.4 32v-8.8c-1-.6-1.8-1-2.6-1-1.9 0-2.7 2.3-2.7 6 0 3.7 1 5.3 2.4 5.3C188.2 33.6 189.4 33.3 190.4 32zM208.4 30.1c.2 2.2 1 3.8 3.6 3.8 1.8 0 3.6-.6 5.2-1.2.9.9 1.5 2.4 1.6 3.7-2 1.4-5 2.3-7.8 2.3-7 0-8.9-5.2-8.9-10.4 0-6 2.6-10.7 9-10.7 5.3 0 8.3 3.6 8.3 8.5 0 1.8-.1 2.8-.5 4.1H208.4zM208.4 25.8h5.3v-.4c0-1.8-.8-3.4-2.6-3.4C209.3 21.9 208.6 23.2 208.4 25.8zM232.1 17.7c1.4 0 2.6.4 3.7.9V8.9l.2-.3h2.4c2.5 0 3.4 1 3.4 3.8v19.9c0 1.3.4 2.4 1.1 2.9-.2 1.1-1.1 2.6-1.9 3.2-2 0-3.4-.9-4.3-2.2-1.4 1.5-3.3 2.5-5.5 2.5-4.9 0-7.2-4.3-7.2-10.4C224.1 21.4 227.7 17.7 232.1 17.7zM235.8 32v-8.8c-1-.6-1.8-1-2.6-1-1.9 0-2.7 2.3-2.7 6 0 3.7 1 5.3 2.4 5.3C233.7 33.6 234.8 33.3 235.8 32zM263.8 38.4c-2 0-3.4-1-4.3-2.1-1.4 1.3-3.2 2.4-5.8 2.4-4.1 0-6.1-3.2-6.1-6.1 0-4.8 3.8-6.9 7.9-6.9.7 0 1.8 0 2.8.1V25c0-1.7-.8-2.5-2.6-2.5-1.7 0-3.8.6-5.9 1.3-.9-1-1.4-2.8-1.5-4.4 2.7-1.1 6.6-1.8 9.2-1.8 3.5 0 7.1 1.8 7.1 6.8v8.1c0 1.2.3 2 1.1 2.6C265.5 36.2 264.6 37.8 263.8 38.4zM258.3 32.9v-3.2c-.8 0-1.6-.1-2.2-.1-1.8 0-2.5 1-2.5 2.6 0 1.1.7 1.9 1.8 1.9C256.4 34 257.4 33.6 258.3 32.9zM277.8 17.7c1.4 0 2.6.4 3.7.9V8.9l.2-.3h2.4c2.5 0 3.4 1 3.4 3.8v19.9c0 1.3.4 2.4 1.1 2.9-.2 1.1-1.1 2.6-1.9 3.2-2 0-3.4-.9-4.3-2.2-1.4 1.5-3.3 2.5-5.5 2.5-4.9 0-7.2-4.3-7.2-10.4C269.8 21.4 273.5 17.7 277.8 17.7zM281.6 32v-8.8c-1-.6-1.8-1-2.6-1-1.9 0-2.7 2.3-2.7 6 0 3.7 1 5.3 2.4 5.3C279.4 33.6 280.6 33.3 281.6 32zM308.9 36.3c-1.7 1.6-3.9 2.4-6.4 2.4-2.5 0-4.7-.7-6.4-2.4-2.1-2.1-2.9-4.7-2.9-8.2 0-3.5.8-6.1 2.9-8.2 1.6-1.6 3.8-2.4 6.4-2.4 2.5 0 4.7.7 6.4 2.4 2.1 2.1 2.9 4.7 2.9 8.2C311.8 31.6 311 34.2 308.9 36.3zM302.6 34c2.4 0 2.8-2.6 2.8-5.9 0-3.3-.4-5.9-2.8-5.9-2.5 0-2.8 2.6-2.8 5.9C299.7 31.4 300.1 34 302.6 34zM317.5 32.4c1.8.9 4 1.7 5.6 1.7 1.5 0 2.3-.6 2.3-1.4 0-.8-.5-1.4-1.8-1.8l-2.2-.8c-2.8-1-5-2.8-5-6 0-4 3-6.6 7.8-6.6 2.4 0 5.6.8 7.4 1.7.1 1.5-.7 3.6-1.7 4.4-1.7-.8-3.7-1.5-5.6-1.5-1.1 0-1.6.6-1.6 1.3 0 .7.4 1.1 1.5 1.5l2.5.9c3 1.1 5.3 3 5.3 6.4 0 4-3.2 6.5-8.1 6.5-3.1 0-6.1-.9-8-2C315.8 35.3 316.6 33.4 317.5 32.4z"/><path d="M337.3,32.9c0.8-0.4,2.1-0.7,3.1-0.7s2.4,0.3,3.2,0.7c0.4,0.8,0.5,2,0.5,2.4c0,0.5-0.1,1.7-0.5,2.4 c-0.8,0.5-2.1,0.8-3.2,0.8s-2.3-0.2-3.1-0.8c-0.4-0.7-0.5-1.9-0.5-2.4C336.8,34.8,337,33.6,337.3,32.9z" fill="#02826c"/><path class="st0" d="M365 36.3c-1.7 1.6-3.9 2.4-6.4 2.4-2.5 0-4.7-.7-6.4-2.4-2.1-2.1-2.9-4.7-2.9-8.2 0-3.5.8-6.1 2.9-8.2 1.6-1.6 3.8-2.4 6.4-2.4 2.5 0 4.7.7 6.4 2.4 2.1 2.1 2.9 4.7 2.9 8.2C367.9 31.6 367.1 34.2 365 36.3zM358.6 34c2.4 0 2.8-2.6 2.8-5.9 0-3.3-.4-5.9-2.8-5.9-2.5 0-2.8 2.6-2.8 5.9C355.8 31.4 356.2 34 358.6 34zM374.2 17.8c2.6.2 4.2 1.5 5.1 3.6.9-2.1 2.4-3.6 5-3.6 1.2 0 1.8.2 2.6.3 0 1.5-.5 4.1-1.6 5.8-.7-.2-1.4-.3-2-.4-1.4 0-2.4.7-3.3 2V38c-.9.2-2 .2-3.1.2-1 0-2.2-.1-3.1-.2V25.1c0-2.4-.9-3.7-1.5-4.2C372.5 19.9 373.4 18.4 374.2 17.8zM397.8 17.5c2.4 0 4.1.8 5.3 1.9.9-1 2.1-1.6 3.8-1.6.8.6 1.8 2.1 1.9 3.2-.7.5-1.1 1.6-1.1 2.9v10.6c0 5.6-.8 8-2 9.6-1.6 2-4.3 2.9-7.5 2.9-2.5 0-5.4-.5-7.5-1.3 0-1.5.6-3.5 1.5-4.5 1.7.8 3.6 1.2 5.4 1.2 2.9 0 4-1.6 4-4v-1.3c-1.3 1-2.9 1.6-4.6 1.6-4.9 0-7.2-4.3-7.2-10.4C389.8 21.2 393.4 17.5 397.8 17.5zM401.5 23.5c-.9-.9-1.9-1.4-2.6-1.4-2 0-2.7 2.3-2.7 6 0 3.7 1 5.3 2.4 5.3 1 0 2.1-.4 3-1.4v-8.3V23.5z"/></svg>