<svg enable-background="new 0 0 168.9 190.1" viewBox="0 0 168.9 190.1" xmlns="http://www.w3.org/2000/svg" xmlns:xlink="http://www.w3.org/1999/xlink"><clipPath id="a"><path d="m263.6 106.5c0-38.9-209.9-75.8-248.8-75.8s-43.5 164.3-43.5 203.2c0 19.4 37-26.8 58.4-45 5.4-4.6 2.7-19.7 6.5-17.2 11.3 7.7 24.9 12.2 39.6 12.2 9.2 0 17.9-1.7 25.9-4.9 16.3-6.5 29.6-18.8 37.3-34.4.9-1.7 23.6-4.5 24.3-6.3 3.1-8.1 100.3-22.7 100.3-31.8z"/></clipPath><clipPath id="b"><path d="m53.1-13.8h59.7v59.7h-59.7z" transform="matrix(.9857 -.1687 .1687 .9857 -1.5115 14.2215)"/></clipPath><clipPath id="c"><path d="m53.1-13.8h59.7v59.7h-59.7z" transform="matrix(.9857 -.1687 .1687 .9857 -1.5115 14.2215)"/></clipPath><circle clip-rule="evenodd" cx="75.8" cy="113.4" fill="#e0e5ed" fill-rule="evenodd" r="70.5"/><g clip-path="url(#a)" clip-rule="evenodd" fill-rule="evenodd"><g transform="translate(65 42)"><path d="m-22.2 119.5h44.5l5.8 71.4h-66.2z" fill="#141651"/><path d="m-22.2 119.5h13.7l8.2 71.4h-37.8z" opacity=".1"/></g><path d="m138 149.2c4.7-2.8 12.7.8 12.7 4.9 0 12.2-11.1 69.6-11.7 73.3-.6 3.6-6.8 4.6-7.2 0-.6-7.3-1.6-32.5-.6-44.2.4-4.8.9-9.4 1.4-13.5-5.8 10.5-14.9 25.6-27.1 45.3l-6.6-3c5.2-17.2 9.5-29.3 12.8-36.3 5.7-12.1 11.1-22.5 13.3-26.1 3.6-5.8 9.8-3.8 13-.4z" fill="#b18b67"/><path d="m99.4 202.4 22.8-53.9c5.5-8.8 20.7 1.8 18.9 6.9-4.2 11.6-25.7 49-27 52.4z" fill="#dfa417"/><path d="m-33.3 144.1c-.6 1.7-1 3-1 3.9 0 1 .2 2.6.5 4.5h32.5c.8-2.8.4-4.3-1.5-4.5-1.8-.2-3.3-.4-4.5-.6l-15.1-6.7c-.3-.1-.6 0-.8.3l-1 2.4c-1.7.8-3.1 1.2-4.1 1.2-.9 0-2-.3-3.5-1-.6-.4-1.3-.1-1.5.5z" fill="#e4e4e4" transform="matrix(.8660254 .5 -.5 .8660254 199.086225 100.429492)"/><path d="m-111.6 98.5c-.6 1.7-1 3-1 3.9 0 1 .2 2.6.5 4.5h32.5c.8-2.8.4-4.3-1.5-4.5-1.8-.2-3.3-.4-4.5-.6l-15.1-6.7c-.3-.1-.6 0-.8.3l-1 2.4c-1.7.8-3.1 1.2-4.1 1.2-.9 0-2-.3-3.5-1-.5-.4-1.2-.2-1.5.5 0-.1 0 0 0 0z" fill="#e4e4e4" transform="translate(242 126)"/><path d="m152.3 158.3c0 15.3-7.3 51-7.3 54.4h-15.6c2.3-31.8 3.1-47.9 2.4-48.3-1-.5-40.9 4-52.9 4-17.3 0-24.4-10.9-25-31.1h34.2c7 .7 43.3 8.1 56.8 10.6 5.8 1.1 7.4 6.2 7.4 10.4z" fill="#f6ba0e"/><path d="m123.5 106.1 27.5-3.7c5.5-3.1 10.5-5.1 15.2-6.2 1.3 0 3.4.4.3 3s-6.2 5.4-5.6 6.8c.5 1.4 3.4.9 3.9 3 .3 1.4-4.3 1.6-13.9.7l-22.3 8.8zm-86.2 6.4 15.2.1c-16.7 37.6-25.4 57.2-26.1 59-1.6 4 1.8 10.1 3.3 13.3-4.7 2.1-4.2-5.7-10.2-3-5.5 2.5-9.6 7.1-15.9 3.3-.8-.5-1.6-2.3.4-3.7 5.1-3.5 12.5-9.6 13.5-11.7 1.3-2.7 7.9-21.9 19.8-57.3z" fill="#7dced9"/><path d="m79 64.2 11.9.8c2.9 26.6 18.9 43.3 54.7 37.7l4.8 34.2c-33.5 4.3-62.8-9.1-68.8-45.3-1.6-9.5-2.8-19.3-2.6-27.4z" fill="#c3516f"/><path d="m73.1 60.7 18.1 4.1c0 31.1 9.9 50.9 15 73.7h-48.9c-.7 7.9-1.1 16-1.3 24.3h-36.5c8.3-44 25.7-78.1 52.4-102.2z" fill="#e65d7d"/><path d="m65 94.3c-1.3 19.4-.5 34.1 2.2 44.3h-9.9c1.4-15.6 3.8-30.4 7.7-44.3z" opacity=".1"/></g><g clip-path="url(#b)"><path clip-path="url(#c)" d="m97.9 23.7-26.5 4.5c-1.4.2-2.8-.7-3.1-2.2l-2.6-15c-.4-2.4 1.2-4.6 3.6-5l22.6-3.9c2.7-.5 5.3 1.4 5.7 4.1l2.5 14.4c.2 1.4-.7 2.8-2.2 3.1" fill="#17248c"/><path clip-path="url(#c)" d="m108 25.5c-15.1 3-30.3 5.6-45.5 7.8-2 .5-3-1.4-2.5-3.1.5-1.9 2.2-3.8 4.1-4.1 13.3-2.3 26.7-4.6 40-6.8 2-.4 4.2 1 5.3 2.5 1.2 1.4.4 3.3-1.4 3.7" fill="#1c1f8a"/></g></svg>