<svg xmlns="http://www.w3.org/2000/svg" xmlns:xlink="http://www.w3.org/1999/xlink" viewBox="0 0 168.9 190.1"><circle cx="75.8" cy="113.4" r="70.5" fill-rule="evenodd" clip-rule="evenodd" fill="#e2e8ef"/><defs><path id="a" d="M263.6 106.5c0-38.9-209.9-75.8-248.8-75.8S-28.7 195-28.7 233.9c0 19.4 37-26.8 58.4-45 5.4-4.6 2.7-19.7 6.5-17.2 11.3 7.7 24.9 12.2 39.6 12.2 9.2 0 17.9-1.7 25.9-4.9 16.3-6.5 29.6-18.8 37.3-34.4.9-1.7 23.6-4.5 24.3-6.3 3.1-8.1 100.3-22.7 100.3-31.8z"/></defs><clipPath id="b"><use xlink:href="#a" overflow="visible"/></clipPath><g clip-path="url(#b)" fill-rule="evenodd" clip-rule="evenodd"><path d="M50.8 161.5h44.5l5.8 71.4H34.9l15.9-71.4z" fill="#3b59a8"/><path d="M50.8 161.5h13.7l8.2 71.4H34.9l15.9-71.4z" fill="#204391"/><path d="M99.4 202.4l22.8-53.9c5.5-8.8 20.7 1.8 18.9 6.9-4.2 11.6-25.7 49-27 52.4l-14.7-5.4z" fill="#d69f2d"/><path d="M152.3 158.3c0 15.3-7.3 51-7.3 54.4h-15.6c2.3-31.8 3.1-47.9 2.4-48.3-1-.5-40.9 4-52.9 4-17.3 0-24.4-10.9-25-31.1h34.2c7 .7 43.3 8.1 56.8 10.6 5.8 1.1 7.4 6.2 7.4 10.4z" fill="#ecc94b"/><path d="M123.5 106.1l27.5-3.7c5.5-3.1 10.5-5.1 15.2-6.2 1.3 0 3.4.4.3 3s-6.2 5.4-5.6 6.8c.5 1.4 3.4.9 3.9 3 .3 1.4-4.3 1.6-13.9.7l-22.3 8.8-5.1-12.4zm-86.2 6.4l15.2.1c-16.7 37.6-25.4 57.2-26.1 59-1.6 4 1.8 10.1 3.3 13.3-4.7 2.1-4.2-5.7-10.2-3-5.5 2.5-9.6 7.1-15.9 3.3-.8-.5-1.6-2.3.4-3.7 5.1-3.5 12.5-9.6 13.5-11.7 1.3-2.7 7.9-21.9 19.8-57.3z" fill="#79cab3"/><path d="M79 64.2l11.9.8c2.9 26.6 18.9 43.3 54.7 37.7l4.8 34.2c-33.5 4.3-62.8-9.1-68.8-45.3-1.6-9.5-2.8-19.3-2.6-27.4z" fill="#9c2d2c"/><path d="M73.1 60.7l18.1 4.1c0 31.1 9.9 50.9 15 73.7H57.3c-.7 7.9-1.1 16-1.3 24.3H19.5c8.3-44 25.7-78.1 52.4-102.2l1.2.1z" fill="#e53f3e"/><path d="M65 94.3c-1.3 19.4-.5 34.1 2.2 44.3h-9.9c1.4-15.6 3.8-30.4 7.7-44.3z" fill="#c52f30"/></g><path d="M97.9 23.7l-26.5 4.5c-1.4.2-2.8-.7-3.1-2.2l-2.6-15c-.4-2.4 1.2-4.6 3.6-5l22.6-3.9c2.7-.5 5.3 1.4 5.7 4.1l2.5 14.4c.2 1.4-.7 2.8-2.2 3.1" fill="#4a69b2"/><path d="M108 25.5c-15.1 3-30.3 5.6-45.5 7.8-2 .5-3-1.4-2.5-3.1.5-1.9 2.2-3.8 4.1-4.1 13.3-2.3 26.7-4.6 40-6.8 2-.4 4.2 1 5.3 2.5 1.2 1.4.4 3.3-1.4 3.7" fill="#3b59a8"/></svg>