<svg enable-background="new 0 0 304.4 274.3" viewBox="0 0 304.4 274.3" xmlns="http://www.w3.org/2000/svg" xmlns:xlink="http://www.w3.org/1999/xlink"><clipPath id="a"><path d="m223.7 162.5c0 10.8-1.5 21.2-4.4 31-.6 2 13.1 11.4 12.4 13.3-2.3 6.7-3.3 10.6-6.8 16.7-.6 1-17.5-2.9-18.1-1.9-19.8 31.6-54.9 52.7-94.9 52.7-13.2 0-25.9-2.3-37.6-6.5-16-5.7-25.7 8.1-37.4-3.8-1.7-1.7-38.7 4.3-21.4-16.7 2.2-2.7 7.4-17 5.4-19.8-13.2-18.3-20.9-40.7-20.9-65 0-54.1 38.3-99.2 89.3-109.6 7.3-1.5-3-34.2 4.8-34.2 3.5 0 41-13.7 48.2 10.7 2.9 9.8-.2 24.9 9 28.4 42.3 15.9 72.4 56.8 72.4 104.7z"/></clipPath><circle clip-rule="evenodd" cx="111.9" cy="162.5" fill="#e0e5ed" fill-rule="evenodd" r="111.9"/><g clip-path="url(#a)" clip-rule="evenodd" fill-rule="evenodd"><path d="m50.9 26.7c-4.6-5.4-7.7-12-7.2-19.5 1.5-21.4 31.3-16.7 37-5.9 5.8 10.8 5.1 38.2-2.4 40.1-3 .8-9.3-1.1-15.8-5l4.1 28.8h-24z" fill="#7dced9" transform="translate(54 31)"/><path d="m117.7 40.6c.9 12.8 3.3 19.2 7.3 19.2 5.9 0 10.9-3.8 13.5-3.8 1.9 0 1.5 2.4.2 4.1-1 1.4-6.1 2.8-6.1 5.1 0 2.2 4 .5 4 1.8 0 2.2.7 6.3-3.1 6.3-3.9 0-15-1.4-16.9-7.1-1.2-3.7-2-11.4-2.4-23-.2 0-.5 0-.7 0-3.3 0-6 2.7-6 6 0 1.7.7 3.2 1.8 4.3-1.4 2-2.9 4-4.7 6.1-6.7-4-11.2-16-5.6-27.4 2.1-5.6 6.4-8.2 11.3-9.6 3.9-1.6 8-1.8 11.4-.8 6.7.6 12.7 2.6 14.5 3.9 0 6.4-1.2 8.3-11.8 8.1-2.6 1.3-4.6 3.7-6.7 6.8z" fill="#2b2a8f"/><path d="m94.1 188.1 36.2 127.2 26.5 93.8h19.3l-28.1-221z" fill="#c3516f"/><path d="m84.4 188.1c-.8 65.6-3.7 101.3-4.6 107.3s-14.2 43.9-39.9 113.7h20c32.8-67 51.1-104.9 54.9-113.7s15.6-44.6 33.3-107.3z" fill="#e65d7d"/><path d="m-33.9 228.1 1-21h21c10 7 23 12.7 39 17v4h-38l-13-2v2z" fill="#191847" transform="translate(72 199)"/><path d="m-33.9 228.1 1-21h21c10 7 23 12.7 39 17v4h-38l-13-2v2z" fill="#191847" transform="translate(188 199)"/><path d="m178.3 168.6 28.3 27.6c8.2 3.5 15 7.4 20.3 11.6 1.2 1.4 2.5 4.2-3.1 2.9-5.6-1.2-11.5-2.3-12.5-.5s2 4.6.1 7c-1.3 1.6-5.6-3.4-13-15.1l-29.5-17.4zm-125.8 3.9 20.9.1c-12.9 41.7-19.9 63.8-20.9 66.3-2.3 5.7 2.6 14.5 4.7 19.2-6.8 3.1-6.1-8.3-14.7-4.2-7.9 3.7-13.8 10.3-22.9 4.7-1.1-.7-2.3-3.3.6-5.3 7.4-5 18-13.9 19.4-16.8 2-4.1 6.3-25.4 12.9-64z" fill="#7dced9"/><path d="m111.9 84.8 8.6-1.5c14.9 37.2 40.9 71 78 101.4l-28 34.1c-37.1-43.3-60-88-58.6-134z" fill="#f6ba0e"/><path d="m74.2 193.5h77c-17.8-43.4-26.8-80.2-26.8-110.5l-23.2-3.5c-18.2 29.4-23.4 65.5-27 114z" fill="#141651"/><path d="m100.7 79.5h1.5c1.8.1 4.6.2 8.3.3l5.6 16c.6 19.6 4.1 59 10.4 118.2h-50.4c.1 4.1.4 8.2.7 12.4h-37.6c5.6-63.2 26.1-112.2 61.5-146.9z" fill="#dfa417"/><path d="m79.4 161.7c1.4 25.5 5 43.1 10.8 52.8h-14.1c-.6-18.4.5-36 3.3-52.8z" fill-opacity=".1"/><path d="m87.3 183.5 24.9-11.6v11.6z" fill="#fff" fill-opacity=".2"/></g><path d="m206.9 94.6-.7 3.2c-2.1-.4-4.5 1-4.9 3.1-.6 3 .1 8.5-9.9 6.5l.6-2.7c6.7 1.4 5.9-1.1 6.5-4.3.6-2.9 2.6-4.5 4.2-4.9-1.3-1-2.7-2.6-2.2-5.2.7-3.3 2.6-6.2-4.1-7.5l.6-2.8c10 2 7 7.9 6.4 10.8-.4 2.2 1.4 3.4 3.5 3.8zm-25.4-8.2c.6-3 .1-9.5 10.1-7.5l-.6 2.7c-6.7-1.4-6.1 2.1-6.7 5.3-.5 2.6-2.4 3.5-4 3.9 1.3 1 2.6 3.3 2 6.2-.7 3.2-2.4 5.2 4.3 6.5l-.6 2.7c-10-2-7.2-6.9-6.6-9.9.4-2.1-1.2-4.3-3.3-4.8l.7-3.2c2.1.6 4.2.2 4.7-1.9z" fill="#e65d7d" opacity=".7"/><path d="m304.3 34.5c.4-2-1-4-3-4.3s-4 1-4.3 3c-.3 1.6.5 3.2 1.9 3.9-.7 5.3-3.5 5.4-7.3 5.5-2.2.1-4.6.1-6.6 1.4l1.7-9.2c1.5-.2 2.8-1.4 3.1-3 .4-2-1-4-3-4.3-2-.4-4 1-4.3 3-.3 1.6.5 3.1 1.8 3.9l-2.7 15.1c-1.5.2-2.8 1.4-3.1 3-.4 2 1 4 3 4.3 2 .4 4-1 4.3-3 .3-1.6-.5-3.1-1.8-3.9 1.2-4.7 4.1-4.8 7.8-4.9 3.9-.1 8.6-.3 9.7-7.6 1.3-.2 2.6-1.3 2.8-2.9zm-20.5-3.7c.2-1.2 1.4-2 2.6-1.8s2 1.4 1.8 2.6-1.4 2-2.6 1.8-2-1.4-1.8-2.6zm.4 22.8c-.2 1.2-1.4 2-2.6 1.8s-2-1.4-1.8-2.6 1.4-2 2.6-1.8 2 1.4 1.8 2.6zm16.1-17.5c-1.2-.2-2-1.4-1.8-2.6s1.4-2 2.6-1.8 2 1.4 1.8 2.6-1.4 2-2.6 1.8z" fill="#c3516f" opacity=".7"/><path clip-rule="evenodd" d="m209.6 21.3-14.9-20.2c-.4-.6-1.1-.9-1.7-1-.7-.1-1.4.1-1.9.5l-4.2 3.1 3.9 5.3c1.1-.2 2.3.2 3.1 1.2.7 1 .8 2.3.2 3.3l3.8 5.1c1.1-.2 2.3.2 3.1 1.2 1 1.4.7 3.3-.7 4.4-1.4 1-3.3.7-4.4-.7-.8-1-.8-2.4-.2-3.5l-3.5-4.8-1.6 10.9c.3.2.5.4.7.7 1 1.4.7 3.3-.7 4.4-1.4 1-3.3.7-4.4-.7-1-1.4-.7-3.3.7-4.4.3-.3.7-.4 1.1-.5l1.7-11c-.3-.2-.7-.5-.9-.8-.8-1-.8-2.4-.2-3.5l-3.9-5.2-13.9 10.2c-.6.4-.9 1.1-1 1.7-.1.7.1 1.4.5 1.9l14.9 20.2c.4.6 1.1.9 1.7 1 .7.1 1.4-.1 1.9-.5l20.2-14.7c.6-.4.9-1.1 1-1.7.2-.6 0-1.3-.4-1.9" fill="#f6ba0e" fill-rule="evenodd" opacity=".7"/><path d="m251.1 45.1c6.8-1.7 13.6 2.5 15.3 9.3s-2.5 13.6-9.3 15.3-13.6-2.5-15.3-9.3 2.5-13.6 9.3-15.3zm-.7-2.5c-8.1 2-13.1 10.2-11.1 18.4s10.2 13.1 18.4 11.1c8.1-2 13.1-10.2 11.1-18.4-2-8.1-10.2-13.1-18.4-11.1zm9.7 14.2 1.8.7c-.5 1.4-1.4 2.4-2.9 2.8-2.1.5-4.2-.8-4.8-2.9-.5-2.1.8-4.2 2.9-4.7 1.5-.4 2.7.1 3.8 1.1l-1.3 1.4c-.3-.3-1-.9-2-.7-1.1.3-1.7 1.3-1.4 2.4s1.3 1.7 2.4 1.4c1-.3 1.3-1.1 1.5-1.5zm-9.1 3.4c-1.1.3-2.1-.4-2.4-1.4-.3-1.1.4-2.1 1.4-2.4s1.7.4 2 .7l1.3-1.4c-1.1-1-2.3-1.5-3.8-1.1-2.1.5-3.4 2.6-2.9 4.7s2.6 3.4 4.8 2.9c1.5-.4 2.3-1.4 2.9-2.8l-1.8-.7c-.2.3-.5 1.2-1.5 1.5z" fill="#141651" opacity=".7"/><path d="m222.8 64.4-5.7-3.6.8 3.5-3.5.8c-1.3.3-2.6-.5-2.9-1.8l-2.7-11.9c1.3-.8 1.9-2.3 1.6-3.8-.4-1.9-2.4-3.2-4.3-2.7-1.9.4-3.2 2.4-2.7 4.3.3 1.5 1.6 2.6 3.1 2.8l2.7 11.9c.6 2.6 3.2 4.2 5.7 3.6l3.5-.8.8 3.5zm-18-15.7c-.3-1.2.5-2.3 1.6-2.6 1.2-.3 2.3.5 2.6 1.6.3 1.2-.5 2.3-1.6 2.6-1.2.3-2.3-.4-2.6-1.6zm9.1-2 5.7 3.6-.8-3.5 3.5-.8c1.3-.3 2.6.5 2.9 1.8l2.7 11.9c-1.3.8-1.9 2.3-1.6 3.8.4 1.9 2.4 3.2 4.3 2.7 1.9-.4 3.2-2.4 2.7-4.3-.3-1.5-1.6-2.6-3.1-2.8l-2.7-11.9c-.6-2.6-3.2-4.2-5.7-3.6l-3.5.8-.8-3.5zm18.1 15.6c.3 1.2-.5 2.3-1.6 2.6-1.2.3-2.3-.5-2.6-1.6s.5-2.3 1.6-2.6c1.2-.3 2.3.4 2.6 1.6z" fill="#1e258d" opacity=".7"/><g fill="#dfa417" opacity=".7"><path d="m220.4 86.6.6-2.9 15.3-6-.8 3.8-11.3 4.4v.1l8.6 8.6-.8 3.8z"/><path d="m239.9 96 11.3-4.4v-.1l-8.6-8.6.8-3.8 11.6 11.7-.6 2.9-15.3 6z"/></g><g fill="#68b0b7" opacity=".7"><path d="m155.3 68.7 4.1-.4-1-9.5-3.2.3-.2-1.7c1.8-.5 2.8-.9 3.8-1.6l2-.2 1.2 12.4 3.5-.4.2 2.2-10.2 1.1z"/><path d="m167.9 62.1c-.5-4.9 1.3-7.7 4.6-8.1s5.7 2 6.2 6.9-1.3 7.8-4.6 8.2-5.7-2.1-6.2-7zm8.4-.9c-.4-4-1.9-5.3-3.6-5.1s-2.9 1.8-2.4 5.7c.4 4 1.9 5.4 3.6 5.2 1.7-.1 2.8-1.8 2.4-5.8zm-4.6.4c-.1-1 .5-1.7 1.4-1.8s1.6.5 1.7 1.5-.5 1.7-1.4 1.8c-.8.1-1.6-.5-1.7-1.5z"/><path d="m182.7 65.7 4.1-.4-1-9.5-3.2.3-.2-1.7c1.8-.5 2.8-.9 3.8-1.6l2-.2 1.3 12.4 3.5-.4.2 2.2-10.2 1.1z"/></g><path d="m248 26.5-18.8-3.3.2-1c.3-2 .7-3.1 3.1-3.2 2.7-.1 5.4-.2 4.6-2.8-2.5-7.5.8-10.9 4.8-10.2 3.9.7 6 4.9 1.1 11.2-1.6 2.1.8 3.1 3.4 4.2 2.2.9 2.2 2.1 1.9 4.1-.1 0-.3 1-.3 1zm8.1-2.2c-1.9-.8-3.7-1.6-2.5-3.1 3.7-4.7 2.1-7.9-.8-8.4-2-.3-3.7.7-4.2 3-1.1 6.1 3.1 3.4 1.7 11.1l7 1.2.1-.7c.4-1.5.4-2.4-1.3-3.1zm-36.3-2.7 7 1.2c1.3-7.7 4.3-3.7 5.3-9.8.4-2.4-.9-3.9-2.9-4.2-2.9-.5-5.4 1.9-3.6 7.6.6 1.9-1.3 2-3.4 2.1-1.8.1-2.1.9-2.3 2.4.1-.1-.1.7-.1.7z" fill="#7dced9" opacity=".7"/></svg>