<svg version="1.1" id="Layer_1" xmlns="http://www.w3.org/2000/svg" x="0" y="0" viewBox="0 0 278.9 416.2" xml:space="preserve"><style>.st0{fill-rule:evenodd;clip-rule:evenodd;fill:#79cab3}</style><path class="st0" d="M190.5 121.6h-24l4.1-28.8c-6.5 3.9-12.8 5.8-15.8 5-7.5-1.9-8.2-29.3-2.4-40.1s35.6-15.5 37.1 5.9c.5 7.4-2.6 14.1-7.2 19.5l8.2 38.5z"/><path d="M199.9 56.5c2.6.1 5.7 1.3 7 3.8 1.7 3.3-.7 7-3.5 8.6 4.9 4.4-4 10.3-7.7 10.6.7 2.6-2.4 3.6-4.1 4.3 1.1 1.3 1.4 3.4.1 4.7-1.4 1.4-3.9 1.5-5.5.4-.4-.3-.5-.6-.8-1-.3-.3-.6-.3-.9-.4-.9-.3-1.4-1.2-1.8-2.1-.8-1.7-1.1-3.7-2.4-5 1.7-.7 3.7-1.4 4.8-3.1 1.9-2.9-.2-7-3.2-7.7-2.7-.7-5.8.8-7.5 3-.6-1.6-1.4-3.1-2.5-4.3-.7-.7-1.9-1.8-.3-2.2 3.5-.9 7.2-1.3 10.7-2.1-3.7 0-7.3.4-11 0-1.1-.1-2.3-.3-2.9-1.5-.7-1.5-1.2-3.3-1.2-5-1.2.4-2.4 1.1-3.8 1-.5 0-1-.2-1.5-.2-.6 0-.9.2-1.4.6-1.7 1.6-3.7 2.6-5.8 3.1-1.2.3-2.6.6-3.8.5-.2 0-.3-.1-.5-.2-.3-.1-.7.1-1 .1-.9 0-1.8-.1-2.5-.7-1.6-1.4-1.1-3.8.7-4.6-1.5-1.2-3-2.5-4.2-4.1-.6-.7-1.1-1.5-1.6-2.4-.2-.5-.6-1.1-.4-1.7.4-1.7 3.8-.7 4.8-.2.1-.5.1-.7.1-1.1-.1-.4-.1-.8 0-1.1.2-.6.8-.9 1.3-1.2.7-.3 1.4-.4 2.1-.5.4 0 1.2.2 1.4-.2.1-.3-.1-1-.1-1.3-.1-.7-.2-1.3-.3-2-.1-.9-.1-1.7-.2-2.6 0-.6-.2-1.3 0-1.9.4-1.7 2.1-1.8 3.4-1.5.9.2 1.7.6 2.5 1.1.5.4 1 .8 1.6 1.2.4.3.6.6 1 .3.9-.6 1.4-2 2.1-2.9.7-1 1.8-1.7 2.9-2.1 2.4-.9 5.1-.3 7.2 1.2.5.3.9.7 1.3 1.2.3.4.6.7 1.1.6s.9-.4 1.3-.7l1.5-.9c2-1.1 4.2-1.6 6.4-1.3 2.1.3 4 1.4 5.2 3.4 1.2 2.1 1.6 4.6 1.7 7 1.1-.5 2.1-1.2 3.2-1.6s2.4-.5 3.5-.4c1.8.1 3.7.8 5 2.2 1.6 1.7 1.6 4.3 1.1 6.6-.3 1.1-.6 2.2-1 3.3s-.8 2.2-1.6 3" fill-rule="evenodd" clip-rule="evenodd" fill="#ea64a5"/><ellipse cx="196" cy="342.7" rx="77" ry="73.5" fill-rule="evenodd" clip-rule="evenodd" fill="#a0aec0"/><path class="st0" d="M38.3 401.3C49 336 57.8 292.8 62.9 279.7c3.4-8.7 28.7-7.7 25.8 9.8-1.2 7.3-6.1 27-12.4 49.3-3.7 13-13 37.7-25.8 66.1l-12.2-3.6zm157.1-73.5c-4.5-.6-57-6.1-94.1-11.5-14.9-2.1-6.9-30 8.6-27.1 5.2 1 10.7 2.1 16.4 3.3 19.9 4.1 61 18.7 72.8 23.3 7.4 3 2.6 12.9-3.7 12z"/><path d="M100.2 284.9c.8 39.7-27.8 62.8-36.8 95.9L40 377.3c2.4-6.1 9.7-88 21.9-104.8l.1-.1v-.1c1.4-4.4 32.8-14.5 94.3-30.1h7.6v7l-63.6 32.4c.2 1 .1 2.1-.1 3.3z" fill-rule="evenodd" clip-rule="evenodd" fill="#204391"/><path d="M177.9 307.4l-5.9 18.7c-12.8-3.4-51.1 7.2-99.6-12.9-.3-.1-.5-.4-.5-.8-9-6.4-14-31.1 1.9-37.9 24-10.3 70.4-29.8 79.3-32.3h54.6c5.1 34.6-3.5 50.4-33.1 55.6-4.6.8-9.9 1.8-15.8 3l19.1 6.6z" fill-rule="evenodd" clip-rule="evenodd" fill="#3b59a8"/><path d="M195 312.9c-1.1 0-2 .9-2 2 0 2.9-.5 5-1 6.3-.8 1.6-2.4 3.5-5 5.5l-4.4-.3c-.6-.1-1 .4-1.1 1l-1 28.7c-.7 2-1.5 4.5-2.5 7.6-1.1 3 .9 4.9 5.9 5.7 15.6-32 23.8-48.8 24.7-50.7-2.9-2-5.1-3.5-6.8-4.3-1.4-.7-3.7-1.2-6.8-1.5.1-.1 0 0 0 0zM56.3 399.4c-.5-1-1.6-1.4-2.7-1-2.6 1.2-4.7 1.8-6.2 1.8-1.8 0-4.2-.7-7.1-2l-1.7-4.1c-.2-.5-.8-.7-1.3-.5l-26.2 11.7c-2.1.3-4.7.7-7.9 1s-4 3-2.5 7.8h56.4c.6-3.5.9-6.1.9-7.9 0-1.5-.6-3.7-1.7-6.8 0 .1 0 .1 0 0z" fill="#182a4a" fill-rule="evenodd" clip-rule="evenodd"/><path class="st0" d="M111 219l-29.5 17.4c-7.4 11.6-11.7 16.7-13 15.1-1.9-2.4 1.2-5.1.1-7-1-1.8-7-.8-12.5.5-5.6 1.2-4.3-1.5-3.1-2.9 5.3-4.2 12-8.1 20.3-11.6l28.3-27.6L111 219zm146.7 41.1c1.4 2.9 12 11.7 19.4 16.8 3 2 1.7 4.6.6 5.3-9.1 5.6-15-1-22.9-4.7-8.6-4-7.9 7.3-14.7 4.2 2.1-4.7 7-13.4 4.7-19.2-1-2.5-9.9-30.8-26.6-84.9l21.9-.1c9.8 51.2 15.6 78.7 17.6 82.6z"/><path d="M103.2 232.2c-8.5 2.8-12.5-1.2-14.4 1L77.6 225c2.5-2-2.3-5.3-.7-11.9 4.3-18 74.3-50.8 87.9-99l8.6 1.5c0 57-61.7 113.8-70.2 116.6z" fill-rule="evenodd" clip-rule="evenodd" fill="#d69f2d"/><path d="M158.1 111.7c-.2-2.2 1.5-4.1 3.7-4.3l26.9-1.9c2.2-.2 4.1 1.5 4.3 3.7l.4 5.4c36.4 24.8 58.8 64.9 67.2 120.1 1.9 12.3-5.1 15-4.1 20.5l-14.7 4.1c0-4.1-11.2-5.7-14-16.3-1.7-6.1-3.9-13.4-6.8-21.9-.2 11-2.3 21.2-6.8 29.5-11.2 20.7-76.1-2-82.9-23.1-8.3-25.5 28.5-41.8 27.5-105.5l-.7-10.3z" fill-rule="evenodd" clip-rule="evenodd" fill="#ecc94b"/><path d="M9.1 58.8c7.1 25.7 42.3 41.9 79 21.6 8.3 2.4 25.3 2.5 36.9 1.5-6.4-7-14-16.9-15.9-24.8 3.7-8.2 4.5-17.6 2.1-26.3-6.8-24.6-35.8-36-62.7-28.5C21.6 9.6 2.3 34.1 9.1 58.8z" fill="#a0aec0"/><path d="M75.4 31.2c0 10.9-12.4 9.5-12.4 18.4v3.1h-6.2v-3.4c0-11.5 12-10.3 12-17.7 0-3.8-2.7-5.9-6.9-5.9-3.4 0-6.7 1.5-9.5 4.9l-4.3-3.3c3.9-4.6 8.5-6.8 14.2-6.8 8.7.1 13.1 5.3 13.1 10.7zM64.9 64.5c0 2.7-2 4.8-4.8 4.8-2.7 0-4.7-2.1-4.7-4.8 0-2.6 2-4.7 4.7-4.7 2.8 0 4.8 2.1 4.8 4.7z" fill="#fff"/></svg>