<svg version="1.1" id="Layer_1" xmlns="http://www.w3.org/2000/svg" x="0" y="0" viewBox="0 0 315.7 255.5" xml:space="preserve"><style>.st5{fill-rule:evenodd;clip-rule:evenodd;fill:#79cab3}</style><path d="M45,43.9c-20.3-18.2-54.3,2.8-42.7,32c11.5,29,56.8,28,72.1,42.1c1.4-20.8,35.1-51,23.7-80	C86.5,8.7,47.3,16.7,45,43.9z" fill="#d63f8d"/><circle cx="174.9" cy="161.4" r="94" fill="#e0ecf8"/><path d="M146.6,194h3h51.9h15.8c-0.7,17.1-0.7,34.1,0,51.3c30.6-15.5,51.6-47.3,51.6-83.9c0-51.9-42.1-94-94-94	s-94,42.1-94,94c0,37.6,22.1,70.1,54.1,85.1C138.1,226.6,142,209.3,146.6,194z" fill="none"/><path d="M146.6,194c-4.6,15.3-8.5,32.6-11.6,52.5c8.6,4,17.9,6.8,27.7,8.1c-4.9-19.4-9.2-39.5-13.1-60.6H146.6z" fill="#9c2d2c"/><path d="M217.3,194h-15.8h-51.9c3.9,21.1,8.2,41.2,13.1,60.6c4,0.5,8.1,0.8,12.2,0.8c4.3,0,8.6-0.3,12.8-0.9	c10.5-1.4,20.5-4.6,29.6-9.2C216.6,228.1,216.6,211.1,217.3,194z" fill="#752a2b"/><path class="st5" d="M157.8,46.6c-5.8,10.8-5.1,38.2,2.4,40.1c3,0.8,9.3-1.1,15.8-5l-4.1,28.8h24L187.6,72c4.6-5.4,7.7-12,7.2-19.5 C193.3,31.1,163.6,35.8,157.8,46.6z"/><path d="M168.2,34.7c3.2-0.5,11.7-0.9,13.3-0.9c1,0,2.1,0.2,2.7-0.7c0.5-0.8,0.3-2,0.5-2.9c0.2-1,0.4-2,0.7-3 c0.7-2.9,1.7-5.6,3.2-8.1c2.7-4.8,6.7-8.5,11.8-10.7c5.5-2.4,11.8-3,17.8-2.5c6.4,0.5,12.3,2.6,18.3,4.6c5.8,1.9,11.9,2.7,17.9,1.7 c6.1-0.9,10.7-4.2,15.9-7.4c5.3-3.2,11.3-5.3,17.5-4.8c5.8,0.5,11.2,2.9,16,6.1c4.5,3,8.2,6.6,10.3,11.7c2.3,5.5,2.3,11.5-1.5,16.3 c-5.4,7-15.4,8.8-23.7,8.6c-4.8-0.1-9.5-1-14.1-2.6c-6-2.1-11.3-5.7-16.9-8.7c-2.7-1.4-5.4-2.5-8.3-3.3c-2.8-0.8-5.5-1.1-8.1,0.5 c-2.7,1.8-5.1,3.5-8.1,4.7c-2.9,1.1-6,1.7-9.2,1.6c-6.1,0-12.1-1.9-18-3.2c-4.8-1-10-2.1-14.9-1.1c-2,0.4-5,1.3-5.8,3.4 c12.5,2.3,17.3,17.7,13.8,29c-1.9,6.1-13.3,13.2-17.7,10c-2.8-2-1.1-4.7,0-6.5c2.1-3.4,2.8-7.7-1.1-10.1c-3.4-2-6.9,2.8-7,2.8 c-0.9-0.1-8.9-4.6-14.4-11.2c-5.4,0.3-6.3-3.3-5-6.2C155.7,39.1,163.9,35.4,168.2,34.7L168.2,34.7z" fill-rule="evenodd" clip-rule="evenodd" fill="#ecc94b"/><path class="st5" d="M164.7,30.7l-34.7,19l12.8,13.8L168,40.4l18.4-7.7l-0.1-0.3c-1-1.4-2.5-1.4-3.9-1.3c-1.1,0-2.1,0.1-2.8-0.6 c-1.4-1.5,1.3-6.9,4.1-11.9s-0.2-4.5-1.9-3.8L164.7,30.7z M199.6,57.4l-15.2,8.4l0.9,15.3c0,0,9.9-7.1,18.4-9.5 c10.8-3,15.2-5.3,20.5-12.1c2.8-3.6,5.2-10.9,2.5-13.2c-1-0.9-4.9,1.2-8.8,3.4c-3,1.7-6,3.4-7.9,3.7c-2.5,0.5-2.2-2.8-2-5.4 c0.2-1.9,0.3-3.4-0.6-3C202.8,45.2,199.6,57.4,199.6,57.4L199.6,57.4z" transform="matrix(-1 0 0 1 278 82)"/><path d="M113,45.5c12.1-0.1,28.3-2.7,45.6-13.7l6.8,15.1c-11.9,11.8-28.7,21.6-43.4,21.2 C110.6,67.8,104.6,53.8,113,45.5z" fill-rule="evenodd" clip-rule="evenodd" fill="#222f62" transform="matrix(-1 0 0 1 278 82)"/><path d="M80.3,149.3c-11.6-1.5-22.2-2.9-28.5-1.7c-7.1-22.9-1.2-37.4,4.2-50.7c3.3-8,6.4-15.7,6.4-24.5 C62.4,46.6,83.1,7,86.1,7h27.7c1.2,15.9,6.5,33.2,11.9,50.6c1.2,4.1,2.5,8.1,3.7,12.2c20.2,4.6,64.9-11.4,64.9-11.4 s11.3,23.4,10.5,33.3c-26.1,13.6-48.4,19.7-66.8,20.1c0.6,10.9-0.7,21.3-5.2,30.8C126.8,155.3,101.9,152.1,80.3,149.3L80.3,149.3z" fill-rule="evenodd" clip-rule="evenodd" fill="#204391" transform="matrix(-1 0 0 1 278 82)"/></svg>