<svg baseProfile="tiny" xmlns="http://www.w3.org/2000/svg" viewBox="0 0 20 24"><switch><g><path fill="#3bb395" d="M17.9 9.5c-1.1-3.1-.2-3.6 1.4-5.4C14.6.1 15.6 1 14.5 0c-1.7 1.7-2.8 2.1-5 0-1.1 1-1.9 1.4-2.6 1.4.2.7.5 1.3.7 1.9.4 0 .7-.1 1.1-.3.1-.3.2-.5.6-.7.9-.5 1.9-.2 2.9-.1.6.1 1.3.1 1.8.4l.2.2c.1-.1.2-.1.3-.2l2 1.7c-2.9 3.7 1 7.4 1 11 0 3-2.3 4.2-4.2 4.7-2 .5-2.9.8-3.8 1.5v.3c.1.4.4.8.6 1.1.1.1.2.2.3.4.8-.5 1.5-.8 3.4-1.3 3.6-.9 5.7-3.3 5.7-6.6 0-1.9-.8-3.5-1.6-5.9z"/><path fill="#214192" d="M10 2.6c1.6 1.1 3.5 1 5 .1l2 1.7c-2.9 3.7 1 7.4 1 11 0 3-2.3 4.2-4.2 4.7-2 .5-2.9.8-3.8 1.5-.9-.6-1.8-1-3.8-1.5-1.9-.6-4.2-1.8-4.2-4.7 0-3.6 3.9-7.3 1-11l2-1.7c1.4 1 3.3 1 5-.1zM15 0c-1.7 1.7-2.8 2.1-5 0-2.2 2-3.3 1.8-5 0L.1 4.2c1.7 1.7 2.6 2.3 1.4 5.4-.8 2.3-1.6 4-1.6 5.8C0 18.6 2.1 21 5.7 22c2.6.7 3 1 4.3 2 1.3-1.1 1.7-1.4 4.3-2 3.6-.9 5.7-3.3 5.7-6.6 0-1.8-.7-3.5-1.6-5.8-1.1-3.1-.2-3.6 1.4-5.4C15.1.1 16.1 1 15 0zm-2.4 16L10 14.6 7.4 16l.5-2.9-2.1-2 2.9-.4L10 8l1.3 2.6 2.9.4-2.1 2 .5 3z"/></g></switch></svg>