<svg viewBox="0 0 20 24" xmlns="http://www.w3.org/2000/svg"><path d="M12.8 17.2c-.9.9-1.9 1.3-1.5.2.3-.8.7-1.8 1.3-3.3.5-1.2 0-1.7-.7-1.7-.3.4-.6.8-.9 1.1.1.1 0 .3 0 .4-.2.4-1 2.2-1.5 3.7-.7 2.2 1.6 2.1 3.6.1-.1-.3-.2-.3-.3-.5z" fill="#3bb395"/><path d="M3.5 2H20V0H3C1.3 0 0 1.3 0 3v18c0 1.7 1.3 3 3 3h17V4H3.5c-1.4 0-1.4-2 0-2zM4 6h14v16H4zm5.2 11.4c.5-1.5 1.3-3.2 1.5-3.7.2-.6-.2-.9-1.4.2l-.3-.6c1.4-1.6 4.4-1.9 3.4.5-.6 1.5-1.1 2.5-1.3 3.3-.4 1.1.6.7 1.5-.2.1.2.2.3.3.5-2.1 2-4.4 2.2-3.7 0zm3.9-6.7c-.4.4-1.1.4-1.4 0-.4-.4-.3-1 .1-1.4s1.1-.4 1.4 0c.4.4.3 1-.1 1.4z" fill="#214192"/></svg>