<svg viewBox="0 0 24.5 24.3" xmlns="http://www.w3.org/2000/svg"><path d="M21.1 15.9h2.4c.6 0 1.1-.5 1.1-1s-.5-1-1.1-1H21c-.6 0-1.1-.4-1.2-1.1s.3-1.1.8-1.3l2.2-.9c.5-.2.8-.8.6-1.3-.2-.4-.6-.7-1-.7-.5 0-2.6 1-3 1-.2 0-.5-.1-.6-.4-.2.4-.5.7-1 .6s-.8-.6-1-1.2c-1.3.5-2.8.8-4.3.8-2.1 0-4-.5-5.7-1.5 0 0 0 .1-.1.1.2 1 .1 2.2-.1 3.2-.3 1.8-.7 3.6-.6 5.4.1 1.3.3 2.6.4 4 .6 1 1.5 2 2.8 2.7 2 1.2 4.5 1.2 6.5 0 1.3-.7 2.2-1.8 2.9-2.8.3-.4.6-.5 1-.4l2.6 1.1c.5.2 1.2 0 1.4-.5s0-1.1-.5-1.4l-2.4-1.1c-.5-.2-.9-.7-.8-1.4 0-.5.6-.9 1.2-.9zM14.2 22c-1.1.5-2.4.5-3.5 0-4.4-2-4.3-8.7-3.1-11.4 1.5.6 3.1.9 4.9.9 1.7 0 3.3-.3 4.9-.9 1.2 2.8 1.2 9.4-3.2 11.4z" fill="#3bb395"/><path d="M20.6 15.5H23c.6 0 1.1-.5 1.1-1s-.5-1-1.1-1h-2.4c-.6 0-1.1-.4-1.2-1.1s.3-1.1.8-1.3l2.2-.9c.5-.2.8-.8.6-1.3-.2-.4-.6-.7-1-.7-.5 0-2.6 1-3 1-.3 0-.5-.1-.6-.5l-.6-1.2C16 8.5 14.1 9 12 9s-4-.5-5.7-1.5c-.2.4-.4.7-.6 1.1s-.4.5-.7.5c-.2 0-2.3-.9-2.6-.9-.5-.2-1.1.1-1.3.6s.1 1.1.6 1.3l2.2.9c.5.2.9.7.8 1.3-.1.7-.7 1.1-1.2 1.1H1.1c-.6 0-1.1.5-1.1 1s.5 1 1.1 1h2.4c.6 0 1.2.4 1.3 1.1 0 .7-.3 1.2-.8 1.5l-2.5 1c-.5.3-.7.9-.5 1.4s.9.8 1.4.5L5 19.8c.3-.2.7-.1.9.3.6 1.1 1.6 2.1 2.9 2.9 2 1.2 4.5 1.2 6.5 0 1.3-.7 2.2-1.8 2.9-2.8.3-.4.6-.5 1-.4l2.6 1.1c.5.2 1.2 0 1.4-.5s0-1.1-.5-1.4L20 18c-.5-.2-.9-.7-.8-1.4.2-.8.8-1.1 1.4-1.1zm-10.3 6c-4.4-2-4.3-8.7-3.1-11.4 1.4.6 3.1.9 4.8.9s3.3-.3 4.9-.9c1.2 2.8 1.2 9.4-3.1 11.4-1.2.5-2.5.5-3.5 0zM8.2 2.8c.3.1.6.3.8.5.6 1-.2 1.9-.9 2.8 1.1.6 2.4.9 3.9.9 1.4 0 2.8-.3 4-.8-.7-.9-1.5-1.8-.9-2.8.2-.3.4-.5.8-.5.6-.1 1.1-.7 1.1-1.4 0-.8-.6-1.4-1.4-1.4-.9 0-1.6.9-1.4 1.8.1.3 0 .7-.1 1-.4.7-1.1 1.1-2 1.1s-1.6-.4-2-1.1c-.2-.3-.2-.7-.1-1C10.1.9 9.4 0 8.5 0c-.8 0-1.4.6-1.4 1.4 0 .7.5 1.2 1.1 1.4z" fill="#214192"/></svg>