<svg xmlns="http://www.w3.org/2000/svg" viewBox="0 0 100 100">
  <defs>
    <style>
      .cls-1 {
        fill: #3bb395;
      }

      .cls-2 {
        fill: #214192;
      }
    </style>
  </defs>
  <g id="Group_99" data-name="Group 99" transform="translate(-417 -2493)">
    <g id="Group_80" data-name="Group 80" transform="translate(417 2493)">
      <path id="Path_70" data-name="Path 70" class="cls-1" d="M41.2,151.3H34.3a3.957,3.957,0,0,1-3.8-4.071V85.571A3.956,3.956,0,0,1,34.3,81.5h6.9a3.957,3.957,0,0,1,3.805,4.071v61.654A3.941,3.941,0,0,1,41.2,151.3Z" transform="translate(-23.247 -60.762)"/>
      <path id="Path_71" data-name="Path 71" class="cls-1" d="M37.8,343.45v-7.379A3.956,3.956,0,0,1,41.6,332h76.623a3.956,3.956,0,0,1,3.805,4.071v7.379a3.957,3.957,0,0,1-3.805,4.071H41.6A3.94,3.94,0,0,1,37.8,343.45Z" transform="translate(-28.811 -247.522)"/>
      <path id="Path_72" data-name="Path 72" class="cls-1" d="M341.8,295.781h-6.9a3.956,3.956,0,0,1-3.8-4.071V266.671a3.956,3.956,0,0,1,3.8-4.071h6.9a3.957,3.957,0,0,1,3.805,4.071v25.038A3.94,3.94,0,0,1,341.8,295.781Z" transform="translate(-252.36 -195.781)"/>
      <path id="Path_73" data-name="Path 73" class="cls-2" d="M10.7,94.606H3.8A3.957,3.957,0,0,1,0,90.534V4.071A3.957,3.957,0,0,1,3.8,0h6.9a3.957,3.957,0,0,1,3.8,4.071V90.534A3.941,3.941,0,0,1,10.7,94.606Z"/>
      <path id="Path_74" data-name="Path 74" class="cls-2" d="M69.536,4.071V11.45a3.957,3.957,0,0,1-3.8,4.071H3.8A3.94,3.94,0,0,1,0,11.45V4.071A3.957,3.957,0,0,1,3.8,0H65.731A3.957,3.957,0,0,1,69.536,4.071Z"/>
      <path id="Path_75" data-name="Path 75" class="cls-2" d="M314.605,227.3h6.9a3.956,3.956,0,0,1,3.8,4.071V260a3.956,3.956,0,0,1-3.8,4.071h-6.9A3.957,3.957,0,0,1,310.8,260V231.371A3.941,3.941,0,0,1,314.605,227.3Z" transform="translate(-236.888 -169.463)"/>
      <path id="Path_76" data-name="Path 76" class="cls-2" d="M0,322.25v-7.379A3.957,3.957,0,0,1,3.8,310.8H84.614a3.957,3.957,0,0,1,3.8,4.071v7.379a3.956,3.956,0,0,1-3.8,4.071H3.8A3.956,3.956,0,0,1,0,322.25Z" transform="translate(0 -231.716)"/>
      <path id="Path_77" data-name="Path 77" class="cls-2" d="M147.94,156.772l-5.232,5.6a3.287,3.287,0,0,1-4.851,0L118.5,141.657a3.871,3.871,0,0,1,0-5.191l5.232-5.6a3.287,3.287,0,0,1,4.851,0l19.358,20.712A3.872,3.872,0,0,1,147.94,156.772Z" transform="translate(-89.557 -96.772)"/>
      <path id="Path_78" data-name="Path 78" class="cls-2" d="M182.731,78.618l-5.232-5.6a3.872,3.872,0,0,1,0-5.191l45.945-49.16a3.287,3.287,0,0,1,4.851,0l5.232,5.6a3.872,3.872,0,0,1,0,5.191l-45.945,49.16A3.287,3.287,0,0,1,182.731,78.618Z" transform="translate(-134.526 -13.122)"/>
    </g>
  </g>
</svg>
