<svg enable-background="new 0 0 35.2 35.1" viewBox="0 0 35.2 35.1" xmlns="http://www.w3.org/2000/svg"><g fill="#003bff"><path d="m15.2 24.9h2l4.1-16h-2.1z"/><path d="m6.2 18 8 4v-2.3l-5.6-2.8 5.6-2.7v-2.3l-8 4z"/><path d="m22.2 11.9v2.3l5.7 2.7-5.7 2.8v2.3l8-4v-2.1z"/></g><path d="m.6 5.1h1.4c.3 0 .6.3.6.6v27h28.9v-11.6c0-.3.3-.6.6-.6h1.4c.3 0 .6.3.6.6v13.4c0 .3-.3.6-.6.6h-32.9c-.3 0-.6-.3-.6-.6v-28.8c0-.3.3-.6.6-.6z" fill="#01ddbb"/><path d="m33.3 32.6h-30.2c-.3 0-.6-.3-.6-.6v-30.2c0-.3.3-.6.6-.6h30.3c.3 0 .6.3.6.6v30.3c-.1.3-.3.5-.7.5z" fill="none" stroke="#003bff" stroke-miterlimit="10" stroke-width="2.5"/></svg>