<svg viewBox="0 0 35.2 35.1" xmlns="http://www.w3.org/2000/svg"><path d="M15.2 24.9h2l4.1-16h-2.1zm-9-6.9l8 4v-2.3l-5.6-2.8 5.6-2.7v-2.3l-8 4zm16-6.1v2.3l5.7 2.7-5.7 2.8V22l8-4v-2.1z" fill="#214192"/><path d="M.6 5.1H2c.3 0 .6.3.6.6v27h28.9V21.1c0-.3.3-.6.6-.6h1.4c.3 0 .6.3.6.6v13.4c0 .3-.3.6-.6.6H.6c-.3 0-.6-.3-.6-.6V5.7c0-.3.3-.6.6-.6z" fill="#3bb395"/><path d="M33.3 32.6H3.1c-.3 0-.6-.3-.6-.6V1.8c0-.3.3-.6.6-.6h30.3c.3 0 .6.3.6.6v30.3c-.1.3-.3.5-.7.5z" fill="none" stroke="#214192" stroke-miterlimit="10" stroke-width="2.5"/></svg>