<svg viewBox="0 0 22 24" xmlns="http://www.w3.org/2000/svg"><g clip-rule="evenodd" fill-rule="evenodd"><path d="M4.6 1.6v.9c0 .3.2.6.6.6h14v16.4c0 .3.2.6.6.6h.9c.3 0 .6-.2.6-.6V1.6c0-.3-.2-.6-.6-.6H5.1c-.3.1-.5.3-.5.6z" fill="#3bb395"/><path d="M20.6 22h.9c.3 0 .6.3.6.6v.9c0 .3-.3.6-.6.6H.6c-.3-.1-.6-.4-.6-.7v-.9c0-.2.3-.5.6-.5h.9c.2 0 .5-.3.5-.6V.6c0-.3.3-.6.6-.6h16.9c.2 0 .5.3.5.6v20.9c0 .2.3.5.6.5zM10 19H8v4h2zm4 0h-2v4h2zm4-17H4v20h2v-5h10v5h2zM6 13h2v2H6zm4 0h2v2h-2zm4 0h2v2h-2zm-8-3h2v2H6zm4 0h2v2h-2zm4 0h2v2h-2zM6 7h2v2H6zm4 0h2v2h-2zm4 0h2v2h-2zM6 4h2v2H6zm4 0h2v2h-2zm4 0h2v2h-2z" fill="#214192"/></g></svg>