<svg enable-background="new 0 0 22 24" viewBox="0 0 22 24" xmlns="http://www.w3.org/2000/svg"><g clip-rule="evenodd" fill-rule="evenodd"><path d="m4.6 1.6v.9c0 .3.2.6.6.6h14v16.4c0 .3.2.6.6.6h.9c.3 0 .6-.2.6-.6v-16.4-.6-.9c0-.3-.2-.6-.6-.6h-15.6c-.3.1-.5.3-.5.6z" fill="#01ddbb"/><path d="m20.6 22h.9c.3 0 .6.3.6.6v.9c0 .3-.3.6-.6.6h-20.9c-.3-.1-.6-.4-.6-.7v-.9c0-.2.3-.5.6-.5h.9c.2 0 .5-.3.5-.6v-20.8c0-.3.3-.6.6-.6h16.9c.2 0 .5.3.5.6v20.9c0 .2.3.5.6.5zm-10.6-3h-2v4h2zm4 0h-2v4h2zm4-17h-14v20h2v-5h10v5h2zm-12 11h2v2h-2zm4 0h2v2h-2zm4 0h2v2h-2zm-8-3h2v2h-2zm4 0h2v2h-2zm4 0h2v2h-2zm-8-3h2v2h-2zm4 0h2v2h-2zm4 0h2v2h-2zm-8-3h2v2h-2zm4 0h2v2h-2zm4 0h2v2h-2z" fill="#003bff"/></g></svg>