<svg viewBox="0 0 20 24" xmlns="http://www.w3.org/2000/svg"><path d="M17.4 3.3v15.5c0 1.8-5.1 2.6-8 2.6-3 0-6.8-.8-7.8-2-.3.1-.5.2-.8.4-.1 0-.1.1-.2.1 0 .5.1 1 .1 1.5 2 1.5 5.9 2 8.7 2 3.8 0 10-1 10-4.4V3.3z" fill="#3bb395"/><path d="M10 0C5.8 0 0 1 0 4.4v15.3C0 23 6.2 24 10 24s10-1 10-4.4V4.4C20 1 14 0 10 0zm0 2c3.6 0 8 .9 8 2.4 0 1.6-5.1 2.4-8 2.4-3.4 0-8-.9-8-2.4C2 2.8 6.8 2 10 2zm8 17.4c0 1.8-5.1 2.6-8 2.6-3.4 0-8-1-8-2.6v-2c2.1 1.3 5.2 1.8 8 1.8s5.9-.4 8-1.8zm0-4.9c0 1.8-5.1 2.6-8 2.6-3.4 0-8-1-8-2.6v-2.4c2.1 1.3 5.2 1.8 8 1.8s5.9-.4 8-1.8zm-8-2.6c-3.4 0-8-1-8-2.6V6.9c2.1 1.3 5.2 1.8 8 1.8s5.9-.4 8-1.8v2.4c0 1.8-5.1 2.6-8 2.6z" fill="#214192"/></svg>