<svg viewBox="0 0 100 100" xmlns="http://www.w3.org/2000/svg"><g fill="#00ffd8"><path d="M4.618 16.505v-7.6a4.161 4.161 0 0 1 4.1-4.189h58.855a4.161 4.161 0 0 1 4.1 4.192v7.6a4.161 4.161 0 0 1-4.1 4.192H8.718a4.144 4.144 0 0 1-4.1-4.195z"/><path d="M4.618 41.524v-7.6a4.161 4.161 0 0 1 4.1-4.192h87.173a4.161 4.161 0 0 1 4.1 4.192v7.6a4.161 4.161 0 0 1-4.1 4.192H8.718a4.144 4.144 0 0 1-4.1-4.192z"/><path d="M4.618 69.007v-7.6a4.161 4.161 0 0 1 4.1-4.192H89.4a4.161 4.161 0 0 1 4.1 4.192v7.6a4.161 4.161 0 0 1-4.1 4.192H8.718a4.161 4.161 0 0 1-4.1-4.192z"/><path d="M3.976 95.808v-7.6a4.161 4.161 0 0 1 4.1-4.192h41.821a4.161 4.161 0 0 1 4.1 4.192v7.6a4.161 4.161 0 0 1-4.1 4.192H8.076a4.161 4.161 0 0 1-4.1-4.192z"/></g><path d="M0 11.789v-7.6A4.161 4.161 0 0 1 4.1 0h58.855a4.161 4.161 0 0 1 4.1 4.192v7.6a4.161 4.161 0 0 1-4.1 4.192H4.1A4.144 4.144 0 0 1 0 11.789z" fill="#003bff"/><path d="M0 36.809v-7.6a4.161 4.161 0 0 1 4.1-4.189h87.178a4.161 4.161 0 0 1 4.1 4.192v7.6a4.161 4.161 0 0 1-4.1 4.192H4.1A4.144 4.144 0 0 1 0 36.809z" fill="#003bff"/><path d="M0 64.291v-7.6a4.161 4.161 0 0 1 4.1-4.189h80.687a4.161 4.161 0 0 1 4.1 4.192v7.6a4.161 4.161 0 0 1-4.1 4.192H4.1A4.161 4.161 0 0 1 0 64.291z" fill="#003bff"/><path d="M0 91.747v-7.6a4.161 4.161 0 0 1 4.1-4.189h41.821a4.161 4.161 0 0 1 4.1 4.192v7.6a4.161 4.161 0 0 1-4.1 4.192H4.1A4.161 4.161 0 0 1 0 91.747z" fill="#003bff"/></svg>