<svg viewBox="0 0 100 100" xmlns="http://www.w3.org/2000/svg"><path d="M4.618 16.505v-7.6a4.161 4.161 0 014.1-4.189h58.855a4.161 4.161 0 014.1 4.192v7.6a4.161 4.161 0 01-4.1 4.192H8.718a4.144 4.144 0 01-4.1-4.195zm0 25.019v-7.6a4.161 4.161 0 014.1-4.192h87.173a4.161 4.161 0 014.1 4.192v7.6a4.161 4.161 0 01-4.1 4.192H8.718a4.144 4.144 0 01-4.1-4.192zm0 27.483v-7.6a4.161 4.161 0 014.1-4.192H89.4a4.161 4.161 0 014.1 4.192v7.6a4.161 4.161 0 01-4.1 4.192H8.718a4.161 4.161 0 01-4.1-4.192zm-.642 26.801v-7.6a4.161 4.161 0 014.1-4.192h41.821a4.161 4.161 0 014.1 4.192v7.6a4.161 4.161 0 01-4.1 4.192H8.076a4.161 4.161 0 01-4.1-4.192z" fill="#3bb395"/><path d="M0 11.789v-7.6A4.161 4.161 0 014.1 0h58.855a4.161 4.161 0 014.1 4.192v7.6a4.161 4.161 0 01-4.1 4.192H4.1A4.144 4.144 0 010 11.789zm0 25.02v-7.6a4.161 4.161 0 014.1-4.189h87.178a4.161 4.161 0 014.1 4.192v7.6a4.161 4.161 0 01-4.1 4.192H4.1A4.144 4.144 0 010 36.809zm0 27.482v-7.6a4.161 4.161 0 014.1-4.189h80.687a4.161 4.161 0 014.1 4.192v7.6a4.161 4.161 0 01-4.1 4.192H4.1A4.161 4.161 0 010 64.291zm0 27.456v-7.6a4.161 4.161 0 014.1-4.189h41.821a4.161 4.161 0 014.1 4.192v7.6a4.161 4.161 0 01-4.1 4.192H4.1A4.161 4.161 0 010 91.747z" fill="#214192"/></svg>