<svg viewBox="0 0 35.2 35.2" xmlns="http://www.w3.org/2000/svg"><path d="M1.1 29.4V.6c0-.3.3-.6.6-.6h32.9c.3 0 .6.3.6.6V14c0 .3-.3.6-.6.6h-1.4c-.3 0-.6-.3-.6-.6V2.4H3.7v27c0 .3-.3.6-.6.6H1.7c-.3 0-.6-.3-.6-.6z" fill="#3bb395"/><path d="M32 33.9H1.8c-.3 0-.6-.3-.6-.6V3.1c0-.3.3-.6.6-.6h30.3c.3 0 .6.3.6.6v30.3c0 .3-.2.5-.7.5z" fill="none" stroke="#214192" stroke-miterlimit="10" stroke-width="2.5"/><path d="M22.5 16.1c.2-.7.3-1.3.4-1.8l-3.3-.6c-.1.3-.2.8-.3 1.5-1.2-.2-2.3-.2-3.5-.1 0-.8.1-1.6.1-2.3h3.7V9.6h-3.2c.2-.8.3-1.3.4-1.7l-3.2-1c-.2.8-.4 1.6-.6 2.7H9.3v3.1h3.3c-.1 1-.1 2-.2 3.1-3.6 1.3-5.1 3.8-5.1 6.1 0 2.7 2.1 5.1 5.5 4.8 4.2-.4 7-3.5 8.6-7.4 1.7 1 2.4 2.6 1.8 4.1-.6 1.4-2.3 2.7-5.7 2.7v3.4c3.7.1 7.3-1.3 8.7-4.7s-.2-7-3.7-8.7zm-10 3.4c.1 1.4.3 2.7.5 3.9-3.1.5-3.2-2.4-.5-3.9zm3.6 2.1c-.1-1-.2-2-.3-3.2.8-.1 1.6-.1 2.4-.1-.6 1.2-1.3 2.4-2.1 3.3z" fill="#214192"/></svg>