<svg viewBox="0 0 239.5 280.9" xmlns="http://www.w3.org/2000/svg"><path d="M239.5 0H9.2v69.1h7.2c.1-6.3.5-12.7 2.3-18.8 1-3.3 2.4-6.5 4.5-9.2 1.7-2.2 3.8-4.2 6.3-5.4 1.9-.9 3.9-1.1 5.9-.7 2.1.4 3.9 1.5 5.6 2.8.5.4 1.1.9 1.6 1.3 3.2-2.8 7.4-4.5 12.7-4.5h46.1v194.3c0 8.4-3.6 15.8-9.6 20.2.2 1.3.3 2.5.2 3.8-.1 2.7-.7 5.5-2.2 7.8-1.5 2.2-3.6 3.9-5.8 5.3-2.8 1.6-5.8 2.7-8.8 3.6-2.7.8-5.5 1.5-8.2 2.1v4.8h75.2c-10.9-12.1-17.6-28.1-17.6-45.6 0-21.2 8.7-40.9 23-64.4v-132h46.1c19 0 23.3 21 23.3 34.5h22.8z" fill="#3bb395"/><path d="M184.2 142.7c-28 41.4-46.1 67.4-46.1 92.5 0 25.2 20.6 45.6 46.1 45.6s46.1-20.4 46.1-45.6-18-51.1-46.1-92.5zm-.1 29.5c2.7 4.2 5.9 11.4 5.9 19.1 0 22.5-23 26.2-23 12.5 0-9.4 11.4-23.3 17.1-31.6zm-92 61.1V39h-46c-18.5 0-23 21-23 34.5H0v-69h230.3v69.1h-22.8c0-13.5-4.3-34.5-23.3-34.5h-46.1v131.8c-14.3 23.5-23 43.2-23 64.4 0 17.5 6.7 33.5 17.6 45.6H57.6v-23h11.5c13.5-.1 23-11 23-24.6z" fill="#214192"/></svg>