<svg xmlns="http://www.w3.org/2000/svg" viewBox="0 0 169.248 100">
  <defs>
    <style>
      .cls-1 {
        fill: #3bb395;
      }

      .cls-2 {
        fill: #214192;
      }
    </style>
  </defs>
  <g id="Group_101" data-name="Group 101" transform="translate(-382.001 -3030)">
    <g id="Group_82" data-name="Group 82" transform="translate(382.001 3030.002)">
      <path id="Path_87" data-name="Path 87" class="cls-1" d="M0,39.327V32.414A3.825,3.825,0,0,1,3.814,28.6h115.3a3.825,3.825,0,0,1,3.814,3.814v6.913a3.825,3.825,0,0,1-3.814,3.814H3.814A3.825,3.825,0,0,1,0,39.327Z" transform="translate(0 -21.784)"/>
      <path id="Path_88" data-name="Path 88" class="cls-1" d="M10.727,121.706H3.814A3.825,3.825,0,0,1,0,117.892V32.314A3.825,3.825,0,0,1,3.814,28.5h6.913a3.825,3.825,0,0,1,3.814,3.814v85.578A3.81,3.81,0,0,1,10.727,121.706Z" transform="translate(0 -21.708)"/>
      <path id="Path_89" data-name="Path 89" class="cls-2" d="M37.927,88.629H31.014A3.825,3.825,0,0,1,27.2,84.815v-81A3.825,3.825,0,0,1,31.014,0h6.913a3.825,3.825,0,0,1,3.814,3.814v81A3.825,3.825,0,0,1,37.927,88.629Z" transform="translate(-20.716 -0.002)"/>
      <path id="Path_90" data-name="Path 90" class="cls-2" d="M659.627,88.629h-6.913a3.825,3.825,0,0,1-3.814-3.814v-81A3.825,3.825,0,0,1,652.714,0h6.913a3.825,3.825,0,0,1,3.814,3.814v81A3.81,3.81,0,0,1,659.627,88.629Z" transform="translate(-494.217 -0.002)"/>
      <path id="Path_91" data-name="Path 91" class="cls-2" d="M189.941,3.814v6.913a3.825,3.825,0,0,1-3.814,3.814H31.014A3.825,3.825,0,0,1,27.2,10.727V3.814A3.825,3.825,0,0,1,31.014,0H186.15A3.8,3.8,0,0,1,189.941,3.814Z" transform="translate(-20.716 -0.002)"/>
      <path id="Path_92" data-name="Path 92" class="cls-2" d="M130.5,52.918,113.357,63,96.194,52.918,35.1,16.995c-1.907-1.12-2.718-3.981-1.836-6.365l2.932-7.866C37.076.356,39.365-.669,41.272.451l72.085,42.384Z" transform="translate(-25.062)"/>
      <path id="Path_93" data-name="Path 93" class="cls-2" d="M391.224,23.371,332.7,57.793,315.563,67.876,298.4,57.793l17.139-10.083L385.05,6.851c1.907-1.12,4.172-.1,5.077,2.312l2.932,7.866C393.966,19.414,393.131,22.25,391.224,23.371Z" transform="translate(-227.268 -4.874)"/>
      <path id="Path_94" data-name="Path 94" class="cls-2" d="M27.2,321.527v-6.913a3.825,3.825,0,0,1,3.814-3.814H186.15a3.825,3.825,0,0,1,3.814,3.814v6.913a3.825,3.825,0,0,1-3.814,3.814H31.014A3.81,3.81,0,0,1,27.2,321.527Z" transform="translate(-20.716 -236.714)"/>
    </g>
  </g>
</svg>
