<svg enable-background="new 0 0 25 24.4" viewBox="0 0 25 24.4" xmlns="http://www.w3.org/2000/svg"><path d="m12 .4c-6.6 0-12 5.4-12 12s5.4 12 12 12 12-5.4 12-12-5.4-12-12-12zm0 22c-5.5 0-10-4.5-10-10s4.5-10 10-10 10 4.5 10 10c0 5.6-4.5 10-10 10z" fill="#01ddbb"/><g fill="#003bff"><path d="m13 0c-6.7 0-12 5.4-12 12s5.4 12 12 12 12-5.4 12-12-5.4-12-12-12zm0 22c-5.5 0-10-4.5-10-10s4.5-10 10-10 10 4.5 10 10-4.5 10-10 10z"/><path d="m14.5 15.5c.8 0 1.5-.3 2.1-.6v1.8c-.8.4-1.5.5-2.4.5-2.3 0-3.8-1.3-4.3-3.5h-1.1l.3-1.2h.9v-1h-1.2l.3-1.2h1c.6-2.1 2.2-3.4 4.3-3.4 1.2 0 2.1.4 2.8.8l-.8 1.4c-.6-.4-1.2-.6-1.9-.6-.9 0-1.7.6-2 1.8h3.5l-.3 1.2h-3.3v1h3.1l-.3 1.2h-2.7c.2 1.2.9 1.8 2 1.8z"/></g></svg>