<svg height="56.693" viewBox="0 0 56.693 56.693" width="56.693" xmlns="http://www.w3.org/2000/svg"><path d="M28.347 5.157c-13.6 0-24.625 11.027-24.625 24.625 0 13.6 11.024 24.623 24.625 24.623 13.602 0 24.625-11.023 24.625-24.623 0-13.598-11.024-24.625-24.625-24.625zm6.619 38.969c-1.016 0-6.633-.133-8.068-.133-1.434 0-8.912-2.332-8.912-10.559 0-1.465-.001-2.938-.005-4.404-.006-1.367-.034-2.732-.039-4.09l-.005-1.189c-.01-2.072-.185-4.405.481-6.395.51-1.518 1.716-2.125 3.202-2.125 3.594 0 3.834 3.664 3.844 7.344h10.387c1.645 0 2.873 1.668 2.873 4.221 0 2.551-2.662 3.123-4.055 3.123h-9.32c-.047 1.562-.098 2.834-.098 3.607 0 1.625.635 3.385 4.604 3.385h5.578c1.393 0 3.459 1.055 3.459 4.002 0 2.943-2.913 3.213-3.926 3.213z"/></svg>