<svg viewBox="0 0 23.5 14" xmlns="http://www.w3.org/2000/svg"><path d="M11.8 2.5c-2.7-.4-5 1.9-4.6 4.6.3 1.7 1.6 3.1 3.3 3.3 2.7.4 5-1.9 4.6-4.6-.2-1.6-1.6-3-3.3-3.3z" fill="#3bb395"/><g fill="#214192"><path d="M12.4 3c-2.7-.4-5 1.9-4.6 4.6.2 1.7 1.6 3.1 3.3 3.4 2.7.4 5-1.9 4.6-4.6-.3-1.7-1.7-3.1-3.3-3.4z"/><path d="M23.2 5.9C21.9 4.2 17.9 0 11.7 0 5.7 0 1.6 4.2.3 5.9c-.3.4-.3 1 0 1.4C1.6 9.1 5.9 14 11.7 14 18 14 22 9.1 23.3 7.2c.3-.4.3-.9-.1-1.3zM11.7 12c-4.4 0-7.9-3.5-9.5-5.4C3.8 4.9 7.1 2 11.7 2c4.8 0 8.1 3 9.5 4.6-1.4 1.9-4.7 5.4-9.5 5.4z"/></g></svg>