<svg enable-background="new 0 0 24.1 21.7" viewBox="0 0 24.1 21.7" xmlns="http://www.w3.org/2000/svg"><path d="m15.7 19.2v1.4c0 .2.1.3.3.3h7.9c.2 0 .3-.2.2-.4l-10.4-18.8c-.1-.1-.3-.2-.4-.1l-1.2.7c-.1.1.6 1.6.7 1.7l8.1 15h-4.9c-.2 0-.3.1-.3.2z" fill="#01ddbb"/><path d="m11.8 3.9 8.6 15.8h-17.2s8.6-15.8 8.6-15.8zm-.2-3.8-11.6 21.2c-.1.2 0 .4.2.4h23.1c.2 0 .3-.2.2-.4l-11.4-21.2c-.2-.1-.4-.1-.5 0zm-.8 8.6h2v6h-2zm1 9.7c-.7 0-1.2-.6-1.2-1.2s.6-1.2 1.2-1.2 1.2.6 1.2 1.2-.5 1.2-1.2 1.2z" fill="#003bff"/></svg>