<svg version="1.1" id="Layer_1" xmlns="http://www.w3.org/2000/svg" xmlns:xlink="http://www.w3.org/1999/xlink" x="0" y="0" viewBox="0 0 606.9 716.4" xml:space="preserve"><style>.st0{fill:#2d3748}.st1{fill:#204391}.st4{fill:#9c2d2c}.st7{fill:#3b59a8}.st8{fill:#ccd6e0}.st9{fill:#4a69b2}.st10{fill:#79cab3}.st13{fill:#9cbfe5}</style><path class="st0" d="M427 481.4H273.2V294.2c0-8.8 7.1-15.9 15.9-15.9h122.1c8.8 0 15.9 7.1 15.9 15.9l-.1 187.2zm-94.2 13.2h13.9v166.6h-13.9V494.6z"/><path class="st0" d="M282.7 678.4h-19.2c0-14.8 12-26.8 26.8-26.8h49.4v19.2h-49.4c-4.1-.1-7.6 3.4-7.6 7.6z"/><path class="st0" d="M414.6 678.4l-19-.2c0-4.2-3.3-7.6-7.4-7.6h-38.9v7.8h-19v-26.7h58c14.6 0 26.4 12.1 26.3 26.7zM245.2 478.8h189.6v15.7H245.2v-15.7z"/><path class="st1" d="M478.1 277.3l-13.3 90.2-222.5 9.6-15.9-39.1-3.1-6.7v-29.2s1.8-65.7.8-93.8c-1-28.1 12.2-32.4 12.2-32.4l70.7-46.6c-2.3 10.1 3.8 41.8 6.1 52.7.1.4.1.7.2 1 .4 1.7.6 2.8.6 2.8 4.2 19.9 9.5 41 14.2 58.3.1 23.9 7.2 41.4 11.8 41.4 4.5 0 12-17.1 12.2-40.4 4.7-18.2 9.4-40.3 13.3-60.2s10.6-52.4 9.9-54.9c0 0 25.8 12 57.8 22.8 32 10.8 32.5 29.5 32.5 29.5l12.5 88.3c.3 2.1.3 4.4 0 6.7z"/><path class="st1" d="M313.1 182c-2.2-10.9-8.3-42.6-6.1-52.7-1 11.7 1.8 31.3 6.1 52.7zm25.6 99.5c4.1-4.8 8.8-18.8 13.3-36.4-.1 23.3-7.6 40.4-12.2 40.4s-11.7-17.6-11.8-41.4c5.9 21.7 10.7 37.4 10.7 37.4zm26.6-96.6c5.8-29.9 9.9-54.9 9.9-54.9.8 2.5-9.9 54.9-9.9 54.9z"/><path d="M307.1 129.3l68.2.7-35.3 29.6-32.9-30.3z" fill="#e0ecf8"/><path d="M365.3 184.9l-19.6-19.6-5.6-5.6 4.1-3.4 31.1-26.1c.7 2.3-10 54.7-10 54.7zM340 159.6l-5.6 5.6-20.5 20.5s-.2-1-.6-2.8c-.1-.4-.1-.7-.2-1-2.2-10.9-8.3-42.6-6.1-52.7l29.2 26.8 3.8 3.6z" fill="#bfd8f0"/><path class="st4" d="M344.4 169.1h-8.8c-.7 0-1.2-.6-1.2-1.2v-10.7c0-.7.6-1.2 1.2-1.2h8.8c.7 0 1.2.6 1.2 1.2v10.7c.1.6-.5 1.2-1.2 1.2z"/><path class="st4" d="M352 245.1c-.1 23.3-7.6 40.4-12.2 40.4s-11.7-17.6-11.8-41.4c0-6.3.4-12.6 1.4-18.8 3.9-25.8 4.6-47.5 7.2-56.2.8-2.6 1.8-4.1 3.1-4.1s2.3 1.5 3.1 4.1c2.5 8.7 2.8 30.5 7.4 56.2 1.3 6.6 1.8 13.2 1.8 19.8z"/><path d="M390.2 144.5s14.4 11.2 29.2 15.2 29.2 15.7 29.6 20.5" opacity=".198" fill="none" stroke="#fff" stroke-width="2.131" stroke-linecap="round" stroke-miterlimit="10"/><path d="M424.2 209.5s2 33 8 42.2" opacity=".196" fill="none" stroke="#fff" stroke-width="2.131" stroke-linecap="round" stroke-miterlimit="10"/><path class="st1" d="M471.6 346.1l-21.2 75.2-206.6-30.8-20.4-61.4 248.2 17z"/><path class="st7" d="M246.4 428.5c-2.6 2.1-105.5 23.6-105.5 23.6l-20.1 209h26.1l49.7-174.4 48.5-7.9-10.1 34.7-28.8 164.8h23.6L291.7 524l98.5-42.5 26.9-65.1-173.4-25.9 2.7 38z"/><path class="st1" d="M246.4 428.5l156.5 22.2 14.2-34.4-173.3-25.8 2.6 38z"/><path class="st8" d="M17.8 273.8h506v22.3h-506v-22.3z"/><path class="st8" d="M405.3 295.1h118.6v421.3H405.3V295.1z"/><path class="st9" d="M260.1 244.6h-219c-5.2 0-9.4-4.2-9.5-9.5v-135c0-5.2 4.2-9.4 9.5-9.5H260c5.2 0 9.4 4.2 9.5 9.5v135c0 5.2-4.1 9.4-9.3 9.5h-.1z"/><circle class="st10" cx="150.6" cy="167.7" r="22"/><circle class="st10" cx="174" cy="139.9" r="7.2"/><path class="st9" d="M150.6 225.1s21.5 48.7 36.6 48.7h-36.6v-48.7zm0 0s-21.5 48.7-36.6 48.7h36.6v-48.7z"/><path class="st10" d="M600.5 683.6c-.3 0-.6 0-.9-.1-5.1-.8-10.1-1.8-15.1-3-51.8-13.5-59.8-50.1-69.1-92.5-5.9-26.9-12.5-57.4-31.3-88.2-28.7-47.3-51.8-43.6-97.9-36.2-32 5.2-71.9 11.6-128.1 3.2-33.1-5-59.8-21.7-79.3-49.7-15.3-22-26.2-51-32.4-86.1-10.3-59.1-3.8-114.7-3.5-117.1.4-3.5 3.6-6 7.1-5.6 3.5.4 6 3.6 5.6 7.1-.1.6-6.6 56.3 3.4 113.6 13.2 75 47.1 117.1 100.9 125.1 54.3 8.1 93.1 1.9 124.2-3.2 46.8-7.6 77.7-12.5 110.9 42.2 19.8 32.7 26.7 64.3 32.8 92.1 9.1 41.4 15.6 71.4 59.8 82.9 4.5 1.2 9.2 2.1 13.8 2.8 3.5.5 5.9 3.8 5.4 7.3-.5 3.2-3.2 5.4-6.3 5.4z"/><path class="st9" d="M148.6 702.1c-39.9 0-72.3-17.1-72.3-73.9v-90.6h144.5v90.6c0 68.4-32.3 73.9-72.2 73.9z"/><path class="st7" d="M78.1 535.5c20.4-6.1 82.1-21 141.2-.2 1.3.5 2 1.9 1.5 3.2-.3.7-.9 1.3-1.6 1.5-20 5.9-80.8 20.3-141.1.2-1.3-.4-2-1.8-1.6-3.1.2-.8.8-1.4 1.6-1.6z"/><path d="M86.4 555.2v76.3s-.7 23.6 13.3 27.8L86.4 555.2z" opacity=".201" fill="#fff"/><path class="st1" d="M395.6 68.7l-75.7-18.3 10.6-43.6c1.2-4.7 5.9-7.6 10.7-6.5l55.5 13.4c6.4 1.5 10.3 8 8.8 14.4l-9.9 40.6z"/><path class="st9" d="M413.1 81.4C373.7 73 334.5 63.5 295.6 53c-2.2-.6-2.8-2.6-1.3-4.4 2.5-3 3.7-4.5 6.1-7.5 1.5-1.8 4.2-2.9 6.1-2.5 34.4 8.3 68.9 16.6 103.3 24.9 2.2.8 3.8 2.7 4.3 5 .7 3.7 1.2 5.6 2 9.5.6 2.5-.8 3.9-3 3.4z"/><defs><path id="SVGID_1_" d="M0 409.4c11.5-3.4 73.8-130.3 210.1-135.7 105.5-4.2 121.3 47.2 147.1 56.3.5.2 42.4 69.6-8.8 105.8-30.2 21.4-70 26.9-100.6 48.5-19 13.4 15.1 8.4 0 19.1-27.4 19.4-26.9 34.8-27 35.1-.3.7-.9 1.3-1.6 1.5-20 5.9-80.8 20.3-141.1.2-1.3-.4-2-1.8-1.6-3.1.1-.3 11.2-8.7-4.2-37.9-9.1-17.2-23.7 12.5-33.5-6.2C17.3 452.5-.3 409.5 0 409.4z"/></defs><clipPath id="SVGID_2_"><use xlink:href="#SVGID_1_" overflow="visible"/></clipPath><g clip-path="url(#SVGID_2_)"><path class="st13" d="M151.1 561.6s14.8-207.8-94-162.7c0 0-35.4 11.9-35.4 46.1s47.2 40.7 47.2 40.7 50.1 2 65.6 77.2l16.6-1.3z"/><path d="M145.5 559s-58.2-259.5 92.8-269.2c3.4-.2 6.7-.1 10.1.4 22.2 3.3 108.8 20.1 59.4 77.8-56.4 66-116.5-3-150.6 190.4l-11.7.6z" fill="#79cab3" stroke="#fff" stroke-width="6.861" stroke-miterlimit="10"/><path class="st13" d="M151.1 561.6s9.6-191.6 145.8-195.2c12.5-.5 24.9 3.4 34.8 11.1 6.7 5.3 12.5 12.7 12.5 22.4 0 16.3-17.3 32.6-27.6 40.8-4.2 3.3-9.1 5.5-14.3 6.6-21 4.2-113.4 6.3-130.5 113.7l-20.7.6z"/><path d="M167.9 526.6s42.6-116.2 111.9-115.9m-18.3-70.9S173 333.3 156.3 472m-91.2-33.6s54.5 12 64.1 64.1" fill="none" stroke="#fff" stroke-width="2.287" stroke-miterlimit="10"/></g></svg>