<svg viewBox="0 0 589.062 716.425" xmlns="http://www.w3.org/2000/svg"><path d="m569.9 656.586h-153.8v-187.186a15.9 15.9 0 0 1 15.9-15.9h122.068a15.9 15.9 0 0 1 15.9 15.9v187.19z" fill="#041751" transform="translate(-160.724 -175.161)"/><path d="m315.032 494.559h13.932v166.568h-13.932z" fill="#041751"/><path d="m482.652 1077.2h-49.406a17.261 17.261 0 0 0 -17.246 17.246" fill="none" stroke="#041751" stroke-miterlimit="10" stroke-width="19.181" transform="translate(-160.685 -416.073)"/><path d="m589.9 1094.346a17.068 17.068 0 0 0 -16.878-17.246h-48.422v17.246" fill="none" stroke="#041751" stroke-miterlimit="10" stroke-width="18.992" transform="translate(-202.633 -416.035)"/><path d="m227.39 478.847h189.645v15.712h-189.645z" fill="#041751"/><g fill="#031c97"><path d="m589.6 358.633-13.318 90.219-222.482 9.575-15.834-39.1-3.069-6.69v-29.209s1.78-65.67.8-93.84c-1.043-28.109 12.213-32.405 12.213-32.405l70.7-46.583c-2.271 10.127 3.805 41.8 6.076 52.72.061.368.123.737.184 1.043.368 1.718.552 2.762.552 2.762 4.173 19.946 9.513 41 14.177 58.305.061 23.874 7.181 41.427 11.784 41.427 4.542 0 12.029-17.123 12.152-40.445 4.726-18.167 9.39-40.261 13.318-60.208s10.618-52.413 9.943-54.929c0 0 25.838 12.029 57.814 22.831 32.037 10.8 32.467 29.459 32.467 29.459l12.52 88.255a25.316 25.316 0 0 1 .003 6.813z" transform="translate(-129.359 -81.338)"/><path d="m477.064 263.32c-2.209-10.924-8.347-42.593-6.076-52.72-1.105 11.722 1.718 31.362 6.076 52.72z" transform="translate(-181.734 -81.338)"/><path d="m516.118 435.077c4.112-4.848 8.776-18.78 13.318-36.395-.061 23.322-7.61 40.445-12.152 40.445-4.6 0-11.722-17.553-11.784-41.427 5.831 21.665 10.618 37.377 10.618 37.377z" transform="translate(-195.256 -153.608)"/><path d="m566.2 266.729c5.831-29.889 9.943-54.93 9.943-54.93.736 2.517-9.943 54.93-9.943 54.93z" transform="translate(-218.702 -81.802)"/></g><path d="m471.3 210.6 68.186.736-35.228 29.644z" fill="#dee5ff" transform="translate(-182.046 -81.338)"/><path d="m550.286 266.768-19.64-19.64-5.646-5.646 4.112-3.437 31.117-26.145c.736 2.455-9.943 54.868-9.943 54.868z" fill="#afbeff" transform="translate(-202.788 -81.84)"/><path d="m503.946 240.98-5.646 5.646-20.5 20.5s-.245-.982-.552-2.762c-.061-.368-.123-.675-.184-1.043-2.209-10.924-8.347-42.593-6.076-52.72l29.153 26.759z" fill="#afbeff" transform="translate(-181.734 -81.338)"/><path d="m525.865 267.234h-8.838a1.231 1.231 0 0 1 -1.227-1.228v-10.678a1.231 1.231 0 0 1 1.227-1.227h8.838a1.231 1.231 0 0 1 1.227 1.227v10.679a1.231 1.231 0 0 1 -1.227 1.227z" fill="#af314f" transform="translate(-199.234 -98.14)"/><path d="m529.436 349.07c-.061 23.322-7.61 40.445-12.152 40.445-4.6 0-11.722-17.553-11.784-41.427a118.463 118.463 0 0 1 1.412-18.78c3.928-25.777 4.6-47.5 7.242-56.157.8-2.639 1.841-4.051 3.13-4.051 1.35 0 2.271 1.473 3.069 4.112 2.455 8.715 2.762 30.5 7.365 56.157a105.185 105.185 0 0 1 1.718 19.701z" fill="#af314f" transform="translate(-195.256 -103.934)"/><path d="m606.7 235.4s14.361 11.231 29.214 15.159 29.214 15.712 29.643 20.5" style="fill:none;stroke-miterlimit:10;stroke:#fff;stroke-linecap:round;stroke-width:2.131;opacity:.198" transform="translate(-234.346 -90.917)"/><path d="m662.1 341.4s1.964 33.019 8.04 42.225" style="fill:none;stroke-miterlimit:10;stroke:#fff;stroke-linecap:round;stroke-width:2.131;opacity:.196" transform="translate(-255.745 -131.861)"/><path d="m583.157 553.2-21.235 75.244-206.584-30.81-20.438-61.434z" fill="#031c97" transform="translate(-129.359 -207.105)"/><path d="m293.371 674.252c-2.639 2.148-105.5 23.629-105.5 23.629l-20.071 208.977h26.145l49.713-174.424 48.547-7.856-10.127 34.676-28.846 164.789h23.568l61.865-154.355 98.5-42.532 26.947-65.056-173.38-25.9z" fill="#294aa8" transform="translate(-64.815 -245.731)"/><path d="m370.778 674.29 156.5 22.217 14.239-34.369-173.317-25.838z" fill="#031c97" transform="translate(-142.222 -245.77)"/><path d="m0 273.797h506.026v22.279h-506.026z" fill="#072ff4"/><path d="m387.514 295.094h118.574v421.331h-118.574z" fill="#072ff4"/><path d="m250.972 301.725h-218.92a9.456 9.456 0 0 1 -9.452-9.452v-135.021a9.456 9.456 0 0 1 9.452-9.452h218.92a9.456 9.456 0 0 1 9.452 9.452v135.022a9.378 9.378 0 0 1 -9.452 9.451z" fill="#0931ff" transform="translate(-8.73 -57.081)"/><circle cx="132.812" cy="167.681" fill="#70fbda" r="22.033"/><circle cx="156.196" cy="139.879" fill="#70fbda" r="7.242"/><path d="m216.4 366.7s21.542 48.731 36.579 48.731h-36.579z" fill="#0931ff" transform="translate(-83.588 -141.634)"/><path d="m193.379 366.7s-21.542 48.731-36.579 48.731h36.579z" fill="#0931ff" transform="translate(-60.566 -141.634)"/><path d="m212.713 349.8s-27.413 225.216 109.787 245.763 178.76-49.463 230.542 35.987c48.986 80.833 17.387 157.262 96.487 177.882a143.016 143.016 0 0 0 14.439 2.918" fill="none" stroke="#70fbda" stroke-linecap="round" stroke-miterlimit="10" stroke-width="12.788" transform="translate(-81.3 -135.106)"/><path d="m167.6 1040.382c-39.893 0-72.3-17.123-72.3-73.894v-90.588h144.535v90.649c0 68.37-32.344 73.833-72.235 73.833z" fill="#072ff4" transform="translate(-36.811 -338.319)"/><path d="m137.2 781.234s13.808-193.634-87.581-151.594c0 0-33.019 11.109-33.019 42.962s44 37.929 44 37.929 46.705 1.9 61.128 71.93z" fill="#072ff4" transform="translate(-6.412 -240.891)"/><path d="m198.128 718.582s-54.254-241.812 86.472-250.834a47.93 47.93 0 0 1 9.39.368c20.683 3.069 101.389 18.719 55.359 72.544-52.536 61.5-108.57-2.762-140.362 177.431z" fill="#70fbda" stroke="#fff" stroke-miterlimit="10" stroke-width="6.394" transform="translate(-72.557 -180.633)"/><path d="m213.1 765.9s8.961-178.536 135.881-181.912a50.216 50.216 0 0 1 32.467 10.312c6.26 4.971 11.661 11.845 11.661 20.867 0 15.221-16.141 30.38-25.716 37.99a31.514 31.514 0 0 1 -13.318 6.137c-19.578 3.928-105.686 5.892-121.581 105.992z" fill="#072ff4" transform="translate(-82.313 -225.557)"/><path d="m238.6 759.217s39.709-108.324 104.274-108.017" fill="none" stroke="#fff" stroke-miterlimit="10" stroke-width="2.131" transform="translate(-92.162 -251.525)"/><path d="m318.975 543.573s-82.486-6.015-98.075 123.238" fill="none" stroke="#fff" stroke-miterlimit="10" stroke-width="2.131" transform="translate(-85.326 -209.936)"/><path d="m82.5 693.4s50.817 11.17 59.778 59.778" fill="none" stroke="#fff" stroke-miterlimit="10" stroke-width="2.131" transform="translate(-31.867 -267.826)"/><path d="m111.7 904.6v76.288s-.675 23.568 13.318 27.8z" fill="#fff" opacity=".201" transform="translate(-43.142 -349.405)"/><path d="m97.08 865.647c20.437-6.076 82.118-20.99 141.16-.245a2.491 2.491 0 0 1 -.123 4.726c-20.008 5.892-80.768 20.253-141.1.245a2.471 2.471 0 0 1 .063-4.726z" fill="#0624bb" transform="translate(-36.811 -330.152)"/><path d="m567.874 68.671-75.674-18.289 10.556-43.637a8.862 8.862 0 0 1 10.679-6.506l55.543 13.379a11.912 11.912 0 0 1 8.776 14.361z" fill="#0525c2" transform="translate(-190.119 .015)"/><path d="m568.841 105.743q-59.1-12.612-117.469-28.355c-2.209-.614-2.762-2.578-1.289-4.419 2.455-3.007 3.682-4.48 6.137-7.488 1.473-1.841 4.173-2.946 6.137-2.455q51.643 12.429 103.292 24.918a6.618 6.618 0 0 1 4.3 4.971c.736 3.744 1.227 5.646 2.025 9.452.488 2.394-.924 3.867-3.133 3.376z" fill="#0520a7" transform="translate(-173.533 -24.291)"/></svg>