<svg viewBox="0 0 1920 1080" xmlns="http://www.w3.org/2000/svg" xmlns:xlink="http://www.w3.org/1999/xlink"><clipPath id="a"><path d="m678.5-161.8s-6.77 153.37 106.9 285.8c21.83 25.43 114.7 50.48 206.09 45.38 77.28-5.46 154.19-28.95 272.94 49.27 113 74.44 46.1 273.69 91.9 472.19 22.72 98.48 189.59 183.73 327.9 193.72 61.84 4.47 119.64 1.55 169.86 20.45 127.59 48 209 36.25 342.71 34.79 394.9-4.3 477.7-211.6 477.7-211.6l-508.3-942.4z"/></clipPath><path d="m678.5-161.8s-6.77 153.37 106.9 285.8c21.83 25.43 114.7 50.48 206.09 45.38 77.28-5.46 154.19-28.95 272.94 49.27 113 74.44 46.1 273.69 91.9 472.19 22.72 98.48 189.59 183.73 327.9 193.72 61.84 4.47 119.64 1.55 169.86 20.45 127.59 48 209 36.25 342.71 34.79 394.9-4.3 477.7-211.6 477.7-211.6l-508.3-942.4z" fill="#fff"/><g clip-path="url(#a)"><path d="m1754.07 663.17h-154.79v-187.12a16 16 0 0 1 16-15.9h122.85a16 16 0 0 1 16 15.9v187.12z" fill="#041751"/><path d="m1659.32 676.3h14.02v166.51h-14.02z" fill="#041751"/><path d="m1666.3 842.81h-49.72a17.31 17.31 0 0 0 -17.36 17.24" fill="none" stroke="#041751" stroke-miterlimit="10" stroke-width="19.18"/><path d="m1732 860a17.12 17.12 0 0 0 -17-17.24h-48.7v17.24" fill="none" stroke="#041751" stroke-miterlimit="10" stroke-width="18.99"/><path d="m1571.12 660.59h190.87v15.71h-190.87z" fill="#041751"/><g fill="#031c97"><path d="m1805.47 459.11-13.41 90.19-223.91 9.57-15.94-39.09-3.09-6.69v-29.2s1.8-65.64.81-93.8 12.29-32.4 12.29-32.4l71.16-46.56c-2.29 10.12 3.83 41.78 6.11 52.7.06.37.13.73.19 1 .37 1.72.55 2.76.55 2.76 4.2 19.94 9.58 41 14.27 58.29.06 23.86 7.23 41.41 11.86 41.41s12.11-17.12 12.23-40.43c4.76-18.16 9.45-40.25 13.4-60.19s10.69-52.39 10-54.91c0 0 26 12 58.19 22.82s32.67 29.45 32.67 29.45l12.6 88.23a25 25 0 0 1 .02 6.85z"/><path d="m1639.49 363.83c-2.22-10.92-8.4-42.58-6.11-52.7-1.11 11.71 1.73 31.35 6.11 52.7z"/><path d="m1665.19 463.28c4.14-4.85 8.83-18.77 13.4-36.38-.06 23.31-7.65 40.43-12.23 40.43s-11.79-17.55-11.86-41.41c5.87 21.65 10.69 37.36 10.69 37.36z"/><path d="m1692 366.77c5.87-29.88 10-54.91 10-54.91.75 2.52-10 54.91-10 54.91z"/></g><path d="m1633.38 311.13 68.62.73-35.45 29.64z" fill="#dee5ff"/><path d="m1692 366.77-19.77-19.63-5.68-5.64 4.14-3.44 31.31-26.14c.75 2.46-10 54.85-10 54.85z" fill="#afbeff"/><path d="m1666.55 341.5-5.68 5.64-20.63 20.49s-.25-1-.56-2.76c-.06-.37-.12-.67-.19-1-2.22-10.92-8.4-42.58-6.11-52.7l29.34 26.75z" fill="#afbeff"/><path d="m1671 350.94h-8.9a1.23 1.23 0 0 1 -1.23-1.22v-10.72a1.23 1.23 0 0 1 1.23-1.22h8.9a1.23 1.23 0 0 1 1.23 1.22v10.68a1.23 1.23 0 0 1 -1.23 1.26z" fill="#af314f"/><path d="m1678.59 427c-.06 23.31-7.65 40.43-12.23 40.43s-11.79-17.55-11.86-41.41a118.15 118.15 0 0 1 1.43-18.78c4-25.76 4.63-47.48 7.28-56.13.81-2.64 1.86-4.05 3.15-4.05s2.29 1.47 3.09 4.11c2.47 8.71 2.78 30.49 7.42 56.14a104.84 104.84 0 0 1 1.72 19.69z" fill="#af314f"/><path d="m1717 326.34s14.46 11.23 29.41 15.16 29.4 15.7 29.83 20.49" style="fill:none;stroke-miterlimit:10;stroke:#fff;stroke-linecap:round;stroke-width:2.13;opacity:.2"/><path d="m1751.23 391.38s2 33 8.1 42.21" style="fill:none;stroke-miterlimit:10;stroke:#fff;stroke-linecap:round;stroke-width:2.13;opacity:.2"/><path d="m1799 527.88-21.37 75.22-207.93-30.8-20.57-61.41z" fill="#031c97"/><path d="m1572.29 610.28c-2.66 2.15-106.18 23.62-106.18 23.62l-20.2 208.91h26.31l50-174.37 48.86-7.85-10.2 34.66-29 164.73h23.72l62.27-154.3 99.13-42.51 27.12-65-174.5-25.89z" fill="#294aa8"/><path d="m1572.29 610.28 157.51 22.21 14.33-34.36-174.43-25.83z" fill="#031c97"/><path d="m1342.26 455.61h509.29v22.27h-509.29z" fill="#072ff4"/><path d="m1732.27 476.9h119.34v421.18h-119.34z" fill="#072ff4"/><path d="m1586.06 426.47h-220.33a9.48 9.48 0 0 1 -9.51-9.45v-135a9.48 9.48 0 0 1 9.51-9.45h220.33a9.48 9.48 0 0 1 9.52 9.45v134.98a9.41 9.41 0 0 1 -9.37 9.45z" fill="#0931ff"/><ellipse cx="1475.93" cy="349.53" fill="#70fbda" rx="22.17" ry="22.03"/><ellipse cx="1499.46" cy="321.74" fill="#70fbda" rx="7.29" ry="7.24"/><path d="m1475.93 406.9s21.68 48.71 36.81 48.71h-36.81z" fill="#0931ff"/><path d="m1475.93 406.9s-21.68 48.71-36.81 48.71h36.81z" fill="#0931ff"/><path d="m1474.52 396.53s-27.59 225.14 110.48 245.68 179.91-49.45 232 36c49.3 80.8 17.5 157.21 97.11 177.82a146.5 146.5 0 0 0 14.53 2.92" fill="none" stroke="#70fbda" stroke-linecap="round" stroke-miterlimit="10" stroke-width="12.79"/><path d="m1473.89 883.73c-40.15 0-72.76-17.12-72.76-73.87v-90.56h145.46v90.62c0 68.35-32.59 73.81-72.7 73.81z" fill="#072ff4"/><path d="m1473.89 722.06s13.9-193.56-88.14-151.54c0 0-33.23 11.11-33.23 43s44.28 37.92 44.28 37.92 47 1.89 61.52 71.9z" fill="#072ff4"/><path d="m1468.64 719.67s-54.6-241.73 87-250.75a48.93 48.93 0 0 1 9.45.37c20.82 3.07 102 18.71 55.72 72.52-52.88 61.48-109.27-2.76-141.27 177.37z" fill="#70fbda" stroke="#fff" stroke-miterlimit="10" stroke-width="6.39"/><path d="m1473.89 722.06s9-178.47 136.76-181.84a50.71 50.71 0 0 1 32.67 10.3c6.3 5 11.74 11.84 11.74 20.86 0 15.22-16.24 30.37-25.88 38a31.71 31.71 0 0 1 -13.41 6.13c-19.7 3.93-106.36 5.89-122.36 106z" fill="#072ff4"/><path d="m1489.64 689.42s40-108.28 104.95-108" fill="none" stroke="#fff" stroke-miterlimit="10" stroke-width="2.13"/><path d="m1577.42 515.43s-83-6-98.71 123.19" fill="none" stroke="#fff" stroke-miterlimit="10" stroke-width="2.13"/><path d="m1393.22 607.33s51.15 11.17 60.16 59.76" fill="none" stroke="#fff" stroke-miterlimit="10" stroke-width="2.13"/><path d="m1411.26 736.91v76.26s-.68 23.56 13.41 27.79z" fill="#fff" opacity=".2"/><path d="m1402.92 717.22c20.57-6.08 82.65-21 142.07-.25a2.49 2.49 0 0 1 -.13 4.73c-20.13 5.89-81.28 20.24-142 .24a2.46 2.46 0 0 1 .06-4.72z" fill="#0624bb"/><path d="m1722.45 250.57-76.16-18.28 10.62-43.62a8.93 8.93 0 0 1 10.75-6.51l55.9 13.38a11.89 11.89 0 0 1 8.83 14.35z" fill="#0525c2"/><path d="m1740.12 263.33q-59.49-12.6-118.23-28.34c-2.22-.62-2.78-2.58-1.3-4.42 2.47-3 3.71-4.48 6.18-7.49 1.48-1.84 4.2-2.94 6.18-2.45q52 12.42 104 24.91a6.63 6.63 0 0 1 4.33 5c.74 3.74 1.24 5.64 2 9.45.48 2.36-.94 3.83-3.16 3.34z" fill="#0520a7"/></g></svg>