<svg id="Layer2" xmlns="http://www.w3.org/2000/svg" xmlns:xlink="http://www.w3.org/1999/xlink" viewBox="0 0 1920 1080"><defs><style>.cls-1,.cls-11,.cls-12,.cls-17,.cls-19,.cls-5,.cls-6{fill:none;}.cls-2,.cls-20{fill:#fff;}.cls-3{clip-path:url(#clip-path);}.cls-4{fill:#041751;}.cls-5,.cls-6{stroke:#041751;}.cls-11,.cls-12,.cls-17,.cls-18,.cls-19,.cls-5,.cls-6{stroke-miterlimit:10;}.cls-5{stroke-width:19.18px;}.cls-6{stroke-width:18.99px;}.cls-7{fill:#031c97;}.cls-8{fill:#dee5ff;}.cls-9{fill:#afbeff;}.cls-10{fill:#af314f;}.cls-11,.cls-12,.cls-18,.cls-19{stroke:#fff;}.cls-11,.cls-12,.cls-17{stroke-linecap:round;}.cls-11,.cls-12,.cls-19{stroke-width:2.13px;}.cls-11{opacity:0.2;}.cls-11,.cls-12,.cls-20{isolation:isolate;}.cls-12{opacity:0.2;}.cls-13{fill:#294aa8;}.cls-14{fill:#072ff4;}.cls-15{fill:#0931ff;}.cls-16,.cls-18{fill:#70fbda;}.cls-17{stroke:#70fbda;stroke-width:12.79px;}.cls-18{stroke-width:6.39px;}.cls-20{opacity:0.2;}.cls-21{fill:#0624bb;}.cls-22{fill:#0525c2;}.cls-23{fill:#0520a7;}</style><clipPath id="clip-path"><path class="cls-1" d="M678.5-161.8S671.73-8.43,785.4,124c21.83,25.43,114.7,50.48,206.09,45.38,77.28-5.46,154.19-28.95,272.94,49.27,113,74.44,46.1,273.69,91.9,472.19,22.72,98.48,189.59,183.73,327.9,193.72,61.84,4.47,119.64,1.55,169.86,20.45,127.59,48,209,36.25,342.71,34.79,394.9-4.3,477.7-211.6,477.7-211.6L2166.2-214.2Z"/></clipPath></defs><title>wave-bg</title><path class="cls-2" d="M678.5-161.8S671.73-8.43,785.4,124c21.83,25.43,114.7,50.48,206.09,45.38,77.28-5.46,154.19-28.95,272.94,49.27,113,74.44,46.1,273.69,91.9,472.19,22.72,98.48,189.59,183.73,327.9,193.72,61.84,4.47,119.64,1.55,169.86,20.45,127.59,48,209,36.25,342.71,34.79,394.9-4.3,477.7-211.6,477.7-211.6L2166.2-214.2Z"/><g class="cls-3"><g id="Group_98" data-name="Group 98"><g id="Group_63" data-name="Group 63"><g id="Group_57" data-name="Group 57"><path id="Path_95" data-name="Path 95" class="cls-4" d="M1754.07,663.17H1599.28V476.05a16,16,0,0,1,16-15.9h122.85a16,16,0,0,1,16,15.9h0V663.17Z"/><rect id="Rectangle_120" data-name="Rectangle 120" class="cls-4" x="1659.32" y="676.3" width="14.02" height="166.51"/><path id="Path_96" data-name="Path 96" class="cls-5" d="M1666.3,842.81h-49.72a17.31,17.31,0,0,0-17.36,17.24h0"/><path id="Path_97" data-name="Path 97" class="cls-6" d="M1732,860h0a17.12,17.12,0,0,0-17-17.24H1666.3V860"/><rect id="Rectangle_121" data-name="Rectangle 121" class="cls-4" x="1571.12" y="660.59" width="190.87" height="15.71"/></g><path id="Path_98" data-name="Path 98" class="cls-7" d="M1805.47,459.11l-13.41,90.19-223.91,9.57-15.94-39.09-3.09-6.69v-29.2s1.8-65.64.81-93.8,12.29-32.4,12.29-32.4l71.16-46.56c-2.29,10.12,3.83,41.78,6.11,52.7.06.37.13.73.19,1,.37,1.72.55,2.76.55,2.76,4.2,19.94,9.58,41,14.27,58.29.06,23.86,7.23,41.41,11.86,41.41s12.11-17.12,12.23-40.43c4.76-18.16,9.45-40.25,13.4-60.19h0s10.69-52.39,10-54.91c0,0,26,12,58.19,22.82s32.67,29.45,32.67,29.45l12.6,88.23A25,25,0,0,1,1805.47,459.11Z"/><path id="Path_99" data-name="Path 99" class="cls-7" d="M1639.49,363.83c-2.22-10.92-8.4-42.58-6.11-52.7C1632.27,322.84,1635.11,342.48,1639.49,363.83Z"/><path id="Path_100" data-name="Path 100" class="cls-7" d="M1665.19,463.28c4.14-4.85,8.83-18.77,13.4-36.38-.06,23.31-7.65,40.43-12.23,40.43s-11.79-17.55-11.86-41.41C1660.37,447.57,1665.19,463.28,1665.19,463.28Z"/><path id="Path_101" data-name="Path 101" class="cls-7" d="M1692,366.77h0c5.87-29.88,10-54.91,10-54.91C1702.75,314.38,1692,366.77,1692,366.77Z"/><path id="Path_102" data-name="Path 102" class="cls-8" d="M1633.38,311.13l68.62.73-35.45,29.64Z"/><path id="Path_103" data-name="Path 103" class="cls-9" d="M1692,366.77h0l-19.77-19.63-5.68-5.64,4.14-3.44L1702,311.92C1702.75,314.38,1692,366.77,1692,366.77Z"/><path id="Path_104" data-name="Path 104" class="cls-9" d="M1666.55,341.5l-5.68,5.64-20.63,20.49s-.25-1-.56-2.76c-.06-.37-.12-.67-.19-1-2.22-10.92-8.4-42.58-6.11-52.7l29.34,26.75Z"/><path id="Path_105" data-name="Path 105" class="cls-10" d="M1671,350.94h-8.9a1.23,1.23,0,0,1-1.23-1.22V339a1.23,1.23,0,0,1,1.23-1.22h8.9a1.23,1.23,0,0,1,1.23,1.22v10.68A1.23,1.23,0,0,1,1671,350.94Z"/><path id="Path_106" data-name="Path 106" class="cls-10" d="M1678.59,427c-.06,23.31-7.65,40.43-12.23,40.43s-11.79-17.55-11.86-41.41a118.15,118.15,0,0,1,1.43-18.78c4-25.76,4.63-47.48,7.28-56.13.81-2.64,1.86-4.05,3.15-4.05s2.29,1.47,3.09,4.11c2.47,8.71,2.78,30.49,7.42,56.14A104.84,104.84,0,0,1,1678.59,427Z"/><path id="Path_107" data-name="Path 107" class="cls-11" d="M1717,326.34s14.46,11.23,29.41,15.16,29.4,15.7,29.83,20.49"/><path id="Path_108" data-name="Path 108" class="cls-12" d="M1751.23,391.38s2,33,8.1,42.21"/><path id="Path_109" data-name="Path 109" class="cls-7" d="M1799,527.88l-21.37,75.22L1569.7,572.3l-20.57-61.41Z"/><path id="Path_110" data-name="Path 110" class="cls-13" d="M1572.29,610.28c-2.66,2.15-106.18,23.62-106.18,23.62l-20.2,208.91h26.31l50-174.37,48.86-7.85-10.2,34.66-29,164.73h23.72l62.27-154.3L1717,663.17l27.12-65-174.5-25.89Z"/><path id="Path_111" data-name="Path 111" class="cls-7" d="M1572.29,610.28l157.51,22.21,14.33-34.36L1569.7,572.3Z"/><g id="Group_58" data-name="Group 58"><rect id="Rectangle_122" data-name="Rectangle 122" class="cls-14" x="1342.26" y="455.61" width="509.29" height="22.27"/><rect id="Rectangle_123" data-name="Rectangle 123" class="cls-14" x="1732.27" y="476.9" width="119.34" height="421.18"/></g><g id="Group_59" data-name="Group 59"><path id="Path_112" data-name="Path 112" class="cls-15" d="M1586.06,426.47H1365.73a9.48,9.48,0,0,1-9.51-9.45v-135a9.48,9.48,0,0,1,9.51-9.45h220.33a9.48,9.48,0,0,1,9.52,9.45V417a9.41,9.41,0,0,1-9.37,9.45Z"/><ellipse id="Ellipse_16" data-name="Ellipse 16" class="cls-16" cx="1475.93" cy="349.53" rx="22.17" ry="22.03"/><ellipse id="Ellipse_17" data-name="Ellipse 17" class="cls-16" cx="1499.46" cy="321.74" rx="7.29" ry="7.24"/><path id="Path_113" data-name="Path 113" class="cls-15" d="M1475.93,406.9s21.68,48.71,36.81,48.71h-36.81Z"/><path id="Path_114" data-name="Path 114" class="cls-15" d="M1475.93,406.9s-21.68,48.71-36.81,48.71h36.81Z"/><path id="Path_115" data-name="Path 115" class="cls-17" d="M1474.52,396.53S1446.93,621.67,1585,642.21s179.91-49.45,232,36c49.3,80.8,17.5,157.21,97.11,177.82a146.5,146.5,0,0,0,14.53,2.92"/></g><g id="Group_61" data-name="Group 61"><path id="Path_120" data-name="Path 120" class="cls-14" d="M1473.89,883.73h0c-40.15,0-72.76-17.12-72.76-73.87V719.3h145.46v90.62C1546.59,878.27,1514,883.73,1473.89,883.73Z"/><path id="Path_121" data-name="Path 121" class="cls-14" d="M1473.89,722.06s13.9-193.56-88.14-151.54c0,0-33.23,11.11-33.23,43s44.28,37.92,44.28,37.92,47,1.89,61.52,71.9Z"/><path id="Path_122" data-name="Path 122" class="cls-18" d="M1468.64,719.67s-54.6-241.73,87-250.75a48.93,48.93,0,0,1,9.45.37c20.82,3.07,102,18.71,55.72,72.52-52.88,61.48-109.27-2.76-141.27,177.37Z"/><path id="Path_123" data-name="Path 123" class="cls-14" d="M1473.89,722.06s9-178.47,136.76-181.84a50.71,50.71,0,0,1,32.67,10.3c6.3,5,11.74,11.84,11.74,20.86,0,15.22-16.24,30.37-25.88,38a31.71,31.71,0,0,1-13.41,6.13c-19.7,3.93-106.36,5.89-122.36,106Z"/><path id="Path_124" data-name="Path 124" class="cls-19" d="M1489.64,689.42s40-108.28,104.95-108"/><path id="Path_125" data-name="Path 125" class="cls-19" d="M1577.42,515.43s-83-6-98.71,123.19"/><path id="Path_126" data-name="Path 126" class="cls-19" d="M1393.22,607.33s51.15,11.17,60.16,59.76"/><path id="Path_127" data-name="Path 127" class="cls-20" d="M1411.26,736.91v76.26s-.68,23.56,13.41,27.79Z"/><g id="Group_60" data-name="Group 60"><path id="Path_128" data-name="Path 128" class="cls-21" d="M1402.92,717.22c20.57-6.08,82.65-21,142.07-.25a2.49,2.49,0,0,1-.13,4.73c-20.13,5.89-81.28,20.24-142,.24a2.46,2.46,0,0,1,.06-4.72Z"/></g></g><path id="Path_129" data-name="Path 129" class="cls-22" d="M1722.45,250.57l-76.16-18.28,10.62-43.62a8.93,8.93,0,0,1,10.75-6.51l55.9,13.38a11.89,11.89,0,0,1,8.83,14.35Z"/><g id="Group_62" data-name="Group 62"><path id="Path_130" data-name="Path 130" class="cls-23" d="M1740.12,263.33q-59.49-12.6-118.23-28.34c-2.22-.62-2.78-2.58-1.3-4.42,2.47-3,3.71-4.48,6.18-7.49,1.48-1.84,4.2-2.94,6.18-2.45q52,12.42,104,24.91a6.63,6.63,0,0,1,4.33,5c.74,3.74,1.24,5.64,2,9.45C1743.76,262.35,1742.34,263.82,1740.12,263.33Z"/></g></g></g></g></svg>