<svg xmlns:xlink="http://www.w3.org/1999/xlink" width="739.558" height="273.018" viewBox="0 0 554.669 204.763" xmlns="http://www.w3.org/2000/svg"><defs><style>*{stroke-linejoin:round;stroke-linecap:butt}</style></defs><g id="figure_1"><path d="M 0 204.763287 L 554.668538 204.763287 L 554.668538 0 L 0 0 L 0 204.763287 z" fill="none" id="patch_1"/><g id="axes_1"><path d="M 197.548538 172.9728 L 554.668538 172.9728 L 554.668538 -0 L 197.548538 -0 L 197.548538 172.9728 z" fill="none" id="patch_2"/><g id="matplotlib.axis_1"><g id="xtick_1"><path d="M 197.548538 172.9728 L 197.548538 -0" clip-path="url(#p361f1cac03)" fill="none" stroke="#fff" stroke-width=".8" stroke-linecap="round" id="line2d_1"/><g transform="matrix(.0968 0 0 -.0968 194.848 188.533)" fill="#262626" id="text_1"><defs><path id="FiraGO-Regular-30" d="M 1786 4346 C 826 4346 352 3558 352 2138 C 352 717 826 -77 1786 -77 C 2746 -77 3219 717 3219 2138 C 3219 3552 2746 4346 1786 4346 z M 1786 3878 C 2317 3878 2605 3392 2605 2138 C 2605 877 2317 390 1786 390 C 1248 390 966 877 966 2138 C 966 3392 1248 3878 1786 3878 z" transform="scale(.01563)"/></defs><use xlink:href="#FiraGO-Regular-30"/></g></g><g id="xtick_2"><path d="M 244.047811 172.9728 L 244.047811 -0" clip-path="url(#p361f1cac03)" fill="none" stroke="#fff" stroke-width=".8" stroke-linecap="round" id="line2d_2"/><g transform="matrix(.0968 0 0 -.0968 232.665 188.533)" fill="#262626" id="text_2"><defs><path id="FiraGO-Regular-32" d="M 1459 4346 C 922 4346 506 4128 160 3699 L 544 3392 C 832 3718 1069 3859 1427 3859 C 1843 3859 2131 3597 2131 3149 C 2131 2451 1760 2042 250 467 L 250 0 L 2778 0 L 2848 493 L 922 493 C 2234 1805 2746 2374 2746 3174 C 2746 3840 2246 4346 1459 4346 z" transform="scale(.01563)"/><path id="FiraGO-Regular-2c" d="M 762 813 C 512 813 320 614 320 371 C 320 218 390 83 499 0 L 243 -1062 L 666 -1062 L 1094 -83 C 1178 102 1210 230 1210 371 C 1210 614 1018 813 762 813 z" transform="scale(.01563)"/><path id="FiraGO-Regular-35" d="M 2771 4282 L 454 4282 L 454 2125 L 915 2125 C 1120 2221 1293 2272 1523 2272 C 1965 2272 2304 2042 2304 1382 C 2304 755 1965 403 1427 403 C 1056 403 781 538 512 806 L 166 467 C 499 128 890 -77 1434 -77 C 2323 -77 2918 518 2918 1370 C 2918 2221 2426 2726 1702 2726 C 1472 2726 1242 2675 1018 2560 L 1018 3821 L 2688 3821 L 2771 4282 z" transform="scale(.01563)"/></defs><use xlink:href="#FiraGO-Regular-32"/><use xlink:href="#FiraGO-Regular-2c" x="49.5"/><use xlink:href="#FiraGO-Regular-35" x="73.5"/><use xlink:href="#FiraGO-Regular-30" x="123.6"/><use xlink:href="#FiraGO-Regular-30" x="179.4"/></g></g><g id="xtick_3"><path d="M 290.547084 172.9728 L 290.547084 -0" clip-path="url(#p361f1cac03)" fill="none" stroke="#fff" stroke-width=".8" stroke-linecap="round" id="line2d_3"/><g transform="matrix(.0968 0 0 -.0968 278.86 188.533)" fill="#262626" id="text_3"><use xlink:href="#FiraGO-Regular-35"/><use xlink:href="#FiraGO-Regular-2c" x="50.1"/><use xlink:href="#FiraGO-Regular-30" x="74.1"/><use xlink:href="#FiraGO-Regular-30" x="129.9"/><use xlink:href="#FiraGO-Regular-30" x="185.7"/></g></g><g id="xtick_4"><path d="M 337.046358 172.9728 L 337.046358 -0" clip-path="url(#p361f1cac03)" fill="none" stroke="#fff" stroke-width=".8" stroke-linecap="round" id="line2d_4"/><g transform="matrix(.0968 0 0 -.0968 325.91 188.533)" fill="#262626" id="text_4"><defs><path id="FiraGO-Regular-37" d="M 2650 4282 L 160 4282 L 160 3802 L 2054 3802 L 512 115 L 1050 -64 L 2650 3840 L 2650 4282 z" transform="scale(.01563)"/></defs><use xlink:href="#FiraGO-Regular-37"/><use xlink:href="#FiraGO-Regular-2c" x="44.4"/><use xlink:href="#FiraGO-Regular-35" x="68.4"/><use xlink:href="#FiraGO-Regular-30" x="118.5"/><use xlink:href="#FiraGO-Regular-30" x="174.3"/></g></g><g id="xtick_5"><path d="M 383.545631 172.9728 L 383.545631 -0" clip-path="url(#p361f1cac03)" fill="none" stroke="#fff" stroke-width=".8" stroke-linecap="round" id="line2d_5"/><g transform="matrix(.0968 0 0 -.0968 369.486 188.533)" fill="#262626" id="text_5"><defs><path id="FiraGO-Regular-31" d="M 2067 4282 L 1549 4282 L 224 3462 L 480 3046 L 1478 3654 L 1478 0 L 2067 0 L 2067 4282 z" transform="scale(.01563)"/></defs><use xlink:href="#FiraGO-Regular-31"/><use xlink:href="#FiraGO-Regular-30" x="43.3"/><use xlink:href="#FiraGO-Regular-2c" x="99.1"/><use xlink:href="#FiraGO-Regular-30" x="123.1"/><use xlink:href="#FiraGO-Regular-30" x="178.9"/><use xlink:href="#FiraGO-Regular-30" x="234.7"/></g></g><g id="xtick_6"><path d="M 430.044905 172.9728 L 430.044905 -0" clip-path="url(#p361f1cac03)" fill="none" stroke="#fff" stroke-width=".8" stroke-linecap="round" id="line2d_6"/><g transform="matrix(.0968 0 0 -.0968 416.566 188.533)" fill="#262626" id="text_6"><use xlink:href="#FiraGO-Regular-31"/><use xlink:href="#FiraGO-Regular-32" x="43.3"/><use xlink:href="#FiraGO-Regular-2c" x="92.8"/><use xlink:href="#FiraGO-Regular-35" x="116.8"/><use xlink:href="#FiraGO-Regular-30" x="166.9"/><use xlink:href="#FiraGO-Regular-30" x="222.7"/></g></g><g id="xtick_7"><path d="M 476.544178 172.9728 L 476.544178 -0" clip-path="url(#p361f1cac03)" fill="none" stroke="#fff" stroke-width=".8" stroke-linecap="round" id="line2d_7"/><g transform="matrix(.0968 0 0 -.0968 462.76 188.533)" fill="#262626" id="text_7"><use xlink:href="#FiraGO-Regular-31"/><use xlink:href="#FiraGO-Regular-35" x="43.3"/><use xlink:href="#FiraGO-Regular-2c" x="93.4"/><use xlink:href="#FiraGO-Regular-30" x="117.4"/><use xlink:href="#FiraGO-Regular-30" x="173.2"/><use xlink:href="#FiraGO-Regular-30" x="229"/></g></g><g id="xtick_8"><path d="M 523.043452 172.9728 L 523.043452 -0" clip-path="url(#p361f1cac03)" fill="none" stroke="#fff" stroke-width=".8" stroke-linecap="round" id="line2d_8"/><g transform="matrix(.0968 0 0 -.0968 509.811 188.533)" fill="#262626" id="text_8"><use xlink:href="#FiraGO-Regular-31"/><use xlink:href="#FiraGO-Regular-37" x="43.3"/><use xlink:href="#FiraGO-Regular-2c" x="87.7"/><use xlink:href="#FiraGO-Regular-35" x="111.7"/><use xlink:href="#FiraGO-Regular-30" x="161.8"/><use xlink:href="#FiraGO-Regular-30" x="217.6"/></g></g><g transform="matrix(.1056 0 0 -.1056 338.361 202.514)" fill="#262626" id="text_9"><defs><path id="FiraGO-Regular-6e" d="M 2176 3450 C 1734 3450 1376 3219 1146 2874 L 1094 3373 L 589 3373 L 589 0 L 1178 0 L 1178 2394 C 1402 2752 1658 2989 2035 2989 C 2362 2989 2566 2842 2566 2336 L 2566 0 L 3155 0 L 3155 2419 C 3155 3059 2797 3450 2176 3450 z" transform="scale(.01563)"/><path id="FiraGO-Regular-75" d="M 3091 3373 L 2502 3373 L 2502 966 C 2298 627 2022 384 1658 384 C 1293 384 1139 557 1139 1018 L 1139 3373 L 550 3373 L 550 954 C 550 294 902 -77 1491 -77 C 1971 -77 2285 115 2541 525 L 2586 0 L 3091 0 L 3091 3373 z" transform="scale(.01563)"/><path id="FiraGO-Regular-6d" d="M 3974 3450 C 3520 3450 3213 3206 2970 2842 C 2842 3226 2534 3450 2118 3450 C 1677 3450 1370 3219 1146 2880 L 1094 3373 L 589 3373 L 589 0 L 1178 0 L 1178 2394 C 1402 2752 1606 2989 1971 2989 C 2227 2989 2445 2842 2445 2336 L 2445 0 L 3034 0 L 3034 2394 C 3264 2752 3462 2989 3827 2989 C 4083 2989 4301 2842 4301 2336 L 4301 0 L 4890 0 L 4890 2419 C 4890 3053 4525 3450 3974 3450 z" transform="scale(.01563)"/><path id="FiraGO-Regular-62" d="M 2131 3450 C 1722 3450 1408 3264 1178 2950 L 1178 4800 L 589 4730 L 589 0 L 1107 0 L 1165 371 C 1395 90 1690 -77 2061 -77 C 2880 -77 3386 634 3386 1690 C 3386 2816 2893 3450 2131 3450 z M 1920 390 C 1619 390 1350 576 1178 845 L 1178 2458 C 1350 2726 1594 2982 1965 2982 C 2438 2982 2752 2650 2752 1690 C 2752 768 2413 390 1920 390 z" transform="scale(.01563)"/><path id="FiraGO-Regular-65" d="M 3155 1786 C 3155 2816 2675 3450 1766 3450 C 896 3450 365 2701 365 1651 C 365 582 915 -77 1856 -77 C 2323 -77 2701 83 3034 346 L 2778 698 C 2483 493 2234 403 1901 403 C 1414 403 1050 704 992 1485 L 3142 1485 C 3149 1562 3155 1670 3155 1786 z M 2573 1920 L 992 1920 C 1037 2669 1331 2982 1779 2982 C 2310 2982 2573 2618 2573 1958 L 2573 1920 z" transform="scale(.01563)"/><path id="FiraGO-Regular-72" d="M 2054 3450 C 1645 3450 1331 3194 1152 2688 L 1094 3373 L 589 3373 L 589 0 L 1178 0 L 1178 1926 C 1318 2573 1562 2874 1984 2874 C 2106 2874 2176 2861 2278 2835 L 2387 3411 C 2285 3437 2163 3450 2054 3450 z" transform="scale(.01563)"/><path id="FiraGO-Regular-6f" d="M 1875 3450 C 915 3450 365 2726 365 1683 C 365 614 909 -77 1869 -77 C 2822 -77 3373 646 3373 1690 C 3373 2758 2835 3450 1875 3450 z M 1875 2976 C 2432 2976 2739 2566 2739 1690 C 2739 806 2432 397 1869 397 C 1306 397 998 806 998 1683 C 998 2566 1312 2976 1875 2976 z" transform="scale(.01563)"/><path id="FiraGO-Regular-66" d="M 1754 4326 C 1926 4326 2125 4294 2342 4198 L 2528 4627 C 2259 4742 2042 4800 1722 4800 C 1037 4800 666 4397 666 3834 L 666 3373 L 64 3373 L 64 2918 L 666 2918 L 666 0 L 1254 0 L 1254 2918 L 2010 2918 L 2074 3373 L 1254 3373 L 1254 3840 C 1254 4166 1382 4326 1754 4326 z" transform="scale(.01563)"/><path id="FiraGO-Regular-61" d="M 2880 787 L 2880 2330 C 2880 3034 2509 3450 1696 3450 C 1318 3450 947 3373 531 3219 L 678 2790 C 1024 2906 1338 2970 1587 2970 C 2054 2970 2291 2790 2291 2304 L 2291 2054 L 1773 2054 C 832 2054 288 1664 288 941 C 288 339 691 -77 1363 -77 C 1773 -77 2131 77 2368 429 C 2470 96 2688 -38 3027 -77 L 3162 333 C 2989 397 2880 493 2880 787 z M 1498 365 C 1114 365 915 576 915 973 C 915 1434 1229 1664 1850 1664 L 2291 1664 L 2291 890 C 2099 538 1843 365 1498 365 z" transform="scale(.01563)"/><path id="FiraGO-Regular-70" d="M 2138 3450 C 1754 3450 1389 3264 1139 2918 L 1094 3373 L 589 3373 L 589 -1363 L 1178 -1293 L 1178 307 C 1395 45 1696 -77 2061 -77 C 2931 -77 3386 666 3386 1690 C 3386 2752 3034 3450 2138 3450 z M 1920 403 C 1613 403 1350 550 1178 813 L 1178 2458 C 1357 2726 1632 2982 1990 2982 C 2496 2982 2752 2566 2752 1690 C 2752 806 2458 403 1920 403 z" transform="scale(.01563)"/><path id="FiraGO-Regular-73" d="M 1523 3450 C 826 3450 307 3059 307 2522 C 307 2048 595 1734 1325 1542 C 1978 1370 2144 1242 2144 909 C 2144 589 1862 397 1421 397 C 1056 397 742 518 474 723 L 160 365 C 454 109 864 -77 1434 -77 C 2118 -77 2765 243 2765 947 C 2765 1536 2355 1818 1645 1997 C 1101 2138 922 2266 922 2541 C 922 2810 1158 2982 1542 2982 C 1856 2982 2118 2886 2419 2694 L 2669 3066 C 2349 3309 1997 3450 1523 3450 z" transform="scale(.01563)"/></defs><use xlink:href="#FiraGO-Regular-6e"/><use xlink:href="#FiraGO-Regular-75" x="57.9"/><use xlink:href="#FiraGO-Regular-6d" x="115.4"/><use xlink:href="#FiraGO-Regular-62" x="200.4"/><use xlink:href="#FiraGO-Regular-65" x="259"/><use xlink:href="#FiraGO-Regular-72" x="313.4"/><use xlink:href="#FiraGO-Regular-20" x="351.7"/><use xlink:href="#FiraGO-Regular-6f" x="378.2"/><use xlink:href="#FiraGO-Regular-66" x="436.6"/><use xlink:href="#FiraGO-Regular-20" x="470.1"/><use xlink:href="#FiraGO-Regular-61" x="496.6"/><use xlink:href="#FiraGO-Regular-70" x="551"/><use xlink:href="#FiraGO-Regular-70" x="609.6"/><use xlink:href="#FiraGO-Regular-73" x="668.2"/></g></g><g id="matplotlib.axis_2"><g id="ytick_1"><path d="M 197.548538 17.112282 L 554.668538 17.112282" clip-path="url(#p361f1cac03)" fill="none" stroke="#fff" stroke-width=".8" stroke-linecap="round" id="line2d_9"/><g transform="matrix(.0968 0 0 -.0968 149.917 20.887)" fill="#262626" id="text_10"><defs><path id="FiraGO-Regular-41" d="M 2989 0 L 3629 0 L 2221 4410 L 1453 4410 L 38 0 L 653 0 L 986 1107 L 2656 1107 L 2989 0 z M 1133 1600 L 1824 3904 L 2509 1600 L 1133 1600 z" transform="scale(.01563)"/><path id="FiraGO-Regular-6c" d="M 1254 -77 C 1427 -77 1594 -32 1722 38 L 1568 448 C 1504 422 1434 410 1350 410 C 1197 410 1139 499 1139 678 L 1139 4800 L 550 4730 L 550 666 C 550 186 826 -77 1254 -77 z" transform="scale(.01563)"/><path id="FiraGO-Regular-79" d="M 3085 3373 L 2477 3373 L 1594 429 L 691 3373 L 64 3373 L 1197 0 L 1395 0 C 1203 -525 1011 -787 326 -902 L 390 -1363 C 1325 -1261 1722 -736 1958 -19 L 3085 3373 z" transform="scale(.01563)"/><path id="FiraGO-Regular-74" d="M 2086 544 C 1920 454 1786 410 1638 410 C 1344 410 1235 570 1235 909 L 1235 2918 L 1971 2918 L 2035 3373 L 1235 3373 L 1235 4205 L 646 4134 L 646 3373 L 58 3373 L 58 2918 L 646 2918 L 646 883 C 646 256 986 -77 1555 -77 C 1843 -77 2086 0 2310 154 L 2086 544 z" transform="scale(.01563)"/><path id="FiraGO-Regular-69" d="M 877 4992 C 634 4992 467 4819 467 4589 C 467 4365 634 4192 877 4192 C 1126 4192 1293 4365 1293 4589 C 1293 4819 1126 4992 877 4992 z M 1178 3373 L 589 3373 L 589 0 L 1178 0 L 1178 3373 z" transform="scale(.01563)"/><path id="FiraGO-Regular-63" d="M 1837 3450 C 922 3450 365 2733 365 1658 C 365 570 928 -77 1837 -77 C 2227 -77 2566 51 2867 294 L 2598 678 C 2342 512 2144 422 1862 422 C 1331 422 998 787 998 1670 C 998 2547 1331 2963 1862 2963 C 2144 2963 2355 2880 2586 2714 L 2867 3085 C 2554 3347 2234 3450 1837 3450 z" transform="scale(.01563)"/></defs><use xlink:href="#FiraGO-Regular-41"/><use xlink:href="#FiraGO-Regular-6e" x="57.3"/><use xlink:href="#FiraGO-Regular-61" x="115.2"/><use xlink:href="#FiraGO-Regular-6c" x="169.6"/><use xlink:href="#FiraGO-Regular-79" x="199"/><use xlink:href="#FiraGO-Regular-74" x="248.2"/><use xlink:href="#FiraGO-Regular-69" x="284.3"/><use xlink:href="#FiraGO-Regular-63" x="311.9"/><use xlink:href="#FiraGO-Regular-73" x="359.6"/></g></g><g id="ytick_2"><path d="M 197.548538 40.236988 L 554.668538 40.236988" clip-path="url(#p361f1cac03)" fill="none" stroke="#fff" stroke-width=".8" stroke-linecap="round" id="line2d_10"/><g transform="matrix(.0968 0 0 -.0968 114.297 44.012)" fill="#262626" id="text_11"><use xlink:href="#FiraGO-Regular-41"/><use xlink:href="#FiraGO-Regular-70" x="57.3"/><use xlink:href="#FiraGO-Regular-70" x="115.9"/><use xlink:href="#FiraGO-Regular-20" x="174.5"/><use xlink:href="#FiraGO-Regular-66" x="201"/><use xlink:href="#FiraGO-Regular-75" x="234.5"/><use xlink:href="#FiraGO-Regular-6e" x="292"/><use xlink:href="#FiraGO-Regular-63" x="349.9"/><use xlink:href="#FiraGO-Regular-74" x="397.6"/><use xlink:href="#FiraGO-Regular-69" x="433.7"/><use xlink:href="#FiraGO-Regular-6f" x="461.3"/><use xlink:href="#FiraGO-Regular-6e" x="519.7"/><use xlink:href="#FiraGO-Regular-61" x="577.6"/><use xlink:href="#FiraGO-Regular-6c" x="632"/><use xlink:href="#FiraGO-Regular-69" x="661.4"/><use xlink:href="#FiraGO-Regular-74" x="689"/><use xlink:href="#FiraGO-Regular-79" x="725.1"/></g></g><g id="ytick_3"><path d="M 197.548538 63.361694 L 554.668538 63.361694" clip-path="url(#p361f1cac03)" fill="none" stroke="#fff" stroke-width=".8" stroke-linecap="round" id="line2d_11"/><g transform="matrix(.0968 0 0 -.0968 81.568 67.137)" fill="#262626" id="text_12"><defs><path id="FiraGO-Regular-64" d="M 2598 4800 L 2598 3034 C 2374 3270 2086 3450 1690 3450 C 864 3450 365 2701 365 1670 C 365 621 819 -77 1638 -77 C 2054 -77 2394 128 2611 467 L 2669 0 L 3187 0 L 3187 4730 L 2598 4800 z M 1766 390 C 1280 390 998 794 998 1683 C 998 2560 1312 2982 1818 2982 C 2150 2982 2387 2810 2598 2541 L 2598 890 C 2374 576 2144 390 1766 390 z" transform="scale(.01563)"/><path id="FiraGO-Regular-76" d="M 3085 3373 L 2464 3373 L 1587 525 L 704 3373 L 64 3373 L 1229 0 L 1939 0 L 3085 3373 z" transform="scale(.01563)"/><path id="FiraGO-Regular-67" d="M 3155 3750 C 2758 3571 2451 3430 1613 3450 C 870 3450 314 2963 314 2272 C 314 1837 493 1542 883 1338 C 640 1178 512 960 512 742 C 512 403 781 102 1382 102 L 1914 102 C 2336 102 2592 -58 2592 -378 C 2592 -717 2336 -902 1606 -902 C 864 -902 691 -723 691 -339 L 160 -339 C 160 -1024 506 -1363 1606 -1363 C 2650 -1363 3187 -992 3187 -339 C 3187 198 2726 595 2035 595 L 1498 595 C 1152 595 1056 717 1056 870 C 1056 992 1126 1114 1222 1184 C 1363 1139 1498 1120 1651 1120 C 2458 1120 2938 1600 2938 2266 C 2938 2656 2739 2938 2342 3117 C 2726 3117 3046 3130 3328 3219 L 3155 3750 z M 1613 3027 C 2093 3027 2336 2771 2336 2278 C 2336 1792 2086 1510 1626 1510 C 1165 1510 915 1824 915 2272 C 915 2714 1158 3027 1613 3027 z" transform="scale(.01563)"/><path id="FiraGO-Regular-6b" d="M 1178 4800 L 589 4730 L 589 0 L 1178 0 L 1178 4800 z M 3117 3373 L 2458 3373 L 1216 1843 L 2554 0 L 3258 0 L 1875 1882 L 3117 3373 z" transform="scale(.01563)"/></defs><use xlink:href="#FiraGO-Regular-41"/><use xlink:href="#FiraGO-Regular-64" x="57.3"/><use xlink:href="#FiraGO-Regular-76" x="116.3"/><use xlink:href="#FiraGO-Regular-65" x="165.5"/><use xlink:href="#FiraGO-Regular-72" x="219.9"/><use xlink:href="#FiraGO-Regular-74" x="258.2"/><use xlink:href="#FiraGO-Regular-69" x="294.3"/><use xlink:href="#FiraGO-Regular-73" x="321.9"/><use xlink:href="#FiraGO-Regular-69" x="368.6"/><use xlink:href="#FiraGO-Regular-6e" x="396.2"/><use xlink:href="#FiraGO-Regular-67" x="454.1"/><use xlink:href="#FiraGO-Regular-20" x="506.1"/><use xlink:href="#FiraGO-Regular-6f" x="532.6"/><use xlink:href="#FiraGO-Regular-72" x="591"/><use xlink:href="#FiraGO-Regular-20" x="629.3"/><use xlink:href="#FiraGO-Regular-6d" x="655.8"/><use xlink:href="#FiraGO-Regular-61" x="740.8"/><use xlink:href="#FiraGO-Regular-72" x="795.2"/><use xlink:href="#FiraGO-Regular-6b" x="833.5"/><use xlink:href="#FiraGO-Regular-65" x="884.4"/><use xlink:href="#FiraGO-Regular-74" x="938.8"/><use xlink:href="#FiraGO-Regular-69" x="974.9"/><use xlink:href="#FiraGO-Regular-6e" x="1002.5"/><use xlink:href="#FiraGO-Regular-67" x="1060.4"/></g></g><g id="ytick_4"><path d="M 197.548538 86.4864 L 554.668538 86.4864" clip-path="url(#p361f1cac03)" fill="none" stroke="#fff" stroke-width=".8" stroke-linecap="round" id="line2d_12"/><g transform="matrix(.0968 0 0 -.0968 94.323 90.116)" fill="#262626" id="text_13"><use xlink:href="#FiraGO-Regular-41"/><use xlink:href="#FiraGO-Regular-63" x="57.3"/><use xlink:href="#FiraGO-Regular-63" x="105"/><use xlink:href="#FiraGO-Regular-6f" x="152.7"/><use xlink:href="#FiraGO-Regular-75" x="211.1"/><use xlink:href="#FiraGO-Regular-6e" x="268.6"/><use xlink:href="#FiraGO-Regular-74" x="326.5"/><use xlink:href="#FiraGO-Regular-20" x="362.6"/><use xlink:href="#FiraGO-Regular-6d" x="389.1"/><use xlink:href="#FiraGO-Regular-61" x="474.1"/><use xlink:href="#FiraGO-Regular-6e" x="528.5"/><use xlink:href="#FiraGO-Regular-61" x="586.4"/><use xlink:href="#FiraGO-Regular-67" x="640.8"/><use xlink:href="#FiraGO-Regular-65" x="692.8"/><use xlink:href="#FiraGO-Regular-6d" x="747.2"/><use xlink:href="#FiraGO-Regular-65" x="832.2"/><use xlink:href="#FiraGO-Regular-6e" x="886.6"/><use xlink:href="#FiraGO-Regular-74" x="944.5"/></g></g><g id="ytick_5"><path d="M 197.548538 109.611106 L 554.668538 109.611106" clip-path="url(#p361f1cac03)" fill="none" stroke="#fff" stroke-width=".8" stroke-linecap="round" id="line2d_13"/><g transform="matrix(.0968 0 0 -.0968 0 113.386)" fill="#262626" id="text_14"><defs><path id="FiraGO-Regular-46" d="M 640 0 L 1248 0 L 1248 1939 L 2688 1939 L 2688 2419 L 1248 2419 L 1248 3923 L 2912 3923 L 2982 4410 L 640 4410 L 640 0 z" transform="scale(.01563)"/></defs><use xlink:href="#FiraGO-Regular-46"/><use xlink:href="#FiraGO-Regular-72" x="49.1"/><use xlink:href="#FiraGO-Regular-61" x="87.4"/><use xlink:href="#FiraGO-Regular-75" x="141.8"/><use xlink:href="#FiraGO-Regular-64" x="199.3"/><use xlink:href="#FiraGO-Regular-20" x="258.3"/><use xlink:href="#FiraGO-Regular-70" x="284.8"/><use xlink:href="#FiraGO-Regular-72" x="343.4"/><use xlink:href="#FiraGO-Regular-65" x="381.7"/><use xlink:href="#FiraGO-Regular-76" x="436.1"/><use xlink:href="#FiraGO-Regular-65" x="485.3"/><use xlink:href="#FiraGO-Regular-6e" x="539.7"/><use xlink:href="#FiraGO-Regular-74" x="597.6"/><use xlink:href="#FiraGO-Regular-69" x="633.7"/><use xlink:href="#FiraGO-Regular-6f" x="661.3"/><use xlink:href="#FiraGO-Regular-6e" x="719.7"/><use xlink:href="#FiraGO-Regular-2c" x="777.6"/><use xlink:href="#FiraGO-Regular-20" x="801.6"/><use xlink:href="#FiraGO-Regular-73" x="828.1"/><use xlink:href="#FiraGO-Regular-65" x="874.8"/><use xlink:href="#FiraGO-Regular-63" x="929.2"/><use xlink:href="#FiraGO-Regular-75" x="976.9"/><use xlink:href="#FiraGO-Regular-72" x="1034.4"/><use xlink:href="#FiraGO-Regular-69" x="1072.7"/><use xlink:href="#FiraGO-Regular-74" x="1100.3"/><use xlink:href="#FiraGO-Regular-79" x="1136.4"/><use xlink:href="#FiraGO-Regular-2c" x="1185.6"/><use xlink:href="#FiraGO-Regular-20" x="1209.6"/><use xlink:href="#FiraGO-Regular-61" x="1236.1"/><use xlink:href="#FiraGO-Regular-6e" x="1290.5"/><use xlink:href="#FiraGO-Regular-64" x="1348.4"/><use xlink:href="#FiraGO-Regular-20" x="1407.4"/><use xlink:href="#FiraGO-Regular-63" x="1433.9"/><use xlink:href="#FiraGO-Regular-6f" x="1481.6"/><use xlink:href="#FiraGO-Regular-6d" x="1540"/><use xlink:href="#FiraGO-Regular-70" x="1625"/><use xlink:href="#FiraGO-Regular-6c" x="1683.6"/><use xlink:href="#FiraGO-Regular-69" x="1713"/><use xlink:href="#FiraGO-Regular-61" x="1740.6"/><use xlink:href="#FiraGO-Regular-6e" x="1795"/><use xlink:href="#FiraGO-Regular-63" x="1852.9"/><use xlink:href="#FiraGO-Regular-65" x="1900.6"/></g></g><g id="ytick_6"><path d="M 197.548538 132.735812 L 554.668538 132.735812" clip-path="url(#p361f1cac03)" fill="none" stroke="#fff" stroke-width=".8" stroke-linecap="round" id="line2d_14"/><g transform="matrix(.0968 0 0 -.0968 121.136 136.366)" fill="#262626" id="text_15"><defs><path id="FiraGO-Regular-50" d="M 1798 4410 L 640 4410 L 640 0 L 1248 0 L 1248 1619 L 1805 1619 C 2778 1619 3514 2035 3514 3046 C 3514 3974 2861 4410 1798 4410 z M 1779 2099 L 1248 2099 L 1248 3936 L 1792 3936 C 2445 3936 2867 3699 2867 3040 C 2867 2291 2432 2099 1779 2099 z" transform="scale(.01563)"/><path id="FiraGO-Regular-7a" d="M 2586 3373 L 307 3373 L 307 2874 L 1914 2874 L 160 442 L 160 0 L 2534 0 L 2605 493 L 826 493 L 2586 2925 L 2586 3373 z" transform="scale(.01563)"/></defs><use xlink:href="#FiraGO-Regular-50"/><use xlink:href="#FiraGO-Regular-65" x="58.9"/><use xlink:href="#FiraGO-Regular-72" x="113.3"/><use xlink:href="#FiraGO-Regular-73" x="151.6"/><use xlink:href="#FiraGO-Regular-6f" x="198.3"/><use xlink:href="#FiraGO-Regular-6e" x="256.7"/><use xlink:href="#FiraGO-Regular-61" x="314.6"/><use xlink:href="#FiraGO-Regular-6c" x="369"/><use xlink:href="#FiraGO-Regular-69" x="398.4"/><use xlink:href="#FiraGO-Regular-7a" x="426"/><use xlink:href="#FiraGO-Regular-61" x="469.2"/><use xlink:href="#FiraGO-Regular-74" x="523.6"/><use xlink:href="#FiraGO-Regular-69" x="559.7"/><use xlink:href="#FiraGO-Regular-6f" x="587.3"/><use xlink:href="#FiraGO-Regular-6e" x="645.7"/></g></g><g id="ytick_7"><path d="M 197.548538 155.860518 L 554.668538 155.860518" clip-path="url(#p361f1cac03)" fill="none" stroke="#fff" stroke-width=".8" stroke-linecap="round" id="line2d_15"/><g transform="matrix(.0968 0 0 -.0968 69.608 159.636)" fill="#262626" id="text_16"><defs><path id="FiraGO-Regular-44" d="M 1562 4410 L 640 4410 L 640 0 L 1696 0 C 2650 0 3770 429 3770 2227 C 3770 4058 2688 4410 1562 4410 z M 1696 3923 C 2400 3923 3123 3718 3123 2227 C 3123 774 2432 480 1741 480 L 1248 480 L 1248 3923 L 1696 3923 z" transform="scale(.01563)"/></defs><use xlink:href="#FiraGO-Regular-44"/><use xlink:href="#FiraGO-Regular-65" x="64.4"/><use xlink:href="#FiraGO-Regular-76" x="118.8"/><use xlink:href="#FiraGO-Regular-65" x="168"/><use xlink:href="#FiraGO-Regular-6c" x="222.4"/><use xlink:href="#FiraGO-Regular-6f" x="251.8"/><use xlink:href="#FiraGO-Regular-70" x="310.2"/><use xlink:href="#FiraGO-Regular-65" x="368.8"/><use xlink:href="#FiraGO-Regular-72" x="423.2"/><use xlink:href="#FiraGO-Regular-20" x="461.5"/><use xlink:href="#FiraGO-Regular-63" x="488"/><use xlink:href="#FiraGO-Regular-6f" x="535.7"/><use xlink:href="#FiraGO-Regular-6d" x="594.1"/><use xlink:href="#FiraGO-Regular-6d" x="679.1"/><use xlink:href="#FiraGO-Regular-75" x="764.1"/><use xlink:href="#FiraGO-Regular-6e" x="821.6"/><use xlink:href="#FiraGO-Regular-69" x="879.5"/><use xlink:href="#FiraGO-Regular-63" x="907.1"/><use xlink:href="#FiraGO-Regular-61" x="954.8"/><use xlink:href="#FiraGO-Regular-74" x="1009.2"/><use xlink:href="#FiraGO-Regular-69" x="1045.3"/><use xlink:href="#FiraGO-Regular-6f" x="1072.9"/><use xlink:href="#FiraGO-Regular-6e" x="1131.3"/><use xlink:href="#FiraGO-Regular-73" x="1189.2"/></g></g></g><path d="M 197.548538 17.112282 L 416.746113 17.112282 L 416.746113 26.362165 L 197.548538 26.362165 z" clip-path="url(#p361f1cac03)" fill="#de8f05" fill-opacity=".75" stroke="#fff" stroke-width=".8" id="patch_3"/><path d="M 197.548538 40.236988 L 327.393109 40.236988 L 327.393109 49.486871 L 197.548538 49.486871 z" clip-path="url(#p361f1cac03)" fill="#de8f05" fill-opacity=".75" stroke="#fff" stroke-width=".8" id="patch_4"/><path d="M 197.548538 63.361694 L 395.189049 63.361694 L 395.189049 72.611576 L 197.548538 72.611576 z" clip-path="url(#p361f1cac03)" fill="#de8f05" fill-opacity=".75" stroke="#fff" stroke-width=".8" id="patch_5"/><path d="M 197.548538 86.4864 L 243.936213 86.4864 L 243.936213 95.736282 L 197.548538 95.736282 z" clip-path="url(#p361f1cac03)" fill="#de8f05" fill-opacity=".75" stroke="#fff" stroke-width=".8" id="patch_6"/><path d="M 197.548538 109.611106 L 276.448505 109.611106 L 276.448505 118.860988 L 197.548538 118.860988 z" clip-path="url(#p361f1cac03)" fill="#de8f05" fill-opacity=".75" stroke="#fff" stroke-width=".8" id="patch_7"/><path d="M 197.548538 132.735812 L 250.074117 132.735812 L 250.074117 141.985694 L 197.548538 141.985694 z" clip-path="url(#p361f1cac03)" fill="#de8f05" fill-opacity=".75" stroke="#fff" stroke-width=".8" id="patch_8"/><path d="M 197.548538 155.860518 L 242.16924 155.860518 L 242.16924 165.1104 L 197.548538 165.1104 z" clip-path="url(#p361f1cac03)" fill="#de8f05" fill-opacity=".75" stroke="#fff" stroke-width=".8" id="patch_9"/><path d="M 197.548538 7.8624 L 537.662823 7.8624 L 537.662823 17.112282 L 197.548538 17.112282 z" clip-path="url(#p361f1cac03)" fill="#0173b2" fill-opacity=".75" stroke="#fff" stroke-width=".8" id="patch_10"/><path d="M 197.548538 30.987106 L 488.745588 30.987106 L 488.745588 40.236988 L 197.548538 40.236988 z" clip-path="url(#p361f1cac03)" fill="#0173b2" fill-opacity=".75" stroke="#fff" stroke-width=".8" id="patch_11"/><path d="M 197.548538 54.111812 L 407.911251 54.111812 L 407.911251 63.361694 L 197.548538 63.361694 z" clip-path="url(#p361f1cac03)" fill="#0173b2" fill-opacity=".75" stroke="#fff" stroke-width=".8" id="patch_12"/><path d="M 197.548538 77.236518 L 394.631058 77.236518 L 394.631058 86.4864 L 197.548538 86.4864 z" clip-path="url(#p361f1cac03)" fill="#0173b2" fill-opacity=".75" stroke="#fff" stroke-width=".8" id="patch_13"/><path d="M 197.548538 100.361224 L 351.740128 100.361224 L 351.740128 109.611106 L 197.548538 109.611106 z" clip-path="url(#p361f1cac03)" fill="#0173b2" fill-opacity=".75" stroke="#fff" stroke-width=".8" id="patch_14"/><path d="M 197.548538 123.485929 L 329.401877 123.485929 L 329.401877 132.735812 L 197.548538 132.735812 z" clip-path="url(#p361f1cac03)" fill="#0173b2" fill-opacity=".75" stroke="#fff" stroke-width=".8" id="patch_15"/><path d="M 197.548538 146.610635 L 314.670907 146.610635 L 314.670907 155.860518 L 197.548538 155.860518 z" clip-path="url(#p361f1cac03)" fill="#0173b2" fill-opacity=".75" stroke="#fff" stroke-width=".8" id="patch_16"/><path d="M 197.548538 172.9728 L 197.548538 -0" fill="none" stroke="#fff" stroke-linecap="square" id="patch_17"/><path d="M 554.668538 172.9728 L 554.668538 -0" fill="none" stroke="#fff" stroke-linecap="square" id="patch_18"/><path d="M 197.548538 172.9728 L 554.668538 172.9728" fill="none" stroke="#fff" stroke-linecap="square" id="patch_19"/><path d="M 197.548538 -0 L 554.668538 -0" fill="none" stroke="#fff" stroke-linecap="square" id="patch_20"/><g id="legend_1"><path d="M 454.292988 168.1328 L 547.892538 168.1328 Q 549.828538 168.1328 549.828538 166.1968 L 549.828538 138.841725 Q 549.828538 136.905725 547.892538 136.905725 L 454.292988 136.905725 Q 452.356988 136.905725 452.356988 138.841725 L 452.356988 166.1968 Q 452.356988 168.1328 454.292988 168.1328 z" fill="#eaeaf2" opacity=".8" stroke="#ccc" stroke-width=".8" id="patch_21"/><path d="M 456.228988 148.037725 L 475.588988 148.037725 L 475.588988 141.261725 L 456.228988 141.261725 z" fill="#0173b2" fill-opacity=".75" stroke="#fff" stroke-width=".8" id="patch_22"/><g transform="matrix(.0968 0 0 -.0968 483.333 148.038)" fill="#262626" id="text_17"><use xlink:href="#FiraGO-Regular-64"/><use xlink:href="#FiraGO-Regular-61" x="59"/><use xlink:href="#FiraGO-Regular-74" x="113.4"/><use xlink:href="#FiraGO-Regular-61" x="149.5"/><use xlink:href="#FiraGO-Regular-20" x="203.9"/><use xlink:href="#FiraGO-Regular-63" x="230.4"/><use xlink:href="#FiraGO-Regular-6f" x="278.1"/><use xlink:href="#FiraGO-Regular-6c" x="336.5"/><use xlink:href="#FiraGO-Regular-6c" x="365.9"/><use xlink:href="#FiraGO-Regular-65" x="395.3"/><use xlink:href="#FiraGO-Regular-63" x="449.7"/><use xlink:href="#FiraGO-Regular-74" x="497.4"/><use xlink:href="#FiraGO-Regular-65" x="533.5"/><use xlink:href="#FiraGO-Regular-64" x="587.9"/></g><path d="M 456.228988 162.199262 L 475.588988 162.199262 L 475.588988 155.423262 L 456.228988 155.423262 z" fill="#de8f05" fill-opacity=".75" stroke="#fff" stroke-width=".8" id="patch_23"/><g transform="matrix(.0968 0 0 -.0968 483.333 162.2)" fill="#262626" id="text_18"><defs><path id="FiraGO-Regular-68" d="M 2176 3450 C 1754 3450 1421 3238 1178 2906 L 1178 4787 L 589 4723 L 589 0 L 1178 0 L 1178 2400 C 1402 2752 1664 2989 2029 2989 C 2349 2989 2566 2842 2566 2336 L 2566 0 L 3155 0 L 3155 2419 C 3155 3053 2790 3450 2176 3450 z" transform="scale(.01563)"/></defs><use xlink:href="#FiraGO-Regular-64"/><use xlink:href="#FiraGO-Regular-61" x="59"/><use xlink:href="#FiraGO-Regular-74" x="113.4"/><use xlink:href="#FiraGO-Regular-61" x="149.5"/><use xlink:href="#FiraGO-Regular-20" x="203.9"/><use xlink:href="#FiraGO-Regular-73" x="230.4"/><use xlink:href="#FiraGO-Regular-68" x="277.1"/><use xlink:href="#FiraGO-Regular-61" x="335"/><use xlink:href="#FiraGO-Regular-72" x="389.4"/><use xlink:href="#FiraGO-Regular-65" x="427.7"/><use xlink:href="#FiraGO-Regular-64" x="482.1"/></g></g></g></g><defs><clipPath id="p361f1cac03"><path d="M197.549 0H554.669V172.973H197.549z"/></clipPath></defs></svg>