<svg xmlns:xlink="http://www.w3.org/1999/xlink" width="643.091" height="386.986" viewBox="0 0 482.318 290.239" xmlns="http://www.w3.org/2000/svg"><defs><style>*{stroke-linejoin:round;stroke-linecap:butt}</style></defs><g id="figure_1"><path d="M 0 290.239381 L 482.317912 290.239381 L 482.317912 0 L 0 0 L 0 290.239381 z" fill="none" id="patch_1"/><g id="axes_1"><path d="M 147.517912 189.263439 L 482.317912 189.263439 L 482.317912 41.008893 L 147.517912 41.008893 L 147.517912 189.263439 z" fill="none" id="patch_2"/><g id="matplotlib.axis_1"><g id="xtick_1"><path d="M 147.517912 189.263439 L 147.517912 41.008893" clip-path="url(#p79ec885755)" fill="none" stroke="#fff" stroke-width=".8" stroke-linecap="round" id="line2d_1"/></g><g id="xtick_2"><path d="M 185.391216 189.263439 L 185.391216 41.008893" clip-path="url(#p79ec885755)" fill="none" stroke="#fff" stroke-width=".8" stroke-linecap="round" id="line2d_2"/></g><g id="xtick_3"><path d="M 223.264519 189.263439 L 223.264519 41.008893" clip-path="url(#p79ec885755)" fill="none" stroke="#fff" stroke-width=".8" stroke-linecap="round" id="line2d_3"/></g><g id="xtick_4"><path d="M 261.137822 189.263439 L 261.137822 41.008893" clip-path="url(#p79ec885755)" fill="none" stroke="#fff" stroke-width=".8" stroke-linecap="round" id="line2d_4"/></g><g id="xtick_5"><path d="M 299.011125 189.263439 L 299.011125 41.008893" clip-path="url(#p79ec885755)" fill="none" stroke="#fff" stroke-width=".8" stroke-linecap="round" id="line2d_5"/></g><g id="xtick_6"><path d="M 336.884428 189.263439 L 336.884428 41.008893" clip-path="url(#p79ec885755)" fill="none" stroke="#fff" stroke-width=".8" stroke-linecap="round" id="line2d_6"/></g><g id="xtick_7"><path d="M 374.757732 189.263439 L 374.757732 41.008893" clip-path="url(#p79ec885755)" fill="none" stroke="#fff" stroke-width=".8" stroke-linecap="round" id="line2d_7"/></g><g id="xtick_8"><path d="M 412.631035 189.263439 L 412.631035 41.008893" clip-path="url(#p79ec885755)" fill="none" stroke="#fff" stroke-width=".8" stroke-linecap="round" id="line2d_8"/></g><g id="xtick_9"><path d="M 450.504338 189.263439 L 450.504338 41.008893" clip-path="url(#p79ec885755)" fill="none" stroke="#fff" stroke-width=".8" stroke-linecap="round" id="line2d_9"/></g></g><g id="matplotlib.axis_2"><g id="ytick_1"><path d="M 147.517912 58.979141 L 482.317912 58.979141" clip-path="url(#p79ec885755)" fill="none" stroke="#fff" stroke-width=".8" stroke-linecap="round" id="line2d_10"/><g transform="matrix(.0968 0 0 -.0968 101.436 62.61)" fill="#262626" id="text_1"><defs><path id="FiraGO-Regular-4c" d="M 1248 4410 L 640 4410 L 640 0 L 2989 0 L 3059 531 L 1248 531 L 1248 4410 z" transform="scale(.01563)"/><path id="FiraGO-Regular-6f" d="M 1875 3450 C 915 3450 365 2726 365 1683 C 365 614 909 -77 1869 -77 C 2822 -77 3373 646 3373 1690 C 3373 2758 2835 3450 1875 3450 z M 1875 2976 C 2432 2976 2739 2566 2739 1690 C 2739 806 2432 397 1869 397 C 1306 397 998 806 998 1683 C 998 2566 1312 2976 1875 2976 z" transform="scale(.01563)"/><path id="FiraGO-Regular-63" d="M 1837 3450 C 922 3450 365 2733 365 1658 C 365 570 928 -77 1837 -77 C 2227 -77 2566 51 2867 294 L 2598 678 C 2342 512 2144 422 1862 422 C 1331 422 998 787 998 1670 C 998 2547 1331 2963 1862 2963 C 2144 2963 2355 2880 2586 2714 L 2867 3085 C 2554 3347 2234 3450 1837 3450 z" transform="scale(.01563)"/><path id="FiraGO-Regular-61" d="M 2880 787 L 2880 2330 C 2880 3034 2509 3450 1696 3450 C 1318 3450 947 3373 531 3219 L 678 2790 C 1024 2906 1338 2970 1587 2970 C 2054 2970 2291 2790 2291 2304 L 2291 2054 L 1773 2054 C 832 2054 288 1664 288 941 C 288 339 691 -77 1363 -77 C 1773 -77 2131 77 2368 429 C 2470 96 2688 -38 3027 -77 L 3162 333 C 2989 397 2880 493 2880 787 z M 1498 365 C 1114 365 915 576 915 973 C 915 1434 1229 1664 1850 1664 L 2291 1664 L 2291 890 C 2099 538 1843 365 1498 365 z" transform="scale(.01563)"/><path id="FiraGO-Regular-74" d="M 2086 544 C 1920 454 1786 410 1638 410 C 1344 410 1235 570 1235 909 L 1235 2918 L 1971 2918 L 2035 3373 L 1235 3373 L 1235 4205 L 646 4134 L 646 3373 L 58 3373 L 58 2918 L 646 2918 L 646 883 C 646 256 986 -77 1555 -77 C 1843 -77 2086 0 2310 154 L 2086 544 z" transform="scale(.01563)"/><path id="FiraGO-Regular-69" d="M 877 4992 C 634 4992 467 4819 467 4589 C 467 4365 634 4192 877 4192 C 1126 4192 1293 4365 1293 4589 C 1293 4819 1126 4992 877 4992 z M 1178 3373 L 589 3373 L 589 0 L 1178 0 L 1178 3373 z" transform="scale(.01563)"/><path id="FiraGO-Regular-6e" d="M 2176 3450 C 1734 3450 1376 3219 1146 2874 L 1094 3373 L 589 3373 L 589 0 L 1178 0 L 1178 2394 C 1402 2752 1658 2989 2035 2989 C 2362 2989 2566 2842 2566 2336 L 2566 0 L 3155 0 L 3155 2419 C 3155 3059 2797 3450 2176 3450 z" transform="scale(.01563)"/></defs><use xlink:href="#FiraGO-Regular-4c"/><use xlink:href="#FiraGO-Regular-6f" x="49.8"/><use xlink:href="#FiraGO-Regular-63" x="108.2"/><use xlink:href="#FiraGO-Regular-61" x="155.9"/><use xlink:href="#FiraGO-Regular-74" x="210.3"/><use xlink:href="#FiraGO-Regular-69" x="246.4"/><use xlink:href="#FiraGO-Regular-6f" x="274"/><use xlink:href="#FiraGO-Regular-6e" x="332.4"/></g></g><g id="ytick_2"><path d="M 147.517912 81.441951 L 482.317912 81.441951" clip-path="url(#p79ec885755)" fill="none" stroke="#fff" stroke-width=".8" stroke-linecap="round" id="line2d_11"/><g transform="matrix(.0968 0 0 -.0968 86.308 85.072)" fill="#262626" id="text_2"><defs><path id="FiraGO-Regular-53" d="M 1728 4486 C 915 4486 339 4013 339 3334 C 339 2650 787 2323 1645 2061 C 2394 1830 2598 1638 2598 1210 C 2598 678 2170 422 1651 422 C 1171 422 826 595 493 864 L 160 493 C 525 134 1024 -77 1658 -77 C 2650 -77 3232 461 3232 1229 C 3232 2074 2630 2349 1926 2566 C 1133 2810 960 2989 960 3360 C 960 3782 1312 3987 1754 3987 C 2118 3987 2426 3872 2758 3603 L 3091 3974 C 2720 4307 2336 4486 1728 4486 z" transform="scale(.01563)"/><path id="FiraGO-Regular-4d" d="M 4218 4410 L 3392 4410 L 2509 1203 L 1581 4410 L 762 4410 L 397 0 L 973 0 L 1120 1946 C 1171 2592 1203 3277 1203 3795 L 2208 499 L 2778 499 L 3731 3789 C 3738 3424 3782 2682 3840 1990 L 3994 0 L 4582 0 L 4218 4410 z" transform="scale(.01563)"/><path id="FiraGO-Regular-72" d="M 2054 3450 C 1645 3450 1331 3194 1152 2688 L 1094 3373 L 589 3373 L 589 0 L 1178 0 L 1178 1926 C 1318 2573 1562 2874 1984 2874 C 2106 2874 2176 2861 2278 2835 L 2387 3411 C 2285 3437 2163 3450 2054 3450 z" transform="scale(.01563)"/></defs><use xlink:href="#FiraGO-Regular-53"/><use xlink:href="#FiraGO-Regular-4d" x="54.5"/><use xlink:href="#FiraGO-Regular-53" x="132.3"/><use xlink:href="#FiraGO-Regular-20" x="186.8"/><use xlink:href="#FiraGO-Regular-6f" x="213.3"/><use xlink:href="#FiraGO-Regular-72" x="271.7"/><use xlink:href="#FiraGO-Regular-20" x="310"/><use xlink:href="#FiraGO-Regular-4d" x="336.5"/><use xlink:href="#FiraGO-Regular-4d" x="414.3"/><use xlink:href="#FiraGO-Regular-53" x="492.1"/></g></g><g id="ytick_3"><path d="M 147.517912 103.904761 L 482.317912 103.904761" clip-path="url(#p79ec885755)" fill="none" stroke="#fff" stroke-width=".8" stroke-linecap="round" id="line2d_12"/><g transform="matrix(.0968 0 0 -.0968 101.145 107.535)" fill="#262626" id="text_3"><defs><path id="FiraGO-Regular-43" d="M 2182 4486 C 1184 4486 352 3699 352 2208 C 352 723 1126 -77 2195 -77 C 2790 -77 3213 166 3456 416 L 3155 800 C 2906 614 2630 435 2214 435 C 1530 435 998 934 998 2208 C 998 3539 1555 3987 2221 3987 C 2528 3987 2797 3885 3072 3661 L 3405 4051 C 3053 4333 2739 4486 2182 4486 z" transform="scale(.01563)"/><path id="FiraGO-Regular-73" d="M 1523 3450 C 826 3450 307 3059 307 2522 C 307 2048 595 1734 1325 1542 C 1978 1370 2144 1242 2144 909 C 2144 589 1862 397 1421 397 C 1056 397 742 518 474 723 L 160 365 C 454 109 864 -77 1434 -77 C 2118 -77 2765 243 2765 947 C 2765 1536 2355 1818 1645 1997 C 1101 2138 922 2266 922 2541 C 922 2810 1158 2982 1542 2982 C 1856 2982 2118 2886 2419 2694 L 2669 3066 C 2349 3309 1997 3450 1523 3450 z" transform="scale(.01563)"/></defs><use xlink:href="#FiraGO-Regular-43"/><use xlink:href="#FiraGO-Regular-6f" x="56"/><use xlink:href="#FiraGO-Regular-6e" x="114.4"/><use xlink:href="#FiraGO-Regular-74" x="172.3"/><use xlink:href="#FiraGO-Regular-61" x="208.4"/><use xlink:href="#FiraGO-Regular-63" x="262.8"/><use xlink:href="#FiraGO-Regular-74" x="310.5"/><use xlink:href="#FiraGO-Regular-73" x="346.6"/></g></g><g id="ytick_4"><path d="M 147.517912 126.367571 L 482.317912 126.367571" clip-path="url(#p79ec885755)" fill="none" stroke="#fff" stroke-width=".8" stroke-linecap="round" id="line2d_13"/><g transform="matrix(.0968 0 0 -.0968 88.929 130.143)" fill="#262626" id="text_4"><defs><path id="FiraGO-Regular-44" d="M 1562 4410 L 640 4410 L 640 0 L 1696 0 C 2650 0 3770 429 3770 2227 C 3770 4058 2688 4410 1562 4410 z M 1696 3923 C 2400 3923 3123 3718 3123 2227 C 3123 774 2432 480 1741 480 L 1248 480 L 1248 3923 L 1696 3923 z" transform="scale(.01563)"/><path id="FiraGO-Regular-67" d="M 3155 3750 C 2758 3571 2451 3430 1613 3450 C 870 3450 314 2963 314 2272 C 314 1837 493 1542 883 1338 C 640 1178 512 960 512 742 C 512 403 781 102 1382 102 L 1914 102 C 2336 102 2592 -58 2592 -378 C 2592 -717 2336 -902 1606 -902 C 864 -902 691 -723 691 -339 L 160 -339 C 160 -1024 506 -1363 1606 -1363 C 2650 -1363 3187 -992 3187 -339 C 3187 198 2726 595 2035 595 L 1498 595 C 1152 595 1056 717 1056 870 C 1056 992 1126 1114 1222 1184 C 1363 1139 1498 1120 1651 1120 C 2458 1120 2938 1600 2938 2266 C 2938 2656 2739 2938 2342 3117 C 2726 3117 3046 3130 3328 3219 L 3155 3750 z M 1613 3027 C 2093 3027 2336 2771 2336 2278 C 2336 1792 2086 1510 1626 1510 C 1165 1510 915 1824 915 2272 C 915 2714 1158 3027 1613 3027 z" transform="scale(.01563)"/></defs><use xlink:href="#FiraGO-Regular-44"/><use xlink:href="#FiraGO-Regular-69" x="64.4"/><use xlink:href="#FiraGO-Regular-61" x="92"/><use xlink:href="#FiraGO-Regular-67" x="146.4"/><use xlink:href="#FiraGO-Regular-6e" x="198.4"/><use xlink:href="#FiraGO-Regular-6f" x="256.3"/><use xlink:href="#FiraGO-Regular-73" x="314.7"/><use xlink:href="#FiraGO-Regular-74" x="361.4"/><use xlink:href="#FiraGO-Regular-69" x="397.5"/><use xlink:href="#FiraGO-Regular-63" x="425.1"/><use xlink:href="#FiraGO-Regular-73" x="472.8"/></g></g><g id="ytick_5"><path d="M 147.517912 148.830381 L 482.317912 148.830381" clip-path="url(#p79ec885755)" fill="none" stroke="#fff" stroke-width=".8" stroke-linecap="round" id="line2d_14"/><g transform="matrix(.0968 0 0 -.0968 14.169 152.46)" fill="#262626" id="text_5"><defs><path id="FiraGO-Regular-4f" d="M 2214 4486 C 1114 4486 352 3648 352 2195 C 352 717 1114 -77 2214 -77 C 3322 -77 4077 742 4077 2202 C 4077 3686 3322 4486 2214 4486 z M 2214 3987 C 2970 3987 3430 3469 3430 2202 C 3430 922 2957 422 2214 422 C 1498 422 998 922 998 2195 C 998 3469 1478 3987 2214 3987 z" transform="scale(.01563)"/><path id="FiraGO-Regular-68" d="M 2176 3450 C 1754 3450 1421 3238 1178 2906 L 1178 4787 L 589 4723 L 589 0 L 1178 0 L 1178 2400 C 1402 2752 1664 2989 2029 2989 C 2349 2989 2566 2842 2566 2336 L 2566 0 L 3155 0 L 3155 2419 C 3155 3053 2790 3450 2176 3450 z" transform="scale(.01563)"/><path id="FiraGO-Regular-65" d="M 3155 1786 C 3155 2816 2675 3450 1766 3450 C 896 3450 365 2701 365 1651 C 365 582 915 -77 1856 -77 C 2323 -77 2701 83 3034 346 L 2778 698 C 2483 493 2234 403 1901 403 C 1414 403 1050 704 992 1485 L 3142 1485 C 3149 1562 3155 1670 3155 1786 z M 2573 1920 L 992 1920 C 1037 2669 1331 2982 1779 2982 C 2310 2982 2573 2618 2573 1958 L 2573 1920 z" transform="scale(.01563)"/><path id="FiraGO-Regular-70" d="M 2138 3450 C 1754 3450 1389 3264 1139 2918 L 1094 3373 L 589 3373 L 589 -1363 L 1178 -1293 L 1178 307 C 1395 45 1696 -77 2061 -77 C 2931 -77 3386 666 3386 1690 C 3386 2752 3034 3450 2138 3450 z M 1920 403 C 1613 403 1350 550 1178 813 L 1178 2458 C 1357 2726 1632 2982 1990 2982 C 2496 2982 2752 2566 2752 1690 C 2752 806 2458 403 1920 403 z" transform="scale(.01563)"/><path id="FiraGO-Regular-66" d="M 1754 4326 C 1926 4326 2125 4294 2342 4198 L 2528 4627 C 2259 4742 2042 4800 1722 4800 C 1037 4800 666 4397 666 3834 L 666 3373 L 64 3373 L 64 2918 L 666 2918 L 666 0 L 1254 0 L 1254 2918 L 2010 2918 L 2074 3373 L 1254 3373 L 1254 3840 C 1254 4166 1382 4326 1754 4326 z" transform="scale(.01563)"/><path id="FiraGO-Regular-6d" d="M 3974 3450 C 3520 3450 3213 3206 2970 2842 C 2842 3226 2534 3450 2118 3450 C 1677 3450 1370 3219 1146 2880 L 1094 3373 L 589 3373 L 589 0 L 1178 0 L 1178 2394 C 1402 2752 1606 2989 1971 2989 C 2227 2989 2445 2842 2445 2336 L 2445 0 L 3034 0 L 3034 2394 C 3264 2752 3462 2989 3827 2989 C 4083 2989 4301 2842 4301 2336 L 4301 0 L 4890 0 L 4890 2419 C 4890 3053 4525 3450 3974 3450 z" transform="scale(.01563)"/><path id="FiraGO-Regular-64" d="M 2598 4800 L 2598 3034 C 2374 3270 2086 3450 1690 3450 C 864 3450 365 2701 365 1670 C 365 621 819 -77 1638 -77 C 2054 -77 2394 128 2611 467 L 2669 0 L 3187 0 L 3187 4730 L 2598 4800 z M 1766 390 C 1280 390 998 794 998 1683 C 998 2560 1312 2982 1818 2982 C 2150 2982 2387 2810 2598 2541 L 2598 890 C 2374 576 2144 390 1766 390 z" transform="scale(.01563)"/></defs><use xlink:href="#FiraGO-Regular-4f"/><use xlink:href="#FiraGO-Regular-74" x="69.2"/><use xlink:href="#FiraGO-Regular-68" x="105.3"/><use xlink:href="#FiraGO-Regular-65" x="163.2"/><use xlink:href="#FiraGO-Regular-72" x="217.6"/><use xlink:href="#FiraGO-Regular-20" x="255.9"/><use xlink:href="#FiraGO-Regular-61" x="282.4"/><use xlink:href="#FiraGO-Regular-70" x="336.8"/><use xlink:href="#FiraGO-Regular-70" x="395.4"/><use xlink:href="#FiraGO-Regular-20" x="454"/><use xlink:href="#FiraGO-Regular-70" x="480.5"/><use xlink:href="#FiraGO-Regular-65" x="539.1"/><use xlink:href="#FiraGO-Regular-72" x="593.5"/><use xlink:href="#FiraGO-Regular-66" x="631.8"/><use xlink:href="#FiraGO-Regular-6f" x="665.3"/><use xlink:href="#FiraGO-Regular-72" x="723.7"/><use xlink:href="#FiraGO-Regular-6d" x="762"/><use xlink:href="#FiraGO-Regular-61" x="847"/><use xlink:href="#FiraGO-Regular-6e" x="901.4"/><use xlink:href="#FiraGO-Regular-63" x="959.3"/><use xlink:href="#FiraGO-Regular-65" x="1007"/><use xlink:href="#FiraGO-Regular-20" x="1061.4"/><use xlink:href="#FiraGO-Regular-64" x="1087.9"/><use xlink:href="#FiraGO-Regular-61" x="1146.9"/><use xlink:href="#FiraGO-Regular-74" x="1201.3"/><use xlink:href="#FiraGO-Regular-61" x="1237.4"/></g></g><g id="ytick_6"><path d="M 147.517912 171.293191 L 482.317912 171.293191" clip-path="url(#p79ec885755)" fill="none" stroke="#fff" stroke-width=".8" stroke-linecap="round" id="line2d_15"/><g transform="matrix(.0968 0 0 -.0968 56.005 174.923)" fill="#262626" id="text_6"><defs><path id="FiraGO-Regular-76" d="M 3085 3373 L 2464 3373 L 1587 525 L 704 3373 L 64 3373 L 1229 0 L 1939 0 L 3085 3373 z" transform="scale(.01563)"/><path id="FiraGO-Regular-49" d="M 1248 4410 L 640 4410 L 640 0 L 1248 0 L 1248 4410 z" transform="scale(.01563)"/></defs><use xlink:href="#FiraGO-Regular-44"/><use xlink:href="#FiraGO-Regular-65" x="64.4"/><use xlink:href="#FiraGO-Regular-76" x="118.8"/><use xlink:href="#FiraGO-Regular-69" x="168"/><use xlink:href="#FiraGO-Regular-63" x="195.6"/><use xlink:href="#FiraGO-Regular-65" x="243.3"/><use xlink:href="#FiraGO-Regular-20" x="297.7"/><use xlink:href="#FiraGO-Regular-6f" x="324.2"/><use xlink:href="#FiraGO-Regular-72" x="382.6"/><use xlink:href="#FiraGO-Regular-20" x="420.9"/><use xlink:href="#FiraGO-Regular-6f" x="447.4"/><use xlink:href="#FiraGO-Regular-74" x="505.8"/><use xlink:href="#FiraGO-Regular-68" x="541.9"/><use xlink:href="#FiraGO-Regular-65" x="599.8"/><use xlink:href="#FiraGO-Regular-72" x="654.2"/><use xlink:href="#FiraGO-Regular-20" x="692.5"/><use xlink:href="#FiraGO-Regular-49" x="719"/><use xlink:href="#FiraGO-Regular-44" x="748.5"/><use xlink:href="#FiraGO-Regular-73" x="812.9"/></g></g><g transform="matrix(0 -.1056 -.1056 0 7.92 137.772)" fill="#262626" id="text_7"><defs><path id="FiraGO-Regular-79" d="M 3085 3373 L 2477 3373 L 1594 429 L 691 3373 L 64 3373 L 1197 0 L 1395 0 C 1203 -525 1011 -787 326 -902 L 390 -1363 C 1325 -1261 1722 -736 1958 -19 L 3085 3373 z" transform="scale(.01563)"/></defs><use xlink:href="#FiraGO-Regular-64"/><use xlink:href="#FiraGO-Regular-61" x="59"/><use xlink:href="#FiraGO-Regular-74" x="113.4"/><use xlink:href="#FiraGO-Regular-61" x="149.5"/><use xlink:href="#FiraGO-Regular-20" x="203.9"/><use xlink:href="#FiraGO-Regular-74" x="230.4"/><use xlink:href="#FiraGO-Regular-79" x="266.5"/><use xlink:href="#FiraGO-Regular-70" x="315.7"/><use xlink:href="#FiraGO-Regular-65" x="374.3"/></g></g><path d="M 147.517912 47.747736 L 337.641894 47.747736 L 337.641894 70.210546 L 147.517912 70.210546 z" clip-path="url(#p79ec885755)" fill="#0173b2" fill-opacity=".75" stroke="#fff" stroke-width=".8" id="patch_3"/><path d="M 147.517912 70.210546 L 473.22832 70.210546 L 473.22832 92.673356 L 147.517912 92.673356 z" clip-path="url(#p79ec885755)" fill="#0173b2" fill-opacity=".75" stroke="#fff" stroke-width=".8" id="patch_4"/><path d="M 147.517912 92.673356 L 443.687143 92.673356 L 443.687143 115.136166 L 147.517912 115.136166 z" clip-path="url(#p79ec885755)" fill="#0173b2" fill-opacity=".75" stroke="#fff" stroke-width=".8" id="patch_5"/><path d="M 147.517912 115.136166 L 231.596646 115.136166 L 231.596646 137.598976 L 147.517912 137.598976 z" clip-path="url(#p79ec885755)" fill="#0173b2" fill-opacity=".75" stroke="#fff" stroke-width=".8" id="patch_6"/><path d="M 147.517912 137.598976 L 310.373116 137.598976 L 310.373116 160.061786 L 147.517912 160.061786 z" clip-path="url(#p79ec885755)" fill="#0173b2" fill-opacity=".75" stroke="#fff" stroke-width=".8" id="patch_7"/><path d="M 147.517912 160.061786 L 180.846419 160.061786 L 180.846419 182.524596 L 147.517912 182.524596 z" clip-path="url(#p79ec885755)" fill="#0173b2" fill-opacity=".75" stroke="#fff" stroke-width=".8" id="patch_8"/><path d="M 337.641894 47.747736 L 341.429225 47.747736 L 341.429225 70.210546 L 337.641894 70.210546 z" clip-path="url(#p79ec885755)" fill="#56b4e9" fill-opacity=".75" stroke="#fff" stroke-width=".8" id="patch_9"/><path d="M 473.22832 70.210546 L 473.22832 70.210546 L 473.22832 92.673356 L 473.22832 92.673356 z" clip-path="url(#p79ec885755)" fill="#56b4e9" fill-opacity=".75" stroke="#fff" stroke-width=".8" id="patch_10"/><path d="M 443.687143 92.673356 L 443.687143 92.673356 L 443.687143 115.136166 L 443.687143 115.136166 z" clip-path="url(#p79ec885755)" fill="#56b4e9" fill-opacity=".75" stroke="#fff" stroke-width=".8" id="patch_11"/><path d="M 231.596646 115.136166 L 276.287143 115.136166 L 276.287143 137.598976 L 231.596646 137.598976 z" clip-path="url(#p79ec885755)" fill="#56b4e9" fill-opacity=".75" stroke="#fff" stroke-width=".8" id="patch_12"/><path d="M 310.373116 137.598976 L 338.39936 137.598976 L 338.39936 160.061786 L 310.373116 160.061786 z" clip-path="url(#p79ec885755)" fill="#56b4e9" fill-opacity=".75" stroke="#fff" stroke-width=".8" id="patch_13"/><path d="M 180.846419 160.061786 L 366.425605 160.061786 L 366.425605 182.524596 L 180.846419 182.524596 z" clip-path="url(#p79ec885755)" fill="#56b4e9" fill-opacity=".75" stroke="#fff" stroke-width=".8" id="patch_14"/><path d="M 341.429225 47.747736 L 478.530582 47.747736 L 478.530582 70.210546 L 341.429225 70.210546 z" clip-path="url(#p79ec885755)" fill="#949494" fill-opacity=".75" stroke="#fff" stroke-width=".8" id="patch_15"/><path d="M 473.22832 70.210546 L 482.317912 70.210546 L 482.317912 92.673356 L 473.22832 92.673356 z" clip-path="url(#p79ec885755)" fill="#949494" fill-opacity=".75" stroke="#fff" stroke-width=".8" id="patch_16"/><path d="M 443.687143 92.673356 L 482.317913 92.673356 L 482.317913 115.136166 L 443.687143 115.136166 z" clip-path="url(#p79ec885755)" fill="#949494" fill-opacity=".75" stroke="#fff" stroke-width=".8" id="patch_17"/><path d="M 276.287143 115.136166 L 445.959541 115.136166 L 445.959541 137.598976 L 276.287143 137.598976 z" clip-path="url(#p79ec885755)" fill="#949494" fill-opacity=".75" stroke="#fff" stroke-width=".8" id="patch_18"/><path d="M 338.39936 137.598976 L 427.02289 137.598976 L 427.02289 160.061786 L 338.39936 160.061786 z" clip-path="url(#p79ec885755)" fill="#949494" fill-opacity=".75" stroke="#fff" stroke-width=".8" id="patch_19"/><path d="M 366.425605 160.061786 L 438.384881 160.061786 L 438.384881 182.524596 L 366.425605 182.524596 z" clip-path="url(#p79ec885755)" fill="#949494" fill-opacity=".75" stroke="#fff" stroke-width=".8" id="patch_20"/><path d="M 478.530582 47.747736 L 482.317913 47.747736 L 482.317913 70.210546 L 478.530582 70.210546 z" clip-path="url(#p79ec885755)" fill="#d55e00" fill-opacity=".75" stroke="#fff" stroke-width=".8" id="patch_21"/><path d="M 482.317913 70.210546 L 482.317913 70.210546 L 482.317913 92.673356 L 482.317913 92.673356 z" clip-path="url(#p79ec885755)" fill="#d55e00" fill-opacity=".75" stroke="#fff" stroke-width=".8" id="patch_22"/><path d="M 482.317913 92.673356 L 482.317913 92.673356 L 482.317913 115.136166 L 482.317913 115.136166 z" clip-path="url(#p79ec885755)" fill="#d55e00" fill-opacity=".75" stroke="#fff" stroke-width=".8" id="patch_23"/><path d="M 445.959541 115.136166 L 482.317912 115.136166 L 482.317912 137.598976 L 445.959541 137.598976 z" clip-path="url(#p79ec885755)" fill="#d55e00" fill-opacity=".75" stroke="#fff" stroke-width=".8" id="patch_24"/><path d="M 427.02289 137.598976 L 482.317913 137.598976 L 482.317913 160.061786 L 427.02289 160.061786 z" clip-path="url(#p79ec885755)" fill="#d55e00" fill-opacity=".75" stroke="#fff" stroke-width=".8" id="patch_25"/><path d="M 438.384881 160.061786 L 482.317912 160.061786 L 482.317912 182.524596 L 438.384881 182.524596 z" clip-path="url(#p79ec885755)" fill="#d55e00" fill-opacity=".75" stroke="#fff" stroke-width=".8" id="patch_26"/><path d="M 147.517912 189.263439 L 147.517912 41.008893" fill="none" stroke="#fff" stroke-linecap="square" id="patch_27"/><path d="M 482.317912 189.263439 L 482.317912 41.008893" fill="none" stroke="#fff" stroke-linecap="square" id="patch_28"/><path d="M 147.517912 189.263439 L 482.317913 189.263439" fill="none" stroke="#fff" stroke-linecap="square" id="patch_29"/><path d="M 147.517912 41.008893 L 482.317913 41.008893" fill="none" stroke="#fff" stroke-linecap="square" id="patch_30"/></g><g id="axes_2"><path d="M 147.517912 258.448893 L 482.317912 258.448893 L 482.317912 209.030711 L 147.517912 209.030711 L 147.517912 258.448893 z" fill="none" id="patch_31"/><g id="matplotlib.axis_3"><g id="xtick_10"><path d="M 147.517912 258.448893 L 147.517912 209.030711" clip-path="url(#pf70679a661)" fill="none" stroke="#fff" stroke-width=".8" stroke-linecap="round" id="line2d_16"/><g transform="matrix(.0968 0 0 -.0968 144.817 274.009)" fill="#262626" id="text_8"><defs><path id="FiraGO-Regular-30" d="M 1786 4346 C 826 4346 352 3558 352 2138 C 352 717 826 -77 1786 -77 C 2746 -77 3219 717 3219 2138 C 3219 3552 2746 4346 1786 4346 z M 1786 3878 C 2317 3878 2605 3392 2605 2138 C 2605 877 2317 390 1786 390 C 1248 390 966 877 966 2138 C 966 3392 1248 3878 1786 3878 z" transform="scale(.01563)"/></defs><use xlink:href="#FiraGO-Regular-30"/></g></g><g id="xtick_11"><path d="M 185.391216 258.448893 L 185.391216 209.030711" clip-path="url(#pf70679a661)" fill="none" stroke="#fff" stroke-width=".8" stroke-linecap="round" id="line2d_17"/><g transform="matrix(.0968 0 0 -.0968 180.266 274.009)" fill="#262626" id="text_9"><defs><path id="FiraGO-Regular-35" d="M 2771 4282 L 454 4282 L 454 2125 L 915 2125 C 1120 2221 1293 2272 1523 2272 C 1965 2272 2304 2042 2304 1382 C 2304 755 1965 403 1427 403 C 1056 403 781 538 512 806 L 166 467 C 499 128 890 -77 1434 -77 C 2323 -77 2918 518 2918 1370 C 2918 2221 2426 2726 1702 2726 C 1472 2726 1242 2675 1018 2560 L 1018 3821 L 2688 3821 L 2771 4282 z" transform="scale(.01563)"/></defs><use xlink:href="#FiraGO-Regular-35"/><use xlink:href="#FiraGO-Regular-30" x="50.1"/></g></g><g id="xtick_12"><path d="M 223.264519 258.448893 L 223.264519 209.030711" clip-path="url(#pf70679a661)" fill="none" stroke="#fff" stroke-width=".8" stroke-linecap="round" id="line2d_18"/><g transform="matrix(.0968 0 0 -.0968 215.768 274.009)" fill="#262626" id="text_10"><defs><path id="FiraGO-Regular-31" d="M 2067 4282 L 1549 4282 L 224 3462 L 480 3046 L 1478 3654 L 1478 0 L 2067 0 L 2067 4282 z" transform="scale(.01563)"/></defs><use xlink:href="#FiraGO-Regular-31"/><use xlink:href="#FiraGO-Regular-30" x="43.3"/><use xlink:href="#FiraGO-Regular-30" x="99.1"/></g></g><g id="xtick_13"><path d="M 261.137822 258.448893 L 261.137822 209.030711" clip-path="url(#pf70679a661)" fill="none" stroke="#fff" stroke-width=".8" stroke-linecap="round" id="line2d_19"/><g transform="matrix(.0968 0 0 -.0968 253.917 274.009)" fill="#262626" id="text_11"><use xlink:href="#FiraGO-Regular-31"/><use xlink:href="#FiraGO-Regular-35" x="43.3"/><use xlink:href="#FiraGO-Regular-30" x="93.4"/></g></g><g id="xtick_14"><path d="M 299.011125 258.448893 L 299.011125 209.030711" clip-path="url(#pf70679a661)" fill="none" stroke="#fff" stroke-width=".8" stroke-linecap="round" id="line2d_20"/><g transform="matrix(.0968 0 0 -.0968 291.214 274.009)" fill="#262626" id="text_12"><defs><path id="FiraGO-Regular-32" d="M 1459 4346 C 922 4346 506 4128 160 3699 L 544 3392 C 832 3718 1069 3859 1427 3859 C 1843 3859 2131 3597 2131 3149 C 2131 2451 1760 2042 250 467 L 250 0 L 2778 0 L 2848 493 L 922 493 C 2234 1805 2746 2374 2746 3174 C 2746 3840 2246 4346 1459 4346 z" transform="scale(.01563)"/></defs><use xlink:href="#FiraGO-Regular-32"/><use xlink:href="#FiraGO-Regular-30" x="49.5"/><use xlink:href="#FiraGO-Regular-30" x="105.3"/></g></g><g id="xtick_15"><path d="M 336.884428 258.448893 L 336.884428 209.030711" clip-path="url(#pf70679a661)" fill="none" stroke="#fff" stroke-width=".8" stroke-linecap="round" id="line2d_21"/><g transform="matrix(.0968 0 0 -.0968 329.364 274.009)" fill="#262626" id="text_13"><use xlink:href="#FiraGO-Regular-32"/><use xlink:href="#FiraGO-Regular-35" x="49.5"/><use xlink:href="#FiraGO-Regular-30" x="99.6"/></g></g><g id="xtick_16"><path d="M 374.757732 258.448893 L 374.757732 209.030711" clip-path="url(#pf70679a661)" fill="none" stroke="#fff" stroke-width=".8" stroke-linecap="round" id="line2d_22"/><g transform="matrix(.0968 0 0 -.0968 366.941 274.009)" fill="#262626" id="text_14"><defs><path id="FiraGO-Regular-33" d="M 1440 4346 C 979 4346 582 4179 218 3840 L 525 3488 C 813 3757 1069 3872 1408 3872 C 1837 3872 2118 3622 2118 3219 C 2118 2720 1766 2464 1344 2464 L 1126 2464 L 1056 2010 L 1376 2010 C 1894 2010 2227 1830 2227 1242 C 2227 736 1901 403 1363 403 C 1018 403 730 531 448 826 L 96 499 C 422 109 870 -77 1382 -77 C 2272 -77 2842 486 2842 1235 C 2842 1882 2413 2221 1875 2272 C 2355 2387 2707 2714 2707 3258 C 2707 3834 2259 4346 1440 4346 z" transform="scale(.01563)"/></defs><use xlink:href="#FiraGO-Regular-33"/><use xlink:href="#FiraGO-Regular-30" x="49.9"/><use xlink:href="#FiraGO-Regular-30" x="105.7"/></g></g><g id="xtick_17"><path d="M 412.631035 258.448893 L 412.631035 209.030711" clip-path="url(#pf70679a661)" fill="none" stroke="#fff" stroke-width=".8" stroke-linecap="round" id="line2d_23"/><g transform="matrix(.0968 0 0 -.0968 405.09 274.009)" fill="#262626" id="text_15"><use xlink:href="#FiraGO-Regular-33"/><use xlink:href="#FiraGO-Regular-35" x="49.9"/><use xlink:href="#FiraGO-Regular-30" x="100"/></g></g><g id="xtick_18"><path d="M 450.504338 258.448893 L 450.504338 209.030711" clip-path="url(#pf70679a661)" fill="none" stroke="#fff" stroke-width=".8" stroke-linecap="round" id="line2d_24"/><g transform="matrix(.0968 0 0 -.0968 442.528 274.009)" fill="#262626" id="text_16"><defs><path id="FiraGO-Regular-34" d="M 3213 1523 L 2656 1523 L 2656 2675 L 2144 2675 L 2093 1523 L 877 1523 L 2035 4141 L 1542 4346 L 256 1478 L 256 1056 L 2086 1056 L 2086 0 L 2656 0 L 2656 1056 L 3213 1056 L 3213 1523 z" transform="scale(.01563)"/></defs><use xlink:href="#FiraGO-Regular-34"/><use xlink:href="#FiraGO-Regular-30" x="53.2"/><use xlink:href="#FiraGO-Regular-30" x="109"/></g></g><g transform="matrix(.1056 0 0 -.1056 277.17 287.99)" fill="#262626" id="text_17"><defs><path id="FiraGO-Regular-75" d="M 3091 3373 L 2502 3373 L 2502 966 C 2298 627 2022 384 1658 384 C 1293 384 1139 557 1139 1018 L 1139 3373 L 550 3373 L 550 954 C 550 294 902 -77 1491 -77 C 1971 -77 2285 115 2541 525 L 2586 0 L 3091 0 L 3091 3373 z" transform="scale(.01563)"/><path id="FiraGO-Regular-62" d="M 2131 3450 C 1722 3450 1408 3264 1178 2950 L 1178 4800 L 589 4730 L 589 0 L 1107 0 L 1165 371 C 1395 90 1690 -77 2061 -77 C 2880 -77 3386 634 3386 1690 C 3386 2816 2893 3450 2131 3450 z M 1920 390 C 1619 390 1350 576 1178 845 L 1178 2458 C 1350 2726 1594 2982 1965 2982 C 2438 2982 2752 2650 2752 1690 C 2752 768 2413 390 1920 390 z" transform="scale(.01563)"/></defs><use xlink:href="#FiraGO-Regular-6e"/><use xlink:href="#FiraGO-Regular-75" x="57.9"/><use xlink:href="#FiraGO-Regular-6d" x="115.4"/><use xlink:href="#FiraGO-Regular-62" x="200.4"/><use xlink:href="#FiraGO-Regular-65" x="259"/><use xlink:href="#FiraGO-Regular-72" x="313.4"/><use xlink:href="#FiraGO-Regular-20" x="351.7"/><use xlink:href="#FiraGO-Regular-6f" x="378.2"/><use xlink:href="#FiraGO-Regular-66" x="436.6"/><use xlink:href="#FiraGO-Regular-20" x="470.1"/><use xlink:href="#FiraGO-Regular-61" x="496.6"/><use xlink:href="#FiraGO-Regular-70" x="551"/><use xlink:href="#FiraGO-Regular-70" x="609.6"/><use xlink:href="#FiraGO-Regular-73" x="668.2"/></g></g><g id="matplotlib.axis_4"><g id="ytick_7"><path d="M 147.517912 222.508397 L 482.317912 222.508397" clip-path="url(#pf70679a661)" fill="none" stroke="#fff" stroke-width=".8" stroke-linecap="round" id="line2d_25"/><g transform="matrix(.0968 0 0 -.0968 99.887 226.284)" fill="#262626" id="text_18"><defs><path id="FiraGO-Regular-41" d="M 2989 0 L 3629 0 L 2221 4410 L 1453 4410 L 38 0 L 653 0 L 986 1107 L 2656 1107 L 2989 0 z M 1133 1600 L 1824 3904 L 2509 1600 L 1133 1600 z" transform="scale(.01563)"/><path id="FiraGO-Regular-6c" d="M 1254 -77 C 1427 -77 1594 -32 1722 38 L 1568 448 C 1504 422 1434 410 1350 410 C 1197 410 1139 499 1139 678 L 1139 4800 L 550 4730 L 550 666 C 550 186 826 -77 1254 -77 z" transform="scale(.01563)"/></defs><use xlink:href="#FiraGO-Regular-41"/><use xlink:href="#FiraGO-Regular-6e" x="57.3"/><use xlink:href="#FiraGO-Regular-61" x="115.2"/><use xlink:href="#FiraGO-Regular-6c" x="169.6"/><use xlink:href="#FiraGO-Regular-79" x="199"/><use xlink:href="#FiraGO-Regular-74" x="248.2"/><use xlink:href="#FiraGO-Regular-69" x="284.3"/><use xlink:href="#FiraGO-Regular-63" x="311.9"/><use xlink:href="#FiraGO-Regular-73" x="359.6"/></g></g><g id="ytick_8"><path d="M 147.517912 244.971207 L 482.317912 244.971207" clip-path="url(#pf70679a661)" fill="none" stroke="#fff" stroke-width=".8" stroke-linecap="round" id="line2d_26"/><g transform="matrix(.0968 0 0 -.0968 31.537 248.746)" fill="#262626" id="text_19"><defs><path id="FiraGO-Regular-6b" d="M 1178 4800 L 589 4730 L 589 0 L 1178 0 L 1178 4800 z M 3117 3373 L 2458 3373 L 1216 1843 L 2554 0 L 3258 0 L 1875 1882 L 3117 3373 z" transform="scale(.01563)"/></defs><use xlink:href="#FiraGO-Regular-41"/><use xlink:href="#FiraGO-Regular-64" x="57.3"/><use xlink:href="#FiraGO-Regular-76" x="116.3"/><use xlink:href="#FiraGO-Regular-65" x="165.5"/><use xlink:href="#FiraGO-Regular-72" x="219.9"/><use xlink:href="#FiraGO-Regular-74" x="258.2"/><use xlink:href="#FiraGO-Regular-69" x="294.3"/><use xlink:href="#FiraGO-Regular-73" x="321.9"/><use xlink:href="#FiraGO-Regular-69" x="368.6"/><use xlink:href="#FiraGO-Regular-6e" x="396.2"/><use xlink:href="#FiraGO-Regular-67" x="454.1"/><use xlink:href="#FiraGO-Regular-20" x="506.1"/><use xlink:href="#FiraGO-Regular-6f" x="532.6"/><use xlink:href="#FiraGO-Regular-72" x="591"/><use xlink:href="#FiraGO-Regular-20" x="629.3"/><use xlink:href="#FiraGO-Regular-6d" x="655.8"/><use xlink:href="#FiraGO-Regular-61" x="740.8"/><use xlink:href="#FiraGO-Regular-72" x="795.2"/><use xlink:href="#FiraGO-Regular-6b" x="833.5"/><use xlink:href="#FiraGO-Regular-65" x="884.4"/><use xlink:href="#FiraGO-Regular-74" x="938.8"/><use xlink:href="#FiraGO-Regular-69" x="974.9"/><use xlink:href="#FiraGO-Regular-6e" x="1002.5"/><use xlink:href="#FiraGO-Regular-67" x="1060.4"/></g></g><g transform="matrix(0 -.1056 -.1056 0 25.288 253.408)" fill="#262626" id="text_20"><use xlink:href="#FiraGO-Regular-70"/><use xlink:href="#FiraGO-Regular-75" x="58.6"/><use xlink:href="#FiraGO-Regular-72" x="116.1"/><use xlink:href="#FiraGO-Regular-70" x="154.4"/><use xlink:href="#FiraGO-Regular-6f" x="213"/><use xlink:href="#FiraGO-Regular-73" x="271.4"/><use xlink:href="#FiraGO-Regular-65" x="318.1"/></g></g><path d="M 147.517912 211.276992 L 189.936012 211.276992 L 189.936012 233.739802 L 147.517912 233.739802 z" clip-path="url(#pf70679a661)" fill="#0173b2" fill-opacity=".75" stroke="#fff" stroke-width=".8" id="patch_32"/><path d="M 147.517912 233.739802 L 265.682618 233.739802 L 265.682618 256.202612 L 147.517912 256.202612 z" clip-path="url(#pf70679a661)" fill="#0173b2" fill-opacity=".75" stroke="#fff" stroke-width=".8" id="patch_33"/><path d="M 189.936012 211.276992 L 255.078093 211.276992 L 255.078093 233.739802 L 189.936012 233.739802 z" clip-path="url(#pf70679a661)" fill="#56b4e9" fill-opacity=".75" stroke="#fff" stroke-width=".8" id="patch_34"/><path d="M 265.682618 233.739802 L 289.921532 233.739802 L 289.921532 256.202612 L 265.682618 256.202612 z" clip-path="url(#pf70679a661)" fill="#56b4e9" fill-opacity=".75" stroke="#fff" stroke-width=".8" id="patch_35"/><path d="M 255.078093 211.276992 L 463.381261 211.276992 L 463.381261 233.739802 L 255.078093 233.739802 z" clip-path="url(#pf70679a661)" fill="#949494" fill-opacity=".75" stroke="#fff" stroke-width=".8" id="patch_36"/><path d="M 289.921532 233.739802 L 461.108863 233.739802 L 461.108863 256.202612 L 289.921532 256.202612 z" clip-path="url(#pf70679a661)" fill="#949494" fill-opacity=".75" stroke="#fff" stroke-width=".8" id="patch_37"/><path d="M 463.381261 211.276992 L 482.317912 211.276992 L 482.317912 233.739802 L 463.381261 233.739802 z" clip-path="url(#pf70679a661)" fill="#d55e00" fill-opacity=".75" stroke="#fff" stroke-width=".8" id="patch_38"/><path d="M 461.108863 233.739802 L 482.317912 233.739802 L 482.317912 256.202612 L 461.108863 256.202612 z" clip-path="url(#pf70679a661)" fill="#d55e00" fill-opacity=".75" stroke="#fff" stroke-width=".8" id="patch_39"/><path d="M 147.517912 258.448893 L 147.517912 209.030711" fill="none" stroke="#fff" stroke-linecap="square" id="patch_40"/><path d="M 482.317912 258.448893 L 482.317912 209.030711" fill="none" stroke="#fff" stroke-linecap="square" id="patch_41"/><path d="M 147.517912 258.448893 L 482.317913 258.448893" fill="none" stroke="#fff" stroke-linecap="square" id="patch_42"/><path d="M 147.517912 209.030711 L 482.317913 209.030711" fill="none" stroke="#fff" stroke-linecap="square" id="patch_43"/><g id="legend_1"><path d="M 114.4139 31.227075 L 404.937925 31.227075 Q 406.873925 31.227075 406.873925 29.291075 L 406.873925 1.936 Q 406.873925 -0 404.937925 -0 L 114.4139 -0 Q 112.4779 -0 112.4779 1.936 L 112.4779 29.291075 Q 112.4779 31.227075 114.4139 31.227075 z" fill="#eaeaf2" opacity=".8" stroke="#ccc" stroke-width=".8" id="patch_44"/><path d="M 116.3499 11.132 L 135.7099 11.132 L 135.7099 4.356 L 116.3499 4.356 z" fill="#d55e00" fill-opacity=".75" stroke="#fff" stroke-width=".8" id="patch_45"/><g transform="matrix(.0968 0 0 -.0968 143.454 11.132)" fill="#262626" id="text_21"><use xlink:href="#FiraGO-Regular-6e"/><use xlink:href="#FiraGO-Regular-6f" x="57.9"/><use xlink:href="#FiraGO-Regular-74" x="116.3"/><use xlink:href="#FiraGO-Regular-20" x="152.4"/><use xlink:href="#FiraGO-Regular-64" x="178.9"/><use xlink:href="#FiraGO-Regular-65" x="237.9"/><use xlink:href="#FiraGO-Regular-63" x="292.3"/><use xlink:href="#FiraGO-Regular-6c" x="340"/><use xlink:href="#FiraGO-Regular-61" x="369.4"/><use xlink:href="#FiraGO-Regular-72" x="423.8"/><use xlink:href="#FiraGO-Regular-65" x="462.1"/><use xlink:href="#FiraGO-Regular-64" x="516.5"/><use xlink:href="#FiraGO-Regular-20" x="575.5"/><use xlink:href="#FiraGO-Regular-62" x="602"/><use xlink:href="#FiraGO-Regular-75" x="660.6"/><use xlink:href="#FiraGO-Regular-74" x="718.1"/><use xlink:href="#FiraGO-Regular-20" x="754.2"/><use xlink:href="#FiraGO-Regular-6f" x="780.7"/><use xlink:href="#FiraGO-Regular-62" x="839.1"/><use xlink:href="#FiraGO-Regular-73" x="897.7"/><use xlink:href="#FiraGO-Regular-65" x="944.4"/><use xlink:href="#FiraGO-Regular-72" x="998.8"/><use xlink:href="#FiraGO-Regular-76" x="1037.1"/><use xlink:href="#FiraGO-Regular-65" x="1086.3"/><use xlink:href="#FiraGO-Regular-64" x="1140.7"/></g><path d="M 116.3499 25.293537 L 135.7099 25.293537 L 135.7099 18.517537 L 116.3499 18.517537 z" fill="#949494" fill-opacity=".75" stroke="#fff" stroke-width=".8" id="patch_46"/><g transform="matrix(.0968 0 0 -.0968 143.454 25.294)" fill="#262626" id="text_22"><use xlink:href="#FiraGO-Regular-64"/><use xlink:href="#FiraGO-Regular-65" x="59"/><use xlink:href="#FiraGO-Regular-63" x="113.4"/><use xlink:href="#FiraGO-Regular-6c" x="161.1"/><use xlink:href="#FiraGO-Regular-61" x="190.5"/><use xlink:href="#FiraGO-Regular-72" x="244.9"/><use xlink:href="#FiraGO-Regular-65" x="283.2"/><use xlink:href="#FiraGO-Regular-64" x="337.6"/><use xlink:href="#FiraGO-Regular-20" x="396.6"/><use xlink:href="#FiraGO-Regular-62" x="423.1"/><use xlink:href="#FiraGO-Regular-75" x="481.7"/><use xlink:href="#FiraGO-Regular-74" x="539.2"/><use xlink:href="#FiraGO-Regular-20" x="575.3"/><use xlink:href="#FiraGO-Regular-6e" x="601.8"/><use xlink:href="#FiraGO-Regular-6f" x="659.7"/><use xlink:href="#FiraGO-Regular-74" x="718.1"/><use xlink:href="#FiraGO-Regular-20" x="754.2"/><use xlink:href="#FiraGO-Regular-6f" x="780.7"/><use xlink:href="#FiraGO-Regular-62" x="839.1"/><use xlink:href="#FiraGO-Regular-73" x="897.7"/><use xlink:href="#FiraGO-Regular-65" x="944.4"/><use xlink:href="#FiraGO-Regular-72" x="998.8"/><use xlink:href="#FiraGO-Regular-76" x="1037.1"/><use xlink:href="#FiraGO-Regular-65" x="1086.3"/><use xlink:href="#FiraGO-Regular-64" x="1140.7"/></g><path d="M 278.948187 11.132 L 298.308187 11.132 L 298.308187 4.356 L 278.948187 4.356 z" fill="#56b4e9" fill-opacity=".75" stroke="#fff" stroke-width=".8" id="patch_47"/><g transform="matrix(.0968 0 0 -.0968 306.052 11.132)" fill="#262626" id="text_23"><use xlink:href="#FiraGO-Regular-63"/><use xlink:href="#FiraGO-Regular-6f" x="47.7"/><use xlink:href="#FiraGO-Regular-72" x="106.1"/><use xlink:href="#FiraGO-Regular-72" x="144.4"/><use xlink:href="#FiraGO-Regular-65" x="182.7"/><use xlink:href="#FiraGO-Regular-63" x="237.1"/><use xlink:href="#FiraGO-Regular-74" x="284.8"/><use xlink:href="#FiraGO-Regular-6c" x="320.9"/><use xlink:href="#FiraGO-Regular-79" x="350.3"/><use xlink:href="#FiraGO-Regular-20" x="399.5"/><use xlink:href="#FiraGO-Regular-64" x="426"/><use xlink:href="#FiraGO-Regular-65" x="485"/><use xlink:href="#FiraGO-Regular-63" x="539.4"/><use xlink:href="#FiraGO-Regular-6c" x="587.1"/><use xlink:href="#FiraGO-Regular-61" x="616.5"/><use xlink:href="#FiraGO-Regular-72" x="670.9"/><use xlink:href="#FiraGO-Regular-65" x="709.2"/><use xlink:href="#FiraGO-Regular-64" x="763.6"/></g><path d="M 278.948187 25.293537 L 298.308187 25.293537 L 298.308187 18.517537 L 278.948187 18.517537 z" fill="#0173b2" fill-opacity=".75" stroke="#fff" stroke-width=".8" id="patch_48"/><g transform="matrix(.0968 0 0 -.0968 306.052 25.294)" fill="#262626" id="text_24"><use xlink:href="#FiraGO-Regular-63"/><use xlink:href="#FiraGO-Regular-6f" x="47.7"/><use xlink:href="#FiraGO-Regular-72" x="106.1"/><use xlink:href="#FiraGO-Regular-72" x="144.4"/><use xlink:href="#FiraGO-Regular-65" x="182.7"/><use xlink:href="#FiraGO-Regular-63" x="237.1"/><use xlink:href="#FiraGO-Regular-74" x="284.8"/><use xlink:href="#FiraGO-Regular-6c" x="320.9"/><use xlink:href="#FiraGO-Regular-79" x="350.3"/><use xlink:href="#FiraGO-Regular-20" x="399.5"/><use xlink:href="#FiraGO-Regular-6e" x="426"/><use xlink:href="#FiraGO-Regular-6f" x="483.9"/><use xlink:href="#FiraGO-Regular-74" x="542.3"/><use xlink:href="#FiraGO-Regular-20" x="578.4"/><use xlink:href="#FiraGO-Regular-64" x="604.9"/><use xlink:href="#FiraGO-Regular-65" x="663.9"/><use xlink:href="#FiraGO-Regular-63" x="718.3"/><use xlink:href="#FiraGO-Regular-6c" x="766"/><use xlink:href="#FiraGO-Regular-61" x="795.4"/><use xlink:href="#FiraGO-Regular-72" x="849.8"/><use xlink:href="#FiraGO-Regular-65" x="888.1"/><use xlink:href="#FiraGO-Regular-64" x="942.5"/></g></g></g></g><defs><clipPath id="p79ec885755"><path d="M147.518 41.009H482.318V189.264H147.518z"/></clipPath><clipPath id="pf70679a661"><path d="M147.518 209.031H482.318V258.449H147.518z"/></clipPath></defs></svg>