<svg version="1" xmlns="http://www.w3.org/2000/svg" width="1945.333" height="1945.333" viewBox="0 0 1459.000000 1459.000000"><path d="M679.9.4c-.2.2-5.1.7-10.9 1.1-5.7.4-10.7.8-11 1-.3.1-3.6.6-7.5 1-3.8.4-7.2.8-7.5 1-.3.1-2.5.6-5 .9-5.6.8-9.7 1.5-13.5 2.3-1.6.4-3.4.8-4 .9-.5.1-3.6.7-6.7 1.3-3.2.7-5.9 1.2-6 1.1-.2-.1-1.5.3-3.1.9-1.5.6-3.8 1.3-5 1.5-16.7 3.3-54.2 17.3-79 29.5-89.1 43.9-160.2 118.3-199.4 208.6-1.9 4.4-4 9.3-4.8 11-5.9 13.5-15 42.6-19.5 62.3-3.1 13.6-3.1 13.6-5.5 28.7-2.4 14.8-2.3 14.4-3 22.5-.4 4.1-.9 9.3-1.2 11.5-.3 2.2-.6 57.5-.8 122.8l-.3 118.8 2.1.9c1.9.7 1.9.9.4.9-1.2.1 14.8 16.7 45.1 46.8C359.7 703.5 459.2 802.6 555 898c95.8 95.4 174.6 173.7 175.1 173.8.5.2 42-40.6 92.2-90.6 50.1-50.1 119.6-119.2 154.2-153.7 123.7-122.9 197.2-196.6 196.6-196.9-1.6-.8-35.5-.9-373.9-1l-361.3-.1.4-117.5c.2-64.6.7-119.3 1.1-121.5.3-2.2 1.3-8.3 2.1-13.5 4.8-30.8 16-62.6 31.4-89.5 41.9-72.9 114.5-122.1 196.6-133.1 14-1.9 19.3-2.1 39.5-1.9 20.2.3 28.3 1 47 4 17.1 2.9 46.8 12.9 66.5 22.5 15.5 7.6 33.1 18.1 41.5 24.7 14.8 11.7 20.4 16.6 30.6 26.8 11.9 11.9 22.5 24.6 31.7 37.8 2.6 3.7 4.7 7.2 4.7 7.7 0 .4.4 1 .8 1.2 1.1.4 9.2 14.7 14.6 25.6 7.1 14.6 16.2 39.7 18.9 52.2 3.3 14.9 4.8 23.3 5.3 28.4.4 3.4.8 6.4 1 6.7.7 1.2 1.6 23.7 1.9 47.9.2 13.5.6 25.8.9 27.5 6 28.1 25.5 49.7 53.1 58.5 10 3.3 30 3.7 40.5.9 21.7-5.7 39.4-19.9 49.4-39.6 7.2-14.3 8.2-21.3 8-55.8-.2-33.8-.8-44.7-3.4-64-.6-3.9-1.2-8.7-1.4-10.7-.2-2-.7-4.5-1-5.5-.2-1-.7-3.5-1-5.6-3.2-21.1-11.8-51.3-22.3-78.2-10.4-26.3-23.9-52.4-39.2-75.5-4.2-6.3-7.8-12-8-12.5-.2-.6-.7-1.2-1-1.5-.3-.3-2.6-3.2-5.1-6.5-2.4-3.3-5-6.6-5.7-7.5-.6-.8-3.7-4.7-6.9-8.5-11-13.7-32.5-36.1-45-47-3.1-2.8-6.2-5.5-6.8-6-.6-.6-4.9-4.1-9.6-7.8-4.7-3.8-9.2-7.4-10-8-7.2-5.9-32.6-22.7-42.7-28.4-2.6-1.4-7.5-4.2-10.8-6C872.8 32 824 14.4 786.5 7.6c-8.1-1.5-20.5-3.5-24.5-4-2.5-.3-6.7-.8-9.5-1.1-2.7-.3-6.6-.8-8.5-1.1-4-.6-63.6-1.5-64.1-1z"/><path d="M139.1 712c-10 12.5-18.2 25.5-25.1 39.5-5 10.2-11.1 25-12.6 30.5-3.3 12.6-6.4 25.9-6.9 30.2-.4 2.9-.8 5.5-1 5.8-1.4 2.3-1.7 45.2-1.7 226-.1 184.3.2 219.3 1.7 226.8.2 1.1.6 3.7.9 5.8 7.3 47.1 33 94.3 68.7 125.9 9.1 8.1 11.5 10 18.9 15.3 28.4 20.4 66.1 35.3 98 38.8 1.4.1 5.7.6 9.5 1 9.2 1 868.1 1 880.5 0 5.2-.4 9.7-.9 10-1.1.3-.2 2.6-.6 5-1 34.6-5 71-21.3 100.5-45 10.8-8.6 23.1-20.6 30.3-29.5 2.9-3.6 6-7.3 6.8-8.4 10-12.1 25.4-40.8 31.8-59.1 3.7-10.8 8.1-27.2 9.1-34.5.3-2.5.8-5.2 1-6 1.7-6.6 2-42.5 2-231 0-202.3-.1-215.2-1.8-226-4-25-9.8-44.1-19.9-65-6.2-12.9-22.5-38.5-27.5-43.2l-2.8-2.6-128 127.5c-343.9 342.6-406.4 404.6-411 407.9-9 6.5-20.7 11.4-33.5 13.9-4.3.9-20.9.6-24.8-.4-2-.6-4.9-1.2-6.3-1.5-5.3-.9-17.8-6.8-24-11.3-3.5-2.6-14.6-12.8-24.5-22.7-10-10-95.2-94.8-189.4-188.6-305.6-304.3-321.7-320.5-323.6-323.8-1-1.7-2.1-3.2-2.5-3.2-.3 0-3.8 4-7.8 9z"/></svg>