<svg version="1" xmlns="http://www.w3.org/2000/svg" width="853.333" height="853.333" viewBox="0 0 640.000000 640.000000"><path d="M291.8.6c-.3.2-3.1.6-6.4.9-3.2.3-6.6.8-7.4 1-.8.3-3.2.7-5.2 1-2.9.5-12.3 3-22.3 5.9-.5.2-2.3.8-3.8 1.4-1.6.7-3.1 1.2-3.3 1.2-.3 0-2.6.9-5.2 2.1-2.6 1.1-6.3 2.7-8.2 3.6-2.8 1.2-12.7 6.8-22.9 12.8-9.9 5.9-31 25.1-41 37.3-15 18.5-27 41.1-33.6 63.8-1.5 4.9-2.9 10-3.1 11.4-.3 1.4-.7 3.2-.9 4-.7 2.5-1.8 10-3 21-.2 1.9-.5 27.2-.5 56.2l-.1 52.6 22.5 22.4C284.6 435.3 319.3 469.5 320 469.5c.5 0 36.7-35.6 80.5-79 43.8-43.5 87.5-86.8 97.1-96.3 10.8-10.7 16.7-17.2 15.7-17.2-1-.1-73.7-.1-161.5-.1-148.7 0-159.7-.2-159.7-1.7 0-1.7 0-7.8-.1-11.7-.1-6.5.2-12 .6-12.6.2-.4.1-1-.4-1.3-.5-.3-.6-2.8-.2-5.6.4-2.7.4-5 0-5-.3 0-.3-2.9 0-6.5s.2-6.5-.3-6.5c-.4 0-.6-.4-.2-.9.5-.9.6-6.8.5-30.6-.1-24.6 1.5-35.8 7.7-52.8 7.6-21.2 21.5-39.6 40.7-54 6.1-4.6 16-10.2 20.7-11.9 1.9-.6 3.6-1.4 3.9-1.8.8-1 18.7-5.9 26-7.1 7.7-1.2 23.1-1.5 31.5-.5 6.2.7 21.5 4.1 25 5.5 23.5 9.9 32.5 15.7 46.7 30.3 9.5 9.8 14.8 17.3 21.1 30.3 8.4 17.2 11.5 32.2 11.8 55.9.2 19 1.9 24.8 9.4 32 13.5 13 33.6 13.3 46.3.7 2.4-2.4 5.5-6.8 7-9.9 2.6-5.5 2.7-6.3 2.6-23.7 0-16-.5-24.5-1.9-32.5-.3-1.4-.7-3.9-1-5.5-1.3-8.3-6.3-25-10-34-2.7-6.5-6.5-14.9-7.7-17-.6-1.1-2.6-4.5-4.3-7.5-3-5.3-11.2-17.4-14.4-21.3-20.6-25-43.5-42.5-72.1-54.9-6.6-2.9-17.6-6.8-20.7-7.4-.6-.1-2.7-.7-4.5-1.3-1.8-.6-4.4-1.2-5.8-1.5-1.4-.3-5-.9-8-1.5s-7.3-1.3-9.5-1.7C327.9.7 292.4 0 291.8.6z"/><path d="M61.1 310.6c-2.7 3.1-10.2 14.8-11.8 18.4-3.7 8.4-4.5 10.3-4.8 12.1-.2 1.1-.7 2.9-1 3.9-.7 2.3-1.2 4.8-2.5 12.5-.6 3.7-1 42.9-.9 101.5 0 89.7.1 96 1.9 104.2 1.1 4.8 2.4 9.7 3 10.8.6 1.1.8 2 .6 2-.3 0 .3 1.6 1.4 3.5 1.1 2 2 4.2 2 5 0 .8.5 1.5 1 1.5.6 0 1 .9 1 2s.4 2 .9 2 1.2.8 1.6 1.8c.3 1.1 2.3 4.3 4.5 7.3 15.7 21.1 38.7 34.7 65 38.5 7.3 1 393 1.1 393 .1 0-.5.4-.6.9-.3.9.6 14.1-1.8 17.1-3.1.8-.3 2.1-.7 2.8-.9 3-.6 16.5-7.5 22.2-11.4 6.2-4.2 18.4-15.6 21.3-20 5.5-8.1 6.7-10.1 9-14.6 4.1-8 5.4-11.5 7.9-20.4l2.3-8.5V459c0-54.7-.4-101.5-.8-104-.5-2.5-1.6-7-2.5-10-.8-3-1.7-6-1.8-6.6-.4-2.2-5.8-13.9-7.6-16.6-1-1.4-1.8-2.9-1.8-3.2 0-1.2-6.5-10.6-7.4-10.6-.4 0-16.6 15.7-36 34.9-19.3 19.2-53.1 52.8-75.1 74.6-22 21.8-59.3 58.9-83 82.4-28.3 28-44.2 43.2-46.5 44.1-1.9.8-3.7 1.7-4 2.1-.9 1.3-6.3 2.2-14 2.2-13.4.1-14.6-.8-49.8-35.7-16.9-16.8-55-54.6-84.7-84.1-97.7-97-115.7-115-117.7-117.8-2.4-3.3-2.9-3.4-5.7-.1z"/></svg>