<svg width="24" height="24" xmlns="http://www.w3.org/2000/svg" fill-rule="evenodd" clip-rule="evenodd"><path d="M24 24h-24v-18h5v9l7-6v3.704l-1.828 1.529.642.767 3.367-2.817 3.819-3.183v3.713l-1.816 1.52.641.767 4.602-3.85-.003-.004 2.576-2.146v15zm-18-6h-2v3h2v-3zm10 0h-2v3h2v-3zm-5 0h-2v3h2v-3zm10 0h-2v3h2v-3zm-18-13h-1c.198-2.182 1.785-4 3.5-4 .246 0 .478.059.683.164.316-.687 1.011-1.164 1.817-1.164s1.501.477 1.817 1.164c.205-.105.437-.164.683-.164.828 0 1.5.672 1.5 1.5s-.672 1.5-1.5 1.5c-.246 0-.478-.059-.683-.164-.316.687-1.011 1.164-1.817 1.164-2.345 0-3.722-2.951-5 0z"/></svg>