<svg xmlns="http://www.w3.org/2000/svg" width="24" height="24" viewBox="0 0 24 24"><path d="M11.4 2C15.5 2 14 8 14 8s6-1.7 6 2.5V22H4V2h7.4zm.8-2H2v24h20V9.6C22 7.2 15.4 0 12.2 0z"/><path d="M7.6 18.1c0-.8.1-1.3.1-2 0-.4-.4-.9-1.6-.9v-1c1.3 0 1.6-.5 1.6-.9 0-.7-.1-1.2-.1-2 0-1.3.7-1.7 2.2-1.7h.9v.9h-.5c-1 0-1.2.2-1.2.8 0 .6.1 1.2.1 2 0 .9-.3 1.3-1.2 1.4.9.1 1.2.5 1.2 1.4 0 .7-.1 1.3-.1 2s.2.8 1.2.8h.5v.9h-.9c-1.5 0-2.2-.4-2.2-1.7zm5.6.8h.5c1 0 1.2-.2 1.2-.8v-2c0-.9.3-1.3 1.2-1.4-.9-.1-1.2-.5-1.2-1.4v-2c0-.7-.2-.8-1.2-.8h-.5v-1h.9c1.5 0 2.2.4 2.2 1.7 0 .8-.1 1.3-.1 2 0 .4.3.9 1.7.9v1c-1.3 0-1.7.5-1.7.9 0 .8.1 1.2.1 2 0 1.3-.7 1.7-2.2 1.7h-.9v-.8z"/></svg>