<svg width="24" height="24" xmlns="http://www.w3.org/2000/svg" fill-rule="evenodd" clip-rule="evenodd"><path d="M24 23h-24v-13.275l2-1.455v-7.27h20v7.272l2 1.453v13.275zm-20-10.472v-9.528h16v9.527l-8 5.473-8-5.472zm8.181-7.948c-.094-.286.12-.58.418-.58.184 0 .356.117.417.302l2.587 6.493c.077.232-.048.481-.278.558-.231.077-.48-.048-.557-.279 0 0-1.633-.547-3.57.096l1.273 1.979c.133.194.04.46-.18.533l-.865.288-.182.03c-.163 0-.321-.069-.433-.195l-1.75-1.93c-.952.3-2.031-.047-2.391-.944-.082-.206-.125-.426-.125-.646 0-.64.358-1.292 1.133-1.673 3.882-1.906 4.503-4.032 4.503-4.032zm2.758.415c.69.291 1.268.848 1.572 1.598.304.751.276 1.555-.015 2.246l.67.284c.189-.448.289-.933.289-1.428 0-1.439-.852-2.787-2.233-3.372l-.283.672zm-.484 1.147c.398.167.731.488.906.92.175.432.159.894-.008 1.292l.653.277c.238-.566.262-1.223.013-1.837-.249-.614-.722-1.069-1.287-1.308l-.277.656z"/></svg>