<svg xmlns="http://www.w3.org/2000/svg" width="24" height="24" viewBox="0 0 24 24"><path d="M14.666 8.334v3.666l1.463-2.215-1.463-1.451zm-3.092 4.167c.66-.384 1.242-.864 1.758-1.447v1.369c-.445.393-.926.731-1.449 1.018l-.309-.94zm-3.255 2.041c-.652.083-1.57.125-2.319.125v-.97c.688 0 1.551-.037 2.152-.113l.167.958zm2.789-.725l-.036.015c-.586.246-1.22.437-1.91.573l-.167-.958c.655-.131 1.257-.315 1.809-.556l.304.926zm10.892-13.817l-3 11-4.064-3.62 3.9-4.117-5.229 3.614-3.607-.877 12-6zm-3.015 14.779c0 4.546-5.777 9.221-8.221 9.221h-8.764v-22h11.527l-4 2h-5.527v18h5.938c4.155 0 2.638-6 2.638-6 3.349.921 6.003.403 6.003-3.21.28.65.406 1.318.406 1.989z"/></svg>