<svg width="24" height="24" xmlns="http://www.w3.org/2000/svg" fill-rule="evenodd" clip-rule="evenodd"><path d="M2.075 9.479c.266-.562.595-1.133.925-1.634v-1.845c0-3.878 3.822-6 9-6 5.316 0 9 2.043 9 6v1.845c.33.501.659 1.072.925 1.634 1.474.515 2.075 2.217 2.075 4.072 0 1.925-.896 4.738-3.317 5.188-1.959 3.492-4.877 5.261-8.683 5.261-3.805 0-6.724-1.769-8.683-5.261-2.42-.45-3.317-3.263-3.317-5.188 0-1.847.599-3.556 2.075-4.072zm19.865 3.19c-.42.306-1.038.39-1.724.204-1.538-.45-3.52-1.511-8.216-1.498-4.695-.013-6.678 1.048-8.216 1.498-.687.186-1.305.102-1.725-.205-.24 1.606.339 4.103 1.908 4.133.368.007.703.216.871.543 2.39 4.656 5.982 4.656 7.162 4.656 1.181 0 4.771 0 7.162-4.656.168-.327.503-.536.87-.543 1.853-.036 1.968-3.218 1.968-3.25 0-.324-.02-.62-.06-.882zm-6.94 4.331c-.002.007-.768 2.354-3 2.354-2.15 0-2.998-2.347-3-2.354h6zm-6.25-5c-.69 0-1.25.671-1.25 1.5 0 .828.56 1.5 1.25 1.5s1.25-.672 1.25-1.5c0-.829-.56-1.5-1.25-1.5zm7.75 1.5c0 .828-.56 1.5-1.25 1.5s-1.25-.672-1.25-1.5c0-.829.56-1.5 1.25-1.5s1.25.671 1.25 1.5zm3.01-4.254c-2.454-1.152-4.551-1.632-7.51-1.632-2.534 0-4.926.504-7.536 1.673-.337.546-.625 1.107-.79 1.522 2.904-1.005 4.789-1.439 8.326-1.426 3.64-.013 5.529.457 8.326 1.426-.17-.425-.468-1.005-.816-1.563zm-10.51-3.246h6v-3.17l-3 2-3-2v3.17zm5.996-4h-5.992l2.996 2 2.996-2z"/></svg>