<svg clip-rule="evenodd" fill-rule="evenodd" stroke-linejoin="round" stroke-miterlimit="2" viewBox="0 0 24 24" xmlns="http://www.w3.org/2000/svg"><path d="m17.495 11c2.484 0 4.5 2.016 4.5 4.5s-2.016 4.5-4.5 4.5c-2.483 0-4.5-2.016-4.5-4.5s2.017-4.5 4.5-4.5zm-5.979 5c.043.522.153 1.025.321 1.5h-9.092c-.414 0-.75-.336-.75-.75s.336-.75.75-.75zm6.686-.5s.642-.642 1.061-1.061c.188-.187.188-.519 0-.707-.188-.187-.52-.187-.707 0-.419.419-1.061 1.061-1.061 1.061s-.641-.642-1.06-1.061c-.188-.187-.52-.187-.707 0-.188.188-.188.52 0 .707.418.419 1.06 1.061 1.06 1.061s-.642.642-1.06 1.061c-.188.187-.188.519 0 .707.187.187.519.187.707 0 .419-.419 1.06-1.061 1.06-1.061s.642.642 1.061 1.061c.187.187.519.187.707 0 .188-.188.188-.52 0-.707-.419-.419-1.061-1.061-1.061-1.061zm-5.579-3.5c-.329.456-.595.96-.786 1.5h-9.092c-.414 0-.75-.336-.75-.75s.336-.75.75-.75zm7.372-3.25c0-.414-.336-.75-.75-.75h-16.5c-.414 0-.75.336-.75.75s.336.75.75.75h16.5c.414 0 .75-.336.75-.75zm0-4c0-.414-.336-.75-.75-.75h-16.5c-.414 0-.75.336-.75.75s.336.75.75.75h16.5c.414 0 .75-.336.75-.75z" fill-rule="nonzero"/></svg>